<mxfile host="app.diagrams.net" modified="2024-07-17T02:27:46.275Z" agent="Mozilla/5.0 (X11; Linux x86_64) AppleWebKit/537.36 (KHTML, like Gecko) Chrome/126.0.0.0 Safari/537.36" etag="efofNqnh5FfHucRfVIDf" version="24.7.0" type="github">
  <diagram name="第 1 页" id="2BU3AcCCbTSWtIDU_5kh">
    <mxGraphModel dx="861" dy="492" grid="1" gridSize="10" guides="1" tooltips="1" connect="1" arrows="1" fold="1" page="1" pageScale="1" pageWidth="827" pageHeight="1169" math="0" shadow="0">
      <root>
        <mxCell id="0" />
        <mxCell id="1" parent="0" />
        <mxCell id="Mbg4xQhO2vMqubRtQ9Se-1" value="" style="shape=image;verticalLabelPosition=bottom;labelBackgroundColor=default;verticalAlign=top;aspect=fixed;imageAspect=0;image=data:image/png,iVBORw0KGgoAAAANSUhEUgAAAgAAAAIACAYAAAD0eNT6AAAABHNCSVQICAgIfAhkiAAAAAlwSFlzAAAOxAAADsQBlSsOGwAAABl0RVh0U29mdHdhcmUAd3d3Lmlua3NjYXBlLm9yZ5vuPBoAACAASURBVHic7d17kCVnfd7x5+3uc5vr7szs7E2r3RUXgSQw2ME3cZGRwOA4BUhasGyIk9gRCOxYlYqdVJxyyYUTTFyVYOxCATuV2AaEkGKbIAgBRNZg4QsGCSGELqxWi7SX2Z3LzpmZc86c091v/lgh7aLd1ezM6X5P9/v9VG2Vdi79/rbVp/vp9337bQkAAAAAAAAAAAAAAAAAAAAAAAAAAAAAAAAAAAAAAAAAAAAAAAAAAAAAAAAAAAAAAAAAAAAAAAAAAAAAAAAAAAAAAAAAAAAAAAAAAAAAAAAAAAAAAAAAAAAAAAAAAAAAAAAAgLMwrgtA8dmrbomObTt2UZSYSUkjJlXFdU1AFkyaGmvjYdtJG0nSm7aprWXZnjVpNzTBbBrYw+Fq72vT++9YzrI9+IUAgAtmr7olmt0y89M2tW9QoKuM1aUSF314KE6UrnaVdleVtjqStRk2ZqQw7JpKeCAMzV3NavQ7L/g/H2tm2CBKjgCANWu+5T2Tq0H6r2TsOyVtdV0PMFCsVdrqKFlalo3jzJszxljTqP1DYIJf3nr3bfdn3iBKhwCA52SvuiWanZr5Fcn+tqQx1/UAgy5ZXlG6uCxr0+wbM0ZBvf6l5Xr4FnoEcCEIADivhWvfs7sXJp8wVj/uuhagSGySKp5fkF3t5tKeiaKOaYTXbf/CJz+bS4MovMB1ARhcc/ve+RNxkHyDiz9w4UwYqLJlQsHwUC7t2Tiu2+XuXcde9/P/PpcGUXj0AOCsTlz77p9SkN4lKZ+zF1BiyWJTydJKLm0ZI4VD9d/bevftv5FLgygsAgCe5cS1N/6wgmC/pFHXtQBlkcyfVNJq59SaUWVs9NemP/9nH8ypQRQQAQBnWHjzzZviaPUbkt3ruhagXKx6M3OyvV4urZkgSDXS+NEdn//413NpEIXDHACcIY46f8jFH8iCUTS5SXndd9k0DdTpfS6XxlBIBAA87cS17/4pSb/gug6grEwUKRwbzq092+1OHbnm5/5Lbg2iUAgAeEaYvtd1CUDZhSPDMkF+p17T7v2K3bevmluDKAwCACRJx6+/6VWyutJ1HUDpBYGCkfwerkmTuHJsrvIfc2sQhUEAgCQpsPZfuK4B8EUw1Mi3waT3jnwbRBEQACB71S2RNbrWdR2AL0wUyVTye39Wutrbevj1/3xXbg2iEAgA0PyWo68Qa/wDuQrqeQ7LW4Xx6o05NogCIABASWpe4boGwDemmvMbtG3yU/k2iEFHAIBkdKnrEgDfmCjKtT2bprtzbRADjwAASdruugDANyYMc23PppZhPpyBAABJNr+VSQCcYnJeid1a1gLAGQgAkFGQuq4B8I71oEUMNAIAZGSXXNcA+MbanK/HgVbzbRCDjgAAWel7rmsAfGOTONf2giCcy7VBDDwCAGSN/Y7rGgDv9JJ82wvMgXwbxKAjAEBBEH7VdQ2Ab9Juvj3ygYn+d64NYuARAKCp2z/0HVk94boOwCe2082vMWOsku6f5NcgioAAAEmSNfbjrmsAfGFXu7JJfkMAplp9dHr/Hcu5NYhCIADgFKv/LinnQUnAT+lKK9f2gjD8vVwbRCHkvBIFBtmJ6276hIx9m+s6gFKLE3WPnVBej+WbSmV+x1funMylMRQKPQB4Wholvymp47oOoMzixSXltiaPkWyt8m/yaQxFQwDA07be/pED1uh3XNcBlFXaWVXabufWnqnV79v5xdv+R24NolAIADjDlsu3vU9GX3RdB1A6SaJ4YTG35kwUdZLayNW5NYjCYQ4AnuXIDTdOVbrBl2X0Yte1AKVgreIT80q7+Tz6Z8IwCYeHXr318x9ljQ+cEz0AeJYdt31kNgzSN0j6rutagMKzVvHcQm4X/yAMkspw7S1c/PFc6AHAOc3c8Mtbg17lU5L9Mde1AEVkk0Tx3IJst5dPg1HUiYYaV3Pxx1oQAHBedt++6mw69T4Ze7PoMQLWLO2sKp4/KaX5vG3b1GsPS+Erd+y/bTaXBlF4BACsyYnr3vmPrDEfNNJPuK4FGGhxonhxKbfZ/iaK2tHQ0L+b/vyffTCXBlEaBABckNnr33m1lflVSW+UVHVdDzAobLerdLmttN2SzeExf1OtzgbV6MNbv3jbbxkpn24GlAoBAOuyuO+XJlbTyjUyeo2RLpd0qWRGJTvsujYgW1ZKrGwaK+0lsqtdpaurUpzRStrGSCZITWhWFEaHTWD+n0z4h9vv/tiD2TQIXxAA4MTRJxf/ttXqMbkQ3hsaqvzd9ovGf9x1HfAPk7oAAPAQAQAAAA8RAAAA8BABAAAADxEAAADwEAEAAAAPEQAAAPAQAQAAAA8RAAAA8BABAAAADxEAAADwEAEAAAAPEQAAAPAQAQAAAA8RAAAA8BABAAAADxEAAADwEAEAAAAPEQAAAPAQAQAAAA8RAAAA8BABAAAAD0WuC4CfKhVzdGSk4roMeMRaqySV0tgqTlKlqXVdEuAUAQBOjI5XHxbnXziUplbtdqKV5Z663cR1OUDuGAIA4KUgMBoejjS9taFNm2quywFyRwAA4L2R0YrGx6uuywByRQAAAEkjo1VVKpwS4Q+OdgCQZIw0zMRUeIQAAABPGWowLxr+IAAAwFOC0ChiGACe4EgHgNNUIk6L8ANHOgCcJiQAwBMc6QBwmoCzIjzBoQ4ApwmM6wqAfBAAAOB0hgQAPxAAAOA0DAHAFxzqAHAaQw8APEEAAADAQwQAAAA8RAAAAMBDBAAAADxEAAAAwEMEAAAAPEQAAADAQwQAAAA8RAAAAMBDBAAAADxEAAAAwEMEAAAAPEQAAADAQwQAAAA8tK73Xp74uV/ZYZL4amt1paQXSdolaXNfK8NA6R07MaYk6VtgjF7yokfHf/+WF/Zre0C/tNux5mY7ubU31F05FN3yvrHcGkRmbGqNbGpsLw5ttxfa1W6U9rqRsX1uKAxiBcGKMcERhcGXkzT48EX7P37fhW4mWusP2n37wlk7uU/Sv1QcX2XpPfCMlbV9PIrTOOzfxvzT++uvqfele5QuLp3352yvp94jB2XV7zPQKaZRV/2nX6Ohd70jk+37wFoF4gaqFExgJIUyYSjVa5Ikm6RKWy2lyy3ZJOlPQ3FSkZJNVtok6TJj9K4jr7p+XrXKn26PL/11s/+WeC2bWVMAmN33rrfMWr1f0gs2UjOAjet97T61P/yxtf+CMbKdbia12NWeWrffJTPUUOOfXp9JG0CRmTBQODqicHRY6XJLSXNJNu1zILeS7fUm1OvdfCS8/93Hrrnh97Z98bb/8Fy/dt67+OZb3jN54vp3/aW1+nNx8QcGQu+er1/QzwfDQxlV8ozO576ceRtAsRkFI8OKtk7LPNU7kIkkqSbLrd88/Oq3Hp554y8+73w/es4AcPy6d718NUjulfSmvhcIYP2Wli/ox029LoXZjtjZVjvT7QNlYcJAlakJhWMj2TbUXd2RNJsPPXn1L5yza+6sZ4Xj177z1cZov4x2ZVcdgDwYI4U59AIAWLtwbFTR5vF1TsVfG5ukUdBe+eTRq29499m+/6wAMHPdTS81gT4liVmpQEkEQw3XJQD4AcHwkMLx8UzbsKk1aav9h4dfd8MNz2r/9L8c3ferWwJjPyuZTZlWBCBXJopkKmt+6AdATsKRoezn6VhrTKvzZyeuftsZj16fEQAi9f6npJ3ZVgLAhaBRd10CgLOINo3JVCqZtmGTNIzj9IzZuk8HgOP73vk2Wf1MphUAcIZhAGBAGaNoU7ZDAZKUrna3zlz9tv/8/b8HkmRvvLESpOZ3M28dgDMmimQihgGAQWRqlVx66dJO72Z71T+rS08FgLl5c4M12pN5ywCcCoYYBgAGVTia8aOBktIkqRwLOv9VenoIwLwz81YBOGdqVdclADgHU61kPhdAkmwc3yBJwcx1N11ipZ/IvEUAzplq7dTCAAAGUh5zdWy3Nz7z+rf/ZBAY+zpluhQBgEFhjBTQCwAMrKCR4TLBp0mT+MZAp17pC8ATQZ15AMCgMlEkE+Twst0kfWUgoxdn3xKAQWFq2Y8xAlg/E+XwtvQk3RpI2p19SwAGhalU8rnDALA+YfYBIE3SoUDSaOYtARgopkovADCwMn57pyTJpkEgKYe+BgCDhAAADC5js5+Xb2QVSHYl85YADJSgypMAwKCySrNvwxgbSOZY5i0BGCwEAGBwJdkHAIVBN5D0SPYtARgkJjD5zDQGcMFsL868jcBEc4Gkf8i8JQCDhxcDAYMnTWWTJPNmTGQeCFIFd2feEoCBE1QIAMCgSVe7+TQUmNuD6Sum/1ZWT+TTIoBBwauBgcGTttqZt2HCMN4av+hPA3PLLamR/jTzFgEMlhzeOgbgAqSp0vZq5s2YWuVvzP5b4kCSkmr8B5Kyjx0ABgZDAMBgiZdWJNlsGzFGMtG7JCmQpK23/fGMpD/ItlXgGTaqDLuuwXvG5LPiGM7LSkOua4B7NkmVrrQybyes1+7ZfvfHHpSeCgCSZE3wXknfy7x1QFKvNrTNdQ2QTMCjgK4liZ10XQPcSxabUprt8/8mDOLUBm/+/t+fDgDTd3xo2cq8XVL2DyACGAisBQC4l7Y7OUz+MzL1+q/t2H/b7Pe/ckb/3/Sdt35FMr+ecRUABgUBAHDK9nqK509m3k40Urtj+923fej0rz1rAHDLnbd+wEj/KfNqADjHEADgjo1jxbPzks124l/YqN+z9Yu3v/UHv37WacBTd/6335y9/qamlX2fpOxfSwQUTPz1+xXf96Bsq5N72+mR433blunTe8ftyopOvv3mvmzrQphGTdVX/5ga77g297aBjbDdnnpz85mv+x8MNz6z7e5P/OzZvnfO54Cm7rz1/Sf23fSAtfZPjMQkFeAp3bvuVuf2T7suoz/69BSAjRPFh4/2ZVsXqvfdxxUf/J5Gfyv/AAKsR7rSUnyymemdvwnCNGzUb9l698ffe66fOe+nf8sdt37GVuLLJftRZf5wIlAA1mr1ri+5rqJvTFCODr7uV/4+8xnUwEbZOFFvdl7xwmKmF/+wXjtgGo2XnO/iLz1HAJBOrRGw5c4Pv8Oa4IeNdIekXt+qBArGdlZlV1Zcl9E/JZkDYONE6cKi6zKAs7JxrHhhUfHMcdlORiv9GSmoVZ8Ihobfum3/J5///Wf9z2fNS4FN3/Gh+yS99ei+X91SUe96K/t6WfNKSVMbqRmAO2XpAQAGibWSej2lq6uy7Y7Sbjb3zcYEqamEMzaK9leMvWXL3bc/ciG/f8FrgW6/4w9OSLr1qT86csONU5U43N2z0eRDV77xTgUmlEx4atumHLcX0NDMYZmkf0tEbHnVS/u2LWyAMaf+ZDwLGefWqzX0jX9yo+sy0A82lUlTKY77NnveWqWBlKSyqZGSH/nzj/x2lMZHgjT++wu94P+gDS8GvuO2j8xKmv3kJ79dTTrp6Ea3hwG1eUdfN7dp73Rft4f1M0GQy/vHcXbWBGobXsxUCkanBtb7+5qNQKcN19/zS7/xgbe+9fK+vDOYhcAB3xmGAQAfEQAA33H9B7xEAAC8RwIAfEQAADzHCADgJwIA4DlLAAC8RAAAPGcMpwHAR3zyAd+xBADgJQIA4Dkr1tAHfEQAAHxHDwDgJQIA4DsCAOAlAgDgO8sQAOAjAgDgO3oAAC8RAADf0QMAeIkAAHiONwEDfiIAAN4jAQA+IgAAHrNpyvUf8BQBAPBZwvg/4CsCAOAxmxIAAF8RAACfJYnrCgA4QgAAPGYZAgC8RQAAfJbSAwD4igAAeIweAMBfUb82tGXLZWl35bv92hxyYK2VtVKSpEoSq243URzzTJhXmATonAmMJibqrsvAOVjp6dWyrJWSOFWcWHVXEyVpsc+XfQsAJ07ITo3ToVBM4dP/laRW7VasViuWZYm40rMxQwCuGUmVCufOwqg9c77sdBItLa0WNkdz1OEMYWA0MlLR5GSNk1LZWSsbx66rAAqrXg+1eXP9VIorIM7wOKswDLRpU01hWNAjG8+Ju39g46Io0HCj4rqMdSEA4JyCwGh8vOa6DGSEu3+gP+qN8Ll/aAARAHBelUqgarWYBzfOz/Z6rksASiGKAhlTvN5SAgCeU61OAPg+U6vK1MvRK5L2StQDEAQKNo27rgIeq0QEAJRQrcph8rQgUOXVP+a6iv4o0RBA9bIXSCHHKdwJguIFgL49BojyYiLgmeo//2YFk5vU++aDUms19/bTY8dlOxtr11r1NwAYo2B4qH/bW2uztYqiH7pMo//23bm3DZzOEABQTkZhGChh1bhTwkDVn3mtqj/zWifNt977+4ofObixjcQ99XOZh2BsVBN/+Uf92yBQMAWcAsAQANbGGBYFKhO7ygRAoJ9MARcDIABgjYp3cOPc0m7+QxcABkuphgAqUaDxzXXVG6Eixq2fJbVWvV6qpcWelpe7F/S7RRzfwrnZ1Qv7/49yGxmpanS8qmolKGRXdtbixKrTTrS40FEvLs9QaCkCQKUSaPfecU1vbRTyWUwXWis9PX6wqYX5zpp+nt1aInHCWwAhSZqYamjPnjE1hkpxKcictVYzx9r63uOL6vWK/xkq/P/1oeGKLr9iUtUaz6pfiKHhii67YlJPHGrqe4eWnvsXmAJQGil3/5C055Ix7bxo1HUZhWKM0bbtQ9o8UdODD8yptVLsuTSFngNQqQa6/CVc/Ddi1+4xbd854roM5CjtEQB8t3PXKBf/DajVQl1+xaQqBV8jpdDV771kE8vU9sGevWOqPUeIsnQBlAbj/36r1UNdvJuL/0ZVa6H27C326pOFDQDVaqipLQ3XZZRCEBht3zl8/h/i+l8OcSJbpiWAccF27hwt5Kp1g2jL9JCqBe4FKGzlE5N1Jqb10cQEYcoHSXttkz5RXhOTddcllIYx0uaJ4u7PwgaAor5+cVA91wt/+rlqHNxJO23XJcChIDC83KvPGo3izqUvbAAIQw7ifgqCU8v9noslARRfmrICoOdCuv77LoyKey0qbABABs53bmC8pfBSuv/BxxinIQBgbegBKDwCAIDTEQCwNlz/iy1NlXZ4/A/AMwgAWBNL12GhJa2OSHEATkcAADyQrrRclwBgwBAAgJJLu13ZHrP/AZypuA8wbkBqpdUS9oZGkipEOvwA7v7RL91USlwXkYGakXx8QtLLADDfkz5wwHUV/feKzdKbtrmuAoPE2lRpi9n/6I9PH5PuXXRdRf/d/Dxpquq6ivxxvwiUmF1u8wgngLMiAAAllrRWXJcAYEARAICSSltt2V4ZR2wB9AMBACipZGnZdQkABhgBACihtNWR7cWuywAwwAgAQMlYKyXNJddlABhwBACgZOxKSzbm7h/A+Xm5DkDFSHtGyrfqw2SNx718Z9NU8RJ3/8jGVF3ak5Tv3Fkxfp47vQwAUSBdNOS6iv7b7OFCFjhTstiUktR1GSipiap0UQmvlZGnfeGe/rOBAmvUz/plu9pVutLOuZhTTK3ipF0A60cAAAometnlz/6iteotnMy/mKdUX/FyZ20DWB8vhwCAIqtefaXs4pK6X/qq7FOz/eOTTSnOf9EfU4lU+ZGXaPhf/1LubQPYGAIAUDTGqHbdG1W77o2uKwFQYAwBAADgIQIAAAAeIgAAAOAhAgAAAB4iAAAA4CECAAAAHiIAAADgIQIAAAAeIgAAAOAhAgAAAB4iAAAA4CECAAAAHiIAAADgIQIAAAAe8vJ1wJVAunTIui6j70ZD1xUAKLNtVWkkLN+5s+LprbCXAaBqpL0N11UAQLFsqUpbXBeBvvE09wAA4DcCAAAAHiIAAADgIQIAAAAeIgAAAOAhAgAAAB4qbACwaeq6hNKxafme7wXwDD7i/Vfka1FhA0C3W9ydPoh6vVQpZweg1JI4VRJz7uyn1QJfiwobABZPdlyXUCrsT8APi4td1yWUSvPkqusS1q2wAWB5uafWSs91GaUxc6zlugQAOZiZ4bPeL62VnpaWihuoChsArJUOPrYoS6/1hi3MdXRyobgpFsDazc+2tVjgu9ZBYa302IFF12VsSGEDgCSdXFjVoYNN12UUWmulp0ceXnBdBoAcPfzgvNrt2HUZhfb4wcXCB6lCBwBJOvzkkh55aF49JrZcsNkTLX3rm7OK2XeAV3pxqm/de0Lzc23XpRROL0718HcWdOTJZdelbFgp3gZ44nhbC3Or2rJtSBMTddXroSJf3+94HjaVur1YzZNdnTjeLvTYFYCN6cWpvvPteY2NVTU1PaSx8aqqlVCGU+ezxL1UnU6i+fmOTsy0SnPTVIoAIElxkuro4WUdPVz8VAYAeWk2u2o2uRnwUWkCAFAEDy0E+sZsoKMrRotdo8TzSayhkcarVjuGrV4+lepFm8txZwUUAQEAyMFMy+hPHop0oEn/6g+aaRk9clLafzjU88dT/eKLYk03PE9GQA44GwEZO7hk9P5vVLn4r8F3FwP97terenzJuC4FKD3OSECGlnpGt36rohWeuFqzlVj60LcqWu4RAoAsEQCADH32UKjFLheyC7XYNfrsodB1GUCpEQCAjMSp9DfHuIit11ePhSrJ01bAQCIAABl5fCkQi62tXzuWDi1zigKywqcLyEjBVwkdCLyiAsgOAQDISMina8Mipk8AmeEUBWRkqs6z7BvFPgSyQwAAMnLRiNWmGhew9dpcs9o5wv4DskIAADJiJL1+V+K6jMJ6/a5EjAAA2SEAABl6zY5Ee8d4lu1CXTKW6tU7CE9AlggAQIaiQLrpilgX0ZW9ZrtGrG66IlbE2QnIFB8xIGPjVavfeHlX11yUcFE7jyiQXrcr0a+/vKuxKoEJyBpvAwRyUAulfc+P9cY9iR6YO/U64BaLBEmShiJpx7DVFZOJhjkjAbnh4wbkaCSy+vGtjG0DcI8OSQAAPEQAAADAQwQAAAA8RAAAAMBDBAAAADxEAAAAwEMEAAAAPEQAAADAQwQAAAA8RAAAAMBDBAAAADxEAAAAwEMEAAAAPEQAAADAQwQAAAA8FLkuoF9q9VDbd4xoYqKuWj1UEBjXJQ2kXi9Vs7mqEzNtzc22XZcDwCFjpMmphrZMD2l0rKpKhXvCs0lTq9VOovn5jo4eWdZqJ3FdUl+UIgDsvGhUF+8Z5aK/BpVKoMnJhiYnG2o2u3r4wXl1u+U4mAGsXa0e6tIXT2h0tOq6lIEXBEaNoUg7h0a0fcewvvd4U4efXHZd1oYVPu7tfd649lwyxsV/HcbGqvqhl29RtRq6LgVAjmr1UD/0smku/usQBEZ7LhnX3ueNuy5lwwodAKa2DGnHzhHXZRRatRbq0ssmXJcBICfGSC+6bEKVaqFP/87t2DmiqamG6zI2pLBDAMYY7dk75rqMUhgbq2pyqsGcgJwsdo2OrhitxK4rGQzDkbR92Gq8al2X4oUt0w2NjHDn3w97LhnX3FxH1hbz2C1sABgbr6pWp+u6X6a3DhEAMvbAXKDPHAp1sBmomKeL7BhJl4yl+sd7El0+kboup9Smp4ddl1AatXqosbGKFhe7rktZl+IGgLGa6xJKZXScO4KsJFb6xKORvnyEwHouVtKBZqAP3h/oNTsSve0FsUKm9WRiZIzPej+NjtcKGwAKOwhUZfyqrypRwETKjHDxvzB/dSTURx8u7L3JQIuiQCHJqq9qBZ5EXdyrqOEg7jdDAOi7+2cDLv7r8NVjob41V9zT06DitJmBAu9UPmFAhu56nDvZ9fo0+w7IFAEAyMhcx+jQcnHvDlw7tGQ0v8r+A7JCAAAycmSFi9dGHSFAAZkhAAAZabPC8oa12IdAZggAQEZGK64rKL4x9iGQGQIAkJHdIynPsm9AaKRdoywKBGTFy2m2K4n0xROuq+i/3Q3pZcV/P0VpDFWkKyZTfXOWnL0eV0ymGvbyDDW4vrEoPVHCBUOv2SINe/i0rpcfr3YifW3BdRXZIAAMljftifXt+apibmQvSBRIb97LyxIGzcEV6d5F11X035UTfgYAbk2ADO0csfq558diJGDtjKQbXhBrxzBvTACy5GUPAJCnV+1IVIusPvpwRavMaj+veiS9/YU9vWKaLhMgawQAIAc/Op3qxZu7+sIToe6bDTTTok/gdFuHrF4+leqaXYlGK9z5A3kgAAA5Ga1YXXtJrGsvkeJUWuoZJZ7f6IbBqf0SMRgJ5I4AADgQBdLmGne6ANwhdwMA4CFvewDKOAJbxn8TgMFhxHmmTLwMAI1QunK6fIfxrjpdygCy84IxaahWvnNnI/Tz3MkQAAAAHiIAAADgIQIAAAAeIgAAAOAhAgAAAB4iAAAA4CECAAAAHiIAAADgIQIAAAAeIgAAAOAhAgAAAB4iAAAA4CECAAAAHiIAAADgIQIAAAAeIgAAAOAhAgAAAB4iAAAA4CECAAAAHopcF+DCcCi9YdK6LgMACuUlI9JLRjh3lgU9AAAAeIgAAACAhwgAAAB4iAAAAICHCAAAAHiIAAAAgIcKHAB4FKXv2KVAufEZz0Bxd2phA0Acp65LKJU0tUoS9ilQZnGSyhb3ejWQ4l5xz5uFDQDtVuy6hFJpt9mfQNlZK3X4rPdVu91zXcK6FTYALMx3ZImyfTM323FdAoAczM+1XZdQGmlqtTC36rqMdStsAOj1Uh070nJdRinEcapjh5ddlwEgB4efXFbCEGpfHDu6ol6B92VhA4AkHTrUVGuluN0vg+LAo4uFPogBrF2vl+qxAyddl1F47VasJw4tuS5jQwodAJI41YPfntPKMiFgPdLU6sCjC5o9QU8K4JPjM209dmCRYdR1Wlnp6dvfmi38ZPTCvw1wtZPoW988oR0XjWr7zmFVokJnmlxYKy0udPT4waZW6EEBvHT08LKWm13t3jumsfGajHFd0eDrxamOPrmiI4eXlCTFD0+FDwCSlCRWTxxq6snvLWl0tKJ6I1KlEkoc0GdIklTdbqqlxVX1CvzoCoD+WFrq6oH7Z1WpBhodLMkMxwAACUlJREFUq6lWCxQE3ESdwUq9XqJOO9bSUq9UvSalCADfZ61Vs9lVs9l1XQoAFEavm2p+lqcDfFOqAAD0Q5qmWlhqaX5pRWlKT0mRBUGgidFhbR4d4s4W+AEEAOApT8zM62Ofu0d/fd+jara4GyqT8eGGXvmyF+rtb7hSO6c3uy4HGAgEAEDSHXf/vW79X19SnCSuS0EGFlfa+sw939T//dsH9J7rr9Z1r32F65IA5wgA8N5HP3ePPvIX+12XgRzESaLfv/3zWu319PM//ZOuywGcYlAMXnvgscP647/8K9dlIGcf+Yv9evDgEddlAE4RAOC1P/7UfqUleqwHa5Naqz/61H7XZQBOEQDgrYXmiu57+JDrMuDIvQ89rvnmiusyAGcIAPDWw4eOcvfvsdRaffeJY67LAJwhAMBbC8s86ue7uSbvwYC/CADwVpKwyI/vOAbgMwIAAAAeIgAAAOAhAgAAAB4iAAAA4CECAAAAHiIAAADgIV4GBKzTZT97vaJq1XUZ53Xgr7+klePrW+xmdOsO7b3yqv4W1Gdxt6sH77rTdRlAIREAgHXadNHFiuoN12WcV7VW13oXu40aDW26eG9f6+m3uMNiTsB6MQQAAICHCAAAAHiIAAAAgIcIAAAAeIgAAACAhwgAAAB4iMcAgXW6ZESqDvZTgPpuJC2s83eHI+n5o30t55wSa5RaqZNIy7FVK5GszadtwFcEAGCdphtG9YZxXcZ51TbQx1cLpG1O/n1GnUR6uCkt9UgBQFYYAgAwcOqhdNm4FAx2vgIKjQAAYCBVAmlTxXUVQHkRAAAMrCEGKYHMEAAADCyGAIDsEAAADCwjEgCQlVJ1sIWh0fimmmr1SAG3Ds9mpV4vUbPZVacdu64GeE48A5CPxlCk0dGqKpVQZK5nS1OrTidW8+SqkqQ8R2UpAkAUBdq1e1Tbtg9z4V+jpaWeDj12UouLXdelAOdkWQwgU+Oba9qzd0wjI1XXpRRCmlodO7qiJx5fUpykrsvZsMIHgMZQpMsun1S9Ufh/Sq5GRyu6/KVbdOhgU4efXHJdDnBWxT/FDq5du8d08e6cVnoqiSAw2rFzRBMTdT34wJzaBe9JLfQcgEoU6PIrprj4r5Mx0p5LxrR125DrUoCzIgBkY/vOES7+G1BvRLr8JVOqRIW+hBY7AOy+ZFy1eui6jMLb+7xNqlQLfSigpKxlSK/fqrVQe/aOuS6j8Gr1UBfvHXddxoYU9qxfqQaa3sqdaz+E4aluLWDQMAWg/3ZeNMJcqT7Zuq2hSqWwl9HiBoCJiboMx3DfTEzUXZcAPAvX//6bmOSz3i/GmELvz8IGgAZLhPUV8yiA8jPGqFbjs95PRT53FjYAhCFj//0UBEZhWNjDAcAaRKGh57TPoqi41yLO+HgGJwag3PiM4zQEAAAAPEQAAADAQwQAAAA8RAAAAMBDBAAAADxU3AcYNyC10moJVxiJJBV4USoAA66bSonrIjJQM5KPiyN6GQDme9IHDriuov9esVl60zbXVQAoq08fk+5ddF1F/938PGnKwzcic78IAICHCAAAAHiIAAAAgIcIAAAAeIgAAACAhwgAAAB4iAAAAICHvFwHoGKk3cPlW/VhslrC1Y0ADIypWjnPnRXj57nTywAQBdKuYddV9N/mmusKAJTZRE3a5bqIDESe9oV7+s8GAMBvBAAAADxEAAAAwEMEAAAAPEQAAADAQwQAAAA8RAAAAMBDBAAAADxEAAAAwEMEAAAAPEQAAADAQwQAAAA8RAAAAMBDBAAAADxEAAAAwEMEAAAAPEQAAADAQwQAAAA8FLkuwIVKIF06ZF2X0XejoesKAJTZtqo0Epbv3Fnx9FbYywBQNdLehusqAKBYtlSlLa6LQN94mnsAAPAbAQAAAA8RAAAA8BABAAAADxEAAADwEAEAAAAPFTYA2LR8z6K6xj4Fyo2PeP/ZNHVdwroVNgB0u4nrEkql10uVcnYASi2JUyVJcS9Yg2i1W9z9WdgA0FxcdV1CqSyeZH8CPmie7LouoVSaJzuuS1i3wgaApaWu2q3YdRmlcXym5boEADmY4bPeN62VnpaXe67LWLfCBgBrpcceW3RdRikszHe0MF/cFAtg7eZm22rS47dh1koHH1uULfDIaWEDgCSdnO/o0MGm6zIKrd2K9ehDC67LAJCjh74zr06bHtSNOHSwqZMLxQ5ShQ4AkvTkE0t69OEFxXFxJ2K4Mjfb1v33nlCPfQd4pddLdf+9J7QwR8/fherFqR55aF6Hn1xyXcqGleJtgMdnWlqY62jLtiFNTNRVb0QKQ+O6rIFjrdRdTdRsdjV7vKVmk8lAgK96caoHvz2n8fGqpqaHNDZWVaUaynDqfJYkseq0Y83PdXR8plWaG85SBADp1MF85MllHXly2XUpAFAYi4tdLS5yM+Cjwg8BAACAC0cAAADAQwQAAAA8RAAAAMBDBAAAADxEAAAAwEMEAAAAPEQAAADAQwQAAAA8RAAAAMBDBAAAADxEAAAAwEMEAAAAPEQAAADAQwQAAAA8RAAAAMBDBAAAADxEAAAAwEMEAAAAPEQAAADAQwQAAAA8RAAAAMBDBAAAADxEAAAAwEMEAAAAPEQAAADAQwQAAAA8RAAAAMBDBAAAADxEAAAAwEMEAAAAPNS3ALBvn1JJJ/u1PQAA8IwgMHbfvsvivm2vXxsyxlgr3dWv7QEAgGdEkTlojEn7tb2+DgHYsHuzpC/2c5sAAPiuWgnnbGTe0M9tRv3c2DXXvHhO0uu+8IUDF4dWLzCpTD+3D3ca1egKq7Tar+0tNXvxkcPLz3n8RZWwvWVr4zv9avd0E+NDk2+56od3n+v7M22ttlN7zpAcG3ufDYK+dcdl4aLdu1+4aWLz2Nm+Z4y11ppzfkZHx0YXbRA8ml11z22oavdulZ081/fjMAxf+tprnneu7zfi1eaOYGXuXN+fGB86ZI3O+H5YCcaHhqNzbnOtVjvpxWma1J7r5+KeHjFW9260PbhVqZidQ41wa7+3a0KTpmn6lTdff9nf9XvbAAAAAAAAAAAAAAAAAAAAAAAAAAAAAAAAAAAAAAAAAAAAAAAAAAAAAAAAAAAAAAAAAAAAAAAAAAAAAAAAAAAAAAAAAAAAAAAAAAAAAAAAAAAAAAAAAAAAAAAAAAAAAAAAAACc1f8HnkTJYcEo/csAAAAASUVORK5CYII=;" vertex="1" parent="1">
          <mxGeometry x="220" y="150" width="30" height="30" as="geometry" />
        </mxCell>
        <mxCell id="Mbg4xQhO2vMqubRtQ9Se-2" value="" style="shape=image;verticalLabelPosition=bottom;labelBackgroundColor=default;verticalAlign=top;aspect=fixed;imageAspect=0;image=data:image/png,iVBORw0KGgoAAAANSUhEUgAAAgAAAAIACAYAAAD0eNT6AAAABHNCSVQICAgIfAhkiAAAAAlwSFlzAAAOxAAADsQBlSsOGwAAABl0RVh0U29mdHdhcmUAd3d3Lmlua3NjYXBlLm9yZ5vuPBoAACAASURBVHic7d17kCVnfd7x5+3uc5vr7szs7E2r3RUXgSQw2ME3cZGRwOA4BUhasGyIk9gRCOxYlYqdVJxyyYUTTFyVYOxCATuV2AaEkGKbIAgBRNZg4QsGCSGELqxWi7SX2Z3LzpmZc86c091v/lgh7aLd1ezM6X5P9/v9VG2Vdi79/rbVp/vp9337bQkAAAAAAAAAAAAAAAAAAAAAAAAAAAAAAAAAAAAAAAAAAAAAAAAAAAAAAAAAAAAAAAAAAAAAAAAAAAAAAAAAAAAAAAAAAAAAAAAAAAAAAAAAAAAAAAAAAAAAAAAAAAAAAAAAgLMwrgtA8dmrbomObTt2UZSYSUkjJlXFdU1AFkyaGmvjYdtJG0nSm7aprWXZnjVpNzTBbBrYw+Fq72vT++9YzrI9+IUAgAtmr7olmt0y89M2tW9QoKuM1aUSF314KE6UrnaVdleVtjqStRk2ZqQw7JpKeCAMzV3NavQ7L/g/H2tm2CBKjgCANWu+5T2Tq0H6r2TsOyVtdV0PMFCsVdrqKFlalo3jzJszxljTqP1DYIJf3nr3bfdn3iBKhwCA52SvuiWanZr5Fcn+tqQx1/UAgy5ZXlG6uCxr0+wbM0ZBvf6l5Xr4FnoEcCEIADivhWvfs7sXJp8wVj/uuhagSGySKp5fkF3t5tKeiaKOaYTXbf/CJz+bS4MovMB1ARhcc/ve+RNxkHyDiz9w4UwYqLJlQsHwUC7t2Tiu2+XuXcde9/P/PpcGUXj0AOCsTlz77p9SkN4lKZ+zF1BiyWJTydJKLm0ZI4VD9d/bevftv5FLgygsAgCe5cS1N/6wgmC/pFHXtQBlkcyfVNJq59SaUWVs9NemP/9nH8ypQRQQAQBnWHjzzZviaPUbkt3ruhagXKx6M3OyvV4urZkgSDXS+NEdn//413NpEIXDHACcIY46f8jFH8iCUTS5SXndd9k0DdTpfS6XxlBIBAA87cS17/4pSb/gug6grEwUKRwbzq092+1OHbnm5/5Lbg2iUAgAeEaYvtd1CUDZhSPDMkF+p17T7v2K3bevmluDKAwCACRJx6+/6VWyutJ1HUDpBYGCkfwerkmTuHJsrvIfc2sQhUEAgCQpsPZfuK4B8EUw1Mi3waT3jnwbRBEQACB71S2RNbrWdR2AL0wUyVTye39Wutrbevj1/3xXbg2iEAgA0PyWo68Qa/wDuQrqeQ7LW4Xx6o05NogCIABASWpe4boGwDemmvMbtG3yU/k2iEFHAIBkdKnrEgDfmCjKtT2bprtzbRADjwAASdruugDANyYMc23PppZhPpyBAABJNr+VSQCcYnJeid1a1gLAGQgAkFGQuq4B8I71oEUMNAIAZGSXXNcA+MbanK/HgVbzbRCDjgAAWel7rmsAfGOTONf2giCcy7VBDDwCAGSN/Y7rGgDv9JJ82wvMgXwbxKAjAEBBEH7VdQ2Ab9Juvj3ygYn+d64NYuARAKCp2z/0HVk94boOwCe2082vMWOsku6f5NcgioAAAEmSNfbjrmsAfGFXu7JJfkMAplp9dHr/Hcu5NYhCIADgFKv/LinnQUnAT+lKK9f2gjD8vVwbRCHkvBIFBtmJ6276hIx9m+s6gFKLE3WPnVBej+WbSmV+x1funMylMRQKPQB4Wholvymp47oOoMzixSXltiaPkWyt8m/yaQxFQwDA07be/pED1uh3XNcBlFXaWVXabufWnqnV79v5xdv+R24NolAIADjDlsu3vU9GX3RdB1A6SaJ4YTG35kwUdZLayNW5NYjCYQ4AnuXIDTdOVbrBl2X0Yte1AKVgreIT80q7+Tz6Z8IwCYeHXr318x9ljQ+cEz0AeJYdt31kNgzSN0j6rutagMKzVvHcQm4X/yAMkspw7S1c/PFc6AHAOc3c8Mtbg17lU5L9Mde1AEVkk0Tx3IJst5dPg1HUiYYaV3Pxx1oQAHBedt++6mw69T4Ze7PoMQLWLO2sKp4/KaX5vG3b1GsPS+Erd+y/bTaXBlF4BACsyYnr3vmPrDEfNNJPuK4FGGhxonhxKbfZ/iaK2tHQ0L+b/vyffTCXBlEaBABckNnr33m1lflVSW+UVHVdDzAobLerdLmttN2SzeExf1OtzgbV6MNbv3jbbxkpn24GlAoBAOuyuO+XJlbTyjUyeo2RLpd0qWRGJTvsujYgW1ZKrGwaK+0lsqtdpaurUpzRStrGSCZITWhWFEaHTWD+n0z4h9vv/tiD2TQIXxAA4MTRJxf/ttXqMbkQ3hsaqvzd9ovGf9x1HfAPk7oAAPAQAQAAAA8RAAAA8BABAAAADxEAAADwEAEAAAAPEQAAAPAQAQAAAA8RAAAA8BABAAAADxEAAADwEAEAAAAPEQAAAPAQAQAAAA8RAAAA8BABAAAADxEAAADwEAEAAAAPEQAAAPAQAQAAAA8RAAAA8BABAAAAD0WuC4CfKhVzdGSk4roMeMRaqySV0tgqTlKlqXVdEuAUAQBOjI5XHxbnXziUplbtdqKV5Z663cR1OUDuGAIA4KUgMBoejjS9taFNm2quywFyRwAA4L2R0YrGx6uuywByRQAAAEkjo1VVKpwS4Q+OdgCQZIw0zMRUeIQAAABPGWowLxr+IAAAwFOC0ChiGACe4EgHgNNUIk6L8ANHOgCcJiQAwBMc6QBwmoCzIjzBoQ4ApwmM6wqAfBAAAOB0hgQAPxAAAOA0DAHAFxzqAHAaQw8APEEAAADAQwQAAAA8RAAAAMBDBAAAADxEAAAAwEMEAAAAPEQAAADAQwQAAAA8RAAAAMBDBAAAADxEAAAAwEMEAAAAPEQAAADAQwQAAAA8tK73Xp74uV/ZYZL4amt1paQXSdolaXNfK8NA6R07MaYk6VtgjF7yokfHf/+WF/Zre0C/tNux5mY7ubU31F05FN3yvrHcGkRmbGqNbGpsLw5ttxfa1W6U9rqRsX1uKAxiBcGKMcERhcGXkzT48EX7P37fhW4mWusP2n37wlk7uU/Sv1QcX2XpPfCMlbV9PIrTOOzfxvzT++uvqfele5QuLp3352yvp94jB2XV7zPQKaZRV/2nX6Ohd70jk+37wFoF4gaqFExgJIUyYSjVa5Ikm6RKWy2lyy3ZJOlPQ3FSkZJNVtok6TJj9K4jr7p+XrXKn26PL/11s/+WeC2bWVMAmN33rrfMWr1f0gs2UjOAjet97T61P/yxtf+CMbKdbia12NWeWrffJTPUUOOfXp9JG0CRmTBQODqicHRY6XJLSXNJNu1zILeS7fUm1OvdfCS8/93Hrrnh97Z98bb/8Fy/dt67+OZb3jN54vp3/aW1+nNx8QcGQu+er1/QzwfDQxlV8ozO576ceRtAsRkFI8OKtk7LPNU7kIkkqSbLrd88/Oq3Hp554y8+73w/es4AcPy6d718NUjulfSmvhcIYP2Wli/ox029LoXZjtjZVjvT7QNlYcJAlakJhWMj2TbUXd2RNJsPPXn1L5yza+6sZ4Xj177z1cZov4x2ZVcdgDwYI4U59AIAWLtwbFTR5vF1TsVfG5ukUdBe+eTRq29499m+/6wAMHPdTS81gT4liVmpQEkEQw3XJQD4AcHwkMLx8UzbsKk1aav9h4dfd8MNz2r/9L8c3ferWwJjPyuZTZlWBCBXJopkKmt+6AdATsKRoezn6VhrTKvzZyeuftsZj16fEQAi9f6npJ3ZVgLAhaBRd10CgLOINo3JVCqZtmGTNIzj9IzZuk8HgOP73vk2Wf1MphUAcIZhAGBAGaNoU7ZDAZKUrna3zlz9tv/8/b8HkmRvvLESpOZ3M28dgDMmimQihgGAQWRqlVx66dJO72Z71T+rS08FgLl5c4M12pN5ywCcCoYYBgAGVTia8aOBktIkqRwLOv9VenoIwLwz81YBOGdqVdclADgHU61kPhdAkmwc3yBJwcx1N11ipZ/IvEUAzplq7dTCAAAGUh5zdWy3Nz7z+rf/ZBAY+zpluhQBgEFhjBTQCwAMrKCR4TLBp0mT+MZAp17pC8ATQZ15AMCgMlEkE+Twst0kfWUgoxdn3xKAQWFq2Y8xAlg/E+XwtvQk3RpI2p19SwAGhalU8rnDALA+YfYBIE3SoUDSaOYtARgopkovADCwMn57pyTJpkEgKYe+BgCDhAAADC5js5+Xb2QVSHYl85YADJSgypMAwKCySrNvwxgbSOZY5i0BGCwEAGBwJdkHAIVBN5D0SPYtARgkJjD5zDQGcMFsL868jcBEc4Gkf8i8JQCDhxcDAYMnTWWTJPNmTGQeCFIFd2feEoCBE1QIAMCgSVe7+TQUmNuD6Sum/1ZWT+TTIoBBwauBgcGTttqZt2HCMN4av+hPA3PLLamR/jTzFgEMlhzeOgbgAqSp0vZq5s2YWuVvzP5b4kCSkmr8B5Kyjx0ABgZDAMBgiZdWJNlsGzFGMtG7JCmQpK23/fGMpD/ItlXgGTaqDLuuwXvG5LPiGM7LSkOua4B7NkmVrrQybyes1+7ZfvfHHpSeCgCSZE3wXknfy7x1QFKvNrTNdQ2QTMCjgK4liZ10XQPcSxabUprt8/8mDOLUBm/+/t+fDgDTd3xo2cq8XVL2DyACGAisBQC4l7Y7OUz+MzL1+q/t2H/b7Pe/ckb/3/Sdt35FMr+ecRUABgUBAHDK9nqK509m3k40Urtj+923fej0rz1rAHDLnbd+wEj/KfNqADjHEADgjo1jxbPzks124l/YqN+z9Yu3v/UHv37WacBTd/6335y9/qamlX2fpOxfSwQUTPz1+xXf96Bsq5N72+mR433blunTe8ftyopOvv3mvmzrQphGTdVX/5ga77g297aBjbDdnnpz85mv+x8MNz6z7e5P/OzZvnfO54Cm7rz1/Sf23fSAtfZPjMQkFeAp3bvuVuf2T7suoz/69BSAjRPFh4/2ZVsXqvfdxxUf/J5Gfyv/AAKsR7rSUnyymemdvwnCNGzUb9l698ffe66fOe+nf8sdt37GVuLLJftRZf5wIlAA1mr1ri+5rqJvTFCODr7uV/4+8xnUwEbZOFFvdl7xwmKmF/+wXjtgGo2XnO/iLz1HAJBOrRGw5c4Pv8Oa4IeNdIekXt+qBArGdlZlV1Zcl9E/JZkDYONE6cKi6zKAs7JxrHhhUfHMcdlORiv9GSmoVZ8Ihobfum3/J5///Wf9z2fNS4FN3/Gh+yS99ei+X91SUe96K/t6WfNKSVMbqRmAO2XpAQAGibWSej2lq6uy7Y7Sbjb3zcYEqamEMzaK9leMvWXL3bc/ciG/f8FrgW6/4w9OSLr1qT86csONU5U43N2z0eRDV77xTgUmlEx4atumHLcX0NDMYZmkf0tEbHnVS/u2LWyAMaf+ZDwLGefWqzX0jX9yo+sy0A82lUlTKY77NnveWqWBlKSyqZGSH/nzj/x2lMZHgjT++wu94P+gDS8GvuO2j8xKmv3kJ79dTTrp6Ea3hwG1eUdfN7dp73Rft4f1M0GQy/vHcXbWBGobXsxUCkanBtb7+5qNQKcN19/zS7/xgbe+9fK+vDOYhcAB3xmGAQAfEQAA33H9B7xEAAC8RwIAfEQAADzHCADgJwIA4DlLAAC8RAAAPGcMpwHAR3zyAd+xBADgJQIA4Dkr1tAHfEQAAHxHDwDgJQIA4DsCAOAlAgDgO8sQAOAjAgDgO3oAAC8RAADf0QMAeIkAAHiONwEDfiIAAN4jAQA+IgAAHrNpyvUf8BQBAPBZwvg/4CsCAOAxmxIAAF8RAACfJYnrCgA4QgAAPGYZAgC8RQAAfJbSAwD4igAAeIweAMBfUb82tGXLZWl35bv92hxyYK2VtVKSpEoSq243URzzTJhXmATonAmMJibqrsvAOVjp6dWyrJWSOFWcWHVXEyVpsc+XfQsAJ07ITo3ToVBM4dP/laRW7VasViuWZYm40rMxQwCuGUmVCufOwqg9c77sdBItLa0WNkdz1OEMYWA0MlLR5GSNk1LZWSsbx66rAAqrXg+1eXP9VIorIM7wOKswDLRpU01hWNAjG8+Ju39g46Io0HCj4rqMdSEA4JyCwGh8vOa6DGSEu3+gP+qN8Ll/aAARAHBelUqgarWYBzfOz/Z6rksASiGKAhlTvN5SAgCeU61OAPg+U6vK1MvRK5L2StQDEAQKNo27rgIeq0QEAJRQrcph8rQgUOXVP+a6iv4o0RBA9bIXSCHHKdwJguIFgL49BojyYiLgmeo//2YFk5vU++aDUms19/bTY8dlOxtr11r1NwAYo2B4qH/bW2uztYqiH7pMo//23bm3DZzOEABQTkZhGChh1bhTwkDVn3mtqj/zWifNt977+4ofObixjcQ99XOZh2BsVBN/+Uf92yBQMAWcAsAQANbGGBYFKhO7ygRAoJ9MARcDIABgjYp3cOPc0m7+QxcABkuphgAqUaDxzXXVG6Eixq2fJbVWvV6qpcWelpe7F/S7RRzfwrnZ1Qv7/49yGxmpanS8qmolKGRXdtbixKrTTrS40FEvLs9QaCkCQKUSaPfecU1vbRTyWUwXWis9PX6wqYX5zpp+nt1aInHCWwAhSZqYamjPnjE1hkpxKcictVYzx9r63uOL6vWK/xkq/P/1oeGKLr9iUtUaz6pfiKHhii67YlJPHGrqe4eWnvsXmAJQGil3/5C055Ix7bxo1HUZhWKM0bbtQ9o8UdODD8yptVLsuTSFngNQqQa6/CVc/Ddi1+4xbd854roM5CjtEQB8t3PXKBf/DajVQl1+xaQqBV8jpdDV771kE8vU9sGevWOqPUeIsnQBlAbj/36r1UNdvJuL/0ZVa6H27C326pOFDQDVaqipLQ3XZZRCEBht3zl8/h/i+l8OcSJbpiWAccF27hwt5Kp1g2jL9JCqBe4FKGzlE5N1Jqb10cQEYcoHSXttkz5RXhOTddcllIYx0uaJ4u7PwgaAor5+cVA91wt/+rlqHNxJO23XJcChIDC83KvPGo3izqUvbAAIQw7ifgqCU8v9noslARRfmrICoOdCuv77LoyKey0qbABABs53bmC8pfBSuv/BxxinIQBgbegBKDwCAIDTEQCwNlz/iy1NlXZ4/A/AMwgAWBNL12GhJa2OSHEATkcAADyQrrRclwBgwBAAgJJLu13ZHrP/AZypuA8wbkBqpdUS9oZGkipEOvwA7v7RL91USlwXkYGakXx8QtLLADDfkz5wwHUV/feKzdKbtrmuAoPE2lRpi9n/6I9PH5PuXXRdRf/d/Dxpquq6ivxxvwiUmF1u8wgngLMiAAAllrRWXJcAYEARAICSSltt2V4ZR2wB9AMBACipZGnZdQkABhgBACihtNWR7cWuywAwwAgAQMlYKyXNJddlABhwBACgZOxKSzbm7h/A+Xm5DkDFSHtGyrfqw2SNx718Z9NU8RJ3/8jGVF3ak5Tv3Fkxfp47vQwAUSBdNOS6iv7b7OFCFjhTstiUktR1GSipiap0UQmvlZGnfeGe/rOBAmvUz/plu9pVutLOuZhTTK3ipF0A60cAAAometnlz/6iteotnMy/mKdUX/FyZ20DWB8vhwCAIqtefaXs4pK6X/qq7FOz/eOTTSnOf9EfU4lU+ZGXaPhf/1LubQPYGAIAUDTGqHbdG1W77o2uKwFQYAwBAADgIQIAAAAeIgAAAOAhAgAAAB4iAAAA4CECAAAAHiIAAADgIQIAAAAeIgAAAOAhAgAAAB4iAAAA4CECAAAAHiIAAADgIQIAAAAe8vJ1wJVAunTIui6j70ZD1xUAKLNtVWkkLN+5s+LprbCXAaBqpL0N11UAQLFsqUpbXBeBvvE09wAA4DcCAAAAHiIAAADgIQIAAAAeIgAAAOAhAgAAAB4qbACwaeq6hNKxafme7wXwDD7i/Vfka1FhA0C3W9ydPoh6vVQpZweg1JI4VRJz7uyn1QJfiwobABZPdlyXUCrsT8APi4td1yWUSvPkqusS1q2wAWB5uafWSs91GaUxc6zlugQAOZiZ4bPeL62VnpaWihuoChsArJUOPrYoS6/1hi3MdXRyobgpFsDazc+2tVjgu9ZBYa302IFF12VsSGEDgCSdXFjVoYNN12UUWmulp0ceXnBdBoAcPfzgvNrt2HUZhfb4wcXCB6lCBwBJOvzkkh55aF49JrZcsNkTLX3rm7OK2XeAV3pxqm/de0Lzc23XpRROL0718HcWdOTJZdelbFgp3gZ44nhbC3Or2rJtSBMTddXroSJf3+94HjaVur1YzZNdnTjeLvTYFYCN6cWpvvPteY2NVTU1PaSx8aqqlVCGU+ezxL1UnU6i+fmOTsy0SnPTVIoAIElxkuro4WUdPVz8VAYAeWk2u2o2uRnwUWkCAFAEDy0E+sZsoKMrRotdo8TzSayhkcarVjuGrV4+lepFm8txZwUUAQEAyMFMy+hPHop0oEn/6g+aaRk9clLafzjU88dT/eKLYk03PE9GQA44GwEZO7hk9P5vVLn4r8F3FwP97terenzJuC4FKD3OSECGlnpGt36rohWeuFqzlVj60LcqWu4RAoAsEQCADH32UKjFLheyC7XYNfrsodB1GUCpEQCAjMSp9DfHuIit11ePhSrJ01bAQCIAABl5fCkQi62tXzuWDi1zigKywqcLyEjBVwkdCLyiAsgOAQDISMina8Mipk8AmeEUBWRkqs6z7BvFPgSyQwAAMnLRiNWmGhew9dpcs9o5wv4DskIAADJiJL1+V+K6jMJ6/a5EjAAA2SEAABl6zY5Ee8d4lu1CXTKW6tU7CE9AlggAQIaiQLrpilgX0ZW9ZrtGrG66IlbE2QnIFB8xIGPjVavfeHlX11yUcFE7jyiQXrcr0a+/vKuxKoEJyBpvAwRyUAulfc+P9cY9iR6YO/U64BaLBEmShiJpx7DVFZOJhjkjAbnh4wbkaCSy+vGtjG0DcI8OSQAAPEQAAADAQwQAAAA8RAAAAMBDBAAAADxEAAAAwEMEAAAAPEQAAADAQwQAAAA8RAAAAMBDBAAAADxEAAAAwEMEAAAAPEQAAADAQwQAAAA8FLkuoF9q9VDbd4xoYqKuWj1UEBjXJQ2kXi9Vs7mqEzNtzc22XZcDwCFjpMmphrZMD2l0rKpKhXvCs0lTq9VOovn5jo4eWdZqJ3FdUl+UIgDsvGhUF+8Z5aK/BpVKoMnJhiYnG2o2u3r4wXl1u+U4mAGsXa0e6tIXT2h0tOq6lIEXBEaNoUg7h0a0fcewvvd4U4efXHZd1oYVPu7tfd649lwyxsV/HcbGqvqhl29RtRq6LgVAjmr1UD/0smku/usQBEZ7LhnX3ueNuy5lwwodAKa2DGnHzhHXZRRatRbq0ssmXJcBICfGSC+6bEKVaqFP/87t2DmiqamG6zI2pLBDAMYY7dk75rqMUhgbq2pyqsGcgJwsdo2OrhitxK4rGQzDkbR92Gq8al2X4oUt0w2NjHDn3w97LhnX3FxH1hbz2C1sABgbr6pWp+u6X6a3DhEAMvbAXKDPHAp1sBmomKeL7BhJl4yl+sd7El0+kboup9Smp4ddl1AatXqosbGKFhe7rktZl+IGgLGa6xJKZXScO4KsJFb6xKORvnyEwHouVtKBZqAP3h/oNTsSve0FsUKm9WRiZIzPej+NjtcKGwAKOwhUZfyqrypRwETKjHDxvzB/dSTURx8u7L3JQIuiQCHJqq9qBZ5EXdyrqOEg7jdDAOi7+2cDLv7r8NVjob41V9zT06DitJmBAu9UPmFAhu56nDvZ9fo0+w7IFAEAyMhcx+jQcnHvDlw7tGQ0v8r+A7JCAAAycmSFi9dGHSFAAZkhAAAZabPC8oa12IdAZggAQEZGK64rKL4x9iGQGQIAkJHdIynPsm9AaKRdoywKBGTFy2m2K4n0xROuq+i/3Q3pZcV/P0VpDFWkKyZTfXOWnL0eV0ymGvbyDDW4vrEoPVHCBUOv2SINe/i0rpcfr3YifW3BdRXZIAAMljftifXt+apibmQvSBRIb97LyxIGzcEV6d5F11X035UTfgYAbk2ADO0csfq558diJGDtjKQbXhBrxzBvTACy5GUPAJCnV+1IVIusPvpwRavMaj+veiS9/YU9vWKaLhMgawQAIAc/Op3qxZu7+sIToe6bDTTTok/gdFuHrF4+leqaXYlGK9z5A3kgAAA5Ga1YXXtJrGsvkeJUWuoZJZ7f6IbBqf0SMRgJ5I4AADgQBdLmGne6ANwhdwMA4CFvewDKOAJbxn8TgMFhxHmmTLwMAI1QunK6fIfxrjpdygCy84IxaahWvnNnI/Tz3MkQAAAAHiIAAADgIQIAAAAeIgAAAOAhAgAAAB4iAAAA4CECAAAAHiIAAADgIQIAAAAeIgAAAOAhAgAAAB4iAAAA4CECAAAAHiIAAADgIQIAAAAeIgAAAOAhAgAAAB4iAAAA4CECAAAAHopcF+DCcCi9YdK6LgMACuUlI9JLRjh3lgU9AAAAeIgAAACAhwgAAAB4iAAAAICHCAAAAHiIAAAAgIcKHAB4FKXv2KVAufEZz0Bxd2phA0Acp65LKJU0tUoS9ilQZnGSyhb3ejWQ4l5xz5uFDQDtVuy6hFJpt9mfQNlZK3X4rPdVu91zXcK6FTYALMx3ZImyfTM323FdAoAczM+1XZdQGmlqtTC36rqMdStsAOj1Uh070nJdRinEcapjh5ddlwEgB4efXFbCEGpfHDu6ol6B92VhA4AkHTrUVGuluN0vg+LAo4uFPogBrF2vl+qxAyddl1F47VasJw4tuS5jQwodAJI41YPfntPKMiFgPdLU6sCjC5o9QU8K4JPjM209dmCRYdR1Wlnp6dvfmi38ZPTCvw1wtZPoW988oR0XjWr7zmFVokJnmlxYKy0udPT4waZW6EEBvHT08LKWm13t3jumsfGajHFd0eDrxamOPrmiI4eXlCTFD0+FDwCSlCRWTxxq6snvLWl0tKJ6I1KlEkoc0GdIklTdbqqlxVX1CvzoCoD+WFrq6oH7Z1WpBhodLMkMxwAACUlJREFUq6lWCxQE3ESdwUq9XqJOO9bSUq9UvSalCADfZ61Vs9lVs9l1XQoAFEavm2p+lqcDfFOqAAD0Q5qmWlhqaX5pRWlKT0mRBUGgidFhbR4d4s4W+AEEAOApT8zM62Ofu0d/fd+jara4GyqT8eGGXvmyF+rtb7hSO6c3uy4HGAgEAEDSHXf/vW79X19SnCSuS0EGFlfa+sw939T//dsH9J7rr9Z1r32F65IA5wgA8N5HP3ePPvIX+12XgRzESaLfv/3zWu319PM//ZOuywGcYlAMXnvgscP647/8K9dlIGcf+Yv9evDgEddlAE4RAOC1P/7UfqUleqwHa5Naqz/61H7XZQBOEQDgrYXmiu57+JDrMuDIvQ89rvnmiusyAGcIAPDWw4eOcvfvsdRaffeJY67LAJwhAMBbC8s86ue7uSbvwYC/CADwVpKwyI/vOAbgMwIAAAAeIgAAAOAhAgAAAB4iAAAA4CECAAAAHiIAAADgIV4GBKzTZT97vaJq1XUZ53Xgr7+klePrW+xmdOsO7b3yqv4W1Gdxt6sH77rTdRlAIREAgHXadNHFiuoN12WcV7VW13oXu40aDW26eG9f6+m3uMNiTsB6MQQAAICHCAAAAHiIAAAAgIcIAAAAeIgAAACAhwgAAAB4iMcAgXW6ZESqDvZTgPpuJC2s83eHI+n5o30t55wSa5RaqZNIy7FVK5GszadtwFcEAGCdphtG9YZxXcZ51TbQx1cLpG1O/n1GnUR6uCkt9UgBQFYYAgAwcOqhdNm4FAx2vgIKjQAAYCBVAmlTxXUVQHkRAAAMrCEGKYHMEAAADCyGAIDsEAAADCwjEgCQlVJ1sIWh0fimmmr1SAG3Ds9mpV4vUbPZVacdu64GeE48A5CPxlCk0dGqKpVQZK5nS1OrTidW8+SqkqQ8R2UpAkAUBdq1e1Tbtg9z4V+jpaWeDj12UouLXdelAOdkWQwgU+Oba9qzd0wjI1XXpRRCmlodO7qiJx5fUpykrsvZsMIHgMZQpMsun1S9Ufh/Sq5GRyu6/KVbdOhgU4efXHJdDnBWxT/FDq5du8d08e6cVnoqiSAw2rFzRBMTdT34wJzaBe9JLfQcgEoU6PIrprj4r5Mx0p5LxrR125DrUoCzIgBkY/vOES7+G1BvRLr8JVOqRIW+hBY7AOy+ZFy1eui6jMLb+7xNqlQLfSigpKxlSK/fqrVQe/aOuS6j8Gr1UBfvHXddxoYU9qxfqQaa3sqdaz+E4aluLWDQMAWg/3ZeNMJcqT7Zuq2hSqWwl9HiBoCJiboMx3DfTEzUXZcAPAvX//6bmOSz3i/GmELvz8IGgAZLhPUV8yiA8jPGqFbjs95PRT53FjYAhCFj//0UBEZhWNjDAcAaRKGh57TPoqi41yLO+HgGJwag3PiM4zQEAAAAPEQAAADAQwQAAAA8RAAAAMBDBAAAADxU3AcYNyC10moJVxiJJBV4USoAA66bSonrIjJQM5KPiyN6GQDme9IHDriuov9esVl60zbXVQAoq08fk+5ddF1F/938PGnKwzcic78IAICHCAAAAHiIAAAAgIcIAAAAeIgAAACAhwgAAAB4iAAAAICHvFwHoGKk3cPlW/VhslrC1Y0ADIypWjnPnRXj57nTywAQBdKuYddV9N/mmusKAJTZRE3a5bqIDESe9oV7+s8GAMBvBAAAADxEAAAAwEMEAAAAPEQAAADAQwQAAAA8RAAAAMBDBAAAADxEAAAAwEMEAAAAPEQAAADAQwQAAAA8RAAAAMBDBAAAADxEAAAAwEMEAAAAPEQAAADAQwQAAAA8FLkuwIVKIF06ZF2X0XejoesKAJTZtqo0Epbv3Fnx9FbYywBQNdLehusqAKBYtlSlLa6LQN94mnsAAPAbAQAAAA8RAAAA8BABAAAADxEAAADwEAEAAAAPFTYA2LR8z6K6xj4Fyo2PeP/ZNHVdwroVNgB0u4nrEkql10uVcnYASi2JUyVJcS9Yg2i1W9z9WdgA0FxcdV1CqSyeZH8CPmie7LouoVSaJzuuS1i3wgaApaWu2q3YdRmlcXym5boEADmY4bPeN62VnpaXe67LWLfCBgBrpcceW3RdRikszHe0MF/cFAtg7eZm22rS47dh1koHH1uULfDIaWEDgCSdnO/o0MGm6zIKrd2K9ehDC67LAJCjh74zr06bHtSNOHSwqZMLxQ5ShQ4AkvTkE0t69OEFxXFxJ2K4Mjfb1v33nlCPfQd4pddLdf+9J7QwR8/fherFqR55aF6Hn1xyXcqGleJtgMdnWlqY62jLtiFNTNRVb0QKQ+O6rIFjrdRdTdRsdjV7vKVmk8lAgK96caoHvz2n8fGqpqaHNDZWVaUaynDqfJYkseq0Y83PdXR8plWaG85SBADp1MF85MllHXly2XUpAFAYi4tdLS5yM+Cjwg8BAACAC0cAAADAQwQAAAA8RAAAAMBDBAAAADxEAAAAwEMEAAAAPEQAAADAQwQAAAA8RAAAAMBDBAAAADxEAAAAwEMEAAAAPEQAAADAQwQAAAA8RAAAAMBDBAAAADxEAAAAwEMEAAAAPEQAAADAQwQAAAA8RAAAAMBDBAAAADxEAAAAwEMEAAAAPEQAAADAQwQAAAA8RAAAAMBDBAAAADxEAAAAwEMEAAAAPNS3ALBvn1JJJ/u1PQAA8IwgMHbfvsvivm2vXxsyxlgr3dWv7QEAgGdEkTlojEn7tb2+DgHYsHuzpC/2c5sAAPiuWgnnbGTe0M9tRv3c2DXXvHhO0uu+8IUDF4dWLzCpTD+3D3ca1egKq7Tar+0tNXvxkcPLz3n8RZWwvWVr4zv9avd0E+NDk2+56od3n+v7M22ttlN7zpAcG3ufDYK+dcdl4aLdu1+4aWLz2Nm+Z4y11ppzfkZHx0YXbRA8ml11z22oavdulZ081/fjMAxf+tprnneu7zfi1eaOYGXuXN+fGB86ZI3O+H5YCcaHhqNzbnOtVjvpxWma1J7r5+KeHjFW9260PbhVqZidQ41wa7+3a0KTpmn6lTdff9nf9XvbAAAAAAAAAAAAAAAAAAAAAAAAAAAAAAAAAAAAAAAAAAAAAAAAAAAAAAAAAAAAAAAAAAAAAAAAAAAAAAAAAAAAAAAAAAAAAAAAAAAAAAAAAAAAAAAAAAAAAAAAAAAAAAAAAACc1f8HnkTJYcEo/csAAAAASUVORK5CYII=;" vertex="1" parent="1">
          <mxGeometry x="310" y="150" width="30" height="30" as="geometry" />
        </mxCell>
        <mxCell id="Mbg4xQhO2vMqubRtQ9Se-4" value="" style="shape=image;verticalLabelPosition=bottom;labelBackgroundColor=default;verticalAlign=top;aspect=fixed;imageAspect=0;image=data:image/png,iVBORw0KGgoAAAANSUhEUgAAAgAAAAIACAYAAAD0eNT6AAAABHNCSVQICAgIfAhkiAAAAAlwSFlzAAAOxAAADsQBlSsOGwAAABl0RVh0U29mdHdhcmUAd3d3Lmlua3NjYXBlLm9yZ5vuPBoAACAASURBVHic7d17kCVnfd7x5+3uc5vr7szs7E2r3RUXgSQw2ME3cZGRwOA4BUhasGyIk9gRCOxYlYqdVJxyyYUTTFyVYOxCATuV2AaEkGKbIAgBRNZg4QsGCSGELqxWi7SX2Z3LzpmZc86c091v/lgh7aLd1ezM6X5P9/v9VG2Vdi79/rbVp/vp9337bQkAAAAAAAAAAAAAAAAAAAAAAAAAAAAAAAAAAAAAAAAAAAAAAAAAAAAAAAAAAAAAAAAAAAAAAAAAAAAAAAAAAAAAAAAAAAAAAAAAAAAAAAAAAAAAAAAAAAAAAAAAAAAAAAAAgLMwrgtA8dmrbomObTt2UZSYSUkjJlXFdU1AFkyaGmvjYdtJG0nSm7aprWXZnjVpNzTBbBrYw+Fq72vT++9YzrI9+IUAgAtmr7olmt0y89M2tW9QoKuM1aUSF314KE6UrnaVdleVtjqStRk2ZqQw7JpKeCAMzV3NavQ7L/g/H2tm2CBKjgCANWu+5T2Tq0H6r2TsOyVtdV0PMFCsVdrqKFlalo3jzJszxljTqP1DYIJf3nr3bfdn3iBKhwCA52SvuiWanZr5Fcn+tqQx1/UAgy5ZXlG6uCxr0+wbM0ZBvf6l5Xr4FnoEcCEIADivhWvfs7sXJp8wVj/uuhagSGySKp5fkF3t5tKeiaKOaYTXbf/CJz+bS4MovMB1ARhcc/ve+RNxkHyDiz9w4UwYqLJlQsHwUC7t2Tiu2+XuXcde9/P/PpcGUXj0AOCsTlz77p9SkN4lKZ+zF1BiyWJTydJKLm0ZI4VD9d/bevftv5FLgygsAgCe5cS1N/6wgmC/pFHXtQBlkcyfVNJq59SaUWVs9NemP/9nH8ypQRQQAQBnWHjzzZviaPUbkt3ruhagXKx6M3OyvV4urZkgSDXS+NEdn//413NpEIXDHACcIY46f8jFH8iCUTS5SXndd9k0DdTpfS6XxlBIBAA87cS17/4pSb/gug6grEwUKRwbzq092+1OHbnm5/5Lbg2iUAgAeEaYvtd1CUDZhSPDMkF+p17T7v2K3bevmluDKAwCACRJx6+/6VWyutJ1HUDpBYGCkfwerkmTuHJsrvIfc2sQhUEAgCQpsPZfuK4B8EUw1Mi3waT3jnwbRBEQACB71S2RNbrWdR2AL0wUyVTye39Wutrbevj1/3xXbg2iEAgA0PyWo68Qa/wDuQrqeQ7LW4Xx6o05NogCIABASWpe4boGwDemmvMbtG3yU/k2iEFHAIBkdKnrEgDfmCjKtT2bprtzbRADjwAASdruugDANyYMc23PppZhPpyBAABJNr+VSQCcYnJeid1a1gLAGQgAkFGQuq4B8I71oEUMNAIAZGSXXNcA+MbanK/HgVbzbRCDjgAAWel7rmsAfGOTONf2giCcy7VBDDwCAGSN/Y7rGgDv9JJ82wvMgXwbxKAjAEBBEH7VdQ2Ab9Juvj3ygYn+d64NYuARAKCp2z/0HVk94boOwCe2082vMWOsku6f5NcgioAAAEmSNfbjrmsAfGFXu7JJfkMAplp9dHr/Hcu5NYhCIADgFKv/LinnQUnAT+lKK9f2gjD8vVwbRCHkvBIFBtmJ6276hIx9m+s6gFKLE3WPnVBej+WbSmV+x1funMylMRQKPQB4Wholvymp47oOoMzixSXltiaPkWyt8m/yaQxFQwDA07be/pED1uh3XNcBlFXaWVXabufWnqnV79v5xdv+R24NolAIADjDlsu3vU9GX3RdB1A6SaJ4YTG35kwUdZLayNW5NYjCYQ4AnuXIDTdOVbrBl2X0Yte1AKVgreIT80q7+Tz6Z8IwCYeHXr318x9ljQ+cEz0AeJYdt31kNgzSN0j6rutagMKzVvHcQm4X/yAMkspw7S1c/PFc6AHAOc3c8Mtbg17lU5L9Mde1AEVkk0Tx3IJst5dPg1HUiYYaV3Pxx1oQAHBedt++6mw69T4Ze7PoMQLWLO2sKp4/KaX5vG3b1GsPS+Erd+y/bTaXBlF4BACsyYnr3vmPrDEfNNJPuK4FGGhxonhxKbfZ/iaK2tHQ0L+b/vyffTCXBlEaBABckNnr33m1lflVSW+UVHVdDzAobLerdLmttN2SzeExf1OtzgbV6MNbv3jbbxkpn24GlAoBAOuyuO+XJlbTyjUyeo2RLpd0qWRGJTvsujYgW1ZKrGwaK+0lsqtdpaurUpzRStrGSCZITWhWFEaHTWD+n0z4h9vv/tiD2TQIXxAA4MTRJxf/ttXqMbkQ3hsaqvzd9ovGf9x1HfAPk7oAAPAQAQAAAA8RAAAA8BABAAAADxEAAADwEAEAAAAPEQAAAPAQAQAAAA8RAAAA8BABAAAADxEAAADwEAEAAAAPEQAAAPAQAQAAAA8RAAAA8BABAAAADxEAAADwEAEAAAAPEQAAAPAQAQAAAA8RAAAA8BABAAAAD0WuC4CfKhVzdGSk4roMeMRaqySV0tgqTlKlqXVdEuAUAQBOjI5XHxbnXziUplbtdqKV5Z663cR1OUDuGAIA4KUgMBoejjS9taFNm2quywFyRwAA4L2R0YrGx6uuywByRQAAAEkjo1VVKpwS4Q+OdgCQZIw0zMRUeIQAAABPGWowLxr+IAAAwFOC0ChiGACe4EgHgNNUIk6L8ANHOgCcJiQAwBMc6QBwmoCzIjzBoQ4ApwmM6wqAfBAAAOB0hgQAPxAAAOA0DAHAFxzqAHAaQw8APEEAAADAQwQAAAA8RAAAAMBDBAAAADxEAAAAwEMEAAAAPEQAAADAQwQAAAA8RAAAAMBDBAAAADxEAAAAwEMEAAAAPEQAAADAQwQAAAA8tK73Xp74uV/ZYZL4amt1paQXSdolaXNfK8NA6R07MaYk6VtgjF7yokfHf/+WF/Zre0C/tNux5mY7ubU31F05FN3yvrHcGkRmbGqNbGpsLw5ttxfa1W6U9rqRsX1uKAxiBcGKMcERhcGXkzT48EX7P37fhW4mWusP2n37wlk7uU/Sv1QcX2XpPfCMlbV9PIrTOOzfxvzT++uvqfele5QuLp3352yvp94jB2XV7zPQKaZRV/2nX6Ohd70jk+37wFoF4gaqFExgJIUyYSjVa5Ikm6RKWy2lyy3ZJOlPQ3FSkZJNVtok6TJj9K4jr7p+XrXKn26PL/11s/+WeC2bWVMAmN33rrfMWr1f0gs2UjOAjet97T61P/yxtf+CMbKdbia12NWeWrffJTPUUOOfXp9JG0CRmTBQODqicHRY6XJLSXNJNu1zILeS7fUm1OvdfCS8/93Hrrnh97Z98bb/8Fy/dt67+OZb3jN54vp3/aW1+nNx8QcGQu+er1/QzwfDQxlV8ozO576ceRtAsRkFI8OKtk7LPNU7kIkkqSbLrd88/Oq3Hp554y8+73w/es4AcPy6d718NUjulfSmvhcIYP2Wli/ox029LoXZjtjZVjvT7QNlYcJAlakJhWMj2TbUXd2RNJsPPXn1L5yza+6sZ4Xj177z1cZov4x2ZVcdgDwYI4U59AIAWLtwbFTR5vF1TsVfG5ukUdBe+eTRq29499m+/6wAMHPdTS81gT4liVmpQEkEQw3XJQD4AcHwkMLx8UzbsKk1aav9h4dfd8MNz2r/9L8c3ferWwJjPyuZTZlWBCBXJopkKmt+6AdATsKRoezn6VhrTKvzZyeuftsZj16fEQAi9f6npJ3ZVgLAhaBRd10CgLOINo3JVCqZtmGTNIzj9IzZuk8HgOP73vk2Wf1MphUAcIZhAGBAGaNoU7ZDAZKUrna3zlz9tv/8/b8HkmRvvLESpOZ3M28dgDMmimQihgGAQWRqlVx66dJO72Z71T+rS08FgLl5c4M12pN5ywCcCoYYBgAGVTia8aOBktIkqRwLOv9VenoIwLwz81YBOGdqVdclADgHU61kPhdAkmwc3yBJwcx1N11ipZ/IvEUAzplq7dTCAAAGUh5zdWy3Nz7z+rf/ZBAY+zpluhQBgEFhjBTQCwAMrKCR4TLBp0mT+MZAp17pC8ATQZ15AMCgMlEkE+Twst0kfWUgoxdn3xKAQWFq2Y8xAlg/E+XwtvQk3RpI2p19SwAGhalU8rnDALA+YfYBIE3SoUDSaOYtARgopkovADCwMn57pyTJpkEgKYe+BgCDhAAADC5js5+Xb2QVSHYl85YADJSgypMAwKCySrNvwxgbSOZY5i0BGCwEAGBwJdkHAIVBN5D0SPYtARgkJjD5zDQGcMFsL868jcBEc4Gkf8i8JQCDhxcDAYMnTWWTJPNmTGQeCFIFd2feEoCBE1QIAMCgSVe7+TQUmNuD6Sum/1ZWT+TTIoBBwauBgcGTttqZt2HCMN4av+hPA3PLLamR/jTzFgEMlhzeOgbgAqSp0vZq5s2YWuVvzP5b4kCSkmr8B5Kyjx0ABgZDAMBgiZdWJNlsGzFGMtG7JCmQpK23/fGMpD/ItlXgGTaqDLuuwXvG5LPiGM7LSkOua4B7NkmVrrQybyes1+7ZfvfHHpSeCgCSZE3wXknfy7x1QFKvNrTNdQ2QTMCjgK4liZ10XQPcSxabUprt8/8mDOLUBm/+/t+fDgDTd3xo2cq8XVL2DyACGAisBQC4l7Y7OUz+MzL1+q/t2H/b7Pe/ckb/3/Sdt35FMr+ecRUABgUBAHDK9nqK509m3k40Urtj+923fej0rz1rAHDLnbd+wEj/KfNqADjHEADgjo1jxbPzks124l/YqN+z9Yu3v/UHv37WacBTd/6335y9/qamlX2fpOxfSwQUTPz1+xXf96Bsq5N72+mR433blunTe8ftyopOvv3mvmzrQphGTdVX/5ga77g297aBjbDdnnpz85mv+x8MNz6z7e5P/OzZvnfO54Cm7rz1/Sf23fSAtfZPjMQkFeAp3bvuVuf2T7suoz/69BSAjRPFh4/2ZVsXqvfdxxUf/J5Gfyv/AAKsR7rSUnyymemdvwnCNGzUb9l698ffe66fOe+nf8sdt37GVuLLJftRZf5wIlAA1mr1ri+5rqJvTFCODr7uV/4+8xnUwEbZOFFvdl7xwmKmF/+wXjtgGo2XnO/iLz1HAJBOrRGw5c4Pv8Oa4IeNdIekXt+qBArGdlZlV1Zcl9E/JZkDYONE6cKi6zKAs7JxrHhhUfHMcdlORiv9GSmoVZ8Ihobfum3/J5///Wf9z2fNS4FN3/Gh+yS99ei+X91SUe96K/t6WfNKSVMbqRmAO2XpAQAGibWSej2lq6uy7Y7Sbjb3zcYEqamEMzaK9leMvWXL3bc/ciG/f8FrgW6/4w9OSLr1qT86csONU5U43N2z0eRDV77xTgUmlEx4atumHLcX0NDMYZmkf0tEbHnVS/u2LWyAMaf+ZDwLGefWqzX0jX9yo+sy0A82lUlTKY77NnveWqWBlKSyqZGSH/nzj/x2lMZHgjT++wu94P+gDS8GvuO2j8xKmv3kJ79dTTrp6Ea3hwG1eUdfN7dp73Rft4f1M0GQy/vHcXbWBGobXsxUCkanBtb7+5qNQKcN19/zS7/xgbe+9fK+vDOYhcAB3xmGAQAfEQAA33H9B7xEAAC8RwIAfEQAADzHCADgJwIA4DlLAAC8RAAAPGcMpwHAR3zyAd+xBADgJQIA4Dkr1tAHfEQAAHxHDwDgJQIA4DsCAOAlAgDgO8sQAOAjAgDgO3oAAC8RAADf0QMAeIkAAHiONwEDfiIAAN4jAQA+IgAAHrNpyvUf8BQBAPBZwvg/4CsCAOAxmxIAAF8RAACfJYnrCgA4QgAAPGYZAgC8RQAAfJbSAwD4igAAeIweAMBfUb82tGXLZWl35bv92hxyYK2VtVKSpEoSq243URzzTJhXmATonAmMJibqrsvAOVjp6dWyrJWSOFWcWHVXEyVpsc+XfQsAJ07ITo3ToVBM4dP/laRW7VasViuWZYm40rMxQwCuGUmVCufOwqg9c77sdBItLa0WNkdz1OEMYWA0MlLR5GSNk1LZWSsbx66rAAqrXg+1eXP9VIorIM7wOKswDLRpU01hWNAjG8+Ju39g46Io0HCj4rqMdSEA4JyCwGh8vOa6DGSEu3+gP+qN8Ll/aAARAHBelUqgarWYBzfOz/Z6rksASiGKAhlTvN5SAgCeU61OAPg+U6vK1MvRK5L2StQDEAQKNo27rgIeq0QEAJRQrcph8rQgUOXVP+a6iv4o0RBA9bIXSCHHKdwJguIFgL49BojyYiLgmeo//2YFk5vU++aDUms19/bTY8dlOxtr11r1NwAYo2B4qH/bW2uztYqiH7pMo//23bm3DZzOEABQTkZhGChh1bhTwkDVn3mtqj/zWifNt977+4ofObixjcQ99XOZh2BsVBN/+Uf92yBQMAWcAsAQANbGGBYFKhO7ygRAoJ9MARcDIABgjYp3cOPc0m7+QxcABkuphgAqUaDxzXXVG6Eixq2fJbVWvV6qpcWelpe7F/S7RRzfwrnZ1Qv7/49yGxmpanS8qmolKGRXdtbixKrTTrS40FEvLs9QaCkCQKUSaPfecU1vbRTyWUwXWis9PX6wqYX5zpp+nt1aInHCWwAhSZqYamjPnjE1hkpxKcictVYzx9r63uOL6vWK/xkq/P/1oeGKLr9iUtUaz6pfiKHhii67YlJPHGrqe4eWnvsXmAJQGil3/5C055Ix7bxo1HUZhWKM0bbtQ9o8UdODD8yptVLsuTSFngNQqQa6/CVc/Ddi1+4xbd854roM5CjtEQB8t3PXKBf/DajVQl1+xaQqBV8jpdDV771kE8vU9sGevWOqPUeIsnQBlAbj/36r1UNdvJuL/0ZVa6H27C326pOFDQDVaqipLQ3XZZRCEBht3zl8/h/i+l8OcSJbpiWAccF27hwt5Kp1g2jL9JCqBe4FKGzlE5N1Jqb10cQEYcoHSXttkz5RXhOTddcllIYx0uaJ4u7PwgaAor5+cVA91wt/+rlqHNxJO23XJcChIDC83KvPGo3izqUvbAAIQw7ifgqCU8v9noslARRfmrICoOdCuv77LoyKey0qbABABs53bmC8pfBSuv/BxxinIQBgbegBKDwCAIDTEQCwNlz/iy1NlXZ4/A/AMwgAWBNL12GhJa2OSHEATkcAADyQrrRclwBgwBAAgJJLu13ZHrP/AZypuA8wbkBqpdUS9oZGkipEOvwA7v7RL91USlwXkYGakXx8QtLLADDfkz5wwHUV/feKzdKbtrmuAoPE2lRpi9n/6I9PH5PuXXRdRf/d/Dxpquq6ivxxvwiUmF1u8wgngLMiAAAllrRWXJcAYEARAICSSltt2V4ZR2wB9AMBACipZGnZdQkABhgBACihtNWR7cWuywAwwAgAQMlYKyXNJddlABhwBACgZOxKSzbm7h/A+Xm5DkDFSHtGyrfqw2SNx718Z9NU8RJ3/8jGVF3ak5Tv3Fkxfp47vQwAUSBdNOS6iv7b7OFCFjhTstiUktR1GSipiap0UQmvlZGnfeGe/rOBAmvUz/plu9pVutLOuZhTTK3ipF0A60cAAAometnlz/6iteotnMy/mKdUX/FyZ20DWB8vhwCAIqtefaXs4pK6X/qq7FOz/eOTTSnOf9EfU4lU+ZGXaPhf/1LubQPYGAIAUDTGqHbdG1W77o2uKwFQYAwBAADgIQIAAAAeIgAAAOAhAgAAAB4iAAAA4CECAAAAHiIAAADgIQIAAAAeIgAAAOAhAgAAAB4iAAAA4CECAAAAHiIAAADgIQIAAAAe8vJ1wJVAunTIui6j70ZD1xUAKLNtVWkkLN+5s+LprbCXAaBqpL0N11UAQLFsqUpbXBeBvvE09wAA4DcCAAAAHiIAAADgIQIAAAAeIgAAAOAhAgAAAB4qbACwaeq6hNKxafme7wXwDD7i/Vfka1FhA0C3W9ydPoh6vVQpZweg1JI4VRJz7uyn1QJfiwobABZPdlyXUCrsT8APi4td1yWUSvPkqusS1q2wAWB5uafWSs91GaUxc6zlugQAOZiZ4bPeL62VnpaWihuoChsArJUOPrYoS6/1hi3MdXRyobgpFsDazc+2tVjgu9ZBYa302IFF12VsSGEDgCSdXFjVoYNN12UUWmulp0ceXnBdBoAcPfzgvNrt2HUZhfb4wcXCB6lCBwBJOvzkkh55aF49JrZcsNkTLX3rm7OK2XeAV3pxqm/de0Lzc23XpRROL0718HcWdOTJZdelbFgp3gZ44nhbC3Or2rJtSBMTddXroSJf3+94HjaVur1YzZNdnTjeLvTYFYCN6cWpvvPteY2NVTU1PaSx8aqqlVCGU+ezxL1UnU6i+fmOTsy0SnPTVIoAIElxkuro4WUdPVz8VAYAeWk2u2o2uRnwUWkCAFAEDy0E+sZsoKMrRotdo8TzSayhkcarVjuGrV4+lepFm8txZwUUAQEAyMFMy+hPHop0oEn/6g+aaRk9clLafzjU88dT/eKLYk03PE9GQA44GwEZO7hk9P5vVLn4r8F3FwP97terenzJuC4FKD3OSECGlnpGt36rohWeuFqzlVj60LcqWu4RAoAsEQCADH32UKjFLheyC7XYNfrsodB1GUCpEQCAjMSp9DfHuIit11ePhSrJ01bAQCIAABl5fCkQi62tXzuWDi1zigKywqcLyEjBVwkdCLyiAsgOAQDISMina8Mipk8AmeEUBWRkqs6z7BvFPgSyQwAAMnLRiNWmGhew9dpcs9o5wv4DskIAADJiJL1+V+K6jMJ6/a5EjAAA2SEAABl6zY5Ee8d4lu1CXTKW6tU7CE9AlggAQIaiQLrpilgX0ZW9ZrtGrG66IlbE2QnIFB8xIGPjVavfeHlX11yUcFE7jyiQXrcr0a+/vKuxKoEJyBpvAwRyUAulfc+P9cY9iR6YO/U64BaLBEmShiJpx7DVFZOJhjkjAbnh4wbkaCSy+vGtjG0DcI8OSQAAPEQAAADAQwQAAAA8RAAAAMBDBAAAADxEAAAAwEMEAAAAPEQAAADAQwQAAAA8RAAAAMBDBAAAADxEAAAAwEMEAAAAPEQAAADAQwQAAAA8FLkuoF9q9VDbd4xoYqKuWj1UEBjXJQ2kXi9Vs7mqEzNtzc22XZcDwCFjpMmphrZMD2l0rKpKhXvCs0lTq9VOovn5jo4eWdZqJ3FdUl+UIgDsvGhUF+8Z5aK/BpVKoMnJhiYnG2o2u3r4wXl1u+U4mAGsXa0e6tIXT2h0tOq6lIEXBEaNoUg7h0a0fcewvvd4U4efXHZd1oYVPu7tfd649lwyxsV/HcbGqvqhl29RtRq6LgVAjmr1UD/0smku/usQBEZ7LhnX3ueNuy5lwwodAKa2DGnHzhHXZRRatRbq0ssmXJcBICfGSC+6bEKVaqFP/87t2DmiqamG6zI2pLBDAMYY7dk75rqMUhgbq2pyqsGcgJwsdo2OrhitxK4rGQzDkbR92Gq8al2X4oUt0w2NjHDn3w97LhnX3FxH1hbz2C1sABgbr6pWp+u6X6a3DhEAMvbAXKDPHAp1sBmomKeL7BhJl4yl+sd7El0+kboup9Smp4ddl1AatXqosbGKFhe7rktZl+IGgLGa6xJKZXScO4KsJFb6xKORvnyEwHouVtKBZqAP3h/oNTsSve0FsUKm9WRiZIzPej+NjtcKGwAKOwhUZfyqrypRwETKjHDxvzB/dSTURx8u7L3JQIuiQCHJqq9qBZ5EXdyrqOEg7jdDAOi7+2cDLv7r8NVjob41V9zT06DitJmBAu9UPmFAhu56nDvZ9fo0+w7IFAEAyMhcx+jQcnHvDlw7tGQ0v8r+A7JCAAAycmSFi9dGHSFAAZkhAAAZabPC8oa12IdAZggAQEZGK64rKL4x9iGQGQIAkJHdIynPsm9AaKRdoywKBGTFy2m2K4n0xROuq+i/3Q3pZcV/P0VpDFWkKyZTfXOWnL0eV0ymGvbyDDW4vrEoPVHCBUOv2SINe/i0rpcfr3YifW3BdRXZIAAMljftifXt+apibmQvSBRIb97LyxIGzcEV6d5F11X035UTfgYAbk2ADO0csfq558diJGDtjKQbXhBrxzBvTACy5GUPAJCnV+1IVIusPvpwRavMaj+veiS9/YU9vWKaLhMgawQAIAc/Op3qxZu7+sIToe6bDTTTok/gdFuHrF4+leqaXYlGK9z5A3kgAAA5Ga1YXXtJrGsvkeJUWuoZJZ7f6IbBqf0SMRgJ5I4AADgQBdLmGne6ANwhdwMA4CFvewDKOAJbxn8TgMFhxHmmTLwMAI1QunK6fIfxrjpdygCy84IxaahWvnNnI/Tz3MkQAAAAHiIAAADgIQIAAAAeIgAAAOAhAgAAAB4iAAAA4CECAAAAHiIAAADgIQIAAAAeIgAAAOAhAgAAAB4iAAAA4CECAAAAHiIAAADgIQIAAAAeIgAAAOAhAgAAAB4iAAAA4CECAAAAHopcF+DCcCi9YdK6LgMACuUlI9JLRjh3lgU9AAAAeIgAAACAhwgAAAB4iAAAAICHCAAAAHiIAAAAgIcKHAB4FKXv2KVAufEZz0Bxd2phA0Acp65LKJU0tUoS9ilQZnGSyhb3ejWQ4l5xz5uFDQDtVuy6hFJpt9mfQNlZK3X4rPdVu91zXcK6FTYALMx3ZImyfTM323FdAoAczM+1XZdQGmlqtTC36rqMdStsAOj1Uh070nJdRinEcapjh5ddlwEgB4efXFbCEGpfHDu6ol6B92VhA4AkHTrUVGuluN0vg+LAo4uFPogBrF2vl+qxAyddl1F47VasJw4tuS5jQwodAJI41YPfntPKMiFgPdLU6sCjC5o9QU8K4JPjM209dmCRYdR1Wlnp6dvfmi38ZPTCvw1wtZPoW988oR0XjWr7zmFVokJnmlxYKy0udPT4waZW6EEBvHT08LKWm13t3jumsfGajHFd0eDrxamOPrmiI4eXlCTFD0+FDwCSlCRWTxxq6snvLWl0tKJ6I1KlEkoc0GdIklTdbqqlxVX1CvzoCoD+WFrq6oH7Z1WpBhodLMkMxwAACUlJREFUq6lWCxQE3ESdwUq9XqJOO9bSUq9UvSalCADfZ61Vs9lVs9l1XQoAFEavm2p+lqcDfFOqAAD0Q5qmWlhqaX5pRWlKT0mRBUGgidFhbR4d4s4W+AEEAOApT8zM62Ofu0d/fd+jara4GyqT8eGGXvmyF+rtb7hSO6c3uy4HGAgEAEDSHXf/vW79X19SnCSuS0EGFlfa+sw939T//dsH9J7rr9Z1r32F65IA5wgA8N5HP3ePPvIX+12XgRzESaLfv/3zWu319PM//ZOuywGcYlAMXnvgscP647/8K9dlIGcf+Yv9evDgEddlAE4RAOC1P/7UfqUleqwHa5Naqz/61H7XZQBOEQDgrYXmiu57+JDrMuDIvQ89rvnmiusyAGcIAPDWw4eOcvfvsdRaffeJY67LAJwhAMBbC8s86ue7uSbvwYC/CADwVpKwyI/vOAbgMwIAAAAeIgAAAOAhAgAAAB4iAAAA4CECAAAAHiIAAADgIV4GBKzTZT97vaJq1XUZ53Xgr7+klePrW+xmdOsO7b3yqv4W1Gdxt6sH77rTdRlAIREAgHXadNHFiuoN12WcV7VW13oXu40aDW26eG9f6+m3uMNiTsB6MQQAAICHCAAAAHiIAAAAgIcIAAAAeIgAAACAhwgAAAB4iMcAgXW6ZESqDvZTgPpuJC2s83eHI+n5o30t55wSa5RaqZNIy7FVK5GszadtwFcEAGCdphtG9YZxXcZ51TbQx1cLpG1O/n1GnUR6uCkt9UgBQFYYAgAwcOqhdNm4FAx2vgIKjQAAYCBVAmlTxXUVQHkRAAAMrCEGKYHMEAAADCyGAIDsEAAADCwjEgCQlVJ1sIWh0fimmmr1SAG3Ds9mpV4vUbPZVacdu64GeE48A5CPxlCk0dGqKpVQZK5nS1OrTidW8+SqkqQ8R2UpAkAUBdq1e1Tbtg9z4V+jpaWeDj12UouLXdelAOdkWQwgU+Oba9qzd0wjI1XXpRRCmlodO7qiJx5fUpykrsvZsMIHgMZQpMsun1S9Ufh/Sq5GRyu6/KVbdOhgU4efXHJdDnBWxT/FDq5du8d08e6cVnoqiSAw2rFzRBMTdT34wJzaBe9JLfQcgEoU6PIrprj4r5Mx0p5LxrR125DrUoCzIgBkY/vOES7+G1BvRLr8JVOqRIW+hBY7AOy+ZFy1eui6jMLb+7xNqlQLfSigpKxlSK/fqrVQe/aOuS6j8Gr1UBfvHXddxoYU9qxfqQaa3sqdaz+E4aluLWDQMAWg/3ZeNMJcqT7Zuq2hSqWwl9HiBoCJiboMx3DfTEzUXZcAPAvX//6bmOSz3i/GmELvz8IGgAZLhPUV8yiA8jPGqFbjs95PRT53FjYAhCFj//0UBEZhWNjDAcAaRKGh57TPoqi41yLO+HgGJwag3PiM4zQEAAAAPEQAAADAQwQAAAA8RAAAAMBDBAAAADxU3AcYNyC10moJVxiJJBV4USoAA66bSonrIjJQM5KPiyN6GQDme9IHDriuov9esVl60zbXVQAoq08fk+5ddF1F/938PGnKwzcic78IAICHCAAAAHiIAAAAgIcIAAAAeIgAAACAhwgAAAB4iAAAAICHvFwHoGKk3cPlW/VhslrC1Y0ADIypWjnPnRXj57nTywAQBdKuYddV9N/mmusKAJTZRE3a5bqIDESe9oV7+s8GAMBvBAAAADxEAAAAwEMEAAAAPEQAAADAQwQAAAA8RAAAAMBDBAAAADxEAAAAwEMEAAAAPEQAAADAQwQAAAA8RAAAAMBDBAAAADxEAAAAwEMEAAAAPEQAAADAQwQAAAA8FLkuwIVKIF06ZF2X0XejoesKAJTZtqo0Epbv3Fnx9FbYywBQNdLehusqAKBYtlSlLa6LQN94mnsAAPAbAQAAAA8RAAAA8BABAAAADxEAAADwEAEAAAAPFTYA2LR8z6K6xj4Fyo2PeP/ZNHVdwroVNgB0u4nrEkql10uVcnYASi2JUyVJcS9Yg2i1W9z9WdgA0FxcdV1CqSyeZH8CPmie7LouoVSaJzuuS1i3wgaApaWu2q3YdRmlcXym5boEADmY4bPeN62VnpaXe67LWLfCBgBrpcceW3RdRikszHe0MF/cFAtg7eZm22rS47dh1koHH1uULfDIaWEDgCSdnO/o0MGm6zIKrd2K9ehDC67LAJCjh74zr06bHtSNOHSwqZMLxQ5ShQ4AkvTkE0t69OEFxXFxJ2K4Mjfb1v33nlCPfQd4pddLdf+9J7QwR8/fherFqR55aF6Hn1xyXcqGleJtgMdnWlqY62jLtiFNTNRVb0QKQ+O6rIFjrdRdTdRsdjV7vKVmk8lAgK96caoHvz2n8fGqpqaHNDZWVaUaynDqfJYkseq0Y83PdXR8plWaG85SBADp1MF85MllHXly2XUpAFAYi4tdLS5yM+Cjwg8BAACAC0cAAADAQwQAAAA8RAAAAMBDBAAAADxEAAAAwEMEAAAAPEQAAADAQwQAAAA8RAAAAMBDBAAAADxEAAAAwEMEAAAAPEQAAADAQwQAAAA8RAAAAMBDBAAAADxEAAAAwEMEAAAAPEQAAADAQwQAAAA8RAAAAMBDBAAAADxEAAAAwEMEAAAAPEQAAADAQwQAAAA8RAAAAMBDBAAAADxEAAAAwEMEAAAAPNS3ALBvn1JJJ/u1PQAA8IwgMHbfvsvivm2vXxsyxlgr3dWv7QEAgGdEkTlojEn7tb2+DgHYsHuzpC/2c5sAAPiuWgnnbGTe0M9tRv3c2DXXvHhO0uu+8IUDF4dWLzCpTD+3D3ca1egKq7Tar+0tNXvxkcPLz3n8RZWwvWVr4zv9avd0E+NDk2+56od3n+v7M22ttlN7zpAcG3ufDYK+dcdl4aLdu1+4aWLz2Nm+Z4y11ppzfkZHx0YXbRA8ml11z22oavdulZ081/fjMAxf+tprnneu7zfi1eaOYGXuXN+fGB86ZI3O+H5YCcaHhqNzbnOtVjvpxWma1J7r5+KeHjFW9260PbhVqZidQ41wa7+3a0KTpmn6lTdff9nf9XvbAAAAAAAAAAAAAAAAAAAAAAAAAAAAAAAAAAAAAAAAAAAAAAAAAAAAAAAAAAAAAAAAAAAAAAAAAAAAAAAAAAAAAAAAAAAAAAAAAAAAAAAAAAAAAAAAAAAAAAAAAAAAAAAAAACc1f8HnkTJYcEo/csAAAAASUVORK5CYII=;" vertex="1" parent="1">
          <mxGeometry x="150" y="150" width="30" height="30" as="geometry" />
        </mxCell>
        <mxCell id="Mbg4xQhO2vMqubRtQ9Se-6" style="edgeStyle=orthogonalEdgeStyle;rounded=0;orthogonalLoop=1;jettySize=auto;html=1;exitX=0.5;exitY=1;exitDx=0;exitDy=0;" edge="1" parent="1" source="Mbg4xQhO2vMqubRtQ9Se-1" target="Mbg4xQhO2vMqubRtQ9Se-1">
          <mxGeometry relative="1" as="geometry" />
        </mxCell>
        <mxCell id="Mbg4xQhO2vMqubRtQ9Se-8" value="&lt;font style=&quot;font-size: 10px;&quot;&gt;client1&lt;/font&gt;" style="text;html=1;align=center;verticalAlign=middle;resizable=0;points=[];autosize=1;strokeColor=none;fillColor=none;" vertex="1" parent="1">
          <mxGeometry x="140" y="171" width="50" height="30" as="geometry" />
        </mxCell>
        <mxCell id="Mbg4xQhO2vMqubRtQ9Se-9" value="&lt;font style=&quot;font-size: 10px;&quot;&gt;client2&lt;/font&gt;" style="text;html=1;align=center;verticalAlign=middle;resizable=0;points=[];autosize=1;strokeColor=none;fillColor=none;" vertex="1" parent="1">
          <mxGeometry x="210" y="171" width="50" height="30" as="geometry" />
        </mxCell>
        <mxCell id="Mbg4xQhO2vMqubRtQ9Se-10" value="&lt;font style=&quot;font-size: 10px;&quot;&gt;clientN&lt;/font&gt;" style="text;html=1;align=center;verticalAlign=middle;resizable=0;points=[];autosize=1;strokeColor=none;fillColor=none;" vertex="1" parent="1">
          <mxGeometry x="300" y="170" width="50" height="30" as="geometry" />
        </mxCell>
        <mxCell id="Mbg4xQhO2vMqubRtQ9Se-12" value="......" style="text;html=1;align=center;verticalAlign=middle;resizable=0;points=[];autosize=1;strokeColor=none;fillColor=none;" vertex="1" parent="1">
          <mxGeometry x="260" y="140" width="40" height="30" as="geometry" />
        </mxCell>
        <mxCell id="Mbg4xQhO2vMqubRtQ9Se-13" value="" style="shape=image;verticalLabelPosition=bottom;labelBackgroundColor=default;verticalAlign=top;aspect=fixed;imageAspect=0;image=data:image/png,iVBORw0KGgoAAAANSUhEUgAAAgAAAAIACAYAAAD0eNT6AAAACXBIWXMAAA7DAAAOwwHHb6hkAAAAGXRFWHRTb2Z0d2FyZQB3d3cuaW5rc2NhcGUub3Jnm+48GgAAIABJREFUeJzs3Xl8VOXVB/DfuctkJgk7CaCsikAyQFFEZROkaq27VbTutVWsKFYgCWIXx6UumSDuWqytdekGat3qUhdUiFbFBZkJICq+soc1kG3unXveP1ArECDLfebemTnff95PJTnnwJvMnDn3WQhCiExEOYOmHcKaVuQwDSSNBoCdgSDqAEYegE4A8r752loAW0CoBWMriJazg2W6hmVwuKqxKroCAHv2NxFCKEFeFyCEcEfOoGkDHM2YAOAYgMcDKHQp9HoQ5gP0ugbt9cbYbStciiuE8JA0AEKks/DUzibMswBMAvPwFGWNM9GjNvgviEXXpSinEMJl0gAIkYaM4rIfauBpTPgRGLpHZdhE9LIDzLJj5W94VIMQopWkARAijRhFJccS0U0AjvK6ll3RRwS+NRGPzoOsFxAiLUgDIEQaMAaVjCRduyeFY/7Weh/gKVa84r9eFyKE2DdpAITwsyHXdjKTTgTgqwBoXpfTTAzixy2Lp2H5rI1eFyOEaJo0AEL4VKC45GwG3Q+gi9e1tAqhmoArErHok16XIoTYkzQAQvhN/yk5ZiBUDvDVXpfiCuLHrG3Jy7Fqdr3XpQgh/kcaACF8JKeo9BCH8E8Aw7yuxWUfaqSfI2cICOEf0gAI4RNmePoIQHsBjAKva1FkMzt8sr204h2vCxFCpM+iIiEymlFc9kOw9loGv/kDQGfS6D9GuPQErwsRQkgDIITnAkUlPyXwiwDaeV1LCuQR45lAccnZXhciRLaTRwBCeEgvKjlJI3oagOl1LSlmOXBOS8Znveh1IUJkK2kAhPCIWVxyJECv4X+38mWbOiYcb8eiC70uRIhsJA2AEB4IDC4rYocXAOjsdS0e26QlaXTjsvJlXhciRLaRNQBCpNrQkjx2eB7kzR8Aujg6P4nhkVyvCxEi20gDIESKmRbuA1DsdR0+EjYb6u72ugghso1X14gKkZUC4dJzAbrJ6zp86DC965gvnI0LF3tdiBDZQtYACJEq4dLuJrAUjA5el+JTNWaSiuqWla/xuhAhsoHhdQFCZAuT6S6AU/7mn5+XRPGQBgwa1ICevRLo3s1C+44OgjkOAKChUUPNVg3r1pn4+usAli0NIr4kiB21KR8Qtrd0jgI4P9WJhchGMgEQIgWMorLjiPiVVOUL5DBGjtyBceO3Y8iQelALV/s4SWDxpyG8Nb893n0nD4lE6l4qmGiCHSt/I2UJhchS0gAIodr4iGFuqIsBPEB1qpwcByecWIOTT92KTh2TrsTcskXHc890xMsvtUdjY0rWDVdZ8ZVDgLnu/AWEEE2SRYBCKGaGRlwAwqWq84w4ohYzf7MOI0fVIhRk1+KGQowfDKvH0UfXYt16E2vXKD+0sMAo6LQ8Wb3wU9WJhMhmMgEQQqmIZhbXLgYQVpUhkMM4/4JNOOnkbapS7OLNN9rhoT8UoKFR6ctHlRXPGwxEHJVJhMhmMgEQQqFA8YizAFypKn6XrjZuvHkNRoyoU5ViD337JTB8RC0+eD8f9fXKHgkUGN3sxckNC6tUJRAi28lBQEIoxECpqtgHHmjhlltXo3fvhKoUe9WnTwK33LoKBxxoKcvBDiv7txNCyCMAIZQJhKcXM2sxFbE7d7Fxy62r0bXAVhG+2TZv0vHrmT1RXa1mRzHpTlHi01lLlQQXIsvJBEAIZbSLVUTNzXVw/Q1rPH/zB4DOXZK47jdrEQwqelSf1C5UE1gIIQ2AEEpENIdxnorIl12+EQcqHL23VK/eCUy+slpJbAbOByLyOiWEAvKLJYQCxqDasQT0dDvu0eN2YOzR290O22ajxuzAmLE7VITuYwyuP0pFYCGynTQAQiigEf3Q7Zi5uQ4uvHij22Fdc/HPNyIvT8GjAE66/m8phJAGQAglmJxj3I55xplb0KmTfw/H69QxiVNP2+J6XHJogutBhRDSAAjhuuGRXICOcDNkbp6DH/2oxs2QSvz4pG3uTwEII9FzasjdoEIIaQCEcJnRsOMoAAE3Yx57bA1yVYzXXZabyzhmguuNSo6Rb7jaUAkhpAEQwnXE5Pqxv+OO8d/Cv70ZN979WolQ7HpQIbKcNABCuM7dW/8OPNBCnz6pP+2vtfodlECPHi5vU9Qw0N2AQghpAIRwHQ1yM9qQoak7598tbtdMLA2AEG6TBkAI9x3iZrDi4gY3w6VEcdjdmhlwdaoihJAGQAgVCtwM1tODy37aqmcv108q7Op2QCGynTQAQrgqogFwbcsaaUD37v459re5DuiRALl71Vg+5PIyIVwlDYAQbuq/ydU3qlDQQSDAboVLmUAOIyfH1W2LGsKRPDcDCpHtpAEQwkUhzWjnZrxgKP3e/L8VynX53AJnq6v/tkJkO2kAhHAR65rhZjxNS98GQNfdjRfSckx3IwqR3aQBEMJFDXqOq8vfG+rT91e0vs7d2ustO/32QwrhY+n76iKEH7n8JlVfR3D8e//PXiUdQn2Dyy8vZrv02w8phI9JAyCEm5Z9WQeCa2/ZSYdQvTH9Jt/V6w23GxcLMcgEQAgXSQMghKvmJpmx1s2Iq1elXwOwarWrdyEBwFog4v/bkIRII9IACOEyInztZrzPlgXdDJcSy5fmuBuQeZW7AYUQ0gAI4Tr6ys1oixe7dq5Qynz6aa67AYlWuhtQCCENgBAuY8dZ4ma85Z8FsXmTy3vqFNqy2cDnn7s7AWCixa4GFEJIAyCE2xj42NV4DrBgQfqcgfPmm/mu71xgTkoDIITLpAEQwmU5jvaR2zH/80r7tNgO6CSBV//T3u2wnNRyPnQ7qBDZThoAIVxWt6x8DUDL3Yy5do2Jdyrz3QypxIIF+Vi31vVdC1VYcst6t4MKke2kARBCBXJedTvkP/7RGbbt3wvxEgnCP//R2f3AhDfdDyqEkAZACBUccnUhIACsWW3imX91dDusa575V0cVn/6hgV5yPagQAq5eXCJE1hs0s4up2TeDcBkU3OPz5NxOGH54Hfr2bXQ/eBt8+UUATz/ZSUXo7Y21ua+oCCxEtkufvUVC+Nn4iGHmjbhCJ+cpAGOhaLqWTBI+/TSEYyZsh2n646bAuloNN95wALZtU/Jy8qTz2S3/VBFYiGwnjwCEaCNjUOk4c33tIjDuBaDgIfiu1q4xcfst3WFZ3q8HsG3CrIpuSkb/AMBMjygJLISQCYAQrRUKz+hNBaMeIkIUhG6pzL1hg4k1q00ceVQtNI/aeNsm3HlHNyz6IE9Vii/sqrypwHx/jDqEyDCyBkCIluo5NWS018tsdsoAuHzmbfO9U5mP+joNJTPWIxhM7T059fUaKsq74ZOP1f31mfEHuQBICHVkAiBEC+SES07RgvpzBDoDgOfX9K1bZ+K/7+YjHG5Ah46pOSlo9WoTN9/YA8uXKbyjgLDNDlgXYt27DeqSCJHdvH+IKEQaCBSVDGaiuwBM8LqWpgRzGOddsAkn/HgbNEVtfdIhvPhCe/ztic5obFT73IFANyTi5RGlSYTIctIACLEvQ67tZCaTNwC4AmnwyKxvv0acd8FmHHZYnWsxmYGPPszFE491wVdfBVyLuw+bLF0/BJ/etiUVyYTIVtIACNGkiGaG6y4F8+8BdPW6mpY6+OBG/PikbTjyqFqEQq17jF5fr+Hdd/Lw4r874AuXb/fbJ6IpVqz83tQlFCI7SQMgxG6M8IwxxHw3wId6XUtbBXMYQw+tw5Ah9SgqasABByQQyGl6UX2ikbB6tYmqqhCWfBrCJx+HlI/6d8fAGrswrw/mR+yUJhYiC0kDIMQ3QgOmHmgbRjmAc5GhvxukAZ062ejYMfndZKC+XsPWrTq2bDbAPthwR8CNiXj0eq/rECLTZeSLnBAtMnySadZ1mAzCTQDaeV2OAIhQnohFZ3hdhxCZTLYBiqyWEy45RbOCz4FwHoAUPugW+zHaKBydm6yudP1WRSHETjIBEFkpZ9C0Aazpsxk40etaxN7JJEAIdWQCILLL0JK8QJcxv2aiJwAUeV2O2C+ZBAihiDQAIluQWVR6kc70PICTkAZ7+sV3pAkQQgF5BCAynjm47HAw3w3GSK9rEa0njwOEcJdMAETmKrqmh1k4dhYYDwDo7XU5os1kEiCEi6QBEJln+CTT7Dhhik76kwBGQSZdmUSaACFcIg2AyCh6UemJhh16FoTz4b9tfbUA/glCGEBqj9jLLKONgtFasrpyvteFCJHOpAEQGSEnfG1/rWDkg0T4PYAuXtezO2I8r2n6GQyeBKCX1/VkgHEyCRCibeRTiEhvQ0vyAsVlEYeTSwBM9LqcJnzM7IxLVEVPYU7+AsARXheUKZhRFgiX3u51HUKkK3k2KtIVBYpLz2KgAv5c4LcFjBusqpX3AnOTRnjGGIIzHyxTN7fJ7gAhWkcaAJF2fL6tzwbjD5Zm/w6x2ZsBAMOu6WgmzI8B9PG2tJRqRArXYMgFQkK0nHwaEelj0MwuZuGo2wCeA/bhp37Cm6TxGVa84s+ofrf+2/9sdh77MICxHlaWSrUEutUi+2wd2nAAB6Uor6wJEKKFZAIg/G/4JNOsa38liK4H0NHrcprwfwSUJOLRubv/QSBcch4zPeFFUSlFqAfTQxYnbkPVnWsBAMMjuWZ97XMAJqSuDJkECNFc0gAIXzOKyo4j4jsBFHtdyx4I9cRUngjllmNRpG73Pw4WTe+TJO1j+LNpcctGYn44oQdmY8kt6/f4U2kChPAtaQCELwWHXHuQnUzOIuB0r2tpCgNPGo5e0rD0tpVNf8VE3Szu9zrAR6uqgYCXQPwYHDqXCccDCKjKtVviJBjzCfTnRKJ+Hlbc07jPr5cmQAhfkgZA+MvQkrxAUpvJzNMBBL0upwlLmPhXdqzi9X19kVFcNpPAtyirglBtAUMRi64DAISndjYd4yfY2QiMA1DocsYtDLxNRC9YjfrTWHFrdYu+W5oAIXxHGgDhFxQoKjnHIYoS0NPrYpqwBcD1VmHeA5gfsff1heag6cOhae8AMFUVoxGd1hgrf3Zvfx4ITy9m1o8G82ACDmENh4DRB/s/+8NhYB0Bn4P4UzAWA857Vrz9J0DEaVPR0gQI4SvSAAjPmeHSYWC6S+W4vA0cAH+0bOfXWD5r436/engk12yo/RCMgQprmmPFo5e3+Lv6T8mBqXfO0YJ5TtLqwNDyQWwS8xbohm1YiY31B3RYv78Gp02kCRDCN6QBEN4JT+1ssnk9iK/06QE57wM8xYpX/Le532AWlz4IoOVvzs33uZWkQ7GsfLvCHGr1nBoy2xvPAjg2VSnlsCAh9iQNgPBARDOLai+AhgowCryuZncMrCHGTKsq+tjO/9k8evH0H2vQXoC63ysb4DEtaUh8S5oAITznx09dIoMZg0rH6QXWMyD8EkCe1/XsxgLoPjtJP3GWRt9v0XcOLSk0HO1lAPlqSgMY+K0dr/i7qvgpVfOu7eQcOU/P0Y5E6g4LkquEhfgemQCIlAgNmHqgbeq3gukC+PDnjhjPk45rGpdEP2/NtweKSp9lwsmuF/Y/C634ynHA3KTCHKknkwAhPOO7F2KRYXpODRkdzKuJnd8ApOzTcevRcod5arIq+u/WRjDDZVeB+R43q9oFYZue1Ift/cyBNCdNgBCekEcAQpmccMkpWlB/jhgTAUrNITXNt/PM+kT9+bx89tLWBgkMLisCeB4Ubvkj0KWNVbe/rSq+5+RxgBCekAmAcF3OwLKBrPOdDJzgdS1NYBA/blGgtMmja1ti+CTTrO+wEMAId0rbE4Pn2fGKiari+4pMAoRIKZkACPcMu6ZjoNOYCGt4FFC6D751GB8w80S7quIebHi7tq3hAp2PuQ0gZW/ODKyyKXnS928WzGgyCRAipWQCIFzwzbY+QhTuH0HbZgRay4SIFcv9Y5tPs/uGUVw6lghvKDy/wGGiY+1Y+RuK4vuXTAKESAlpAESbmOGyI8B8N4Ajva6lCRZAD1iJ+t9ixT01rkUddk1HM2F+AqC3azF3Q8BtiXh0pqr4vidNgBDKySMA0Sq5A8sOQPeR94FxN/x5dv+rRM7pVrziMWx+b9+31bWQ2eXoPwMY7WbMXdFHFuVdgOr5mbXlryXkcYAQyskEQLTM8EmmWddhMgg3AWjndTl74hUEui4Rj85VEd0sKr0IhL+oiP2NBmIekaiqWKIwR/qQSYAQysgEQDRbTrjkFM0KPgfCeQByvK5nN99s62s4L7ls9mIVCYIDS/qxRs9C5d+dcbVVVdHqMwkyjkwChFBGJgBiv3IGTRvAmj6bgRO9rqUJDGCeQVpJfez2/1OXJqKZ4drXwRinKgMBLyXi0RPRgvsHsoZMAoRwnUwAxN4NLckLdBnzayZ6AkCR1+U04UMm7Rw7Xj7Lrl64TWUiI3z4b4jpEmUJCNUW4QRUV+5QliOdySRACNdJAyCaQmZR6UU60/MATgJgeF3QbjaBcZ1VtfIyp3rOV6qTmYOmDyfSHoW63xfWiM9Nxio+VBQ/M0gTIISr5BGA2IU5uOxwMN8Nxkiva2mCDeBPlmNch6W3bkpJxqEleaatfQjwAGU5iO+3YhVXKoufaeRxgBCukAmA2Knomh5m4dhZYDwAhfvb2+B1Yj7dqqr4EzYuSNnJeGbX0fcDOE5hiiorlD8Ra+dbCnNkFpkECOEKmQBku/9t67sRQHuvy2nC12D8xqqKPprqxIHiktMY9C+FKSyQM9qKzXpfYY7MJZMAIdpEJgBZzCgqOVa3g8+AcCH8t62vjkC3WHV55zgrblmU8uxDSwo1h/4NQNkVxsy4zo5XKDmvICvIJECINpEJQBbKCV/b3+HkLQB8ecscMZ7X4FzVUDVL+QK/vZUQKC59XvG2x7et+MpjgLnZe9qfW2QSIESrSAOQTYaW5AVsrZTB18J/n/gB4GNm51d21ay3vCzCLCr9FQh3KktA2KY7zg88bHAyjzQBQrSYPALIDhQoLp2oOfQMgNPgv219W8CYaVWtvNTZ+MeVXhYSCE8vBtE/AZiqchDh543xigWq4mcleRwgRIvJBCDDmUWlh4FwN5ReXtNqDoifsBrN6Vhxa7XXxaD/lBwzkPNfgH6gMMvjVjx6ocL42U0mAUI0m0wAMtWgmV3MwlG3QcNDAPp4Xc4eCG+SxqdbsYoHsXlBndflAIDZbVwURKcrTPG1peunYcOCBoU5sptMAoRoNpkAZJrxEcNcX3slNNwARgevy9kdE1aTg+usquhj8NGZ90ZRybFE9DIATVEKhzX+ob2kYr6i+OL7ZBIgxH7JBCCDGOGSCXqt9S8QLgIQ9LqeXRDqifkOi/LPduK3+Gvf+5BrO+nMLwHoqCoFEd1ixaJ/UhVf7EYmAULslzQAGSA0eFovKhh9LzHNAlDodT27I8bzepJPaVxaMQ/V8xNe17M7s+uovwAYpSwB0SILuReher5s+UslaQKE2Cd5BJDOhkdyA/V1ZQyeAb994gcAwjIGrrFj0Ze8LmVvzOLSnwN4WGGKWi1JwxuXlS9TmEPsizwOEKJJMgFIUznhklM0y3oB/tzWt5WJIjbyLnZit/j2jS845NqDmPlpqDwTgfiqRFX0FWXxxf7JJECIJskEIM2Y4dJhYNwNYKzXtTRh57Y+HSVYXLHB62L2aXzEMKtr31J56yEDz9jxqMpdBaIlZBIgxC5kApAuwlM7mwVH3wbCHwH09bqcJrwP8FlWvOJerK+s9bqY/QnkHvE7ABcoTLHB1syTsOFt3/9bZA2ZBAixC5kA+F5EM4tqL4CGCjAKvK5mdwysIcZMv23r2xczPH0EWFsIdaf9scN8SrKq4gVF8UVbyCRACAAyAfA1Y1DpOL3AegaEXwLI87qe3VgA3Wcn6SfO0qi/tvXty9CSPN3RXgGUNlP32lUVdyuML9pCJgFCAJAGwJdCA6YeSN3H3EdEd4DQ3et6dkeM5zUdpyRi0b9i00LfbevbF7PL6DkAfqgwRdyqsc9Gzbu2whyiraQJEEIeAfhKz6kho4N5NbHzG4CU3UPferTcYZ6arIr+2+tKWiNQVHIGEz2lMEUjCEdZsejHCnMIN8njAJHFZALgEznhklO0oP4cMSYCFPC6nt3UEuhWK1F/Pi+fvdTrYlojNGDqgY6u/xtArqocDLrWjkefVhVfKCCTAJHF/DkB6D+zwMhxBmpOsgCEPAbymLSOAEDgHXCwnXTa4TC2GEnty4alt32FNFmAtrtAUclgJroLwASva2mCA+ARSzOvw5Jb1ntdTOtFNLO49mWo/ZT3uhXPOw6IOApzCFWGR3LN+trnkMLfQwJuTMSj16cqnxC787wBCIVn9LbBx4D5aADFAAYC6NSiIIR6MC3defKc875GeDWxpOJT+LkpGHJtJzOZvAHAFfDfQT4A8F+QM8WKzUqfBX57YYRLpn1zTLIqmw2DflC/uHyVwhxCNWkCRJbxoAGIaEZ4x3hytJ+CeAKAgxUl2gDGa0T0QiKU+zQWRXxx5SwwUTeL+1wK0M0Aunpdze4ItJYJM61Y+aPwcwPVTIHBJUPZofeg8LQ/As5OxKNzVcUXKSRNgMgiKWsAcgaWDWSdL2LgQgC9UpX3GzVg+gfr9Ii95PbKFOf+jhGeMYaY7wb4UK9q2IcEEd+VsLWbsKx8u9fFuKJvJGjm1r4PYLCyHMx/saoqfqYsvkg9aQJEllDeAJjh6SOYtV8TcGoq8u0XYzFpdFMilvtUqp7XhoaW9bRtvh3AufDDv8FuCPQiOfY1jUvvWO51LW4yi8vuAvhqhSm+sBINh2LFPTUKcwgvSBMgsoCyNyNj8IxRWtK5ngnHq8rRRksIfFMinj9PWSPQNxI0cmunEXAd/HeQDwB85miYllwSfd7rQtxmhGf8iNh5Eep+xm3WtHFeTpSEYtIEiAzn/otjeGpnk83rAb4KgOZ6fNfRR9AwyVpS/oGbUXPCJac4THcidVuLWqKWQBWJRP2tWHFPo9fFuG7A9K4BQ1/M4B6qUsgLdZaQcwJEBnPxHICIZhYfcbkO7RkA4+HDUfde9ADj50bh6Pxk7+MrsXa+1ZZggSHTB+ldxjzBoN+gpbsZ1GMQP24mtdMalpY/h83vJb0uSAWj25gnAIxQmOK/VmHez7Byvmz5y3Q179pO7+Of1G1rJIB+Kco62igYrSWrK+enKJ/IUu68SfefWRAIWI8x6EeuxPPOF9DonFZNAw6a0cEM8u8AngJ1l8y0HtEiTjpT7KUV73hdikpmuOQyMM1Rl4F3aGQc2hi7bYW6HMJ35HGAyEBtngAYRdOP1kz+D0B+XNneUp3AuFjvOnq7s7Hyv838HjKLSi/STX4WwHHw3+mKm8C4zoqvnORs/OP/eV2MSjmDSw9mpqegcMsfQFck4uWvqYsvfGntfMvJOXJuik8MHCcnBgqV2jQBMMIl0whUDvbdm54bHrFq7MlYNbt+b19gFpUdBeK7oXbc3FoWiO6zzMQN+PjOrV4Xo9zwSaZZ32EBgCNUpWDmp+yqijNVxRdpQCYBIoO09o2bAsVlEQC3IC0W+rXKMD1HO9rpMPxJbH5v14VyRdf0MAvHzgLhPgA9vSlvn14n5jOsePQxrHu3wetiUiHQ+Yc3Yuc2SyUYWGOzeSI2LthrQyiygEwCRAZpxQRgom6G+z4IxqXul+NDRIssK3kCls/aiOGTTLOuw2QQbgTQ3uvSmvA1GL+xqqKPel1IKhnh0tEEvKlwEsUOnJOS8VkvKoov0o3sDhAZoIUvmBHNLM7/G3ae5pctDtB1+rFROHqrZoX+CcL5UPqMuVVqmXGTXZ93rrPilkVeF5NS/ae01w3jFTA6K8tBdJcdr7hXWXyRfmR3gMgALWoAzPCI2QB+oagWP+sG4EwAXbwuZHfEeF6Hc3KiquI5bJ1ve11Pqpk9jn4ITOMUpohZNfZPUfNu1v3biv2QxwEizTX7EUCguPQGBn6nshjRIh8zO7+yq2a95XUhXgmES89kxjyFKRpJ4yMSSyoWK8wh0p08DhBpqlkTALOo7EIQ7lRdjGiWTQBNt+Irf+ls/ONKr4vxSmjwtF4Oa/8GEFKWhLnUilc8oyy+yAzyOECkqf02ADlFpYcw4Rn477l3tnFA/LiVME91lt3+FhBP+6t6Wy+iUVf7KQDFylIQ/mPFK65SFl9kFnkcINLQvrfw9Y0EHcI/AbRLTTmiSYQ3SeNDrVjFRVhxa7XX5XjNKKotgdp92FsMSv4CQBY3WaLFVs2ut2rsUwGk7A2ZGWWBcOntqconMss+JwDmASPuAXByimoRe/o/Ai6z4tGy5IbK9V4X4wdm8bRDibS/QuGJi6TRBY1LKpp7EqQQ/yOPA0Qa2esiQGNQyUjSaAE8OugnqDEGBBPoH7TQ2Uiio77z3podSR3bHcKKhgCW15vYkszAQwgJ9cSIJkJ5t2NRpM7rcnxj52KrRQCKlOUgetiKlWfHGRdCHTkxUKSBphuA8RHD3FD7PoBhqSwmnJvAWZ22Y3yHeozIa4BB+5/ALm0IYH5NCM9tyccbNblw0nxoy8CThqOXNCy9baXXtfiNWVR6LwhXqsvAKyzKPxSxyA51OUTWkCZA+FyTDYBZVPqrVK36N4hxTpftmNJ9K4bltu1q+jUJA3/c0AEPrO+QjpOBJUz8KztW8brXhfiRXlR6okZ4HuqumbYBHmPFZfQvXCRNgPCxPd8ld56s9i+o3F71jTM6b8dTA9bi4oIadDfbfjV9O93BuPb1mNRtG3QivF8bRJJVvV+4ZguAGVZh3qXO+7d87nUxvjS0pNBgeglAvqoUTLjBjlf8VVV8kaXWzrec3sfPS/GagHGyJkA0xx7P941A6EoAnVQm7WEm8ezA1fhb/3Xom2O5Hr+97iDScyM+GPwVjsr37V04DoA5lu0MsOLRezA/IifNNY0Mm/6InacxqsFcaRfk3aIsvshuiyJ1VijvFAApm+4x8LtAcekNqcon0tOuE4DhkVzdTvwdQJ6qhBM61OGK5s7yAAAgAElEQVSFQasxNDehKsV3uhgOzu9ag3pHw7s7lA80WoAXAM4ZVnzWQ9j0jizy2wezuOyXBExTmKJGN4wf2e/dvElhDpHtZBIgfGiXBsDsOGIyCMruOz+/aw3+2n8d2umOqhR70Ak4tkMdegSSeHlbnqcbu5mwWiO+wopXTHeq31nrYSlpIWdg2UDW+CkAprIkRJcnltw+X1l8Ib4lTYDwmV0aAL1w9CMAuqpIdFnhNjzQbwN0jx7JH5bXiAHBBJ7Z2s6LJqCRwFHLwNnJJRUfpj59Gho+ydSc4L8B9FGYZa4Vj/5GYXwhdiVNgPCR7xoAs7jkSICuVZHkJ5134KF+66F5vB4vnJtAFzOJl7Yqe8KxBwae1TWclohVzMP6SvcXPGSoQKcJvwdwtqr4DKyyyT4Z1e/Wq8ohRJOkCRA+8V0DoBeOug6gEW4nCOcm8K8BaxDQ/LFB//C8RqxJmPioTvXVBrTcYVyUrIrelNxQuUVxsoxihGeMAfFDUHcIlQPQmU58VlxRfCH2Te4OED6w8wU2HAmA6Ry3g+dqDv7afw1ytdQ982+OWX02YHAbzxzYK8I2Jp5uhbYOTlZF/60mSQYbdk1HYudxsMKjfoE77Hj5a6riC9Esq2bXW6G805DK3QGMMtkdIL6lAYDhbD8KQBe3g197wBYMDPpv6h3SGPf23aDkkQSB7rVjFXdg0Rz//cXTgJkw74PS5/78SSLRIM/9hT/IFkHhoZ0TAKJj3A58SNDCNT38O/k+Kr8BF3Td5npcdhzX/y2zRSBcch6A85QlINQT9POx4h5F4x8hWkGaAOERDQAImuvHVM48YDMCzTjL30u/PXALTLenAERHoP+U9i5HzXihoWU9meletVmoLBG/PaY2hxCtsChSZ9XYJyOVVwkDv5OrhLObhp5TQwAf6WbQ3jk2zu6y3c2QSvQKWJjYpcbtsIYRDB7ldtDMNlG3bTwBhSdQEvCSFSu/T1V8IdpM1gSIFNPMDuYQAK4uib+oa02zbvLzg591db0BAJKpvUUx3RnF/coAPlphio0Jtn4OeHoOlBD7J5MAkUIaHAx0O+i5afDp/1tj29ejj8v3EZBGh7oaMIOZg6YPJ7DSTyAa0S9QdaecvCjSg0wCRIpopLnbABwStHBwUP05/24hAD/q6PJx/A4XuxswQw0tyYOuPQGVR/0Ccxpj5c8qjC+E+2RhoEgBzWHH1QbgmA7pd7fN+HYu10zo5W7AzGTaNAvs/gTqez63klSiML4Q6sjjAKGYRiBX91wfluvb63f3anie67vCOiEcUXZ3fSbICZecAuByhSkskHMulpWnz/MoIXYnjwOEQhqAdm4GPMSHB//sT6+AhZDLRxXnoKG7qwEzyeDrujmgh1WmYCBixWa9rzKHECkhjwOEIhqTuw1AX5cX1KWCRkAvl+t2kJQJQNMo4Fh/AqNAYY637fhKGWOKzCFNgFBAI3a3AWin++vc/+Zq7/IEgJMccjVghjDDZVcycKKyBIRtuqNfBMxNKsshhBdkTYBwmQaCq3fj5vns4p/mytNcfr/QIQ3AbgLh6cUAl6vMQcxXNSy9baXKHEJ4RtYECBdpYLi6Aq6RVd3gqpb7dZOcN/99wyeZzNojYHWNEYPnJeIVj6uKL4QvyCRAuEQD4Ooq6e3J9GwAapLuXgpAQK2rAdNcoKH97wGMUBWfgVU2JVXuKhDCP1bNrrdq7FORyiaAUSZNQGbRAHa1AVhrKbvGXal1lrtn0WjJZPodiKCIUVw6lkHTFKZwQHQRYrM3K8whhL9IEyDaSAM0VxuA5fUBN8OlxAZbx2bb3clFo0PyZgQAQ67tRMATYCjrDIk5asfK31AVXwjfkjUBog00Art6RvqSNGwAltS6ehcSANRi+ayNbgdNR2bSeRBQejLihwkt/3cK4wvhb7JFULSSxkTL3Qz4Vk2um+FS4s3trq9L+8rtgOnILCq9COCzFaZoIOaLEYukz+UTQqggCwNFK2hgZ6mbAT+ozcGWZHqtA3htm6s7IQFwwAyXZvWVwMGBJf1AuEdpEsa0RFXFEqU5hEgX8jhAtJDGGpa5GdBmwpOb0ucQvM8bAljk+iMA6g/GR2a47AMzXDYJPadm2ZkAES1p0J8BtFeVgYCXrKrog6riC5GWZBIgWkCzE7wEgKvH4D22Udnrvuse29je3b/89zEPB/MfzPbGykBxyS3BoumuXrzkV0ZR7XVgjFOYYkPC4Ivh8s+tEBlBJgGimQgAzHDpYjCGuBn41aJVGNOu3s2Qrqt1NAz8pC82pm7rogPgdQLmJOIrn8rE42rNQdOHQ9PeAeDuvsr/YY34tMZYxXOK4guRGXpODZntjWcBHJuqlEQoT8SiM1KVT7SNDgB64eiBAI5yM/CahIHzuvr7Jta71nXEC1tS+riCABwEYKJe0OE8rWBMwCk8Yhmq3/V3p9Rc4Ui+TvZ/AIUX/RA/kIhVzFYWX4hMUfOu7fQ+/kndtkYC6JeirKONgtFasrpyforyiTbQAICYXd9D/WpNLl7Y6t+1AOssHRVrO3tYAfUncIXJxhqzuPSfRrh0tIfFuMJE3Z0ADlGYosoK5pcqjC9EZpE1AWIfdp5/O+yajmbCXAfA1dVwfXIsfDD4/3x5Q+C5K7rj6c2uXoTohvdBuN+qzfs7VkYavC6mJQJFZacz8dMKUyTAGGlVRT9UmEOIzDQ8kmvW1z4HYEKqUhJwYyIevT5V+UTL7Xz4ve7dBq3rqEOJqMjN4NuSOr5oDODMzjvcDNtmf9zQAXd4+ul/rw4EcLoesKboBaP7Gd3GfJ7csND/BwoNLSnUGC8AUDbyYcZ1dlV0nqr4QmS0tfMtJ+fIuXqOdiR2PoZMhXFG4ejcZHVlyqYPomW+W/1mFI5qBOinbieoqg+gg+7gyHx/fKB9b0cQF37eAza7e/mPy4IAhoNxhVEw5ih0G7WNNxy/Apjvx1XvFOgy6kmAfqAsA2O+XZX3S5/+/YVID7ImQOzmuwYg2XvwF7odvAKA60f5vbotD/1ybAzN9faG3M8bAjhp6YHYlj43FhKAQ4hxnlZoXWoUjGmf7HB0DJsX+OaiIbOo9FcgukpZAsI2nZ0T7I23blWWQ4hsIZMA8T3/2/+2dpGjdx3dA4SRKhK9uDUffXNsDPGoCVhcl4MTl/bEeju9Tin8Fu08VGe8rjtX6wWjB2pdRq1zNlau8rKmQFHJYBD9E4ChKgcxX9JYNWuhqvhCZB2ZBIhv7PJumHPAmJjj4EooeEF3ADy7JR8mAaPb1SOVA/hXtuXijM8OxMY0ffPfjQFgKBH9Qi8Yc5redVTSOWDUMqyvtFJaRf8pOZpuvgTCgQqzPG5VVdykML4Q2WntfMvpffy8FDcB46QJ8Jdd3hHt9Qtr9ILRvQAMV5Vwfk0uFtUG8cP2dcjT1T7StRi4cXUXXP1VNzQ4vn7m31o9QDhVd2iyXjimu9l59MrkpoWbUpHY7D6+HITTFaZYaTVop2LLQm+fGwmRqaQJyHp7vCsGh1x7UDKZXAaFY10A6KQn8esDN+OKbluhK3hvfnt7CNd8VYhYXfpdT9xGCwm4KxHa9i8smqNkKmAUlRxLRC/jm3MkFHBY4x/aSyrmK4ovhPiWnBiYtfaYidsbFmzRC0YfAOBwlYkbWMMr2/Lw9JZ26Gg4GBSyoLnQCFTuCOLKL7shsqoLqlN3xK+f9AYwUbODl2hdR+c53UYvR3Wle/swB83soun8MgEdXIu5GyK6xYpF/6QqvhDie2RNQNZq+i03PLWzCWMpWOGRrrvpYSZxdpftOKvLdhyW29CiqcCKBhPPbcnHE5vaYUmd2zf7pb0EiJ5iJ/mAXTXrrbYGM4pL5xFwphuF7cX7VmjbaFXTCyHEXshhQVlnr2+zZnHZJQB78imso+5gZLsGFIUacUiOhQLTRp7OMIixI0nYauv4vDGAZQ0BvLM9iFUJpU8rMgfhUzh4wHLocSwrb/FFDSn4majVnORhjUvvWK4whxBib6QJyCr7+pxNZnHpmwDGpqoYkTI1YDxGmnN/IjYr3pxvyBlcerDj4CMA6s5PJrrcipXPURZfCLF/0gRkjX0O2oODru2b1JIfAuiUonrSCWM//35pgTGfCPfvc9Hg+Ihhbqh9Gy7fGLlrGXjGjkdV7ioQQjSXNAFZYZ+r5OyNC7ZSt9ExYpyLTHizcwvhAY3088BOPXben+D66YkpQ+gLYKJhBy/Tu44qCHQbu9yuXrjt+18SyD3idwAuUFjFBlszT8KGt2sV5hBCNJecGJgV9rtMnjdULtcLxnQGcGQK6vE/5kqL8s9Nxm6uTm6sfNXJO/5uw7QWg9ATQC+vy2uDfBCNccC/0gtGjzULR21NVld+ZoanjwDoETTjZ6WV2GH+Kcdv/0hRfCFEa9S8azs5R85LcRMwWpqA1Gnep/pwJBBwap9jwvGK6/E1Jqy2gcMRi65r6s+NQSUjSaPJACbC5auVPbIUO6cbvRXmuMeKR69WGF8I0RbyOCBjNX+sH47km1z7GoAj1JXjb8R4JVEVPQE7n//vXf+ZBUaO/QtiXA6gbypqS1Mxq8YegVWz670uRAixD9IEZKSWPdcfNLOLqdlvAyhSU04aIFxlxaL3Ne+LI5pRtGMCEU0C4SdgZWP0dNQIwlFWLPqx14UIIZpBTgzMOC1e2BcaWtbTtvllAMUK6vE/Qj3BOby52+e+lTO49GB28EsGLgHQRVF1aYOBUjserfC6DiFEC8gkIKO0bmX/kGs7mUn7WYDGuFxPmqCPLMo9CrFIosXf2n9KTiAQPJWBSUhhJ+0v9JYVzz0GiDheVyKEaCGZBGSM1o2kNyxocHof/w8jaQ8DMMDdktJCD4MSwWR15X9a/J2b30smqyvjTnXlY3q3MS+A2QTRIACm+2X60mbDoOPs9b/ftv8vFUL4jtwdkDFa/0x67XwrWX3c37VCu54Ix0DdzXA+RSO1wlELnOrKL1sbwdmwcI1TXfmM027svbqJLwEcDKTu/gUvEOOSxlj0Ha/rEEK0gZwTkBFcOdzHGFwyXnO0vzK4hxvx0sXObYH2UMRmb3YpJBlFJT8kokkAzoDiK5k98IgVj17idRFCCJfI44C05sqqdGdD5cpk4agnNMLBlEU7BAhor0Pv51QvnOdWTGdj5RdOdeXcQNeRj4JQD9BAAHluxfcU4Z1A96Or7A0LtnhdihDCBfI4IK25fryvES6ZQEz3ARjkdmzfYlxsVUUfVRI7HAkEuPa0DFo06AB4nYA5icK8pzE/YntdkBCijWQSkJbUnO/fNxI08naUEtM0AB2V5PCXGj3JwxqWVbR6PUBzmOHSYWBcAeB8ZMJUgPAlg/5gN+p/wopbq70uRwjRBrJFMO2oveBnYFk7U+OfE+FaBrorzeU15kqr6qujgblJ5bn6T2lv5oR+CuYpAAYrz6deAsAzzDzHrqqQBT5CpCuZBKSV1NzwN7Qkz0xql8Dhi0E4PCU5d8PAGgKCADory0G43o5Fb1QVvwlkFJdNADuTiehUZMSiQfoIzPdbuXl/xaJIndfVCCFaSCYBaSPlV/wGwtOLwdqFTDgHrHzRyCYAT7LGf7OX5L+lD649UXPwLNT9vW2Ax1jxiv8qir9XoQFTD0zq5uUgXJohuzG2gugRLWk/0Lj0juVeFyOEaAFpAtJCyhuA7wsOufagpJ2cAGACaziaGAe2MeRWYixwCG8SOW9aBe0+2n2RmRkuvf+b5+iK8AqL8g9FLLJDXY59GD7JDNS3P4OJJoMxzpMa3MUgvEoOP5Co+urZlDxiEUK0nTQBvudpA7CHg2Z0MEP2AGIaCNAhDHQDkM9APgH5AJkE1DJ4B5i2kuZsZeAzJnxmJpKf1S+fvXq/OXb+UC6Cyl0KRA9bsfJLlcVvpkDxjDBTcjKYLgTQzut6XPA1M+bYGv64tyuZhRA+Ik2Ar/mrAUgRs6j0MBDeARBQlYPA5yTiFf9UFb9FBpa1Mw2cC3YmA/QDr8txwfcXDb6G/V3PLITwjiwM9K2sbAAAwAiXzSDm2xSm2GQmaWjdsvI1CnO0TP8p7c1A8DMAhV6X4hrCp3DwgOXQ41hWvt3rctLCsGs6YkfIDIa4HSw4DSa2ob62DivuafS6NJGhMnoSMFHHkIPbo56MYIjbUWNjY30u1+LjO7eqz902WdsAABHNDNe+rvQ5OeE/Viz6I/jkE6oZLnn0m8cBmagGjMeItAcS8dtjXhfjufDUzjprRxK0Q4kwEIyBTOhJjALsbfJFSIKxGoQvwfwFg1aA+T3banwPK+6pSe1fQGScNG8CQgOmHuiY5vCk4wwh0oYC3IeBXkToBt7bqbq8A6BNICwH8zIQLWVwlR3Mf9cPu5yyuAEAQuEZvW12PoHKw4oI06xYdLay+M0UKCo9hwl/97qOlGDMJ+IHEqGap7FojuV1OSnRf0qOkRM8hoATwDgeO9e4uPX77QCIg/Aag56xC3LflhMcRaukUxPQc2oo0E4/gYlOAGg8wG7efJsA8F8Cve6AX7PjeQu9uB49qxsAAAgUlfyUif6mMEUjaXxEYknFYoU59ik0eFov29E/AdDJqxq8QKC1AD+k2/acZi0QTT9kDC4ZRw5dCOAnSN2pm5sAfpYdPGQvrZCbHUXL+LoJiGh6Ue0JGtHFAJ+EFJ24ysAqDXgc5DyWiM2KpyInIA0AAMAsLn0MwAXKEhA+tWrzjsDKSIOyHHsV0cyi2tdAGJ/63L5hM/AMiO+3YxVvwCePZFpteCTXbKj7OZgnw+vLtxiLATxobbcfwarZ9Z7WItKH35qAYdd0NBKBKwh8OYA+qappL97buYgx72nVUwFpAICd2w+DzscA+irLQbjLikWvURZ/L4yi0jIi3J7qvD62FOAHrAb9L/ji9m1eF9MiPaeGjHbmVURcAp8t5CTQWoZzm1WXP8ebRlekHT80AYNmdgnoyakMvgqMDqmqo5mqwHSr1S33b6oeuUkD8A0jPGMMwZm/98Ucbcas4QR7SfQVRfH3YBZPOxTQ34XC7Y5prBbAEyDtfit2+ydeF7M/OeGyUx3wnSk4PbNNmLCaHJppVZU/jnSftAj1vGoCQttuNuvbXwFQBP5/NLqUia+0YxWvux1YGoDvCYTLbmbmX6uKT6C1CTs5FMtnbVSV4zs7f7E+gNcj4vSwkIjvTzQ2Pum3rXA54Wv7MyfvYuBEr2tpoTdIdyYnPp211OtChM950gTQ2rQ7Mp3xNwvWdFTdudatkKo+7aalZO/w27odPAFo85HEe9NO0+kQp7ryH4rif8fsfPidACl80+AVIH0CgXcAGAggV10u5XoDdKauG5OMglGdza4jV9gb3/H68QAZRWWlgDMP6dnE9QPTJK3rmEZn40JZKCj2bu18y+l9/DzdtkYCKZtwpd/JqIQhOumXGQWjViWrK11ZVC4TgN3kDC492HHwEVT+gDBfalVVPKwqvBGe8SNi50WovPSIaaxVVf4uAKD/lJxAIHgqA5OQwtO+FHIAvE7AnER85VMpv3+g/5T2RiDnYQKdldK86rxmsXWhm59cRAby4MTAtEX8mKXjCiyuqG1TGLfqySRmuOQyMM1Rl4F3aEyHNVZFP3M99NCSQtOmxdh5j4IS+7r22BxcdjgcZzKIfgpGSFUNqcMrGNqDNll/Rmz2ZtXZzHDpMDDmAThYda5UItBaJpxuxcrf87oW4WMePA5IYzEtSWc2Litf1toA0gDshVFc+jQBpytM8Z4V2jbG5YNqKFBU+iwTTnYx5q6YK62qr47e76fi8NTOBpuXEJxfAtRfWT2pQqgH89+hafdbS8o/UJEiEC47i8GPZkbj1KQ6Ap+XiFc843UhwsekCWiJTWA6+btpbAtJA7A3A6Z3DRj6YpULRYhwcyIW/a1b8cyi0itAuN+teE2o0XX90IZPb/ui+d8S0Yxw7fFgTCbCiQp3WaTSeyA8YNXm/d2tLW+B4rLzGfwIAMONeL5FSAL4lRWL3ud1KcLHpAloiVomnGXHoi+19BulAdgH5c/SCUmGNt6O3b6graECQ6YP4qS2CCoX4xH9zIqV/6W13x4smt7HIbqcQb+Az/axt9ImAv5MGh5sXBL9vLVBzOLSnwN4CIDmXmm+xiC62oqV3+t1IcLHpAloCYvAF7T0BlppAPbDLC67C+CrlSUgfGk1Ngxr02Ur4UjARF0lmIe7WNnu5lrx6NmuROo/JScQCJ3F7EwG0ShXYnrLIdDLSY3vTy7J+3dLTu8yi8t+CfD9yL7fRQb4Cite8QevCxE+Jk1ASyRYwyktOWsm2150Wq5vJGjm1r4PYLCyHMSPWbGKi1r77YHi0lsZuNbNkr6PgVU22T9QsQjODJcOg0OTQXweUnTutmIrmfAHu9F4GCturd7XF+aES05xmP6F7PnkvzuHiM5JxMrneV2I8DFpAlqAd4B4ghWb9X5zvloagGYIDC4Zyg69ByBHVQ5i/DRRFW3x+QDGoNJxpOF1qHsTcZj4OBWnUO3ioBkdzGDyYoCuwM6b7NJdI4C57PD9TV2YEwhPL2bW3gHQPvWl+UodkBxjxe/4yOtChI9JE9B8hGqNMLI5jyWlAWgmI1wyjZhmKUyxxdCSP6hfcsfXzf6OYdd0NBPmJwB6qyqKgIpEPFqqKn5TKY3isglgZzIRnYqMWBRHH4GcBywdf8XiiloMubaTmbTfy4jdEe742iIcgVh0ndeFCB+TJqAlPrQSDaP2d7Jpto4eW8yO5d8J4FWFKTrZSf1RINLs/5+Yjeb9UPjmD+DjRKLhNwrjN4XtePlrdlXFmYZt9yWmm3Ze65vO+FAwzTFtWmWGS+80k8m58ua/i14BB3+BfCAR+7IoUmeF8k4BoHYamRkOMwM5Ffv7okzYkpUi8zmn05GvO5p2MVSttCf01bpadc7GyoX7+9JAcdn5IDTjfutW11JP0H6cXHaHZ2++9qZ3tyc3Lnwj2Tt8t2HnLAFRIVTe2KheEMBRAA7yuhDfIRysF4za7FRX/tfrUoSPeXNscJqiI4zC0UuS1ZVVe/2KVJaTCQLh0jN550ltqiTAGGlVRT/c2xcEi6b3SWraJ4qvr7zaikfvURi/VQLFM8JMyclguhDpeJ63D5AG5IWSCObuvKyvoY5QW6eDvb67j1BPRMMTS8r3+oIlBADfPQ4wNEa7kIP2IQdWklDXqGFrnQ8G7IRqC/agvS3glgagFczikj8BdInCFFVWKO9wLIrU7flHE3WzuO8bAMaqSk6gFxPx8pPg5+tcB5a1MzW+AITJULlDI80RAf0OasTgwfUYVNSAnj0T6Nbdgr7b7C+ZBNavM7Hq6wCqqkJYsiSElV8GvGgK3rDiUV+8qAufC0/tbLKxBgoXZzdF14AjD27A+OI6HNm/HgN6WOjdxYK+2/t9o0VYvi6AZWsCeHtZEG/Ec7F8rSc3s//Bikd/2dQfSAPQGuFIvsm1H0Plee3E91uxiit3/89Gcel1BPxeXV5UW8DQdFqQZRRNP5o0bTIYPwFgel2PH3TuksSxx23DuPE70K1b606bXr/OxJvz2+E//2mHLZtTtxaTiCbK1kCxP8pfC3dzSHcLlx6zFeeM3I7uHVp3P9jir3Pw+Nvt8OjbHVI5IXBAzlFNbQ2UBqCVzKKyo0D8NtStUmeH+ZRkVcUL3+UcXHY4HK6Ewjc5jei0xlj5s6riKxUu7W6ALwPTJAJ6el2OFzp3SWLixM0YP2E7TNOdj++WRXj9tXaYN7dTqhqBr6wauwirZtenIplIQ+HS7iZjOVLwGHBgDwu/PWMTfjJiOzSX3rNr6jU88GpH3PHvTtiWmkbgPSsePXL3/yiLAFvJ2bhwlVYwSiPQeEUpiIiOdXqMehTrK2sxtCRPd/Ay1B6hOycRj6rc6qhWdeUOp7ryLSd8/D1Gvf0JGF2wc6FQxje6mg6cfMo2lJStw8BBDXuM+NtC14H+/Rtx7HE1sCwNKz4Pqn400FHP0dY71ZVyc6BoklkwOgpgtMocoQDj+p9swsOT1mNI70aQi68iOSZjzMB6XDi2Bmu3GoitUv4U40AqGPkeV7+z4vv/MeNfGJUaHzHM6tq3wBipKgUBLyXi0RPN4tIHAUxSlQfgFRblH4pYZIe6HKmXU1R6CIN/wUSXAujidT0qdOiQxJRr1mPYsNR8YI7FgrhzVnds2aL088PXFuX1RyySUJlEpKHB13Uz2fpS5a2ZA3ok8PiV6zC01z630bvmXx/k4/KHu6meBrxrxaO7vFfJBKAtVs53At2PfoOZfw51C1H664WjBwG4WFF8ALCgaSc6sd+vVJjDE8mNlZuTGytfdXqMuk9nrASoF4DuXtflln4HJXDTravRr2/q3icLC22MHbsDny4OYetWZY8EOuiwVjrVlXJCoNhFoOuRvwboGFXxjxtSixfL1qBXF1tVij0MOiCBkw+rxQsf5aOmXlkT0FMrHPOWU71w5bf/QRqANrI3LNiiF45eC+B0hWmUrnJn4Hd2rOXHEKeV9ZWWU135oVNd+Qety6hXiCgIYCDS+KTB4nADfnv9arRv1+y7h1wTCjkYM3YHllYFsXGjoiUphIOc6soH1AQXaWl4JFezrb8Caj79n3Xkdvz1ynUIBVK//aWgXRI/OWIHXlqch0071Lw1a4wuyY2Vf/vufyvJkmWsWPQRENL1DXShHV95u9dFpJK9tOIdKx69wApY3cG4BoQvva6ppXr3acSMmWuRm+vdTs3cPAczf7MW/Q5SNH1gDDGLSg9TE1yko0DDjtMBdFIRe0K4Dn+atB4Bw7vfqZ6dbbw4YzV6dWndzp39YcIJCJd+NwGVBsAlFuzJDKzyuo4WIWzTHf0CYG7r9rSku4/v3GpVRe+yYnn9NeJTCXgJQOo/TrdQp05J/DayFnl53peam8u47tdr0bGjonEpscrzNkS6YbT61tR9GdKrEXN/tdbTN/9vHdjJxpNT10kWResAACAASURBVKqaQhimg3O+/R/SALglNnsziC9GGryBfIuYrmxYettKr+vwXsRpjFU8l4hHf6xpGEBABQDXrz52g6YD10xfh04d/dOzdeps4+qpG0BKXk3oXIyPpO1jGuGe3IFlBzDRsW7HzQ86eOLKdcjL8c9L99BejZh9wQY1wel/TZQ0AC6yYxWvE3CH13U0C+NviXj5E16X4TeNS6KfJ+LRUqvG7gnCJQCada92qpx00jaEww1el7GHoUPrceKJ21SE7mJsqFW2y0akD0tzfgx2f93azWdvxIAe/tts8rNxNTjxB7UqQh8WHHLtQYA0AK775va8j72uY18YWGVp9lVe1+Frq2bXW7HoI1Y8egQc53AAcwA0cTRz6nTqlMTEs305mAAAnHPuJnTq7P6jAA04wfWgIu0wuf9zcFi/Rlx2jJLG1RV3XrRByWQiaScnANIAuG/FPY1Ezvkg+PUUMwdEF+3tcgixJ2vprEVWPHq51aAdAKLLAcS9qOPsn25Grg+e++9Nbi7jzLO2uh6XQT92PahIMxN1Arl+R8TNEzfucYa/n/TuauPSY2rcD0w4Zuf/EUqYxaVTANztdR27I+C2RDw60+s60ltEM4p2TCCiSQDOQAq2EnbqlMR9D36FgAfbk1rCsgiTf9k7pXcHCNEaIw5qwNvXf+11Gfu1bpuOopJ+qE+4+na93opHe8g5AIo41ZXvGwVjjgBwiNe1fM+HFuVdgOr5/llBlpbms7Ox8gununJuoOvIR0HUAGAAgDxVGU89fSuG/sCvQ6X/0XWgvk5HPKbskDYhXHHzxE0Y0js1J/21RX6QsXRNAEvcPS443yw8+nEfDz/SHicM52cA1ntdyDcaiPliOVrVXQ1Vs75KxKMzLcrrRcDZAF51OwcRMG5c+pzQPG78dlfPTRfCbXk5Dk4dnj6/U+eP3u56TJuSg6QBUGlxxQZt55jYe4xpiaqKJV6XkbFikUQiHp1rxaPHuX0oVL+DGtGtu5qDQVTo3sNCnz7+/2QlstfxQ2uRH/TveprdTQjXomOuu/WSA2kAVPvmat05XtZAwEtWVfRBL2vIMq7eNTBkiP9H/7sbnIY1i+xxTFF6/XzqGjB6oLubkIhpgDQAKWAZPA2EZR6lX58w+GIA/l49lll6uxls4CD/7fvfn6JimQAI/xo5IP1+p0a7XjMfIg1AKiyuqAXRBQBSPcdlh/kXWFyh6Egp0QQCo6ebAXv2TL9lG+lYs8gOugYc0j39fj4HHeB6zZ2lAUgRa0n5Bwy6PqVJiR9IVlW8kNKc2a7n1CAA167H03Sk1fP/b3Xrbik6GliItunZ2ULQTL+BaP9uLr8OaGgnv6IpZMdzbwfwRorSVVnB/NIU5RLfytVc3QoYCjrQ03CzrmEwQmm0yEpkj8756flz2SnP5d3bLA1AikUcw6CLAGxRnMgCORdjUcTTo2uzUcg0ct2MFwyl54sVkN61i8zVLk0b0/bu/z5JA5Bq9XASUL8WwCEiWYUlhBBir6QBSC36//buO0Cq6voD+Pe8MttgAYEVhBhUBHZnQSI2iordmKKxxDT9mYYlQUF2Fkw0GVMUdhZBTSyoSYxdEo0llqiIhQWNWIDZBUQFpS+dnS3zZt75/bFiVNqWe997M3M+fyks5xxxd859990SStFfAZRozpPHLj2I/hPlODaPNTkppbMuzU2Z+yOaybWL7LWzOTO/L3eo/3namZl/ExnKLo1cycBZHqUL293sGzzKJXZpdJXe39nUbCCdgQc3p1KEpgz9oBXZbUtDZn5fbk0oXgxEMgDwTKi0ohyEqZ4mZb7KKq08zdOcuW71jGYofMXjpoH165VtKvDM+nUWODNftYos98kWG81O5p1VvWKD4s8BVwYA3hg4Po9BDwDI9zgzgfhvGHJNT4/z5jIGYbXKgGtWh1SG88SaNUovLhFCGdcF3l+feT9TS9cqr3mLDAA8YNv5N4IwzI/cBBxkGam7/cidwz5WGWzZUq/HjZ1XV5t5NYvcUbM885ZHvb5Mdc30vgwANLNKK04FYYKfNRBwjl1a8VM/a8gx61UGW7RI6c5CTyxelHkfsCJ3zMmw66pTLmGe4kELE5bJAECnoVN6ENFfAPj/wono5rwhVw/yu4ysFY6GQmWRC+yyyAtgXKgy9EcfhrBubeasA1i3zsbHH2feFKvIHS8uKURDBi1SfWlJAbY3qq2X2V2aOX8DGchKp+8C8BW/6/hUkWuYf8fYqOV3Idkkv3TSV0NlkRttTnzCwKMATtWR57VXu+oIq8WrL3cFZ95JqyKHJFoMPPFWF7/LaLMHa4qVx7QMS2YAdLHLIj8h4Dy/6/iSY0MbE9f5XUTmixpWacWpdlnk0TQZKxiYAs1nO7zwfDGSLf5PJO1PMkl48aXMGayI3PWnF7pnxEB13TYTTy5UO1gh0LqW+NQP5GlQg/yhUw5Np9Mz/a5jTxi41hoSmZNaGnvF71oyzqGTu9kFfCE4cRVAZV6m3rrNxNyXi3H6mdu9TNtuL75QjK1bVH+s0DtObdWRioOKjHKBaZcN2AjgAFUR31mZh5fihTi1PNgnpt/0zAFoSqod/DN4DgCWGQDVxkattJu+H0BQH4MMMvFXDByvfk4pS9lDJo2wyyJ32vnuWjDfCcDT5r/L7Ed6oDER3B/ZxkbC4//soTwugZ9VHlRkmNlpAC+pjjrl4V5IucGdWftwo4275nRTH5j5ZUCOAlYutLHxWjBG+l3HPjEOsfPyb/W7jEAbEM23w5FL7LLImzCMtwCMA+Drcvyt20w8+oiyByDlHn6wJ7ZuVX91oUuGDAAEADynOuCST/Iw6yUNDVaRq+/vreXQItPFHEAGAEpZQypGMvjXftfRJoyLQ2UV3/W7jKDJK48cFiqLxOzCxBow/grgaL9r+rxnnumGxYuDt4XpvXcL8eyzWj5IN6V6FyzQEVhkFoedZ0FQfjD2dbN76jhkp9PumdsNz72n9HbxVoy3mpdVfwTIAECdwZVdyaD7AGTMugoG3VFQfnVQdin4KGrkhSu+FSqLPOu6WM5ABRS+a1TJTQO33HSghvfsHbdls4lbZpboOvr3IcyNprREFpmlbuY6YrygOmyixcAP/9w3UNsC312Vh0n399YTnPi+Xf8YnP/iDGebfAuAw/yuo516pFzrfuAC9fO2mWD4hO52aeQqO5xY4TI9ycCZyICfia3bTPz++r5oUH05SAc0Jgzc8Ie+2L5dVy3pv2oKLDIR4e86wsZXh3D+zQehJQB3BKzeYuH8mQfpuq8g5RihR3b9S+A/7DJBKFx5PoBL/K6jY/gEq/SQq/2uwkvWkIqRdlnkPjtprwdhJhiH+F1Te338cQjT/nigr4sCE582/5UrdZ37z+85tTe9oym4yEDJ7al/AdiqI/bc2gL8eFYfJFP+DQI+2Wzj69P6Y7WmGT4GnsWSGzbs+nf/HyEyXMGgif1cw3gGgLYXsww8RcBgXfGJcKLZ+7h/u/XzlR5hGyjDKorsXqMuMXuPvoeIfg1gGDLodc2ebNpk4523C3H0MY0oKPD26r0tm01c/9uD8MEHGs/8J7rGra95V18CkXF2LEhZJWO6AjhBR/i6NSG88UE+vj0igTzL20MClnyShzOm9sOqTRpP/XRxqbupZtWuf5UZgE6JGinLuhda3xfTq6naonMA/E1fDoQA8wGMiGbeofP7kVcaOTxUWjHVTtHHYJoFYLjfNam0cmUeKq7uj3ff9e5/3ZIlBZgc+Qo+XqX1xr9PHBQ9qDOByExJ070FhCZd8efECzHyNwfjvY+9u9HyoZquGPuH/li7VeMzCWH+l89/kRmATrDCR00k0GUaU2yxLDotteGP290DxswxDXwX+gYbvU3H6e5uqnlGU3zvjI1aoS7HnGP0GnULE24C0RhonKHxW0uLgddf74qGnSYGD2mCrekBojFh4L6/98Tdd/VGU5PmZweia934H+frTSIy0oaahFky6iCAtO3Q2ZIwcf/rxWAGjjmsGZamTrluq4XL/1qCG5/oqf3VA5Pxc7d+3gef/zX/VzxkKDs8+Qiw+wYAbcNEAr6brI3N3vXv1pCKkWTQq9A3dc0u45vpulhmDgLCkT4W+OdgGkdAf7/L8UOPHmmcd8FWnHzKDoRCaqYwky2El14qxmOze2DrNg+eGQgfOYmiMqyMNutPJjJSONLHZiyHBweuHd7HwbXnbMb5x+6EqWjcu63RwG0vdMeMZ3pgpze7DxY4tbHdzqeRAUBHDIjm24WJtwCEteVgvtepq77ky78cKquMMvi32vICGxyLh2FR9UaNOZSySiedQIZxBRjfARC8Db0+6NEjjVNP24ETx+5En75Oh2KsW2vj1bldW4/39aLxf4oMOi+5pOoxzxKKjGSVVV5D4Bu8yjfwQAc/Gbsd3x+5E317dGxn6jsr8/BgTTH+/lqx8tv99oqQBtFxzpKqt3b/LdFudlnlzQBfqS0B4SOnpXk4Vty6Y7ffGxu17PrEqzpPG2TgqVRt7OzWfwyowZVdbYN/BMIVAMr9LifIBgxoQfnQJpSWtaB//yQO7OPA+tICp1SKsGG9jU8+sbG0rgCLFxVg1SpfxlJznNrYKX4kFhkmHO1ic2I9AA2n5eydaQBHHdqMsaWNOHZgMwb3dTCgd3K32YGmJGH5+hCWrQ3h1aUFeLm2AB9s8OFnivg2J179iz3+lte1ZDorPPkMYvdZ6Pq7I6SZjBNSS6bV7O1L8sojh7ku3oHW6S+63KmtukNf/I4JlU0OM6WvANNFCO59C4FXVOQi/9OdA81NBhJBuGOA0ESGe2Ry8fSlfpciAm5s1LI3Nj4AcCBOMzUMoFtBGl0LGE4aSDQb2KF7nUzbbHRMcwgWT93j1kkZALTHoEm9Qpa5iMF9daUgpt8n66p+s7+vs8ORSz49qlaXRjLdEYH4MB4xzg41FX+Hia4A40S/yxGaEI134lV/8rsMEXABa/4BxsR0brKu6l97+4JADFEyhWUZd+ls/gDeSB5Y+Lu2fKETj/2Nwf/QWEshu+b9CEd9e6deMGhiv1Bp5e9CTd1XMeiRLGj+20C4GRpuNct0BHrWiVf92e86RMBJ8287wi37av6ADADazA5X/JyAc/Rl4AaDzB+159zzFKUvZcIafSXxiBAnrtcWf8/IKqs8xSqt+GfKslYy8XWaB10eoHdAPM6xuL8Tj01wTPMCAO/7XVWArEpa7iUI8poT4T9p/u3xXwdFlfv7InkF0AZ5pZHDXcI70LnYhPlnTl31Pe39Y1ZZ5SkE/g/0DeZcdnHylw+QUO7Qyd3s/PT/AXQ5gCFac3mjBcBsdvm21NLq3fazh8orS9nlBQCKvS8tSLgBZI5x4tPe87sSEWBjo5a9MfEggAv8LiUDbDTTfNyuG//2RQYA+zNinG03dZsHjdfCMuHxVDx2bkf/vF0WqQYwSWFJX/axE3KOwLszt6kObIcjw+HSFSD+ATxezavJSibcmWqx7sGKG+v39YVmacU3DKInkbszcS4xn5+sq37c70JEgEnzb4+dcN2TnKXTF7blizP6LHQvhJq7/YZ1Nn9gbcpxx3UmhpNs/rUdyjsVoCNU1fUlB9st9m0O8AMl0QaOzwuFCs5ndq8AYxQo42d+XQI9T+Te3hLv8m8g2qaD+dN11f82wpWXg/l25N4ggME8Tpq/2Cdp/u2RZOZzU21s/oDMAOyTFZ48huDOBWs7MpnZwJmpJbH/dDZQ6/Y4979gfUfeEviiZG31/R398/mlk77qEl3KoJ8CKFFYml82E/BXMnBHy5LYB/v/8j2zw5FLANyt8fssaBigK4K4zVQEyNioZW1seIhA5/tdSgZIEtEPk/Gqdi0MlwHA3gwcX2yH8t8DMEBbDqKZTrxqoqpwdllkPIBbVMXbDWG7mTaHNy+durLtfyhqWOGm08DuFUT4RpY0uf+CcJuTKHpY1XG1oXDk+8z4O7J9Vo6QBvMvnNrqO/0uRQSYNP924AY26LyOPEjKAGAv7HDF3z89bEYPwmInUXSM4vPOKVQWeYaBMxXG/LLXnNqVJwGz0/v8qvDEAyy2f0xwLwNooMZ6vEFoAvPDMIzb9nSkpgqh8spzmfl+nbM4Pku4Br6XXhJ72u9CRICNGGdbTcUPSvNvA0I94H7DiU//b8f+uNhNqDRyIRMe1piihVzj6OTSaYuVRw5H+tjAIjB6K4/9KQZ+naqN7fEMbru88ii47hUg+l52NDJewTDuSJHzV8RnbNGdLVReMYxd+geAw3Xn8hIDa8mgs3UNnkSWkObfdoxFBnB+S12sw1uKZQDwJQXDKvunUvwe9F27CzBPdOqqZ+oKb5ZN+roB49/Q9/83BfAYp7b6DQCfLurL/zYD4wCcqimnl1wAcwiYlaxd+dh+ZztUG1zZ1Tb5HmTLwifCCw5wMeKx9X6XIoLsAtMuHXAfCN/3u5LAI77Pye9yGRZGGzsVRlU92SFq2KWJl0AYqy0F4QUnHjsDmg89scsid6K1IWtCy8lwL4BLFzHwYwA99eXyzEYC32Mw39lcN32Vz7WQHY5MAPDHDJ5JaQbhV048NhNyyI/YlxHjbKup20MEnOd3KQG3jQhXJOOxh1QEkwHA51ilkUoiTNOYYrOdpmGNy6rWaszRalhFkZ2mhWAM1p4r0zHXEBm3JZNN/8CKW1v8Lufz8odOOTSVTs8k4Ft+19IuhBcMF7/ozPSkyBH+NP/NyKyHFgbwgEOIqJxJkwHAp+yyq78GmAug8T55r+85b30fzzUAbK9yZpAEmB6Ewbc58di7fhezP2Z55JuGi5kADvO7lv34mAhTVD2hiCznT/Of5VDReBuN48AcRfAHAnF28Qsdp7HKAAAA+k8ssIuthQBKNWb5i1Mb+6nG+HtklVVeQ+A9LtjLUUsBvt1pNu/Fh9O2+11MuwyI5tsFiUtBmACd21M7gAlryKUbHKfpnqDNooiAGjHOthqLHyaiDp+C2gGznNrYZdj1SmrolB6hdHoCA1cC6O5hHW2xhAg3JOMrH9W1DkkGAADscMWfwXSFvgy8wqEuX0M82qAvx95cYNplh8wB+ATvcwdGipmfBBm3pWqr5iDj30dfYIbKvnoegyYBOMbfWugdkHu7k+hyn+ItrSKb+dP873RqY5djTz//A8cXW3kFlxPzOACHeljT7phrCEYsWVf1BDR/VuX8AMAsjZxlEJ6GzhXzTMc7dVULNMXfr/zSSV9NG8Z7YHTzqwY/EGgdGHebaefOpuUz9N2a6CMrHBlNwCVgnAudO1e+aBOIngC7d322E0SItgpa8/+CqGGVJ06lNC4B4ZsAunpRHICVRLif0un7WpbetNyjnDk+ABhWUWKnaBGAA3WlYMJvU/HY73TFb6tQuOIHzPSA33V4gvAKMd+WLNjxOBbOcvwuxxPhaMiixFhy6QyAzwBQBlU/34Q0XMRB9CJz+olU3cfzPN8aKbJDoJv/lwyI5ucVNZ7ugs8EYyzUviJuBjCfGXMI9KJTV/VGu+tTIJcHABQqjTzJraM8TRkw3+lddALmRlPacrSDXRZ5AKou9AmenSC+j9i8LVk7Le53Mb4bPqG7lbKPAdPXiN3BYAwG0VfQegdD3l7+VArAagAfgehDBq8A6I0UCv/rz+srkVVGjLOt5m6PEOM7Hma9w6mNXQEVzbX8VweaaWcEGRhGLoYB/NVPf6b6YG8LrQnbAWwhxjImWgrGMna5LtWQehOrZzR1uqZOytkBgF1WeRnAt2tMsdM0zeHNi6d+qDFH+wyf0N127OU6Twn0wRIwbnNcuh/Lqnb6XUxGOHRyN4QMK9/mbkg56WbL3oHQloacmS0R3sv05r8/A8cXo6DIzAd6GEm3uRHYmQmfRzk5AMgLTxnocuodgLpoS0J0iROvuldb/PYYXNnVtvB9uPwLEIb5XY4CSQBPMPOsVF31S8j4RX1CZDE/mj/TXU5d4WVtvZo7VwVrADB8QnfbCQ2Cy0MINJCJDwTQhYEiAopAsImpkcENYNoG4h0Av89kLLdNvN+0qGr1fnOEoyEbjTVgHqHrP4PB/0jVVvt+jGvrFcHpK8D0IwDFftfTWQysBuPOlIG75VhZITJA6z7/Rwk4x8Os3j35Zzhfrx7NK40c7hp0EoCTmPkESuKg1qvCAf7c/7vPRin8uV8n/ux3iRmpFGCHI9sJ9Lrr4hUi91WnpMvCL79/D3HiegY0Nn+sTlH6Ul3x92vEODvUVPwdJrqC2T0RHKwxXgcwgJfIoNudXoVPBmU9hRBiP/xo/oTbnXjsF5Dm3yaed4dQaUU5DFzMTBcCOFhzui1g+icbeCgVL3zFGpI4ngzMAWBoyucy6PRUbdVLmuLvVcGgif3SljUOoJ8zuK/X+TXYBsK9Ropub1lWtczvYoQQ7RCOhixOPCLNP9i8GQCEo11sTvwYwCUAjvQk55cwYQ0xLGjc8gdgulMbq9AY/8vIKqs8GeDLCTgbPs/oqPHpwTImHsSi6oTf1Qgh2kmaf8bQ2zAGV3a1Df4JcWIKt26V8A0x+mlOEXcai67VnKPVwPHFdl7B98A8HuByT3Lq9blFfbEX/S5GCNFBI8bZVpPHzZ/pLqe2Spp/B+iZAeg/sSBUbE9m8ERkweKzNmgmGEfp3n9uhyPDwbgcwA8BFOnM5ZGVTLgz1WLdgxU31vtdjBCiE1qf/B/9dDbSG8S3OfHqX0Kaf4conwEwyyPfNBi3MPMhqmMHWKW25h+OhkKcOJuBcWCcqiWHt1wAcwiYlSwpelwW9QmRBf437e9d82e6y6mNSfPvBHUzAKUT+lpk3+7pN0AAEPBcsjZ2FhR/E+aXTvqqS3Qpg36K1tPbssEdhoHqliWxD/wuRAihiB9P/ow/O3Wx8ZDm3ylKZgCscOVJBuOBLFl93h6bkuz8BMq+CaOGVdpwMhGNSwPfQVYs6vuCfGn+QmQRP578gVnS/NXo5AzABWao7JDrGHwd9G2tCywiuiAZr/pHpwMdOrmbXcAXgvkqtF7ikrWI8b1kXewRv+sQQnSSH6v9gVlObewySPNXouMDgGEVRaGUMZvBX1dYT+ZgusupqxrXmRB2eeVRcN0rQPQ9MApUlRZwWyyLjmjTqY1CiGBqbf6zCfi2d0n5T05t9ZWQ5q9MxwYAQ6f0sNPppwCMVltOxvjASdPXOnTZw8DxeaFQ/rcZGAdkxaK+DqBXndrCk+ScbiEykB/v/OXJX4t2v2MuGFbZP5VKP48sn6reBwfkfh/Lprer+eeVRw5jF5cx8GMGeuoqLjPwCVZZ48RULab7XYkQoh1am/8/CPiWd0nlyV+X9s0ADJrUy7aM1wAM0VNO8DHztam66j+27av/t6gPhHPBMPVWl1FaQDjOicfe9bsQIUQbyJN/1mn7AKD1VL85IBylsZ5gY65x6ladAMxO7/PrBl7T28pL/ZQYlwIY4EltmSnu7EgdjdUzmvwuRAixD748+eNWpzZ2FaT5a9O2VwDhaMjmxGNADjd/AGzQVxEe0Btx7PEqWmtIxUgy6AogdQEYeV7Xp8FStJ44+BVN8cN2sTXNAa7UFF8I0VnS/LNWm7bu2W7iJuTsgrX/IUY/G3gMA8f/r7kPiObbpZGL7bLKt8mgGgA/AjK6+bsAXjSIv+3UxsrYML4Hwr5nPDrnl2ZpxTc0xhdCdNT/Vvt72fzvlObvjf2+AsgLV3zLZXqiLV+bQ+4wGDcx+KdM9DNkwaI+AtaD+V4DfHtz3fRVn/+9UGnl75j4Oo3pNzqGPQxLbtigMYcQoj182eqHO53a2OWQ5u+JfTb1/MEVh6RNehtAd4/qySSMbBgUEV4h5tuSBTsex8JZzh6/ZmzUsjcmXgdwrK4yGHgyVRvLqWOkhQisgePzQnb+P5jwTe+S0i1ObdUESPP3zD4aWNSwSxteA9Eo78oRHtkB4vuJzdvaeolRXnjKQJdT7wDURV9ZfJlTW32nvvhCiP2S5p8z9joAsEsrfgqiu70sZpceZhojuzajrKAFh+c76GW7KDRcWMRodAlbUyY+aLGxrCmENxrysarF9qPMTLQEjNscl+7vyCFGdlnkJwDu0VDXLgkjTSNallUt05hDCLE3A8fnhfIK/snM3q3LIdzsxGMTIc3fc3seAAy5pqdtpJYC6OVVIX1DKXy/506cf8BODC9sgdGOyfWPWmw8tbULHtjUFe81ZvL6Oy2SIDzOrntbqm76q50NZpVW/JOIzlVR2B4x3nIKt4/a6+sIIYQe0vxzzh63AdqUvhEeNf/ywhZU9t2K8w7YCbODb9QPyXNwZZ+tuLLPVixoyMe0tT3x3LbCnP6OYmA1GHemDNyNeGyP2xY7IsX2OItSxxFwkKqYX0A4KtRUfH0S+JWW+EKI3Unzz0m7tdz8oVMOTafTy6D5KtoeZhq/7rcFVxy4rV1P+201b2cBrlrVG0tyb0ZgHgE3J0uKHsfcaEpHAqu08jQifg76boB02eBTUkuq52qKL4TYxY/V/kQznXjV1ZDm76vdWq8djtwFxs90Jj2rewJ3HboBPS2d28uBFBNuWHMApq47AG52f5ttA+FeI0W3e/X+3C6N3ATCRI0pVjkhZzjenblNYw4hclvr5WSPMXCWZzml+QfGFwYABeVXfyXlmisAhHQkMwj4ff9NuLrvVk/3z720vRA/XNEX29K6Hlj9Qu+A3NsdEw9iUXXC09QDx+fZdv6bIAzTmOVBpzb2Q43xhchd0vxz3hf6sB2unAHmCToS2QTcfeh6XNiz/TfoqrCkMQ/fWn4Q1iW1vtnwQguA2ezybaml1fP9LCRUWlHORP8FkK8rBxH/MBmvflBXfCFykn/NX+esoWin/w0AWs/7XwMNi/8MAu47bB3OO6BBdeh2+aA5hJPr+mGDk3mDACasMZjuTibNP2PFjfV+17OLXRq5CoSZ2hIQtptpc3jz0qkrteUQIpf4cba/NP9A+mxOyXzt+gAAIABJREFUPOQ2fAOaVv5XH1zve/MHgMPyk/jnoLUoMDJm9skl0LMG8bdT8aKDk7VV0SA1fwBw6mK3EPh5bQkY3dKGey9wgVylLERnDRyfF+LGf3na/BkzpPkH02cDAJfoYh0Jzu+5E1ccGJx1XEcVteCmgwPVQ3dH2A5gFhlUnqytOqslXv0UEHX9LmsvOGnhYgAaz/HnE6yyQyr1xRciB4SjISuUP5vBX/csJ9FMpy52tWf5RLu0vgIYPqG7nbQ3QPHivwF5Dt4q/xhdzOD1rh+u6It/btF4qm3H/BeE25xE0cNYGW32u5j2CJVWnsPEj2tM4cCgUc6Sqrc05hAiOw2I5ocKGx/ztPmDbnJqqyZ5l0+0FwFAqLTiO0z0mOrgjw1ai7O6e7s4va3WOyaOWDwA21O+7wxoAfAkE25OxWPz/C6mM/RvIeUVDnX5GuJR/98nCZEpwtFQyE3809Oz/Rkz5Mk/+AwAYDLGqg58erfGwDZ/AOhjp1HZd4uPFfAKBlU4lDrIqY19N9ObPwA4Jk8A8L6+DDTQ5kS1vvhCZJkB0fwQJ57w+GKfm6T5ZwYCALssshhAucrAL5WuxuiuTSpDKpdwDQx+bwA2OZ6tL3MBzCFgVrJ25WPAbL0nIfnAHjJpBAxjPgBtNzQZRGe3xKue1BVfiKwgT/5iPwiDJvWyLWMjFN5tP7JLE14uW60qnFbXr+mJG9ccoDvNRgLfYzDf2Vw3fZXuZH6zSiPXEuH32hIQ6h1gmMo7DoTIKgOi+aHCxOMMnOlh1ulObazCw3yikwzLNodCYfMHgIt671AZTqsf9dyp71RCooUgutTZkRqQrK3+VS40fwBI1RXdAMIr2hIweodc3AvF37dCZIVwNBQqSMz2tPkzZkjzzzwGMQarDGgR49wA7Plvq8PykziqSPWCe14BwteceNVRTrxqFlbPCPa7EOWirpk2LwGgbSTIhNPtcOUvdMUXIiMNiOaHuOFJb9/5Y7pM+2cmA6R2AHB0UTO6B3Db376c0k11f6akE4+9qzhoRmleOnUlmH6pNQlzLDRk8lCtOYTIFAPH57U++dMZ3iWlm+TJP3MpnwE4vjjzHnZPLG5UHfKrqgNmIqeu6j4QPawxRT4b6fswcHzO3fksxBcMiOaHQnmervYnoFr2+Wc2g4E+KgMOLWhRGc4T5eprLsKgSVqOVc40jp28HMAn+jLQEXYo/4/64gsRcAOi+aHChn95+eRPQHWyNhbxKp/QwwC4WGXAQQWOynCe6G2ncYCl9rVFnsHatxZkhHdnbmPghyDo3PI40SqrPEVjfCGCaeD4vFBR4z+8nvaX5p8dDABKz8PtY2fm1vY+ttqBi2uahUoDZrBUbew1AqZrTGGA+F4MuaanxhxCBMvA8XmhvIJ/MvM3vEsqx/tmEwNAV5UBu2bYAsBdik21NwQyUKQ0YIZL5m+/FsB/dcUnRj+LnFm64gsRKL40f0yX5p9dDBCULqDKo8wcAKivm2Vh2uctnOWQ6V4MQPmKy12I6Fw7HLlEV3whAqH/xIKQnf+kl82fiGOy2j/7GGAoPbA/4fp+uU6HJFzFxwGnkXnbITRLLp6+FEx63x0y35pXGjlcaw4h/DJwfF6omz2bCad7mHV6Ml4t13FnIYMJO1UG3JnOzAHADlftoXJkmtqedDOZU1d1OzGe1peBurgG7sXYqKUvhxA+6D+xwM7Lf8rbJ39UyZN/9jKI1Q4AVrZouwNGG5eBjxXXbYCCexWivzhp808BbNCXASOtjQ2/1hZfCK/1n1hgd7OeAOM0r1ISoSoZj032Kp/wngGoHQAsbwqpDOeJj5M2mhXPALSYqXVKA2aTRdUbXeafAlC78vJzCHStXVp5nK74QnjGj+bPPE2af/YzGKz0gpq3GzNv7dvChPKaN2NRtcwA7EO6rvrfIL5dYwoLxA9gcKXSXS5CeKr/xAK72HrS0+YPVCfrqqd4lU/4xzCIlqoMOHdH5m1/V18zZ8ZdyD5z8rtEANRpTHGobbo3a4wvhD67mj9wqlcpiXmaHPKTOwwwL1MZ8P1mGyuaM2cdAAN4frviLftMtWoDZqmF0UYg/UMASX1J6MehcOQ8ffGF0MCP5g9MlSf/3GIwqR0AAMBDm5SeLqzVqzsL8HGL2gXjTHhbacAs5tTe9A4zrtOZgxl3F4QnH6wzhxDK+NP8q5O1sWu8yieCwXC2u0sAKL0N5++busLRtrxLrb/Vd1MflDmnrwJur1RdUTWAlzWm6J5i9x4gmpl7VEXuaG3+T8HrJ3+Z9s9JBlbPaAJhgcqgnyRtPLI5+LMAH7XYmL1Z6VUIAJBKOS1vqg6a3aKulUpdBGCLxiSnWuGGCRrjC9E5/3vy9+xiK3nyz20GADAwR3XgqWsPQJLVbq1T7YY1ByClukbmN7Hi1h1qg2a/puUz1hDjCp05iOkGOzz5CJ05hOiQEdFC75/8+UZ58s9trVOirH76dUWzjRnreqgOq8z8hgLcr2GtAhG9qDxojkjWxR4B8X0aU+SB3QfRf2KBxhxCtM+IaKHdlPD2yZ84lqyt/pVX+UQwGQCQKti+AMAm1cGnre2Bpc3BOxioySX8cmWJllNoGLhYVp13nNPS8ksQPtKYoswutqdqjC9E27U2/6fg7bT/DXK2vwB2zQAsnOUA/LDq4I2ugR+83weNAbsgaOKqEsQbtQ1MBjDjH3Zp5OVQecUwXUmy1opbdzBwEQhpfUl4vFla4eU1qkLs7n9P/id7lbL1yT8mx2QLAMBnV+CZJSM3AfRz1QnqUxaWNYXwnQMaYARgScCfN3RD1doD9CciDADTz83eo0rckmPfQP0CuR2wjdz6mk+sXmMsEE7UlIIMMk5K9zjuXmyeL5c2Ce/59eRfWy0L/sRnPhsAuPXz15q9R18IoLfqJEubQ9iYsvD17gn4OQZ4dHNX/GLlgfoOoN+dAdAxJoyfmb3H7HDrD3oHqM2QDZL+Spef9pqZcM4E0E9Tiq6GQYPd+hrlM19C7NP/mr+HT/70x2Rt7Fqv8onMYH7hX3qPNgB8XUeitxP5+KjFxlndEzB9GAXctbEbLl95IFx/2m8hgG+avbudbfQcXeduqlF6/0JWWjnXtXuNfoWJfwyQlvc1BAwxS0atdetr5OAm4Y3W5v80vG7+8Spp/mI3X2zFrftQPwJwoK6EY4ubcO9h63GgndKV4gscBn79SS/csj5IOxLoUYso0hSf9rHflQSdXVrxUxDdrTFFwnDTR7YsvWm5xhxCfL75n+RVSmn+Yl++MAOAHQtSRq/RBpG+m6dWtth4eHMxhhQkMTDf0ZUGALCs2cb57/fDY1sCdyFc2AVfapSMtty8Y9/EjgXejIYykLup5h2jZPQRBJRqShFiMo5zDy7/G9YtdDXlELnOl+aPPyTjMa3HbIvMttvy/JRLt0PviWxY75g4Z/lB+O77ffFhi/qLg7anDFz3SS8cvfireLMhX3l8RQqJcb1dbNWGwpXn+11MkKUcdxwDazWmODrU1C2qMb7IZdL8RUDt8W28Ha78JZhv9aIAixgX9GzA+AO34siizl1JsCZp4e76brh9fXdsSwdr62EbvEyucVVy6bTFfhcSRFZ55HRy8Rz28j3baYQ0M05K1cZe0xJf5KYR0UK7MfFvEMZ6lVKav2irvXyYXmDaZQPeBHCkl8WUFbTgvJ4NOKm4EUcXNcNuw0d9XVMIL+8oxFNbi/DKzkK/FvmpkgLjTsdI/QbxGVpnYTKRHa6cAWad5/mvdJqN4fhw2naNOUSuGFZRZDv0tKfNn+n3ybqq33iVT2S2vbZYu6ziWIBqsIfXBF7IMxiH5ycxMM9BTyuNHlbruTA7XQM70iZWNNl4vzmUiU/6bbEZjOucupWzgNkaD8TJMAOi+XZR4k0whmrM8oBTG/uRxvgiF0jzFxlgn8/YdlnFrQD90qtixJfxe+zSVamlsVf8riQoQkMmD2XDfROAtsUdRPhBMh57SFd8keWk+YsMse9J9oHj8+xQwXyAv+ZRPWIPiPG0web45qVTV/pdSxDY4chEMG7SloCw3XTdI5rrpst5DaJ9/Djkh3lasq56ilf5RPbY71v2vPCUgS6nFwJQf3WeaDtCE7l8S9Lo8gfEow1+l+MzCpVFnmbgLI05XnNqV54kr2BEm0nzFxlmvy/QW+JTVxDhMi+KEfvAKGCiyTYnlsi2QbCVpp9Dww2Wn3O8FR4gd6WLthlWUWQ3J56Bl80f+J00f9EZ5v6/BEjX1ywxeo1OE3n3zS32qjuA75olo0+yDhz1dnpjzQa/C/KDs3neTqvXmPdB+J6uHAScaJaMed6tn7dGVw6RBUZEC+2k8zTg5Tt/npasq5YT/kSntGkAAADupppXzZIx3QEcp7Ee0XYDwHSpWTJqoNvtxNex5fWcu9UuvWneUrNkzFegb7uqCfBJbsnpf0X93KSmHCKT+XHIj0z7C0XatYfOiRdOAlHu3Z5GWAzmidA75dwRBpguskOpOrs0cjlwQZsHdNnCQeEEAO/ry0ADbU7E9MUXGWtYRZHd1PgsvGz+oOul+QtV2tkw5rJbf9C/zF49+oIwQk9JAcN4y0m5p7vLps9x+x1zl5UyCETHoN1/d1oVgvANs3f37xolx69w6+d94HdBnqmfmzR7jqwB0Y+h7//JUXbJmHfS9fOWaYovMo0P0/4Mjjq1seu9yieyX0ePVaVQWeVvGfxbpdUEDeEVp6X521hx647P/3Le4MrBbPJMBs70q7R9IcbThstXNi+r/sjvWrxihSuuI6bfaUtAqHeAYYjH1mvLITKDD9P+DI6maqul+QulOvzElK6fN9fsPWorQKfBp9MCtSK6x0kU/QAfViW+/FvpzfM2p+trHrBKRi8BcAxaF+YFB2EQG/Rzo/coO1duG3Tr+80ze3c/BcDBmlIUWUBZur5GDgjKZeFoF9tpfAYeP/lL8xc6dPpiFTtceQyYHwEwoPPlBEILGJOdutjNbfrqcDRku4nLQfg9gMDdO8yENeTiV05d7D4AmX1Twn7kD644JG3Su9B5ZgXhl0489mdt8UVwyZO/yDJqblYbNKlXyDLu1Xwwiwd4BZgudOpib7f3TxaUX/2VFFtVYL4Qum6s6wzGXDL5quSS6kV+l6KTXRq5GIR7tSUgNBHco5Lx6bXacojgCUe72Jx4BsDxXqVkwm9T8Zi+11oi56lsVGSHK34GphsB9FQY1wsOgauTO9K/x+oZTZ0JZJVOOoHIuBnAcEW1qUNIA3yng/R12XzboB2OPAzGhfoy0DsOFR6HeFS2BuYCaf4iSyldNe3W17zt9jnhLpNRAOBoBPFJeHfziPlbybrqh1S8K3c3zV/l1p9+l9nL+RCE0QCKFNSoigHQ0SaMcWav0c1u+ekLsXKu63dRqrn9jnnRTJs/ANBNU4q+FiXz0/U1L2iKL4JiWEWRnXaeBuFEr1JK8xde0dag7XDlMcT82+C+FuD3yDB+l1xS9Th0vRsfOqWHnU5fD+ByAJaWHJ3BWMQmX5VaUj3X71JUs8KVJxHzi9C3QNVl4tNS8eo5muILv/ny5M+/ScWrf+9VPpHbtD+h26WRI9nAtcQ4G8HYLfAuMf8uWVf9L3i0KC5UNjnMcG8GcIoX+TpgtsluJNtuvwuFI9OYUakrPgOrU6Y5DIunbtWVQ/gkHO1ic8OzAI3xKqU0f+E1z6bo80ojhzPoIia+CN7vGNgG4BF2+d7U0ur5Huf+TKi88lxmrgbjEL9q2CtCEzFVJXc40zq7DiIwwtGQzY0L9F5nTY86tVUa1xsIzw2u7Gqb7jPS/EW28+MdPVmlk44nw/gegJPBGKwlCbCegZeI+enkzvQTgWlqA6L5VkGigghTEKz1AbusIiCSrI3N9rsQFULllaXs8lsACrUlYfyfUxf7u7b4wjt+NH/Gdam62B+8yifELr4v0isYNLFfyrRPhsEnwOUyEA1G+3cRJAAsA2MZwG8S8GKyrjqOAO97l22D3rFLK68Asc69+zvMNA/PpZMXs5I0f5Fjgtd4AGDINT0tyx1sMvdiuF0YRhcGegAAudgJcAOBd7omtlpp/qi5bvrHCHCz3xerLHI8gW7WO03dQbu2Dabt32DpjZv9LqcTKBSufIqZv6EtA3ONU7fqBGB2WlsOoc/gyq62yc8CGO1VSmn+wm/BHADknKhhlyZ+BEIMQInf1ezBVjCudw4s+jPmRjPzWOGB1/QOhVKLGOijK4W8x81QwyqKbIeeBnl4vK98r4gAkAFAkAyf0D3UYk1hookAQn6XswdLmYwJqfi05/0upCOscORMYjwDfd/3KTAd79RVLdAUX6g2rKLITtO/wV7u85fmL4JBBgAB1HrbIGYw+Ot+17InmXzboF0WuR3AZRpTfOikaTiWVe3UmEOoIM1f5Lgg3WkvPtV62+C8B+ySUW8z6Fh8uv4hMAiD2KRxVq9RXdMHnr4A9XMz5khct+j0l0zbOQf6XrX0ME0qcevnPakpvlBBmr8QMgAIsnR9zXK35PQ7THY2f3qscJ7fNX2ODaIxBjn/Z/YavcndVJMZuwW2zU2ZvY9bABg/hr7v/yOt3qPq0vU1cU3xRWdI8xcCgLwCyBiFgysPcix3Kph+hCD+fyO8AhhXOfFp7/ldSltY4crJxDxVY4qtlpE+omnJTZ9ozCHay4/mL6v9RUAFr5GIfbLDlceA+RYAx/pdyx64IH7AabEnYcWN9X4Xs29Rwy5LvADgZG0pCC848dgZyNAtqllHmr8QXyCvADKMWz9vjVt/+l8CetsgAXSEabo/C/5tg3M5r++YOa6LSwAUaEpymNlr1DZ3U43sCvDbsIoiO2U8A0jzF2IXmQHIZLJtsNNC4ch5zPiHxhQtIOPYTHk1kpU+a/58glcppfmLTCADgCwg2wY7xy6L3AfgRxpT1Do7UkcF5j6KXCLNX4i9klcAWUC2DXaO2/X4OabF3wPQXVOK3ma+WeTWzwvsTEhWGji+2Cb7BcjxvkLskQwAsohsG+ygrfNajJLRbxHh/wAYmrIcS71G/5c31byvKb74vIHji+1Q/vMAjvMqJTNfm6qr/qNX+YToLHkFkKVk22D7hcKVf2DmX2tMsdEx7GFYcsMGjTmENH8h2iR4jUEolRHbBk1UYFH1Rr+LwdioZW9MvA6Nf1cMPJGqjZ2jK37Ok+YvRJvJACAnyG2DbZVXHjnMdfEOgK7akjB+7tTF7tYWP1dJ8xeiXWQAkEsyYtsgJqbisef8LMIOV/wcTLM0pkgYaRrRsqxqmcYcueXQyd3sfPc5SPMXos1kAJCDZNvg/tllkUcBXKAtAdFCJ3/bSCyc5WjLkSuk+QvRIbILIAfJtsH9c3uMfNkyjIug71XAQVY6n9L1NS9rip8b/Gj+wK9TddU3eJVPCF1kAJDDZNvgPmye30i9Ri8igs5dFGOMnqNfcTfVrNIUP7v51fxrY9L8RVaQVwACQAZsGwS9CqIrvd42aJdV3gzwldoSED5yWpqHY8WtO7TlyEatzf95eLi7RZq/yDYB/KAXfrLDk44GG7fAw6eqdvB+2+DA8Xm2nf8mCMO05SC+z4lXX6wtfraR5i+EEjIAEHvw2bbBKgAH+l3NHni6bTBUNjnMcN8CkK8rBxF+kIzHHtIVP2tI8xdCGVkDIPZgLrubat5z+x1zt5UyCETHIFjfKwUgnGk2OhcaJaNXuPU1K3QmS9fPqzdKRjUR6AyNaU4J9Rr5cGrT/O0ac2Q2af5CKCUzAGK/8oZcPYgNcwYDZ/ldy554tG2QQmWV/9a8dfI1p3blScDstMYcmcmX5k+/StVW3ehVPiG8FqSnOhFQ6U3zN6frax4M9LZBgy43e4/p7R4weh42z9OybTDvgNEvuwYuAVCoIz6Arxq9uifcTTXzNMXPTNL8hdBCBgCizQK+bdAEcKxh4mJd2wadzfN2Wr1GvQ+iC1XH3oUIY82Skc+59fPX6sqRUaT5C6GNvAIQHRL8bYN4E0TjnXjVm6oD22WRewD8RHXcz6lzCoqOwsJoo8YcwSfNXwitZAZAdIized5Ot77mcbNk5DMADQXQ3++avqQfgJ+aJaMGun1HzcOGmoSqwG7fUS+ZrnE+gJ6qYn5JbzOd7OHW1zyjKX7wSfMXQrsgPrmJjBP4bYPbmGhqCoUzEI8qWR9gl1ceBZdrANgq4u0BG8Rnt8Srn9IUP7ham/9/ABzjVUpp/iIXyQyAUCDw2wbzCTjVJOe7qrYNuhvnrTVKRhMBJ6kocA+IiU51S0bfh/qaBk05gkeavxCekRkAoVxGbBu0zKuaF0/9sHORooYdTswB40Q1le2OgOeStbGzALCuHIHhR/MnXJOKx6Z6lU+IIJEBgNAmL1zxLZdpBoDD/K5lD5IA3eGkcS2WVe3saJD8wRWHpE16F0Cxwtq+iHGFUxe7XVv8IJDmL4TngjRNK7JMur5muXtw+e2mk5+12wZTm2u2mSVj1gE4R215n0M4xeo16on0phpv7j/wmjR/IXwhMwDCExmxbRB8pVNb/UZH/rAdrnwIzN9TXdT/0DsOFR6nahFjYAyf0N1O2s9Dmr8QnpMZAOGJzNg2SD/p6LZBt9/RL5lp8wcAummqr6/FyVB6U82LmuJ7T5q/EL4K4pOYyH5kl0YuyrZtg1bppBPIMOaAtQ2sXSY+LRWvnqMpvnek+QvhO5kBEL7IlG2D1HvkB1w/v03bBt1N81dZvUd3BTBKU10EolPdkmP/hvoFTZpy6OdL86cpqXhsmlf5hMgEMgMgfBcqryxl5pvBOM3vWvaEmR+zXFS06bbBcDRkc+INAMO1FUR4xInH2r/eYEA0vyC0vadrWoUuu8VsUVekYZFpbEMqzVbI3NBkb9uAhbMcDVW3Gjqlh+26L4B5hLYcX8Rgvtqpq57pUT4hMoYMAERghMoqzmbQdARz22AzEaqTJk/Foup9rg8IhSeVMYy3wCjQVg3TxU5d1X17+V0KlU0uY3ZPgIGhYBwO4HAAXwFg7DcyaD2DPwSwGIxFMOm/zpKP3un0NcXS/IUIFBkAiGAZOD7PChVcTXB/BVAXv8vZg0+IuTJZV/0I9nE4jx2O/AKMP2msY4eZ5uGfzUoMuaanbabPY9c9gww6HozeSrMRtpOL15j4accI/QtLbtjQrj/vS/PHRKcudrNH+YTIODIAEIFUMGhiv5RlTQPwAwTz+/Q1EK504rF39/L7FCqLPK35NMR5BLodhO8z8+nQdy/Bl7kAvQ7CX5ztzqNYPWPf6xGGTulhp9MvAjjSm/Kk+QvRFkH8YBXiM1Y4MppAN3v45Nh2hDQYdzsp91osn75pt98v/9WBtussAlDifXGe2QrgL3aabmpcVrV2t98NTzzAZusFSPMXInBkACAyQNSwSxM/AeGPCGYz3Qpw1CnpchvmRlOf/41Pj0N+Atn/s9YM4r9YTvqGpuUz1gDwp/mDJzi11bd4lE+IjJbtH0oim4SjXULcWMHgKQjWscKtCMtcdiema6c/+/lftssidwC41KeqvNZIzLeatvGnVIofA3C0R3ml+QvRTjIAEBknVF5ZijTPZMLpfteyJ7ttGxwRLbSbEgsBDPG3Mg+1vh7x6mwHaf5CdIAMAETGskorTiWiWwCU+l3LHnzhtkG7NHIkCPMBhPwuLMtI8xeig4J0+poQ7eJuqvnQPbh81qe3DY5CsF4LtN42aOD/zF6jNzl1seeN3mNSBJzid2FZRJq/EJ0gMwAiO5RO6GuTHQXwM+z/sBs/vMkuTyCD/gjgJL+LyQLS/IXoJBkAiKxilU8eRcy3BHXbIDFeYOB0BHOQkikYwFVObexWvwsRIpPJAEBko6DfNig6Tpq/EIrIGgCRldxNNe+5JaffYSHlABgJwPK7JtFp0vyFUEhmAETWyxty9SA2rZuY+Rt+1yI6TJq/EIrJAEDkjIBvGxR7J81fCA3kFYDIGQHfNij2TJq/EJrIDIDITcHfNigABtGVTrxK57XKQuQsGQCInGaHJx0NGDeDMdLvWsQXSPMXQjMZAAgh2waDRpq/EB6QAYAQuxw6uZudz78BeDwA2+9ydCAD6NkzheLiNAoKXABAU5OBHTtMbN5sgV2fCwQYTL906qpu87sQIbKdDACE+JLQ0ElDkKaZDDrD71o6Kz/fxfCvNaJ8aDNKy5pw0EEObJv3+LWOQ1izJoSldflYsrgA775diOYWzz8iVjolRYdjbjTldWIhco0MAITYi7xw5bdddqcDNNDvWtpr4OHN+PpZO3DsyAbk5+254e9Pc7OBN+YX4Zl/d8MHH3i4YYJovEz/C6GfDACE2JeB4/OsvPyJxPxrgLr4Xc7+HHpYC374oy04Ynij0rjvvluIB+7riY8+9OQ2482OaR6OxVO3epFMiFwl5wAIsS9b3ky79TWv5x8w5l7X5BKAhiGAA+f8fBeX/GQzLr2sHn0PcpTH79PHwamn7kDXYhd18QKk0lr/Cgot5pZ0fc1cnUmEyHWB+yATIsjs8sqjwHxLkLYN9uufxKTIBhx8cNKTfGvX2Jge64NVqzTOBhC2O7YzAO/O3KYviRC5TWYAhGgHd+O8tW796X81eyU/AdGxAHx9LXDkkY34zfVr0bNn2rOcXYtdnDi2AR9+kIf167Vtlsg3UuZWd1PNPF0JhMh1MgAQot3msrup5h236/F3mRZCAI6CDz9Lo8Y0YFJkPUI+bFi0LMbo4xuwZnUIqz/RMxNAhMPc+tP/BMzt2CpGIcQ+yQBAiI7aOq/FrZ/3H7vX6Idh0KEABnmVetiwJkyKbIDl4yXHhgEce1wCK5bn65oJ6GGUpOe79fM+0BFciFwnAwAhOim9qWZLun7eg3bJqLcZOBqgA3Tm69fPQfT3a5HXwe19KhkGcNQxCSxY0AUNO9V/nBDBcuvn/VN5YCGEXIIihCot8eqnnGRLOROuAbhBR45QHmNSZAPy8/0/sm8UTRQRAAAIO0lEQVSXwsLWmkIhDQMS5m9gQDRffWAhhMwACKHSp9sGrd5jPgZwrurw3/vBFhw3MqE6bKd1754GM7BkSYHq0HmWnXwrXV+zTHVgIXKdzAAIoQGTO0p1zH79HHzr29tVh1Xm7O9s03IGAYPOVB5UCCEDACG0YDpNdcgLv78ZluX/e/+9sW3Gdy/UcnjfWB1Bhch1MgAQQrHCwZUHAThcZcy+Bzk47rjgTf1/2ejRO9G3r/JZgCEondBXdVAhcp0MAIRQrMVwv6Y65ulnbIeRASt2DBM45bQdyuOapj1CeVAhcpwMAIRQjEBKBwCmwRhzgpZNBVqceGKD8sEKuRimNqIQQgYAQihGBoVVxjt8UAt6dPfuqN/O6nFACgMHNiuNSURDlQYUQsgAQAjlmAeoDDd0aJPKcJ5QXrPiv1MhhAwAhFCOgf4q4x0+WO3TtBcOH9yiOmQ/1QGFyHUyABBCqahBBKUr1vv1V7+3Xrf+/ZRfTdwXiMrnlRAKyQ+UECqFUQhWd8KmaTB698q8AUBJiaN6IaCFwY1FSiMKkeNkACCESi0tSs/CLSjkjNj+92WGCRSovq8gbcqdAEIoJAMAIRQqyHOVDgDyC4Jz6U97FRSqrT3fThYqDShEjpMBgBAKUYpTKuO5LqkM56m04p2Lhmtm3rsQIQJMBgBCKNSYblJ6Yk9zU+YOAJoa1X68NAI7lQYUIsfJAEAIlVb0bACg7MaepmYDyWTmDQJaWgy0tCj9eHGxrDD4lyEIkUFkACCEUlEXQKOqaOwC69fbqsJ5Zt06G6z24sLEp3+3QghFZAAghHqbVAZb/XFIZThPrP5E8aCF1P6dCiFkACCEeoTlKsPV1mbe7rd4XOlmCBBjmdKAQggZAAihHLPSZrVoUebtflu8SO0AgEFKB1VCCBkACKEeGUoHAGvX2Fi5Mk9lSK0+/CAP69cpfgXAvFRtQCGEDACEUIzh1qqO+crLXVWH1OaVueprZZPrlAcVIsfJAEAIxVL5XRYAUHod3ksvdUUiEfwf18aEgbnqBystqW3pN1QHFSLXBf8TRYhMszDaCOBNlSEbEwaee7abypBa/PuZbuoHKoz5WD2jSW1QIYQMAITQgEBzVMd84vHu2LrFUh1Wma3bTDz1RHflcdlg5X+XQggZAAihhQt+SXXMxkYD997bU3VYZf56Ty806nhNkcaL6oMKIWQAIIQGqdqieQA+UR339Ve7aFlk11nzXuuCmte76Ai9KrW0i7z/F0IDGQAIoUXUJeABHZHvntVL/Ul7nfDxqjzc/ucSLbGJ6H45AlgIPWQAIIQuBv1dR9imJgO/u74f6uv9Xw+wZbOFG/7YB80tmi4sMtL36wkshJABgBCaJJdU1UHxboBdtmw28fvrD/J1EFC/0cZvf3MQNumrYUFy8XQ5AEgITWQAIIRGRBTTFXvtGhu/vqa/L6cEfvRhCL+65iCsW6vvVQQxV2kLLoSA6XcBQmSzdP1pS83eznkAtLwkb2pqPXgnv8DFoEFKzx7aq1de7opYVR80NGj9+Kh16rpcBcxVe6mwEOIzMgAQQqu5bPYa0wDCd3RlSKcJ775TiA8/yMOgwc0o6qJnzdyG9TZumXkgnvhXd6TTmt75f4oIV6Xrb1isNYkQOU7vT7EQAhgbteyNicUAhuhOFcpjnHHGDnz7nK3o0SOtJObWLRae+Fd3/Of5YiSTnnxkxJ3alUcAs9X8Bwgh9kgGAEJ4wCqrPIXAnh1oEwoxjj2uASee1IBhQxthtHOuz00D775XiFdf6Yo35hfBcTz7qGB2cVJqaewVrxIKkatkACCER+zSyIMgfN/rvIVFLsrKmlBa2ox+X3HQt28SxcUuCgpaXxU0NRnYscPA+rU2Vq8OobauAHXxfDQ2+rJG+H6nNnaRH4mFyDUyABDCK6UT+tpkLwVQ7HcpAbXNIZQiHlvvdyFC5ALZBiiEV+pmriPGOL/LCCoCj5fmL4R3ZBeAEB5Kb6qJm71HHwzga37XEjCznNrqG/wuQohcIjMAQnjMaSz6BcDv+V1HgCxxCoom+l2EELlG1gAI4YO8wZWDXZPnAQju/b5eINQbLka31MXe97sUIXKNzAAI4YOWZVXLQO7XAW7wuxYfNXKaz5bmL4Q/ZAAghE+c+PT/MoxzAHhzhm+wOEw4L7W0er7fhQiRq2QRoBA+cuvnfWT1HrUcoLOROz+PSSL6oROPPel3IULkMlkDIEQAWOGKk4npcWT/GQEJJpyfisee87sQIXKdDACECAi7vPIoMD8DRm+/a9FkM5i+6dRVLfC7ECGErAEQIjCcJVVvGYSRAN72uxblGG+ZaT5amr8QwZEr7xyFyAjpjTVb3W4j7jVNuxjAMciOWbpZjlF0fqruhs1+FyKE+J9s+HARIiuFwpHzGLg9g18JbCSmS5N1Vf/yuxAhxO5kBkCIgErX19S5/Y65y0xbhSAchcx5ZeeC+H4nxWenl1Vn3+sMIbKEzAAIkQHs8KSjwcaf0PpaIMgWwHV/6SydvtDvQoQQ+yYDACEyiBWePIbYvR7AyX7X8iXzDOJpLfHqpwGw38UIIfZPBgBCZCArXHmS4fLVTDgTgOVTGQ4Dz8HF9NTS2Cs+1SCE6CAZAAiRycITD7Bhnw/miwGM9ihrLRP9PUXW37Dkhg0e5RRCKCYDACGyRP7QKYemU+mTAZxMhJMY6KMiLoHWMfhlMM8xXcxpXlb9kYq4Qgh/yQBAiCyVF54yMEXpIeRiCDENAmEw4HYDqCuA7gC6fPqlDQC2AbwTRNvg0nImXs4GllpsLm2JT13h33+FEEKX/wfHM6P732HQRQAAAABJRU5ErkJggg==;" vertex="1" parent="1">
          <mxGeometry x="150" y="191" width="30" height="30" as="geometry" />
        </mxCell>
        <mxCell id="Mbg4xQhO2vMqubRtQ9Se-14" value="" style="shape=image;verticalLabelPosition=bottom;labelBackgroundColor=default;verticalAlign=top;aspect=fixed;imageAspect=0;image=data:image/png,iVBORw0KGgoAAAANSUhEUgAAAgAAAAIACAYAAAD0eNT6AAAACXBIWXMAAA7DAAAOwwHHb6hkAAAAGXRFWHRTb2Z0d2FyZQB3d3cuaW5rc2NhcGUub3Jnm+48GgAAIABJREFUeJzs3Xl8VOXVB/DfuctkJgk7CaCsikAyQFFEZROkaq27VbTutVWsKFYgCWIXx6UumSDuWqytdekGat3qUhdUiFbFBZkJICq+soc1kG3unXveP1ArECDLfebemTnff95PJTnnwJvMnDn3WQhCiExEOYOmHcKaVuQwDSSNBoCdgSDqAEYegE4A8r752loAW0CoBWMriJazg2W6hmVwuKqxKroCAHv2NxFCKEFeFyCEcEfOoGkDHM2YAOAYgMcDKHQp9HoQ5gP0ugbt9cbYbStciiuE8JA0AEKks/DUzibMswBMAvPwFGWNM9GjNvgviEXXpSinEMJl0gAIkYaM4rIfauBpTPgRGLpHZdhE9LIDzLJj5W94VIMQopWkARAijRhFJccS0U0AjvK6ll3RRwS+NRGPzoOsFxAiLUgDIEQaMAaVjCRduyeFY/7Weh/gKVa84r9eFyKE2DdpAITwsyHXdjKTTgTgqwBoXpfTTAzixy2Lp2H5rI1eFyOEaJo0AEL4VKC45GwG3Q+gi9e1tAqhmoArErHok16XIoTYkzQAQvhN/yk5ZiBUDvDVXpfiCuLHrG3Jy7Fqdr3XpQgh/kcaACF8JKeo9BCH8E8Aw7yuxWUfaqSfI2cICOEf0gAI4RNmePoIQHsBjAKva1FkMzt8sr204h2vCxFCpM+iIiEymlFc9kOw9loGv/kDQGfS6D9GuPQErwsRQkgDIITnAkUlPyXwiwDaeV1LCuQR45lAccnZXhciRLaTRwBCeEgvKjlJI3oagOl1LSlmOXBOS8Znveh1IUJkK2kAhPCIWVxyJECv4X+38mWbOiYcb8eiC70uRIhsJA2AEB4IDC4rYocXAOjsdS0e26QlaXTjsvJlXhciRLaRNQBCpNrQkjx2eB7kzR8Aujg6P4nhkVyvCxEi20gDIESKmRbuA1DsdR0+EjYb6u72ugghso1X14gKkZUC4dJzAbrJ6zp86DC965gvnI0LF3tdiBDZQtYACJEq4dLuJrAUjA5el+JTNWaSiuqWla/xuhAhsoHhdQFCZAuT6S6AU/7mn5+XRPGQBgwa1ICevRLo3s1C+44OgjkOAKChUUPNVg3r1pn4+usAli0NIr4kiB21KR8Qtrd0jgI4P9WJhchGMgEQIgWMorLjiPiVVOUL5DBGjtyBceO3Y8iQelALV/s4SWDxpyG8Nb893n0nD4lE6l4qmGiCHSt/I2UJhchS0gAIodr4iGFuqIsBPEB1qpwcByecWIOTT92KTh2TrsTcskXHc890xMsvtUdjY0rWDVdZ8ZVDgLnu/AWEEE2SRYBCKGaGRlwAwqWq84w4ohYzf7MOI0fVIhRk1+KGQowfDKvH0UfXYt16E2vXKD+0sMAo6LQ8Wb3wU9WJhMhmMgEQQqmIZhbXLgYQVpUhkMM4/4JNOOnkbapS7OLNN9rhoT8UoKFR6ctHlRXPGwxEHJVJhMhmMgEQQqFA8YizAFypKn6XrjZuvHkNRoyoU5ViD337JTB8RC0+eD8f9fXKHgkUGN3sxckNC6tUJRAi28lBQEIoxECpqtgHHmjhlltXo3fvhKoUe9WnTwK33LoKBxxoKcvBDiv7txNCyCMAIZQJhKcXM2sxFbE7d7Fxy62r0bXAVhG+2TZv0vHrmT1RXa1mRzHpTlHi01lLlQQXIsvJBEAIZbSLVUTNzXVw/Q1rPH/zB4DOXZK47jdrEQwqelSf1C5UE1gIIQ2AEEpENIdxnorIl12+EQcqHL23VK/eCUy+slpJbAbOByLyOiWEAvKLJYQCxqDasQT0dDvu0eN2YOzR290O22ajxuzAmLE7VITuYwyuP0pFYCGynTQAQiigEf3Q7Zi5uQ4uvHij22Fdc/HPNyIvT8GjAE66/m8phJAGQAglmJxj3I55xplb0KmTfw/H69QxiVNP2+J6XHJogutBhRDSAAjhuuGRXICOcDNkbp6DH/2oxs2QSvz4pG3uTwEII9FzasjdoEIIaQCEcJnRsOMoAAE3Yx57bA1yVYzXXZabyzhmguuNSo6Rb7jaUAkhpAEQwnXE5Pqxv+OO8d/Cv70ZN979WolQ7HpQIbKcNABCuM7dW/8OPNBCnz6pP+2vtfodlECPHi5vU9Qw0N2AQghpAIRwHQ1yM9qQoak7598tbtdMLA2AEG6TBkAI9x3iZrDi4gY3w6VEcdjdmhlwdaoihJAGQAgVCtwM1tODy37aqmcv108q7Op2QCGynTQAQrgqogFwbcsaaUD37v459re5DuiRALl71Vg+5PIyIVwlDYAQbuq/ydU3qlDQQSDAboVLmUAOIyfH1W2LGsKRPDcDCpHtpAEQwkUhzWjnZrxgKP3e/L8VynX53AJnq6v/tkJkO2kAhHAR65rhZjxNS98GQNfdjRfSckx3IwqR3aQBEMJFDXqOq8vfG+rT91e0vs7d2ustO/32QwrhY+n76iKEH7n8JlVfR3D8e//PXiUdQn2Dyy8vZrv02w8phI9JAyCEm5Z9WQeCa2/ZSYdQvTH9Jt/V6w23GxcLMcgEQAgXSQMghKvmJpmx1s2Iq1elXwOwarWrdyEBwFog4v/bkIRII9IACOEyInztZrzPlgXdDJcSy5fmuBuQeZW7AYUQ0gAI4Tr6ys1oixe7dq5Qynz6aa67AYlWuhtQCCENgBAuY8dZ4ma85Z8FsXmTy3vqFNqy2cDnn7s7AWCixa4GFEJIAyCE2xj42NV4DrBgQfqcgfPmm/mu71xgTkoDIITLpAEQwmU5jvaR2zH/80r7tNgO6CSBV//T3u2wnNRyPnQ7qBDZThoAIVxWt6x8DUDL3Yy5do2Jdyrz3QypxIIF+Vi31vVdC1VYcst6t4MKke2kARBCBXJedTvkP/7RGbbt3wvxEgnCP//R2f3AhDfdDyqEkAZACBUccnUhIACsWW3imX91dDusa575V0cVn/6hgV5yPagQAq5eXCJE1hs0s4up2TeDcBkU3OPz5NxOGH54Hfr2bXQ/eBt8+UUATz/ZSUXo7Y21ua+oCCxEtkufvUVC+Nn4iGHmjbhCJ+cpAGOhaLqWTBI+/TSEYyZsh2n646bAuloNN95wALZtU/Jy8qTz2S3/VBFYiGwnjwCEaCNjUOk4c33tIjDuBaDgIfiu1q4xcfst3WFZ3q8HsG3CrIpuSkb/AMBMjygJLISQCYAQrRUKz+hNBaMeIkIUhG6pzL1hg4k1q00ceVQtNI/aeNsm3HlHNyz6IE9Vii/sqrypwHx/jDqEyDCyBkCIluo5NWS018tsdsoAuHzmbfO9U5mP+joNJTPWIxhM7T059fUaKsq74ZOP1f31mfEHuQBICHVkAiBEC+SES07RgvpzBDoDgOfX9K1bZ+K/7+YjHG5Ah46pOSlo9WoTN9/YA8uXKbyjgLDNDlgXYt27DeqSCJHdvH+IKEQaCBSVDGaiuwBM8LqWpgRzGOddsAkn/HgbNEVtfdIhvPhCe/ztic5obFT73IFANyTi5RGlSYTIctIACLEvQ67tZCaTNwC4AmnwyKxvv0acd8FmHHZYnWsxmYGPPszFE491wVdfBVyLuw+bLF0/BJ/etiUVyYTIVtIACNGkiGaG6y4F8+8BdPW6mpY6+OBG/PikbTjyqFqEQq17jF5fr+Hdd/Lw4r874AuXb/fbJ6IpVqz83tQlFCI7SQMgxG6M8IwxxHw3wId6XUtbBXMYQw+tw5Ah9SgqasABByQQyGl6UX2ikbB6tYmqqhCWfBrCJx+HlI/6d8fAGrswrw/mR+yUJhYiC0kDIMQ3QgOmHmgbRjmAc5GhvxukAZ062ejYMfndZKC+XsPWrTq2bDbAPthwR8CNiXj0eq/rECLTZeSLnBAtMnySadZ1mAzCTQDaeV2OAIhQnohFZ3hdhxCZTLYBiqyWEy45RbOCz4FwHoAUPugW+zHaKBydm6yudP1WRSHETjIBEFkpZ9C0Aazpsxk40etaxN7JJEAIdWQCILLL0JK8QJcxv2aiJwAUeV2O2C+ZBAihiDQAIluQWVR6kc70PICTkAZ7+sV3pAkQQgF5BCAynjm47HAw3w3GSK9rEa0njwOEcJdMAETmKrqmh1k4dhYYDwDo7XU5os1kEiCEi6QBEJln+CTT7Dhhik76kwBGQSZdmUSaACFcIg2AyCh6UemJhh16FoTz4b9tfbUA/glCGEBqj9jLLKONgtFasrpyvteFCJHOpAEQGSEnfG1/rWDkg0T4PYAuXtezO2I8r2n6GQyeBKCX1/VkgHEyCRCibeRTiEhvQ0vyAsVlEYeTSwBM9LqcJnzM7IxLVEVPYU7+AsARXheUKZhRFgiX3u51HUKkK3k2KtIVBYpLz2KgAv5c4LcFjBusqpX3AnOTRnjGGIIzHyxTN7fJ7gAhWkcaAJF2fL6tzwbjD5Zm/w6x2ZsBAMOu6WgmzI8B9PG2tJRqRArXYMgFQkK0nHwaEelj0MwuZuGo2wCeA/bhp37Cm6TxGVa84s+ofrf+2/9sdh77MICxHlaWSrUEutUi+2wd2nAAB6Uor6wJEKKFZAIg/G/4JNOsa38liK4H0NHrcprwfwSUJOLRubv/QSBcch4zPeFFUSlFqAfTQxYnbkPVnWsBAMMjuWZ97XMAJqSuDJkECNFc0gAIXzOKyo4j4jsBFHtdyx4I9cRUngjllmNRpG73Pw4WTe+TJO1j+LNpcctGYn44oQdmY8kt6/f4U2kChPAtaQCELwWHXHuQnUzOIuB0r2tpCgNPGo5e0rD0tpVNf8VE3Szu9zrAR6uqgYCXQPwYHDqXCccDCKjKtVviJBjzCfTnRKJ+Hlbc07jPr5cmQAhfkgZA+MvQkrxAUpvJzNMBBL0upwlLmPhXdqzi9X19kVFcNpPAtyirglBtAUMRi64DAISndjYd4yfY2QiMA1DocsYtDLxNRC9YjfrTWHFrdYu+W5oAIXxHGgDhFxQoKjnHIYoS0NPrYpqwBcD1VmHeA5gfsff1heag6cOhae8AMFUVoxGd1hgrf3Zvfx4ITy9m1o8G82ACDmENh4DRB/s/+8NhYB0Bn4P4UzAWA857Vrz9J0DEaVPR0gQI4SvSAAjPmeHSYWC6S+W4vA0cAH+0bOfXWD5r436/engk12yo/RCMgQprmmPFo5e3+Lv6T8mBqXfO0YJ5TtLqwNDyQWwS8xbohm1YiY31B3RYv78Gp02kCRDCN6QBEN4JT+1ssnk9iK/06QE57wM8xYpX/Le532AWlz4IoOVvzs33uZWkQ7GsfLvCHGr1nBoy2xvPAjg2VSnlsCAh9iQNgPBARDOLai+AhgowCryuZncMrCHGTKsq+tjO/9k8evH0H2vQXoC63ysb4DEtaUh8S5oAITznx09dIoMZg0rH6QXWMyD8EkCe1/XsxgLoPjtJP3GWRt9v0XcOLSk0HO1lAPlqSgMY+K0dr/i7qvgpVfOu7eQcOU/P0Y5E6g4LkquEhfgemQCIlAgNmHqgbeq3gukC+PDnjhjPk45rGpdEP2/NtweKSp9lwsmuF/Y/C634ynHA3KTCHKknkwAhPOO7F2KRYXpODRkdzKuJnd8ApOzTcevRcod5arIq+u/WRjDDZVeB+R43q9oFYZue1Ift/cyBNCdNgBCekEcAQpmccMkpWlB/jhgTAUrNITXNt/PM+kT9+bx89tLWBgkMLisCeB4Ubvkj0KWNVbe/rSq+5+RxgBCekAmAcF3OwLKBrPOdDJzgdS1NYBA/blGgtMmja1ti+CTTrO+wEMAId0rbE4Pn2fGKiari+4pMAoRIKZkACPcMu6ZjoNOYCGt4FFC6D751GB8w80S7quIebHi7tq3hAp2PuQ0gZW/ODKyyKXnS928WzGgyCRAipWQCIFzwzbY+QhTuH0HbZgRay4SIFcv9Y5tPs/uGUVw6lghvKDy/wGGiY+1Y+RuK4vuXTAKESAlpAESbmOGyI8B8N4Ajva6lCRZAD1iJ+t9ixT01rkUddk1HM2F+AqC3azF3Q8BtiXh0pqr4vidNgBDKySMA0Sq5A8sOQPeR94FxN/x5dv+rRM7pVrziMWx+b9+31bWQ2eXoPwMY7WbMXdFHFuVdgOr5mbXlryXkcYAQyskEQLTM8EmmWddhMgg3AWjndTl74hUEui4Rj85VEd0sKr0IhL+oiP2NBmIekaiqWKIwR/qQSYAQysgEQDRbTrjkFM0KPgfCeQByvK5nN99s62s4L7ls9mIVCYIDS/qxRs9C5d+dcbVVVdHqMwkyjkwChFBGJgBiv3IGTRvAmj6bgRO9rqUJDGCeQVpJfez2/1OXJqKZ4drXwRinKgMBLyXi0RPRgvsHsoZMAoRwnUwAxN4NLckLdBnzayZ6AkCR1+U04UMm7Rw7Xj7Lrl64TWUiI3z4b4jpEmUJCNUW4QRUV+5QliOdySRACNdJAyCaQmZR6UU60/MATgJgeF3QbjaBcZ1VtfIyp3rOV6qTmYOmDyfSHoW63xfWiM9Nxio+VBQ/M0gTIISr5BGA2IU5uOxwMN8Nxkiva2mCDeBPlmNch6W3bkpJxqEleaatfQjwAGU5iO+3YhVXKoufaeRxgBCukAmA2Knomh5m4dhZYDwAhfvb2+B1Yj7dqqr4EzYuSNnJeGbX0fcDOE5hiiorlD8Ra+dbCnNkFpkECOEKmQBku/9t67sRQHuvy2nC12D8xqqKPprqxIHiktMY9C+FKSyQM9qKzXpfYY7MJZMAIdpEJgBZzCgqOVa3g8+AcCH8t62vjkC3WHV55zgrblmU8uxDSwo1h/4NQNkVxsy4zo5XKDmvICvIJECINpEJQBbKCV/b3+HkLQB8ecscMZ7X4FzVUDVL+QK/vZUQKC59XvG2x7et+MpjgLnZe9qfW2QSIESrSAOQTYaW5AVsrZTB18J/n/gB4GNm51d21ay3vCzCLCr9FQh3KktA2KY7zg88bHAyjzQBQrSYPALIDhQoLp2oOfQMgNPgv219W8CYaVWtvNTZ+MeVXhYSCE8vBtE/AZiqchDh543xigWq4mcleRwgRIvJBCDDmUWlh4FwN5ReXtNqDoifsBrN6Vhxa7XXxaD/lBwzkPNfgH6gMMvjVjx6ocL42U0mAUI0m0wAMtWgmV3MwlG3QcNDAPp4Xc4eCG+SxqdbsYoHsXlBndflAIDZbVwURKcrTPG1peunYcOCBoU5sptMAoRoNpkAZJrxEcNcX3slNNwARgevy9kdE1aTg+usquhj8NGZ90ZRybFE9DIATVEKhzX+ob2kYr6i+OL7ZBIgxH7JBCCDGOGSCXqt9S8QLgIQ9LqeXRDqifkOi/LPduK3+Gvf+5BrO+nMLwHoqCoFEd1ixaJ/UhVf7EYmAULslzQAGSA0eFovKhh9LzHNAlDodT27I8bzepJPaVxaMQ/V8xNe17M7s+uovwAYpSwB0SILuReher5s+UslaQKE2Cd5BJDOhkdyA/V1ZQyeAb994gcAwjIGrrFj0Ze8LmVvzOLSnwN4WGGKWi1JwxuXlS9TmEPsizwOEKJJMgFIUznhklM0y3oB/tzWt5WJIjbyLnZit/j2jS845NqDmPlpqDwTgfiqRFX0FWXxxf7JJECIJskEIM2Y4dJhYNwNYKzXtTRh57Y+HSVYXLHB62L2aXzEMKtr31J56yEDz9jxqMpdBaIlZBIgxC5kApAuwlM7mwVH3wbCHwH09bqcJrwP8FlWvOJerK+s9bqY/QnkHvE7ABcoTLHB1syTsOFt3/9bZA2ZBAixC5kA+F5EM4tqL4CGCjAKvK5mdwysIcZMv23r2xczPH0EWFsIdaf9scN8SrKq4gVF8UVbyCRACAAyAfA1Y1DpOL3AegaEXwLI87qe3VgA3Wcn6SfO0qi/tvXty9CSPN3RXgGUNlP32lUVdyuML9pCJgFCAJAGwJdCA6YeSN3H3EdEd4DQ3et6dkeM5zUdpyRi0b9i00LfbevbF7PL6DkAfqgwRdyqsc9Gzbu2whyiraQJEEIeAfhKz6kho4N5NbHzG4CU3UPferTcYZ6arIr+2+tKWiNQVHIGEz2lMEUjCEdZsejHCnMIN8njAJHFZALgEznhklO0oP4cMSYCFPC6nt3UEuhWK1F/Pi+fvdTrYlojNGDqgY6u/xtArqocDLrWjkefVhVfKCCTAJHF/DkB6D+zwMhxBmpOsgCEPAbymLSOAEDgHXCwnXTa4TC2GEnty4alt32FNFmAtrtAUclgJroLwASva2mCA+ARSzOvw5Jb1ntdTOtFNLO49mWo/ZT3uhXPOw6IOApzCFWGR3LN+trnkMLfQwJuTMSj16cqnxC787wBCIVn9LbBx4D5aADFAAYC6NSiIIR6MC3defKc875GeDWxpOJT+LkpGHJtJzOZvAHAFfDfQT4A8F+QM8WKzUqfBX57YYRLpn1zTLIqmw2DflC/uHyVwhxCNWkCRJbxoAGIaEZ4x3hytJ+CeAKAgxUl2gDGa0T0QiKU+zQWRXxx5SwwUTeL+1wK0M0Aunpdze4ItJYJM61Y+aPwcwPVTIHBJUPZofeg8LQ/As5OxKNzVcUXKSRNgMgiKWsAcgaWDWSdL2LgQgC9UpX3GzVg+gfr9Ii95PbKFOf+jhGeMYaY7wb4UK9q2IcEEd+VsLWbsKx8u9fFuKJvJGjm1r4PYLCyHMx/saoqfqYsvkg9aQJEllDeAJjh6SOYtV8TcGoq8u0XYzFpdFMilvtUqp7XhoaW9bRtvh3AufDDv8FuCPQiOfY1jUvvWO51LW4yi8vuAvhqhSm+sBINh2LFPTUKcwgvSBMgsoCyNyNj8IxRWtK5ngnHq8rRRksIfFMinj9PWSPQNxI0cmunEXAd/HeQDwB85miYllwSfd7rQtxmhGf8iNh5Eep+xm3WtHFeTpSEYtIEiAzn/otjeGpnk83rAb4KgOZ6fNfRR9AwyVpS/oGbUXPCJac4THcidVuLWqKWQBWJRP2tWHFPo9fFuG7A9K4BQ1/M4B6qUsgLdZaQcwJEBnPxHICIZhYfcbkO7RkA4+HDUfde9ADj50bh6Pxk7+MrsXa+1ZZggSHTB+ldxjzBoN+gpbsZ1GMQP24mtdMalpY/h83vJb0uSAWj25gnAIxQmOK/VmHez7Byvmz5y3Q179pO7+Of1G1rJIB+Kco62igYrSWrK+enKJ/IUu68SfefWRAIWI8x6EeuxPPOF9DonFZNAw6a0cEM8u8AngJ1l8y0HtEiTjpT7KUV73hdikpmuOQyMM1Rl4F3aGQc2hi7bYW6HMJ35HGAyEBtngAYRdOP1kz+D0B+XNneUp3AuFjvOnq7s7Hyv838HjKLSi/STX4WwHHw3+mKm8C4zoqvnORs/OP/eV2MSjmDSw9mpqegcMsfQFck4uWvqYsvfGntfMvJOXJuik8MHCcnBgqV2jQBMMIl0whUDvbdm54bHrFq7MlYNbt+b19gFpUdBeK7oXbc3FoWiO6zzMQN+PjOrV4Xo9zwSaZZ32EBgCNUpWDmp+yqijNVxRdpQCYBIoO09o2bAsVlEQC3IC0W+rXKMD1HO9rpMPxJbH5v14VyRdf0MAvHzgLhPgA9vSlvn14n5jOsePQxrHu3wetiUiHQ+Yc3Yuc2SyUYWGOzeSI2LthrQyiygEwCRAZpxQRgom6G+z4IxqXul+NDRIssK3kCls/aiOGTTLOuw2QQbgTQ3uvSmvA1GL+xqqKPel1IKhnh0tEEvKlwEsUOnJOS8VkvKoov0o3sDhAZoIUvmBHNLM7/G3ae5pctDtB1+rFROHqrZoX+CcL5UPqMuVVqmXGTXZ93rrPilkVeF5NS/ae01w3jFTA6K8tBdJcdr7hXWXyRfmR3gMgALWoAzPCI2QB+oagWP+sG4EwAXbwuZHfEeF6Hc3KiquI5bJ1ve11Pqpk9jn4ITOMUpohZNfZPUfNu1v3biv2QxwEizTX7EUCguPQGBn6nshjRIh8zO7+yq2a95XUhXgmES89kxjyFKRpJ4yMSSyoWK8wh0p08DhBpqlkTALOo7EIQ7lRdjGiWTQBNt+Irf+ls/ONKr4vxSmjwtF4Oa/8GEFKWhLnUilc8oyy+yAzyOECkqf02ADlFpYcw4Rn477l3tnFA/LiVME91lt3+FhBP+6t6Wy+iUVf7KQDFylIQ/mPFK65SFl9kFnkcINLQvrfw9Y0EHcI/AbRLTTmiSYQ3SeNDrVjFRVhxa7XX5XjNKKotgdp92FsMSv4CQBY3WaLFVs2ut2rsUwGk7A2ZGWWBcOntqconMss+JwDmASPuAXByimoRe/o/Ai6z4tGy5IbK9V4X4wdm8bRDibS/QuGJi6TRBY1LKpp7EqQQ/yOPA0Qa2esiQGNQyUjSaAE8OugnqDEGBBPoH7TQ2Uiio77z3podSR3bHcKKhgCW15vYkszAQwgJ9cSIJkJ5t2NRpM7rcnxj52KrRQCKlOUgetiKlWfHGRdCHTkxUKSBphuA8RHD3FD7PoBhqSwmnJvAWZ22Y3yHeozIa4BB+5/ALm0IYH5NCM9tyccbNblw0nxoy8CThqOXNCy9baXXtfiNWVR6LwhXqsvAKyzKPxSxyA51OUTWkCZA+FyTDYBZVPqrVK36N4hxTpftmNJ9K4bltu1q+jUJA3/c0AEPrO+QjpOBJUz8KztW8brXhfiRXlR6okZ4HuqumbYBHmPFZfQvXCRNgPCxPd8ld56s9i+o3F71jTM6b8dTA9bi4oIadDfbfjV9O93BuPb1mNRtG3QivF8bRJJVvV+4ZguAGVZh3qXO+7d87nUxvjS0pNBgeglAvqoUTLjBjlf8VVV8kaXWzrec3sfPS/GagHGyJkA0xx7P941A6EoAnVQm7WEm8ezA1fhb/3Xom2O5Hr+97iDScyM+GPwVjsr37V04DoA5lu0MsOLRezA/IifNNY0Mm/6InacxqsFcaRfk3aIsvshuiyJ1VijvFAApm+4x8LtAcekNqcon0tOuE4DhkVzdTvwdQJ6qhBM61OGK5s7yAAAgAElEQVSFQasxNDehKsV3uhgOzu9ag3pHw7s7lA80WoAXAM4ZVnzWQ9j0jizy2wezuOyXBExTmKJGN4wf2e/dvElhDpHtZBIgfGiXBsDsOGIyCMruOz+/aw3+2n8d2umOqhR70Ak4tkMdegSSeHlbnqcbu5mwWiO+wopXTHeq31nrYSlpIWdg2UDW+CkAprIkRJcnltw+X1l8Ib4lTYDwmV0aAL1w9CMAuqpIdFnhNjzQbwN0jx7JH5bXiAHBBJ7Z2s6LJqCRwFHLwNnJJRUfpj59Gho+ydSc4L8B9FGYZa4Vj/5GYXwhdiVNgPCR7xoAs7jkSICuVZHkJ5134KF+66F5vB4vnJtAFzOJl7Yqe8KxBwae1TWclohVzMP6SvcXPGSoQKcJvwdwtqr4DKyyyT4Z1e/Wq8ohRJOkCRA+8V0DoBeOug6gEW4nCOcm8K8BaxDQ/LFB//C8RqxJmPioTvXVBrTcYVyUrIrelNxQuUVxsoxihGeMAfFDUHcIlQPQmU58VlxRfCH2Te4OED6w8wU2HAmA6Ry3g+dqDv7afw1ytdQ982+OWX02YHAbzxzYK8I2Jp5uhbYOTlZF/60mSQYbdk1HYudxsMKjfoE77Hj5a6riC9Esq2bXW6G805DK3QGMMtkdIL6lAYDhbD8KQBe3g197wBYMDPpv6h3SGPf23aDkkQSB7rVjFXdg0Rz//cXTgJkw74PS5/78SSLRIM/9hT/IFkHhoZ0TAKJj3A58SNDCNT38O/k+Kr8BF3Td5npcdhzX/y2zRSBcch6A85QlINQT9POx4h5F4x8hWkGaAOERDQAImuvHVM48YDMCzTjL30u/PXALTLenAERHoP+U9i5HzXihoWU9meletVmoLBG/PaY2hxCtsChSZ9XYJyOVVwkDv5OrhLObhp5TQwAf6WbQ3jk2zu6y3c2QSvQKWJjYpcbtsIYRDB7ldtDMNlG3bTwBhSdQEvCSFSu/T1V8IdpM1gSIFNPMDuYQAK4uib+oa02zbvLzg591db0BAJKpvUUx3RnF/coAPlphio0Jtn4OeHoOlBD7J5MAkUIaHAx0O+i5afDp/1tj29ejj8v3EZBGh7oaMIOZg6YPJ7DSTyAa0S9QdaecvCjSg0wCRIpopLnbABwStHBwUP05/24hAD/q6PJx/A4XuxswQw0tyYOuPQGVR/0Ccxpj5c8qjC+E+2RhoEgBzWHH1QbgmA7pd7fN+HYu10zo5W7AzGTaNAvs/gTqez63klSiML4Q6sjjAKGYRiBX91wfluvb63f3anie67vCOiEcUXZ3fSbICZecAuByhSkskHMulpWnz/MoIXYnjwOEQhqAdm4GPMSHB//sT6+AhZDLRxXnoKG7qwEzyeDrujmgh1WmYCBixWa9rzKHECkhjwOEIhqTuw1AX5cX1KWCRkAvl+t2kJQJQNMo4Fh/AqNAYY637fhKGWOKzCFNgFBAI3a3AWin++vc/+Zq7/IEgJMccjVghjDDZVcycKKyBIRtuqNfBMxNKsshhBdkTYBwmQaCq3fj5vns4p/mytNcfr/QIQ3AbgLh6cUAl6vMQcxXNSy9baXKHEJ4RtYECBdpYLi6Aq6RVd3gqpb7dZOcN/99wyeZzNojYHWNEYPnJeIVj6uKL4QvyCRAuEQD4Ooq6e3J9GwAapLuXgpAQK2rAdNcoKH97wGMUBWfgVU2JVXuKhDCP1bNrrdq7FORyiaAUSZNQGbRAHa1AVhrKbvGXal1lrtn0WjJZPodiKCIUVw6lkHTFKZwQHQRYrM3K8whhL9IEyDaSAM0VxuA5fUBN8OlxAZbx2bb3clFo0PyZgQAQ67tRMATYCjrDIk5asfK31AVXwjfkjUBog00Art6RvqSNGwAltS6ehcSANRi+ayNbgdNR2bSeRBQejLihwkt/3cK4wvhb7JFULSSxkTL3Qz4Vk2um+FS4s3trq9L+8rtgOnILCq9COCzFaZoIOaLEYukz+UTQqggCwNFK2hgZ6mbAT+ozcGWZHqtA3htm6s7IQFwwAyXZvWVwMGBJf1AuEdpEsa0RFXFEqU5hEgX8jhAtJDGGpa5GdBmwpOb0ucQvM8bAljk+iMA6g/GR2a47AMzXDYJPadm2ZkAES1p0J8BtFeVgYCXrKrog6riC5GWZBIgWkCzE7wEgKvH4D22Udnrvuse29je3b/89zEPB/MfzPbGykBxyS3BoumuXrzkV0ZR7XVgjFOYYkPC4Ivh8s+tEBlBJgGimQgAzHDpYjCGuBn41aJVGNOu3s2Qrqt1NAz8pC82pm7rogPgdQLmJOIrn8rE42rNQdOHQ9PeAeDuvsr/YY34tMZYxXOK4guRGXpODZntjWcBHJuqlEQoT8SiM1KVT7SNDgB64eiBAI5yM/CahIHzuvr7Jta71nXEC1tS+riCABwEYKJe0OE8rWBMwCk8Yhmq3/V3p9Rc4Ui+TvZ/AIUX/RA/kIhVzFYWX4hMUfOu7fQ+/kndtkYC6JeirKONgtFasrpyforyiTbQAICYXd9D/WpNLl7Y6t+1AOssHRVrO3tYAfUncIXJxhqzuPSfRrh0tIfFuMJE3Z0ADlGYosoK5pcqjC9EZpE1AWIfdp5/O+yajmbCXAfA1dVwfXIsfDD4/3x5Q+C5K7rj6c2uXoTohvdBuN+qzfs7VkYavC6mJQJFZacz8dMKUyTAGGlVRT9UmEOIzDQ8kmvW1z4HYEKqUhJwYyIevT5V+UTL7Xz4ve7dBq3rqEOJqMjN4NuSOr5oDODMzjvcDNtmf9zQAXd4+ul/rw4EcLoesKboBaP7Gd3GfJ7csND/BwoNLSnUGC8AUDbyYcZ1dlV0nqr4QmS0tfMtJ+fIuXqOdiR2PoZMhXFG4ejcZHVlyqYPomW+W/1mFI5qBOinbieoqg+gg+7gyHx/fKB9b0cQF37eAza7e/mPy4IAhoNxhVEw5ih0G7WNNxy/Apjvx1XvFOgy6kmAfqAsA2O+XZX3S5/+/YVID7ImQOzmuwYg2XvwF7odvAKA60f5vbotD/1ybAzN9faG3M8bAjhp6YHYlj43FhKAQ4hxnlZoXWoUjGmf7HB0DJsX+OaiIbOo9FcgukpZAsI2nZ0T7I23blWWQ4hsIZMA8T3/2/+2dpGjdx3dA4SRKhK9uDUffXNsDPGoCVhcl4MTl/bEeju9Tin8Fu08VGe8rjtX6wWjB2pdRq1zNlau8rKmQFHJYBD9E4ChKgcxX9JYNWuhqvhCZB2ZBIhv7PJumHPAmJjj4EooeEF3ADy7JR8mAaPb1SOVA/hXtuXijM8OxMY0ffPfjQFgKBH9Qi8Yc5redVTSOWDUMqyvtFJaRf8pOZpuvgTCgQqzPG5VVdykML4Q2WntfMvpffy8FDcB46QJ8Jdd3hHt9Qtr9ILRvQAMV5Vwfk0uFtUG8cP2dcjT1T7StRi4cXUXXP1VNzQ4vn7m31o9QDhVd2iyXjimu9l59MrkpoWbUpHY7D6+HITTFaZYaTVop2LLQm+fGwmRqaQJyHp7vCsGh1x7UDKZXAaFY10A6KQn8esDN+OKbluhK3hvfnt7CNd8VYhYXfpdT9xGCwm4KxHa9i8smqNkKmAUlRxLRC/jm3MkFHBY4x/aSyrmK4ovhPiWnBiYtfaYidsbFmzRC0YfAOBwlYkbWMMr2/Lw9JZ26Gg4GBSyoLnQCFTuCOLKL7shsqoLqlN3xK+f9AYwUbODl2hdR+c53UYvR3Wle/swB83soun8MgEdXIu5GyK6xYpF/6QqvhDie2RNQNZq+i03PLWzCWMpWOGRrrvpYSZxdpftOKvLdhyW29CiqcCKBhPPbcnHE5vaYUmd2zf7pb0EiJ5iJ/mAXTXrrbYGM4pL5xFwphuF7cX7VmjbaFXTCyHEXshhQVlnr2+zZnHZJQB78imso+5gZLsGFIUacUiOhQLTRp7OMIixI0nYauv4vDGAZQ0BvLM9iFUJpU8rMgfhUzh4wHLocSwrb/FFDSn4majVnORhjUvvWK4whxBib6QJyCr7+pxNZnHpmwDGpqoYkTI1YDxGmnN/IjYr3pxvyBlcerDj4CMA6s5PJrrcipXPURZfCLF/0gRkjX0O2oODru2b1JIfAuiUonrSCWM//35pgTGfCPfvc9Hg+Ihhbqh9Gy7fGLlrGXjGjkdV7ioQQjSXNAFZYZ+r5OyNC7ZSt9ExYpyLTHizcwvhAY3088BOPXben+D66YkpQ+gLYKJhBy/Tu44qCHQbu9yuXrjt+18SyD3idwAuUFjFBlszT8KGt2sV5hBCNJecGJgV9rtMnjdULtcLxnQGcGQK6vE/5kqL8s9Nxm6uTm6sfNXJO/5uw7QWg9ATQC+vy2uDfBCNccC/0gtGjzULR21NVld+ZoanjwDoETTjZ6WV2GH+Kcdv/0hRfCFEa9S8azs5R85LcRMwWpqA1Gnep/pwJBBwap9jwvGK6/E1Jqy2gcMRi65r6s+NQSUjSaPJACbC5auVPbIUO6cbvRXmuMeKR69WGF8I0RbyOCBjNX+sH47km1z7GoAj1JXjb8R4JVEVPQE7n//vXf+ZBUaO/QtiXA6gbypqS1Mxq8YegVWz670uRAixD9IEZKSWPdcfNLOLqdlvAyhSU04aIFxlxaL3Ne+LI5pRtGMCEU0C4SdgZWP0dNQIwlFWLPqx14UIIZpBTgzMOC1e2BcaWtbTtvllAMUK6vE/Qj3BOby52+e+lTO49GB28EsGLgHQRVF1aYOBUjserfC6DiFEC8gkIKO0bmX/kGs7mUn7WYDGuFxPmqCPLMo9CrFIosXf2n9KTiAQPJWBSUhhJ+0v9JYVzz0GiDheVyKEaCGZBGSM1o2kNyxocHof/w8jaQ8DMMDdktJCD4MSwWR15X9a/J2b30smqyvjTnXlY3q3MS+A2QTRIACm+2X60mbDoOPs9b/ftv8vFUL4jtwdkDFa/0x67XwrWX3c37VCu54Ix0DdzXA+RSO1wlELnOrKL1sbwdmwcI1TXfmM027svbqJLwEcDKTu/gUvEOOSxlj0Ha/rEEK0gZwTkBFcOdzHGFwyXnO0vzK4hxvx0sXObYH2UMRmb3YpJBlFJT8kokkAzoDiK5k98IgVj17idRFCCJfI44C05sqqdGdD5cpk4agnNMLBlEU7BAhor0Pv51QvnOdWTGdj5RdOdeXcQNeRj4JQD9BAAHluxfcU4Z1A96Or7A0LtnhdihDCBfI4IK25fryvES6ZQEz3ARjkdmzfYlxsVUUfVRI7HAkEuPa0DFo06AB4nYA5icK8pzE/YntdkBCijWQSkJbUnO/fNxI08naUEtM0AB2V5PCXGj3JwxqWVbR6PUBzmOHSYWBcAeB8ZMJUgPAlg/5gN+p/wopbq70uRwjRBrJFMO2oveBnYFk7U+OfE+FaBrorzeU15kqr6qujgblJ5bn6T2lv5oR+CuYpAAYrz6deAsAzzDzHrqqQBT5CpCuZBKSV1NzwN7Qkz0xql8Dhi0E4PCU5d8PAGgKCADory0G43o5Fb1QVvwlkFJdNADuTiehUZMSiQfoIzPdbuXl/xaJIndfVCCFaSCYBaSPlV/wGwtOLwdqFTDgHrHzRyCYAT7LGf7OX5L+lD649UXPwLNT9vW2Ax1jxiv8qir9XoQFTD0zq5uUgXJohuzG2gugRLWk/0Lj0juVeFyOEaAFpAtJCyhuA7wsOufagpJ2cAGACaziaGAe2MeRWYixwCG8SOW9aBe0+2n2RmRkuvf+b5+iK8AqL8g9FLLJDXY59GD7JDNS3P4OJJoMxzpMa3MUgvEoOP5Co+urZlDxiEUK0nTQBvudpA7CHg2Z0MEP2AGIaCNAhDHQDkM9APgH5AJkE1DJ4B5i2kuZsZeAzJnxmJpKf1S+fvXq/OXb+UC6Cyl0KRA9bsfJLlcVvpkDxjDBTcjKYLgTQzut6XPA1M+bYGv64tyuZhRA+Ik2Ar/mrAUgRs6j0MBDeARBQlYPA5yTiFf9UFb9FBpa1Mw2cC3YmA/QDr8txwfcXDb6G/V3PLITwjiwM9K2sbAAAwAiXzSDm2xSm2GQmaWjdsvI1CnO0TP8p7c1A8DMAhV6X4hrCp3DwgOXQ41hWvt3rctLCsGs6YkfIDIa4HSw4DSa2ob62DivuafS6NJGhMnoSMFHHkIPbo56MYIjbUWNjY30u1+LjO7eqz902WdsAABHNDNe+rvQ5OeE/Viz6I/jkE6oZLnn0m8cBmagGjMeItAcS8dtjXhfjufDUzjprRxK0Q4kwEIyBTOhJjALsbfJFSIKxGoQvwfwFg1aA+T3banwPK+6pSe1fQGScNG8CQgOmHuiY5vCk4wwh0oYC3IeBXkToBt7bqbq8A6BNICwH8zIQLWVwlR3Mf9cPu5yyuAEAQuEZvW12PoHKw4oI06xYdLay+M0UKCo9hwl/97qOlGDMJ+IHEqGap7FojuV1OSnRf0qOkRM8hoATwDgeO9e4uPX77QCIg/Aag56xC3LflhMcRaukUxPQc2oo0E4/gYlOAGg8wG7efJsA8F8Cve6AX7PjeQu9uB49qxsAAAgUlfyUif6mMEUjaXxEYknFYoU59ik0eFov29E/AdDJqxq8QKC1AD+k2/acZi0QTT9kDC4ZRw5dCOAnSN2pm5sAfpYdPGQvrZCbHUXL+LoJiGh6Ue0JGtHFAJ+EFJ24ysAqDXgc5DyWiM2KpyInIA0AAMAsLn0MwAXKEhA+tWrzjsDKSIOyHHsV0cyi2tdAGJ/63L5hM/AMiO+3YxVvwCePZFpteCTXbKj7OZgnw+vLtxiLATxobbcfwarZ9Z7WItKH35qAYdd0NBKBKwh8OYA+qappL97buYgx72nVUwFpAICd2w+DzscA+irLQbjLikWvURZ/L4yi0jIi3J7qvD62FOAHrAb9L/ji9m1eF9MiPaeGjHbmVURcAp8t5CTQWoZzm1WXP8ebRlekHT80AYNmdgnoyakMvgqMDqmqo5mqwHSr1S33b6oeuUkD8A0jPGMMwZm/98Ucbcas4QR7SfQVRfH3YBZPOxTQ34XC7Y5prBbAEyDtfit2+ydeF7M/OeGyUx3wnSk4PbNNmLCaHJppVZU/jnSftAj1vGoCQttuNuvbXwFQBP5/NLqUia+0YxWvux1YGoDvCYTLbmbmX6uKT6C1CTs5FMtnbVSV4zs7f7E+gNcj4vSwkIjvTzQ2Pum3rXA54Wv7MyfvYuBEr2tpoTdIdyYnPp211OtChM950gTQ2rQ7Mp3xNwvWdFTdudatkKo+7aalZO/w27odPAFo85HEe9NO0+kQp7ryH4rif8fsfPidACl80+AVIH0CgXcAGAggV10u5XoDdKauG5OMglGdza4jV9gb3/H68QAZRWWlgDMP6dnE9QPTJK3rmEZn40JZKCj2bu18y+l9/DzdtkYCKZtwpd/JqIQhOumXGQWjViWrK11ZVC4TgN3kDC492HHwEVT+gDBfalVVPKwqvBGe8SNi50WovPSIaaxVVf4uAKD/lJxAIHgqA5OQwtO+FHIAvE7AnER85VMpv3+g/5T2RiDnYQKdldK86rxmsXWhm59cRAby4MTAtEX8mKXjCiyuqG1TGLfqySRmuOQyMM1Rl4F3aEyHNVZFP3M99NCSQtOmxdh5j4IS+7r22BxcdjgcZzKIfgpGSFUNqcMrGNqDNll/Rmz2ZtXZzHDpMDDmAThYda5UItBaJpxuxcrf87oW4WMePA5IYzEtSWc2Litf1toA0gDshVFc+jQBpytM8Z4V2jbG5YNqKFBU+iwTTnYx5q6YK62qr47e76fi8NTOBpuXEJxfAtRfWT2pQqgH89+hafdbS8o/UJEiEC47i8GPZkbj1KQ6Ap+XiFc843UhwsekCWiJTWA6+btpbAtJA7A3A6Z3DRj6YpULRYhwcyIW/a1b8cyi0itAuN+teE2o0XX90IZPb/ui+d8S0Yxw7fFgTCbCiQp3WaTSeyA8YNXm/d2tLW+B4rLzGfwIAMONeL5FSAL4lRWL3ud1KcLHpAloiVomnGXHoi+19BulAdgH5c/SCUmGNt6O3b6graECQ6YP4qS2CCoX4xH9zIqV/6W13x4smt7HIbqcQb+Az/axt9ImAv5MGh5sXBL9vLVBzOLSnwN4CIDmXmm+xiC62oqV3+t1IcLHpAloCYvAF7T0BlppAPbDLC67C+CrlSUgfGk1Ngxr02Ur4UjARF0lmIe7WNnu5lrx6NmuROo/JScQCJ3F7EwG0ShXYnrLIdDLSY3vTy7J+3dLTu8yi8t+CfD9yL7fRQb4Cite8QevCxE+Jk1ASyRYwyktOWsm2150Wq5vJGjm1r4PYLCyHMSPWbGKi1r77YHi0lsZuNbNkr6PgVU22T9QsQjODJcOg0OTQXweUnTutmIrmfAHu9F4GCturd7XF+aES05xmP6F7PnkvzuHiM5JxMrneV2I8DFpAlqAd4B4ghWb9X5zvloagGYIDC4Zyg69ByBHVQ5i/DRRFW3x+QDGoNJxpOF1qHsTcZj4OBWnUO3ioBkdzGDyYoCuwM6b7NJdI4C57PD9TV2YEwhPL2bW3gHQPvWl+UodkBxjxe/4yOtChI9JE9B8hGqNMLI5jyWlAWgmI1wyjZhmKUyxxdCSP6hfcsfXzf6OYdd0NBPmJwB6qyqKgIpEPFqqKn5TKY3isglgZzIRnYqMWBRHH4GcBywdf8XiiloMubaTmbTfy4jdEe742iIcgVh0ndeFCB+TJqAlPrQSDaP2d7Jpto4eW8yO5d8J4FWFKTrZSf1RINLs/5+Yjeb9UPjmD+DjRKLhNwrjN4XtePlrdlXFmYZt9yWmm3Ze65vO+FAwzTFtWmWGS+80k8m58ua/i14BB3+BfCAR+7IoUmeF8k4BoHYamRkOMwM5Ffv7okzYkpUi8zmn05GvO5p2MVSttCf01bpadc7GyoX7+9JAcdn5IDTjfutW11JP0H6cXHaHZ2++9qZ3tyc3Lnwj2Tt8t2HnLAFRIVTe2KheEMBRAA7yuhDfIRysF4za7FRX/tfrUoSPeXNscJqiI4zC0UuS1ZVVe/2KVJaTCQLh0jN550ltqiTAGGlVRT/c2xcEi6b3SWraJ4qvr7zaikfvURi/VQLFM8JMyclguhDpeJ63D5AG5IWSCObuvKyvoY5QW6eDvb67j1BPRMMTS8r3+oIlBADfPQ4wNEa7kIP2IQdWklDXqGFrnQ8G7IRqC/agvS3glgagFczikj8BdInCFFVWKO9wLIrU7flHE3WzuO8bAMaqSk6gFxPx8pPg5+tcB5a1MzW+AITJULlDI80RAf0OasTgwfUYVNSAnj0T6Nbdgr7b7C+ZBNavM7Hq6wCqqkJYsiSElV8GvGgK3rDiUV+8qAufC0/tbLKxBgoXZzdF14AjD27A+OI6HNm/HgN6WOjdxYK+2/t9o0VYvi6AZWsCeHtZEG/Ec7F8rSc3s//Bikd/2dQfSAPQGuFIvsm1H0Plee3E91uxiit3/89Gcel1BPxeXV5UW8DQdFqQZRRNP5o0bTIYPwFgel2PH3TuksSxx23DuPE70K1b606bXr/OxJvz2+E//2mHLZtTtxaTiCbK1kCxP8pfC3dzSHcLlx6zFeeM3I7uHVp3P9jir3Pw+Nvt8OjbHVI5IXBAzlFNbQ2UBqCVzKKyo0D8NtStUmeH+ZRkVcUL3+UcXHY4HK6Ewjc5jei0xlj5s6riKxUu7W6ALwPTJAJ6el2OFzp3SWLixM0YP2E7TNOdj++WRXj9tXaYN7dTqhqBr6wauwirZtenIplIQ+HS7iZjOVLwGHBgDwu/PWMTfjJiOzSX3rNr6jU88GpH3PHvTtiWmkbgPSsePXL3/yiLAFvJ2bhwlVYwSiPQeEUpiIiOdXqMehTrK2sxtCRPd/Ay1B6hOycRj6rc6qhWdeUOp7ryLSd8/D1Gvf0JGF2wc6FQxje6mg6cfMo2lJStw8BBDXuM+NtC14H+/Rtx7HE1sCwNKz4Pqn400FHP0dY71ZVyc6BoklkwOgpgtMocoQDj+p9swsOT1mNI70aQi68iOSZjzMB6XDi2Bmu3GoitUv4U40AqGPkeV7+z4vv/MeNfGJUaHzHM6tq3wBipKgUBLyXi0RPN4tIHAUxSlQfgFRblH4pYZIe6HKmXU1R6CIN/wUSXAujidT0qdOiQxJRr1mPYsNR8YI7FgrhzVnds2aL088PXFuX1RyySUJlEpKHB13Uz2fpS5a2ZA3ok8PiV6zC01z630bvmXx/k4/KHu6meBrxrxaO7vFfJBKAtVs53At2PfoOZfw51C1H664WjBwG4WFF8ALCgaSc6sd+vVJjDE8mNlZuTGytfdXqMuk9nrASoF4DuXtflln4HJXDTravRr2/q3icLC22MHbsDny4OYetWZY8EOuiwVjrVlXJCoNhFoOuRvwboGFXxjxtSixfL1qBXF1tVij0MOiCBkw+rxQsf5aOmXlkT0FMrHPOWU71w5bf/QRqANrI3LNiiF45eC+B0hWmUrnJn4Hd2rOXHEKeV9ZWWU135oVNd+Qety6hXiCgIYCDS+KTB4nADfnv9arRv1+y7h1wTCjkYM3YHllYFsXGjoiUphIOc6soH1AQXaWl4JFezrb8Caj79n3Xkdvz1ynUIBVK//aWgXRI/OWIHXlqch0071Lw1a4wuyY2Vf/vufyvJkmWsWPQRENL1DXShHV95u9dFpJK9tOIdKx69wApY3cG4BoQvva6ppXr3acSMmWuRm+vdTs3cPAczf7MW/Q5SNH1gDDGLSg9TE1yko0DDjtMBdFIRe0K4Dn+atB4Bw7vfqZ6dbbw4YzV6dWndzp39YcIJCJd+NwGVBsAlFuzJDKzyuo4WIWzTHf0CYG7r9rSku4/v3GpVRe+yYnn9NeJTCXgJQOo/TrdQp05J/DayFnl53peam8u47tdr0bGjonEpscrzNkS6YbT61tR9GdKrEXN/tdbTN/9vHdjJxpNT10kWResAACAASURBVKqaQhimg3O+/R/SALglNnsziC9GGryBfIuYrmxYettKr+vwXsRpjFU8l4hHf6xpGEBABQDXrz52g6YD10xfh04d/dOzdeps4+qpG0BKXk3oXIyPpO1jGuGe3IFlBzDRsW7HzQ86eOLKdcjL8c9L99BejZh9wQY1wel/TZQ0AC6yYxWvE3CH13U0C+NviXj5E16X4TeNS6KfJ+LRUqvG7gnCJQCada92qpx00jaEww1el7GHoUPrceKJ21SE7mJsqFW2y0akD0tzfgx2f93azWdvxIAe/tts8rNxNTjxB7UqQh8WHHLtQYA0AK775va8j72uY18YWGVp9lVe1+Frq2bXW7HoI1Y8egQc53AAcwA0cTRz6nTqlMTEs305mAAAnHPuJnTq7P6jAA04wfWgIu0wuf9zcFi/Rlx2jJLG1RV3XrRByWQiaScnANIAuG/FPY1Ezvkg+PUUMwdEF+3tcgixJ2vprEVWPHq51aAdAKLLAcS9qOPsn25Grg+e++9Nbi7jzLO2uh6XQT92PahIMxN1Arl+R8TNEzfucYa/n/TuauPSY2rcD0w4Zuf/EUqYxaVTANztdR27I+C2RDw60+s60ltEM4p2TCCiSQDOQAq2EnbqlMR9D36FgAfbk1rCsgiTf9k7pXcHCNEaIw5qwNvXf+11Gfu1bpuOopJ+qE+4+na93opHe8g5AIo41ZXvGwVjjgBwiNe1fM+HFuVdgOr5/llBlpbms7Ox8gununJuoOvIR0HUAGAAgDxVGU89fSuG/sCvQ6X/0XWgvk5HPKbskDYhXHHzxE0Y0js1J/21RX6QsXRNAEvcPS443yw8+nEfDz/SHicM52cA1ntdyDcaiPliOVrVXQ1Vs75KxKMzLcrrRcDZAF51OwcRMG5c+pzQPG78dlfPTRfCbXk5Dk4dnj6/U+eP3u56TJuSg6QBUGlxxQZt55jYe4xpiaqKJV6XkbFikUQiHp1rxaPHuX0oVL+DGtGtu5qDQVTo3sNCnz7+/2QlstfxQ2uRH/TveprdTQjXomOuu/WSA2kAVPvmat05XtZAwEtWVfRBL2vIMq7eNTBkiP9H/7sbnIY1i+xxTFF6/XzqGjB6oLubkIhpgDQAKWAZPA2EZR6lX58w+GIA/l49lll6uxls4CD/7fvfn6JimQAI/xo5IP1+p0a7XjMfIg1AKiyuqAXRBQBSPcdlh/kXWFyh6Egp0QQCo6ebAXv2TL9lG+lYs8gOugYc0j39fj4HHeB6zZ2lAUgRa0n5Bwy6PqVJiR9IVlW8kNKc2a7n1CAA167H03Sk1fP/b3Xrbik6GliItunZ2ULQTL+BaP9uLr8OaGgnv6IpZMdzbwfwRorSVVnB/NIU5RLfytVc3QoYCjrQ03CzrmEwQmm0yEpkj8756flz2SnP5d3bLA1AikUcw6CLAGxRnMgCORdjUcTTo2uzUcg0ct2MFwyl54sVkN61i8zVLk0b0/bu/z5JA5Bq9XASUL8WwCEiWYUlhBBir6QBSC36//buO0Cq6voD+Pe8MttgAYEVhBhUBHZnQSI2iordmKKxxDT9mYYlQUF2Fkw0GVMUdhZBTSyoSYxdEo0llqiIhQWNWIDZBUQFpS+dnS3zZt75/bFiVNqWe997M3M+fyks5xxxd859990SStFfAZRozpPHLj2I/hPlODaPNTkppbMuzU2Z+yOaybWL7LWzOTO/L3eo/3namZl/ExnKLo1cycBZHqUL293sGzzKJXZpdJXe39nUbCCdgQc3p1KEpgz9oBXZbUtDZn5fbk0oXgxEMgDwTKi0ohyEqZ4mZb7KKq08zdOcuW71jGYofMXjpoH165VtKvDM+nUWODNftYos98kWG81O5p1VvWKD4s8BVwYA3hg4Po9BDwDI9zgzgfhvGHJNT4/z5jIGYbXKgGtWh1SG88SaNUovLhFCGdcF3l+feT9TS9cqr3mLDAA8YNv5N4IwzI/cBBxkGam7/cidwz5WGWzZUq/HjZ1XV5t5NYvcUbM885ZHvb5Mdc30vgwANLNKK04FYYKfNRBwjl1a8VM/a8gx61UGW7RI6c5CTyxelHkfsCJ3zMmw66pTLmGe4kELE5bJAECnoVN6ENFfAPj/wono5rwhVw/yu4ysFY6GQmWRC+yyyAtgXKgy9EcfhrBubeasA1i3zsbHH2feFKvIHS8uKURDBi1SfWlJAbY3qq2X2V2aOX8DGchKp+8C8BW/6/hUkWuYf8fYqOV3Idkkv3TSV0NlkRttTnzCwKMATtWR57VXu+oIq8WrL3cFZ95JqyKHJFoMPPFWF7/LaLMHa4qVx7QMS2YAdLHLIj8h4Dy/6/iSY0MbE9f5XUTmixpWacWpdlnk0TQZKxiYAs1nO7zwfDGSLf5PJO1PMkl48aXMGayI3PWnF7pnxEB13TYTTy5UO1gh0LqW+NQP5GlQg/yhUw5Np9Mz/a5jTxi41hoSmZNaGnvF71oyzqGTu9kFfCE4cRVAZV6m3rrNxNyXi3H6mdu9TNtuL75QjK1bVH+s0DtObdWRioOKjHKBaZcN2AjgAFUR31mZh5fihTi1PNgnpt/0zAFoSqod/DN4DgCWGQDVxkattJu+H0BQH4MMMvFXDByvfk4pS9lDJo2wyyJ32vnuWjDfCcDT5r/L7Ed6oDER3B/ZxkbC4//soTwugZ9VHlRkmNlpAC+pjjrl4V5IucGdWftwo4275nRTH5j5ZUCOAlYutLHxWjBG+l3HPjEOsfPyb/W7jEAbEM23w5FL7LLImzCMtwCMA+Drcvyt20w8+oiyByDlHn6wJ7ZuVX91oUuGDAAEADynOuCST/Iw6yUNDVaRq+/vreXQItPFHEAGAEpZQypGMvjXftfRJoyLQ2UV3/W7jKDJK48cFiqLxOzCxBow/grgaL9r+rxnnumGxYuDt4XpvXcL8eyzWj5IN6V6FyzQEVhkFoedZ0FQfjD2dbN76jhkp9PumdsNz72n9HbxVoy3mpdVfwTIAECdwZVdyaD7AGTMugoG3VFQfnVQdin4KGrkhSu+FSqLPOu6WM5ABRS+a1TJTQO33HSghvfsHbdls4lbZpboOvr3IcyNprREFpmlbuY6YrygOmyixcAP/9w3UNsC312Vh0n399YTnPi+Xf8YnP/iDGebfAuAw/yuo516pFzrfuAC9fO2mWD4hO52aeQqO5xY4TI9ycCZyICfia3bTPz++r5oUH05SAc0Jgzc8Ie+2L5dVy3pv2oKLDIR4e86wsZXh3D+zQehJQB3BKzeYuH8mQfpuq8g5RihR3b9S+A/7DJBKFx5PoBL/K6jY/gEq/SQq/2uwkvWkIqRdlnkPjtprwdhJhiH+F1Te338cQjT/nigr4sCE582/5UrdZ37z+85tTe9oym4yEDJ7al/AdiqI/bc2gL8eFYfJFP+DQI+2Wzj69P6Y7WmGT4GnsWSGzbs+nf/HyEyXMGgif1cw3gGgLYXsww8RcBgXfGJcKLZ+7h/u/XzlR5hGyjDKorsXqMuMXuPvoeIfg1gGDLodc2ebNpk4523C3H0MY0oKPD26r0tm01c/9uD8MEHGs/8J7rGra95V18CkXF2LEhZJWO6AjhBR/i6NSG88UE+vj0igTzL20MClnyShzOm9sOqTRpP/XRxqbupZtWuf5UZgE6JGinLuhda3xfTq6naonMA/E1fDoQA8wGMiGbeofP7kVcaOTxUWjHVTtHHYJoFYLjfNam0cmUeKq7uj3ff9e5/3ZIlBZgc+Qo+XqX1xr9PHBQ9qDOByExJ070FhCZd8efECzHyNwfjvY+9u9HyoZquGPuH/li7VeMzCWH+l89/kRmATrDCR00k0GUaU2yxLDotteGP290DxswxDXwX+gYbvU3H6e5uqnlGU3zvjI1aoS7HnGP0GnULE24C0RhonKHxW0uLgddf74qGnSYGD2mCrekBojFh4L6/98Tdd/VGU5PmZweia934H+frTSIy0oaahFky6iCAtO3Q2ZIwcf/rxWAGjjmsGZamTrluq4XL/1qCG5/oqf3VA5Pxc7d+3gef/zX/VzxkKDs8+Qiw+wYAbcNEAr6brI3N3vXv1pCKkWTQq9A3dc0u45vpulhmDgLCkT4W+OdgGkdAf7/L8UOPHmmcd8FWnHzKDoRCaqYwky2El14qxmOze2DrNg+eGQgfOYmiMqyMNutPJjJSONLHZiyHBweuHd7HwbXnbMb5x+6EqWjcu63RwG0vdMeMZ3pgpze7DxY4tbHdzqeRAUBHDIjm24WJtwCEteVgvtepq77ky78cKquMMvi32vICGxyLh2FR9UaNOZSySiedQIZxBRjfARC8Db0+6NEjjVNP24ETx+5En75Oh2KsW2vj1bldW4/39aLxf4oMOi+5pOoxzxKKjGSVVV5D4Bu8yjfwQAc/Gbsd3x+5E317dGxn6jsr8/BgTTH+/lqx8tv99oqQBtFxzpKqt3b/LdFudlnlzQBfqS0B4SOnpXk4Vty6Y7ffGxu17PrEqzpPG2TgqVRt7OzWfwyowZVdbYN/BMIVAMr9LifIBgxoQfnQJpSWtaB//yQO7OPA+tICp1SKsGG9jU8+sbG0rgCLFxVg1SpfxlJznNrYKX4kFhkmHO1ic2I9AA2n5eydaQBHHdqMsaWNOHZgMwb3dTCgd3K32YGmJGH5+hCWrQ3h1aUFeLm2AB9s8OFnivg2J179iz3+lte1ZDorPPkMYvdZ6Pq7I6SZjBNSS6bV7O1L8sojh7ku3oHW6S+63KmtukNf/I4JlU0OM6WvANNFCO59C4FXVOQi/9OdA81NBhJBuGOA0ESGe2Ry8fSlfpciAm5s1LI3Nj4AcCBOMzUMoFtBGl0LGE4aSDQb2KF7nUzbbHRMcwgWT93j1kkZALTHoEm9Qpa5iMF9daUgpt8n66p+s7+vs8ORSz49qlaXRjLdEYH4MB4xzg41FX+Hia4A40S/yxGaEI134lV/8rsMEXABa/4BxsR0brKu6l97+4JADFEyhWUZd+ls/gDeSB5Y+Lu2fKETj/2Nwf/QWEshu+b9CEd9e6deMGhiv1Bp5e9CTd1XMeiRLGj+20C4GRpuNct0BHrWiVf92e86RMBJ8287wi37av6ADADazA5X/JyAc/Rl4AaDzB+159zzFKUvZcIafSXxiBAnrtcWf8/IKqs8xSqt+GfKslYy8XWaB10eoHdAPM6xuL8Tj01wTPMCAO/7XVWArEpa7iUI8poT4T9p/u3xXwdFlfv7InkF0AZ5pZHDXcI70LnYhPlnTl31Pe39Y1ZZ5SkE/g/0DeZcdnHylw+QUO7Qyd3s/PT/AXQ5gCFac3mjBcBsdvm21NLq3fazh8orS9nlBQCKvS8tSLgBZI5x4tPe87sSEWBjo5a9MfEggAv8LiUDbDTTfNyuG//2RQYA+zNinG03dZsHjdfCMuHxVDx2bkf/vF0WqQYwSWFJX/axE3KOwLszt6kObIcjw+HSFSD+ATxezavJSibcmWqx7sGKG+v39YVmacU3DKInkbszcS4xn5+sq37c70JEgEnzb4+dcN2TnKXTF7blizP6LHQvhJq7/YZ1Nn9gbcpxx3UmhpNs/rUdyjsVoCNU1fUlB9st9m0O8AMl0QaOzwuFCs5ndq8AYxQo42d+XQI9T+Te3hLv8m8g2qaD+dN11f82wpWXg/l25N4ggME8Tpq/2Cdp/u2RZOZzU21s/oDMAOyTFZ48huDOBWs7MpnZwJmpJbH/dDZQ6/Y4979gfUfeEviiZG31/R398/mlk77qEl3KoJ8CKFFYml82E/BXMnBHy5LYB/v/8j2zw5FLANyt8fssaBigK4K4zVQEyNioZW1seIhA5/tdSgZIEtEPk/Gqdi0MlwHA3gwcX2yH8t8DMEBbDqKZTrxqoqpwdllkPIBbVMXbDWG7mTaHNy+durLtfyhqWOGm08DuFUT4RpY0uf+CcJuTKHpY1XG1oXDk+8z4O7J9Vo6QBvMvnNrqO/0uRQSYNP924AY26LyOPEjKAGAv7HDF3z89bEYPwmInUXSM4vPOKVQWeYaBMxXG/LLXnNqVJwGz0/v8qvDEAyy2f0xwLwNooMZ6vEFoAvPDMIzb9nSkpgqh8spzmfl+nbM4Pku4Br6XXhJ72u9CRICNGGdbTcUPSvNvA0I94H7DiU//b8f+uNhNqDRyIRMe1piihVzj6OTSaYuVRw5H+tjAIjB6K4/9KQZ+naqN7fEMbru88ii47hUg+l52NDJewTDuSJHzV8RnbNGdLVReMYxd+geAw3Xn8hIDa8mgs3UNnkSWkObfdoxFBnB+S12sw1uKZQDwJQXDKvunUvwe9F27CzBPdOqqZ+oKb5ZN+roB49/Q9/83BfAYp7b6DQCfLurL/zYD4wCcqimnl1wAcwiYlaxd+dh+ZztUG1zZ1Tb5HmTLwifCCw5wMeKx9X6XIoLsAtMuHXAfCN/3u5LAI77Pye9yGRZGGzsVRlU92SFq2KWJl0AYqy0F4QUnHjsDmg89scsid6K1IWtCy8lwL4BLFzHwYwA99eXyzEYC32Mw39lcN32Vz7WQHY5MAPDHDJ5JaQbhV048NhNyyI/YlxHjbKup20MEnOd3KQG3jQhXJOOxh1QEkwHA51ilkUoiTNOYYrOdpmGNy6rWaszRalhFkZ2mhWAM1p4r0zHXEBm3JZNN/8CKW1v8Lufz8odOOTSVTs8k4Ft+19IuhBcMF7/ozPSkyBH+NP/NyKyHFgbwgEOIqJxJkwHAp+yyq78GmAug8T55r+85b30fzzUAbK9yZpAEmB6Ewbc58di7fhezP2Z55JuGi5kADvO7lv34mAhTVD2hiCznT/Of5VDReBuN48AcRfAHAnF28Qsdp7HKAAAA+k8ssIuthQBKNWb5i1Mb+6nG+HtklVVeQ+A9LtjLUUsBvt1pNu/Fh9O2+11MuwyI5tsFiUtBmACd21M7gAlryKUbHKfpnqDNooiAGjHOthqLHyaiDp+C2gGznNrYZdj1SmrolB6hdHoCA1cC6O5hHW2xhAg3JOMrH9W1DkkGAADscMWfwXSFvgy8wqEuX0M82qAvx95cYNplh8wB+ATvcwdGipmfBBm3pWqr5iDj30dfYIbKvnoegyYBOMbfWugdkHu7k+hyn+ItrSKb+dP873RqY5djTz//A8cXW3kFlxPzOACHeljT7phrCEYsWVf1BDR/VuX8AMAsjZxlEJ6GzhXzTMc7dVULNMXfr/zSSV9NG8Z7YHTzqwY/EGgdGHebaefOpuUz9N2a6CMrHBlNwCVgnAudO1e+aBOIngC7d322E0SItgpa8/+CqGGVJ06lNC4B4ZsAunpRHICVRLif0un7WpbetNyjnDk+ABhWUWKnaBGAA3WlYMJvU/HY73TFb6tQuOIHzPSA33V4gvAKMd+WLNjxOBbOcvwuxxPhaMiixFhy6QyAzwBQBlU/34Q0XMRB9CJz+olU3cfzPN8aKbJDoJv/lwyI5ucVNZ7ugs8EYyzUviJuBjCfGXMI9KJTV/VGu+tTIJcHABQqjTzJraM8TRkw3+lddALmRlPacrSDXRZ5AKou9AmenSC+j9i8LVk7Le53Mb4bPqG7lbKPAdPXiN3BYAwG0VfQegdD3l7+VArAagAfgehDBq8A6I0UCv/rz+srkVVGjLOt5m6PEOM7Hma9w6mNXQEVzbX8VweaaWcEGRhGLoYB/NVPf6b6YG8LrQnbAWwhxjImWgrGMna5LtWQehOrZzR1uqZOytkBgF1WeRnAt2tMsdM0zeHNi6d+qDFH+wyf0N127OU6Twn0wRIwbnNcuh/Lqnb6XUxGOHRyN4QMK9/mbkg56WbL3oHQloacmS0R3sv05r8/A8cXo6DIzAd6GEm3uRHYmQmfRzk5AMgLTxnocuodgLpoS0J0iROvuldb/PYYXNnVtvB9uPwLEIb5XY4CSQBPMPOsVF31S8j4RX1CZDE/mj/TXU5d4WVtvZo7VwVrADB8QnfbCQ2Cy0MINJCJDwTQhYEiAopAsImpkcENYNoG4h0Av89kLLdNvN+0qGr1fnOEoyEbjTVgHqHrP4PB/0jVVvt+jGvrFcHpK8D0IwDFftfTWQysBuPOlIG75VhZITJA6z7/Rwk4x8Os3j35Zzhfrx7NK40c7hp0EoCTmPkESuKg1qvCAf7c/7vPRin8uV8n/ux3iRmpFGCHI9sJ9Lrr4hUi91WnpMvCL79/D3HiegY0Nn+sTlH6Ul3x92vEODvUVPwdJrqC2T0RHKwxXgcwgJfIoNudXoVPBmU9hRBiP/xo/oTbnXjsF5Dm3yaed4dQaUU5DFzMTBcCOFhzui1g+icbeCgVL3zFGpI4ngzMAWBoyucy6PRUbdVLmuLvVcGgif3SljUOoJ8zuK/X+TXYBsK9Ropub1lWtczvYoQQ7RCOhixOPCLNP9i8GQCEo11sTvwYwCUAjvQk55cwYQ0xLGjc8gdgulMbq9AY/8vIKqs8GeDLCTgbPs/oqPHpwTImHsSi6oTf1Qgh2kmaf8bQ2zAGV3a1Df4JcWIKt26V8A0x+mlOEXcai67VnKPVwPHFdl7B98A8HuByT3Lq9blFfbEX/S5GCNFBI8bZVpPHzZ/pLqe2Spp/B+iZAeg/sSBUbE9m8ERkweKzNmgmGEfp3n9uhyPDwbgcwA8BFOnM5ZGVTLgz1WLdgxU31vtdjBCiE1qf/B/9dDbSG8S3OfHqX0Kaf4conwEwyyPfNBi3MPMhqmMHWKW25h+OhkKcOJuBcWCcqiWHt1wAcwiYlSwpelwW9QmRBf437e9d82e6y6mNSfPvBHUzAKUT+lpk3+7pN0AAEPBcsjZ2FhR/E+aXTvqqS3Qpg36K1tPbssEdhoHqliWxD/wuRAihiB9P/ow/O3Wx8ZDm3ylKZgCscOVJBuOBLFl93h6bkuz8BMq+CaOGVdpwMhGNSwPfQVYs6vuCfGn+QmQRP578gVnS/NXo5AzABWao7JDrGHwd9G2tCywiuiAZr/pHpwMdOrmbXcAXgvkqtF7ikrWI8b1kXewRv+sQQnSSH6v9gVlObewySPNXouMDgGEVRaGUMZvBX1dYT+ZgusupqxrXmRB2eeVRcN0rQPQ9MApUlRZwWyyLjmjTqY1CiGBqbf6zCfi2d0n5T05t9ZWQ5q9MxwYAQ6f0sNPppwCMVltOxvjASdPXOnTZw8DxeaFQ/rcZGAdkxaK+DqBXndrCk+ScbiEykB/v/OXJX4t2v2MuGFbZP5VKP48sn6reBwfkfh/Lprer+eeVRw5jF5cx8GMGeuoqLjPwCVZZ48RULab7XYkQoh1am/8/CPiWd0nlyV+X9s0ADJrUy7aM1wAM0VNO8DHztam66j+27av/t6gPhHPBMPVWl1FaQDjOicfe9bsQIUQbyJN/1mn7AKD1VL85IBylsZ5gY65x6ladAMxO7/PrBl7T28pL/ZQYlwIY4EltmSnu7EgdjdUzmvwuRAixD748+eNWpzZ2FaT5a9O2VwDhaMjmxGNADjd/AGzQVxEe0Btx7PEqWmtIxUgy6AogdQEYeV7Xp8FStJ44+BVN8cN2sTXNAa7UFF8I0VnS/LNWm7bu2W7iJuTsgrX/IUY/G3gMA8f/r7kPiObbpZGL7bLKt8mgGgA/AjK6+bsAXjSIv+3UxsrYML4Hwr5nPDrnl2ZpxTc0xhdCdNT/Vvt72fzvlObvjf2+AsgLV3zLZXqiLV+bQ+4wGDcx+KdM9DNkwaI+AtaD+V4DfHtz3fRVn/+9UGnl75j4Oo3pNzqGPQxLbtigMYcQoj182eqHO53a2OWQ5u+JfTb1/MEVh6RNehtAd4/qySSMbBgUEV4h5tuSBTsex8JZzh6/ZmzUsjcmXgdwrK4yGHgyVRvLqWOkhQisgePzQnb+P5jwTe+S0i1ObdUESPP3zD4aWNSwSxteA9Eo78oRHtkB4vuJzdvaeolRXnjKQJdT7wDURV9ZfJlTW32nvvhCiP2S5p8z9joAsEsrfgqiu70sZpceZhojuzajrKAFh+c76GW7KDRcWMRodAlbUyY+aLGxrCmENxrysarF9qPMTLQEjNscl+7vyCFGdlnkJwDu0VDXLgkjTSNallUt05hDCLE3A8fnhfIK/snM3q3LIdzsxGMTIc3fc3seAAy5pqdtpJYC6OVVIX1DKXy/506cf8BODC9sgdGOyfWPWmw8tbULHtjUFe81ZvL6Oy2SIDzOrntbqm76q50NZpVW/JOIzlVR2B4x3nIKt4/a6+sIIYQe0vxzzh63AdqUvhEeNf/ywhZU9t2K8w7YCbODb9QPyXNwZZ+tuLLPVixoyMe0tT3x3LbCnP6OYmA1GHemDNyNeGyP2xY7IsX2OItSxxFwkKqYX0A4KtRUfH0S+JWW+EKI3Unzz0m7tdz8oVMOTafTy6D5KtoeZhq/7rcFVxy4rV1P+201b2cBrlrVG0tyb0ZgHgE3J0uKHsfcaEpHAqu08jQifg76boB02eBTUkuq52qKL4TYxY/V/kQznXjV1ZDm76vdWq8djtwFxs90Jj2rewJ3HboBPS2d28uBFBNuWHMApq47AG52f5ttA+FeI0W3e/X+3C6N3ATCRI0pVjkhZzjenblNYw4hclvr5WSPMXCWZzml+QfGFwYABeVXfyXlmisAhHQkMwj4ff9NuLrvVk/3z720vRA/XNEX29K6Hlj9Qu+A3NsdEw9iUXXC09QDx+fZdv6bIAzTmOVBpzb2Q43xhchd0vxz3hf6sB2unAHmCToS2QTcfeh6XNiz/TfoqrCkMQ/fWn4Q1iW1vtnwQguA2ezybaml1fP9LCRUWlHORP8FkK8rBxH/MBmvflBXfCFykn/NX+esoWin/w0AWs/7XwMNi/8MAu47bB3OO6BBdeh2+aA5hJPr+mGDk3mDACasMZjuTibNP2PFjfV+17OLXRq5CoSZ2hIQtptpc3jz0qkrteUQIpf4cba/NP9A+mxOyXzt+gAAIABJREFUPOQ2fAOaVv5XH1zve/MHgMPyk/jnoLUoMDJm9skl0LMG8bdT8aKDk7VV0SA1fwBw6mK3EPh5bQkY3dKGey9wgVylLERnDRyfF+LGf3na/BkzpPkH02cDAJfoYh0Jzu+5E1ccGJx1XEcVteCmgwPVQ3dH2A5gFhlUnqytOqslXv0UEHX9LmsvOGnhYgAaz/HnE6yyQyr1xRciB4SjISuUP5vBX/csJ9FMpy52tWf5RLu0vgIYPqG7nbQ3QPHivwF5Dt4q/xhdzOD1rh+u6It/btF4qm3H/BeE25xE0cNYGW32u5j2CJVWnsPEj2tM4cCgUc6Sqrc05hAiOw2I5ocKGx/ztPmDbnJqqyZ5l0+0FwFAqLTiO0z0mOrgjw1ai7O6e7s4va3WOyaOWDwA21O+7wxoAfAkE25OxWPz/C6mM/RvIeUVDnX5GuJR/98nCZEpwtFQyE3809Oz/Rkz5Mk/+AwAYDLGqg58erfGwDZ/AOhjp1HZd4uPFfAKBlU4lDrIqY19N9ObPwA4Jk8A8L6+DDTQ5kS1vvhCZJkB0fwQJ57w+GKfm6T5ZwYCALssshhAucrAL5WuxuiuTSpDKpdwDQx+bwA2OZ6tL3MBzCFgVrJ25WPAbL0nIfnAHjJpBAxjPgBtNzQZRGe3xKue1BVfiKwgT/5iPwiDJvWyLWMjFN5tP7JLE14uW60qnFbXr+mJG9ccoDvNRgLfYzDf2Vw3fZXuZH6zSiPXEuH32hIQ6h1gmMo7DoTIKgOi+aHCxOMMnOlh1ulObazCw3yikwzLNodCYfMHgIt671AZTqsf9dyp71RCooUgutTZkRqQrK3+VS40fwBI1RXdAMIr2hIweodc3AvF37dCZIVwNBQqSMz2tPkzZkjzzzwGMQarDGgR49wA7Plvq8PykziqSPWCe14BwteceNVRTrxqFlbPCPa7EOWirpk2LwGgbSTIhNPtcOUvdMUXIiMNiOaHuOFJb9/5Y7pM+2cmA6R2AHB0UTO6B3Db376c0k11f6akE4+9qzhoRmleOnUlmH6pNQlzLDRk8lCtOYTIFAPH57U++dMZ3iWlm+TJP3MpnwE4vjjzHnZPLG5UHfKrqgNmIqeu6j4QPawxRT4b6fswcHzO3fksxBcMiOaHQnmervYnoFr2+Wc2g4E+KgMOLWhRGc4T5eprLsKgSVqOVc40jp28HMAn+jLQEXYo/4/64gsRcAOi+aHChn95+eRPQHWyNhbxKp/QwwC4WGXAQQWOynCe6G2ncYCl9rVFnsHatxZkhHdnbmPghyDo3PI40SqrPEVjfCGCaeD4vFBR4z+8nvaX5p8dDABKz8PtY2fm1vY+ttqBi2uahUoDZrBUbew1AqZrTGGA+F4MuaanxhxCBMvA8XmhvIJ/MvM3vEsqx/tmEwNAV5UBu2bYAsBdik21NwQyUKQ0YIZL5m+/FsB/dcUnRj+LnFm64gsRKL40f0yX5p9dDBCULqDKo8wcAKivm2Vh2uctnOWQ6V4MQPmKy12I6Fw7HLlEV3whAqH/xIKQnf+kl82fiGOy2j/7GGAoPbA/4fp+uU6HJFzFxwGnkXnbITRLLp6+FEx63x0y35pXGjlcaw4h/DJwfF6omz2bCad7mHV6Ml4t13FnIYMJO1UG3JnOzAHADlftoXJkmtqedDOZU1d1OzGe1peBurgG7sXYqKUvhxA+6D+xwM7Lf8rbJ39UyZN/9jKI1Q4AVrZouwNGG5eBjxXXbYCCexWivzhp808BbNCXASOtjQ2/1hZfCK/1n1hgd7OeAOM0r1ISoSoZj032Kp/wngGoHQAsbwqpDOeJj5M2mhXPALSYqXVKA2aTRdUbXeafAlC78vJzCHStXVp5nK74QnjGj+bPPE2af/YzGKz0gpq3GzNv7dvChPKaN2NRtcwA7EO6rvrfIL5dYwoLxA9gcKXSXS5CeKr/xAK72HrS0+YPVCfrqqd4lU/4xzCIlqoMOHdH5m1/V18zZ8ZdyD5z8rtEANRpTHGobbo3a4wvhD67mj9wqlcpiXmaHPKTOwwwL1MZ8P1mGyuaM2cdAAN4frviLftMtWoDZqmF0UYg/UMASX1J6MehcOQ8ffGF0MCP5g9MlSf/3GIwqR0AAMBDm5SeLqzVqzsL8HGL2gXjTHhbacAs5tTe9A4zrtOZgxl3F4QnH6wzhxDK+NP8q5O1sWu8yieCwXC2u0sAKL0N5++busLRtrxLrb/Vd1MflDmnrwJur1RdUTWAlzWm6J5i9x4gmpl7VEXuaG3+T8HrJ3+Z9s9JBlbPaAJhgcqgnyRtPLI5+LMAH7XYmL1Z6VUIAJBKOS1vqg6a3aKulUpdBGCLxiSnWuGGCRrjC9E5/3vy9+xiK3nyz20GADAwR3XgqWsPQJLVbq1T7YY1ByClukbmN7Hi1h1qg2a/puUz1hDjCp05iOkGOzz5CJ05hOiQEdFC75/8+UZ58s9trVOirH76dUWzjRnreqgOq8z8hgLcr2GtAhG9qDxojkjWxR4B8X0aU+SB3QfRf2KBxhxCtM+IaKHdlPD2yZ84lqyt/pVX+UQwGQCQKti+AMAm1cGnre2Bpc3BOxioySX8cmWJllNoGLhYVp13nNPS8ksQPtKYoswutqdqjC9E27U2/6fg7bT/DXK2vwB2zQAsnOUA/LDq4I2ugR+83weNAbsgaOKqEsQbtQ1MBjDjH3Zp5OVQecUwXUmy1opbdzBwEQhpfUl4vFla4eU1qkLs7n9P/id7lbL1yT8mx2QLAMBnV+CZJSM3AfRz1QnqUxaWNYXwnQMaYARgScCfN3RD1doD9CciDADTz83eo0rckmPfQP0CuR2wjdz6mk+sXmMsEE7UlIIMMk5K9zjuXmyeL5c2Ce/59eRfWy0L/sRnPhsAuPXz15q9R18IoLfqJEubQ9iYsvD17gn4OQZ4dHNX/GLlgfoOoN+dAdAxJoyfmb3H7HDrD3oHqM2QDZL+Spef9pqZcM4E0E9Tiq6GQYPd+hrlM19C7NP/mr+HT/70x2Rt7Fqv8onMYH7hX3qPNgB8XUeitxP5+KjFxlndEzB9GAXctbEbLl95IFx/2m8hgG+avbudbfQcXeduqlF6/0JWWjnXtXuNfoWJfwyQlvc1BAwxS0atdetr5OAm4Y3W5v80vG7+8Spp/mI3X2zFrftQPwJwoK6EY4ubcO9h63GgndKV4gscBn79SS/csj5IOxLoUYso0hSf9rHflQSdXVrxUxDdrTFFwnDTR7YsvWm5xhxCfL75n+RVSmn+Yl++MAOAHQtSRq/RBpG+m6dWtth4eHMxhhQkMTDf0ZUGALCs2cb57/fDY1sCdyFc2AVfapSMtty8Y9/EjgXejIYykLup5h2jZPQRBJRqShFiMo5zDy7/G9YtdDXlELnOl+aPPyTjMa3HbIvMttvy/JRLt0PviWxY75g4Z/lB+O77ffFhi/qLg7anDFz3SS8cvfireLMhX3l8RQqJcb1dbNWGwpXn+11MkKUcdxwDazWmODrU1C2qMb7IZdL8RUDt8W28Ha78JZhv9aIAixgX9GzA+AO34siizl1JsCZp4e76brh9fXdsSwdr62EbvEyucVVy6bTFfhcSRFZ55HRy8Rz28j3baYQ0M05K1cZe0xJf5KYR0UK7MfFvEMZ6lVKav2irvXyYXmDaZQPeBHCkl8WUFbTgvJ4NOKm4EUcXNcNuw0d9XVMIL+8oxFNbi/DKzkK/FvmpkgLjTsdI/QbxGVpnYTKRHa6cAWad5/mvdJqN4fhw2naNOUSuGFZRZDv0tKfNn+n3ybqq33iVT2S2vbZYu6ziWIBqsIfXBF7IMxiH5ycxMM9BTyuNHlbruTA7XQM70iZWNNl4vzmUiU/6bbEZjOucupWzgNkaD8TJMAOi+XZR4k0whmrM8oBTG/uRxvgiF0jzFxlgn8/YdlnFrQD90qtixJfxe+zSVamlsVf8riQoQkMmD2XDfROAtsUdRPhBMh57SFd8keWk+YsMse9J9oHj8+xQwXyAv+ZRPWIPiPG0web45qVTV/pdSxDY4chEMG7SloCw3XTdI5rrpst5DaJ9/Djkh3lasq56ilf5RPbY71v2vPCUgS6nFwJQf3WeaDtCE7l8S9Lo8gfEow1+l+MzCpVFnmbgLI05XnNqV54kr2BEm0nzFxlmvy/QW+JTVxDhMi+KEfvAKGCiyTYnlsi2QbCVpp9Dww2Wn3O8FR4gd6WLthlWUWQ3J56Bl80f+J00f9EZ5v6/BEjX1ywxeo1OE3n3zS32qjuA75olo0+yDhz1dnpjzQa/C/KDs3neTqvXmPdB+J6uHAScaJaMed6tn7dGVw6RBUZEC+2k8zTg5Tt/npasq5YT/kSntGkAAADupppXzZIx3QEcp7Ee0XYDwHSpWTJqoNvtxNex5fWcu9UuvWneUrNkzFegb7uqCfBJbsnpf0X93KSmHCKT+XHIj0z7C0XatYfOiRdOAlHu3Z5GWAzmidA75dwRBpguskOpOrs0cjlwQZsHdNnCQeEEAO/ry0ADbU7E9MUXGWtYRZHd1PgsvGz+oOul+QtV2tkw5rJbf9C/zF49+oIwQk9JAcN4y0m5p7vLps9x+x1zl5UyCETHoN1/d1oVgvANs3f37xolx69w6+d94HdBnqmfmzR7jqwB0Y+h7//JUXbJmHfS9fOWaYovMo0P0/4Mjjq1seu9yieyX0ePVaVQWeVvGfxbpdUEDeEVp6X521hx647P/3Le4MrBbPJMBs70q7R9IcbThstXNi+r/sjvWrxihSuuI6bfaUtAqHeAYYjH1mvLITKDD9P+DI6maqul+QulOvzElK6fN9fsPWorQKfBp9MCtSK6x0kU/QAfViW+/FvpzfM2p+trHrBKRi8BcAxaF+YFB2EQG/Rzo/coO1duG3Tr+80ze3c/BcDBmlIUWUBZur5GDgjKZeFoF9tpfAYeP/lL8xc6dPpiFTtceQyYHwEwoPPlBEILGJOdutjNbfrqcDRku4nLQfg9gMDdO8yENeTiV05d7D4AmX1Twn7kD644JG3Su9B5ZgXhl0489mdt8UVwyZO/yDJqblYbNKlXyDLu1Xwwiwd4BZgudOpib7f3TxaUX/2VFFtVYL4Qum6s6wzGXDL5quSS6kV+l6KTXRq5GIR7tSUgNBHco5Lx6bXacojgCUe72Jx4BsDxXqVkwm9T8Zi+11oi56lsVGSHK34GphsB9FQY1wsOgauTO9K/x+oZTZ0JZJVOOoHIuBnAcEW1qUNIA3yng/R12XzboB2OPAzGhfoy0DsOFR6HeFS2BuYCaf4iSyldNe3W17zt9jnhLpNRAOBoBPFJeHfziPlbybrqh1S8K3c3zV/l1p9+l9nL+RCE0QCKFNSoigHQ0SaMcWav0c1u+ekLsXKu63dRqrn9jnnRTJs/ANBNU4q+FiXz0/U1L2iKL4JiWEWRnXaeBuFEr1JK8xde0dag7XDlMcT82+C+FuD3yDB+l1xS9Th0vRsfOqWHnU5fD+ByAJaWHJ3BWMQmX5VaUj3X71JUs8KVJxHzi9C3QNVl4tNS8eo5muILv/ny5M+/ScWrf+9VPpHbtD+h26WRI9nAtcQ4G8HYLfAuMf8uWVf9L3i0KC5UNjnMcG8GcIoX+TpgtsluJNtuvwuFI9OYUakrPgOrU6Y5DIunbtWVQ/gkHO1ic8OzAI3xKqU0f+E1z6bo80ojhzPoIia+CN7vGNgG4BF2+d7U0ur5Huf+TKi88lxmrgbjEL9q2CtCEzFVJXc40zq7DiIwwtGQzY0L9F5nTY86tVUa1xsIzw2u7Gqb7jPS/EW28+MdPVmlk44nw/gegJPBGKwlCbCegZeI+enkzvQTgWlqA6L5VkGigghTEKz1AbusIiCSrI3N9rsQFULllaXs8lsACrUlYfyfUxf7u7b4wjt+NH/Gdam62B+8yifELr4v0isYNLFfyrRPhsEnwOUyEA1G+3cRJAAsA2MZwG8S8GKyrjqOAO97l22D3rFLK68Asc69+zvMNA/PpZMXs5I0f5Fjgtd4AGDINT0tyx1sMvdiuF0YRhcGegAAudgJcAOBd7omtlpp/qi5bvrHCHCz3xerLHI8gW7WO03dQbu2Dabt32DpjZv9LqcTKBSufIqZv6EtA3ONU7fqBGB2WlsOoc/gyq62yc8CGO1VSmn+wm/BHADknKhhlyZ+BEIMQInf1ezBVjCudw4s+jPmRjPzWOGB1/QOhVKLGOijK4W8x81QwyqKbIeeBnl4vK98r4gAkAFAkAyf0D3UYk1hookAQn6XswdLmYwJqfi05/0upCOscORMYjwDfd/3KTAd79RVLdAUX6g2rKLITtO/wV7u85fmL4JBBgAB1HrbIGYw+Ot+17InmXzboF0WuR3AZRpTfOikaTiWVe3UmEOoIM1f5Lgg3WkvPtV62+C8B+ySUW8z6Fh8uv4hMAiD2KRxVq9RXdMHnr4A9XMz5khct+j0l0zbOQf6XrX0ME0qcevnPakpvlBBmr8QMgAIsnR9zXK35PQ7THY2f3qscJ7fNX2ODaIxBjn/Z/YavcndVJMZuwW2zU2ZvY9bABg/hr7v/yOt3qPq0vU1cU3xRWdI8xcCgLwCyBiFgysPcix3Kph+hCD+fyO8AhhXOfFp7/ldSltY4crJxDxVY4qtlpE+omnJTZ9ozCHay4/mL6v9RUAFr5GIfbLDlceA+RYAx/pdyx64IH7AabEnYcWN9X4Xs29Rwy5LvADgZG0pCC848dgZyNAtqllHmr8QXyCvADKMWz9vjVt/+l8CetsgAXSEabo/C/5tg3M5r++YOa6LSwAUaEpymNlr1DZ3U43sCvDbsIoiO2U8A0jzF2IXmQHIZLJtsNNC4ch5zPiHxhQtIOPYTHk1kpU+a/58glcppfmLTCADgCwg2wY7xy6L3AfgRxpT1Do7UkcF5j6KXCLNX4i9klcAWUC2DXaO2/X4OabF3wPQXVOK3ma+WeTWzwvsTEhWGji+2Cb7BcjxvkLskQwAsohsG+ygrfNajJLRbxHh/wAYmrIcS71G/5c31byvKb74vIHji+1Q/vMAjvMqJTNfm6qr/qNX+YToLHkFkKVk22D7hcKVf2DmX2tMsdEx7GFYcsMGjTmENH8h2iR4jUEolRHbBk1UYFH1Rr+LwdioZW9MvA6Nf1cMPJGqjZ2jK37Ok+YvRJvJACAnyG2DbZVXHjnMdfEOgK7akjB+7tTF7tYWP1dJ8xeiXWQAkEsyYtsgJqbisef8LMIOV/wcTLM0pkgYaRrRsqxqmcYcueXQyd3sfPc5SPMXos1kAJCDZNvg/tllkUcBXKAtAdFCJ3/bSCyc5WjLkSuk+QvRIbILIAfJtsH9c3uMfNkyjIug71XAQVY6n9L1NS9rip8b/Gj+wK9TddU3eJVPCF1kAJDDZNvgPmye30i9Ri8igs5dFGOMnqNfcTfVrNIUP7v51fxrY9L8RVaQVwACQAZsGwS9CqIrvd42aJdV3gzwldoSED5yWpqHY8WtO7TlyEatzf95eLi7RZq/yDYB/KAXfrLDk44GG7fAw6eqdvB+2+DA8Xm2nf8mCMO05SC+z4lXX6wtfraR5i+EEjIAEHvw2bbBKgAH+l3NHni6bTBUNjnMcN8CkK8rBxF+kIzHHtIVP2tI8xdCGVkDIPZgLrubat5z+x1zt5UyCETHIFjfKwUgnGk2OhcaJaNXuPU1K3QmS9fPqzdKRjUR6AyNaU4J9Rr5cGrT/O0ac2Q2af5CKCUzAGK/8oZcPYgNcwYDZ/ldy554tG2QQmWV/9a8dfI1p3blScDstMYcmcmX5k+/StVW3ehVPiG8FqSnOhFQ6U3zN6frax4M9LZBgy43e4/p7R4weh42z9OybTDvgNEvuwYuAVCoIz6Arxq9uifcTTXzNMXPTNL8hdBCBgCizQK+bdAEcKxh4mJd2wadzfN2Wr1GvQ+iC1XH3oUIY82Skc+59fPX6sqRUaT5C6GNvAIQHRL8bYN4E0TjnXjVm6oD22WRewD8RHXcz6lzCoqOwsJoo8YcwSfNXwitZAZAdIized5Ot77mcbNk5DMADQXQ3++avqQfgJ+aJaMGun1HzcOGmoSqwG7fUS+ZrnE+gJ6qYn5JbzOd7OHW1zyjKX7wSfMXQrsgPrmJjBP4bYPbmGhqCoUzEI8qWR9gl1ceBZdrANgq4u0BG8Rnt8Srn9IUP7ham/9/ABzjVUpp/iIXyQyAUCDw2wbzCTjVJOe7qrYNuhvnrTVKRhMBJ6kocA+IiU51S0bfh/qaBk05gkeavxCekRkAoVxGbBu0zKuaF0/9sHORooYdTswB40Q1le2OgOeStbGzALCuHIHhR/MnXJOKx6Z6lU+IIJEBgNAmL1zxLZdpBoDD/K5lD5IA3eGkcS2WVe3saJD8wRWHpE16F0Cxwtq+iHGFUxe7XVv8IJDmL4TngjRNK7JMur5muXtw+e2mk5+12wZTm2u2mSVj1gE4R215n0M4xeo16on0phpv7j/wmjR/IXwhMwDCExmxbRB8pVNb/UZH/rAdrnwIzN9TXdT/0DsOFR6nahFjYAyf0N1O2s9Dmr8QnpMZAOGJzNg2SD/p6LZBt9/RL5lp8wcAummqr6/FyVB6U82LmuJ7T5q/EL4K4pOYyH5kl0YuyrZtg1bppBPIMOaAtQ2sXSY+LRWvnqMpvnek+QvhO5kBEL7IlG2D1HvkB1w/v03bBt1N81dZvUd3BTBKU10EolPdkmP/hvoFTZpy6OdL86cpqXhsmlf5hMgEMgMgfBcqryxl5pvBOM3vWvaEmR+zXFS06bbBcDRkc+INAMO1FUR4xInH2r/eYEA0vyC0vadrWoUuu8VsUVekYZFpbEMqzVbI3NBkb9uAhbMcDVW3Gjqlh+26L4B5hLYcX8Rgvtqpq57pUT4hMoYMAERghMoqzmbQdARz22AzEaqTJk/Foup9rg8IhSeVMYy3wCjQVg3TxU5d1X17+V0KlU0uY3ZPgIGhYBwO4HAAXwFg7DcyaD2DPwSwGIxFMOm/zpKP3un0NcXS/IUIFBkAiGAZOD7PChVcTXB/BVAXv8vZg0+IuTJZV/0I9nE4jx2O/AKMP2msY4eZ5uGfzUoMuaanbabPY9c9gww6HozeSrMRtpOL15j4accI/QtLbtjQrj/vS/PHRKcudrNH+YTIODIAEIFUMGhiv5RlTQPwAwTz+/Q1EK504rF39/L7FCqLPK35NMR5BLodhO8z8+nQdy/Bl7kAvQ7CX5ztzqNYPWPf6xGGTulhp9MvAjjSm/Kk+QvRFkH8YBXiM1Y4MppAN3v45Nh2hDQYdzsp91osn75pt98v/9WBtussAlDifXGe2QrgL3aabmpcVrV2t98NTzzAZusFSPMXInBkACAyQNSwSxM/AeGPCGYz3Qpw1CnpchvmRlOf/41Pj0N+Atn/s9YM4r9YTvqGpuUz1gDwp/mDJzi11bd4lE+IjJbtH0oim4SjXULcWMHgKQjWscKtCMtcdiema6c/+/lftssidwC41KeqvNZIzLeatvGnVIofA3C0R3ml+QvRTjIAEBknVF5ZijTPZMLpfteyJ7ttGxwRLbSbEgsBDPG3Mg+1vh7x6mwHaf5CdIAMAETGskorTiWiWwCU+l3LHnzhtkG7NHIkCPMBhPwuLMtI8xeig4J0+poQ7eJuqvnQPbh81qe3DY5CsF4LtN42aOD/zF6jNzl1seeN3mNSBJzid2FZRJq/EJ0gMwAiO5RO6GuTHQXwM+z/sBs/vMkuTyCD/gjgJL+LyQLS/IXoJBkAiKxilU8eRcy3BHXbIDFeYOB0BHOQkikYwFVObexWvwsRIpPJAEBko6DfNig6Tpq/EIrIGgCRldxNNe+5JaffYSHlABgJwPK7JtFp0vyFUEhmAETWyxty9SA2rZuY+Rt+1yI6TJq/EIrJAEDkjIBvGxR7J81fCA3kFYDIGQHfNij2TJq/EJrIDIDITcHfNigABtGVTrxK57XKQuQsGQCInGaHJx0NGDeDMdLvWsQXSPMXQjMZAAgh2waDRpq/EB6QAYAQuxw6uZudz78BeDwA2+9ydCAD6NkzheLiNAoKXABAU5OBHTtMbN5sgV2fCwQYTL906qpu87sQIbKdDACE+JLQ0ElDkKaZDDrD71o6Kz/fxfCvNaJ8aDNKy5pw0EEObJv3+LWOQ1izJoSldflYsrgA775diOYWzz8iVjolRYdjbjTldWIhco0MAITYi7xw5bdddqcDNNDvWtpr4OHN+PpZO3DsyAbk5+254e9Pc7OBN+YX4Zl/d8MHH3i4YYJovEz/C6GfDACE2JeB4/OsvPyJxPxrgLr4Xc7+HHpYC374oy04Ynij0rjvvluIB+7riY8+9OQ2482OaR6OxVO3epFMiFwl5wAIsS9b3ky79TWv5x8w5l7X5BKAhiGAA+f8fBeX/GQzLr2sHn0PcpTH79PHwamn7kDXYhd18QKk0lr/Cgot5pZ0fc1cnUmEyHWB+yATIsjs8sqjwHxLkLYN9uufxKTIBhx8cNKTfGvX2Jge64NVqzTOBhC2O7YzAO/O3KYviRC5TWYAhGgHd+O8tW796X81eyU/AdGxAHx9LXDkkY34zfVr0bNn2rOcXYtdnDi2AR9+kIf167Vtlsg3UuZWd1PNPF0JhMh1MgAQot3msrup5h236/F3mRZCAI6CDz9Lo8Y0YFJkPUI+bFi0LMbo4xuwZnUIqz/RMxNAhMPc+tP/BMzt2CpGIcQ+yQBAiI7aOq/FrZ/3H7vX6Idh0KEABnmVetiwJkyKbIDl4yXHhgEce1wCK5bn65oJ6GGUpOe79fM+0BFciFwnAwAhOim9qWZLun7eg3bJqLcZOBqgA3Tm69fPQfT3a5HXwe19KhkGcNQxCSxY0AUNO9V/nBDBcuvn/VN5YCGEXIIihCot8eqnnGRLOROuAbhBR45QHmNSZAPy8/0/sm8UTRQRAAAIO0lEQVSXwsLWmkIhDQMS5m9gQDRffWAhhMwACKHSp9sGrd5jPgZwrurw3/vBFhw3MqE6bKd1754GM7BkSYHq0HmWnXwrXV+zTHVgIXKdzAAIoQGTO0p1zH79HHzr29tVh1Xm7O9s03IGAYPOVB5UCCEDACG0YDpNdcgLv78ZluX/e/+9sW3Gdy/UcnjfWB1Bhch1MgAQQrHCwZUHAThcZcy+Bzk47rjgTf1/2ejRO9G3r/JZgCEondBXdVAhcp0MAIRQrMVwv6Y65ulnbIeRASt2DBM45bQdyuOapj1CeVAhcpwMAIRQjEBKBwCmwRhzgpZNBVqceGKD8sEKuRimNqIQQgYAQihGBoVVxjt8UAt6dPfuqN/O6nFACgMHNiuNSURDlQYUQsgAQAjlmAeoDDd0aJPKcJ5QXrPiv1MhhAwAhFCOgf4q4x0+WO3TtBcOH9yiOmQ/1QGFyHUyABBCqahBBKUr1vv1V7+3Xrf+/ZRfTdwXiMrnlRAKyQ+UECqFUQhWd8KmaTB698q8AUBJiaN6IaCFwY1FSiMKkeNkACCESi0tSs/CLSjkjNj+92WGCRSovq8gbcqdAEIoJAMAIRQqyHOVDgDyC4Jz6U97FRSqrT3fThYqDShEjpMBgBAKUYpTKuO5LqkM56m04p2Lhmtm3rsQIQJMBgBCKNSYblJ6Yk9zU+YOAJoa1X68NAI7lQYUIsfJAEAIlVb0bACg7MaepmYDyWTmDQJaWgy0tCj9eHGxrDD4lyEIkUFkACCEUlEXQKOqaOwC69fbqsJ5Zt06G6z24sLEp3+3QghFZAAghHqbVAZb/XFIZThPrP5E8aCF1P6dCiFkACCEeoTlKsPV1mbe7rd4XOlmCBBjmdKAQggZAAihHLPSZrVoUebtflu8SO0AgEFKB1VCCBkACKEeGUoHAGvX2Fi5Mk9lSK0+/CAP69cpfgXAvFRtQCGEDACEUIzh1qqO+crLXVWH1OaVueprZZPrlAcVIsfJAEAIxVL5XRYAUHod3ksvdUUiEfwf18aEgbnqBystqW3pN1QHFSLXBf8TRYhMszDaCOBNlSEbEwaee7abypBa/PuZbuoHKoz5WD2jSW1QIYQMAITQgEBzVMd84vHu2LrFUh1Wma3bTDz1RHflcdlg5X+XQggZAAihhQt+SXXMxkYD997bU3VYZf56Ty806nhNkcaL6oMKIWQAIIQGqdqieQA+UR339Ve7aFlk11nzXuuCmte76Ai9KrW0i7z/F0IDGQAIoUXUJeABHZHvntVL/Ul7nfDxqjzc/ucSLbGJ6H45AlgIPWQAIIQuBv1dR9imJgO/u74f6uv9Xw+wZbOFG/7YB80tmi4sMtL36wkshJABgBCaJJdU1UHxboBdtmw28fvrD/J1EFC/0cZvf3MQNumrYUFy8XQ5AEgITWQAIIRGRBTTFXvtGhu/vqa/L6cEfvRhCL+65iCsW6vvVQQxV2kLLoSA6XcBQmSzdP1pS83eznkAtLwkb2pqPXgnv8DFoEFKzx7aq1de7opYVR80NGj9+Kh16rpcBcxVe6mwEOIzMgAQQqu5bPYa0wDCd3RlSKcJ775TiA8/yMOgwc0o6qJnzdyG9TZumXkgnvhXd6TTmt75f4oIV6Xrb1isNYkQOU7vT7EQAhgbteyNicUAhuhOFcpjnHHGDnz7nK3o0SOtJObWLRae+Fd3/Of5YiSTnnxkxJ3alUcAs9X8Bwgh9kgGAEJ4wCqrPIXAnh1oEwoxjj2uASee1IBhQxthtHOuz00D775XiFdf6Yo35hfBcTz7qGB2cVJqaewVrxIKkatkACCER+zSyIMgfN/rvIVFLsrKmlBa2ox+X3HQt28SxcUuCgpaXxU0NRnYscPA+rU2Vq8OobauAHXxfDQ2+rJG+H6nNnaRH4mFyDUyABDCK6UT+tpkLwVQ7HcpAbXNIZQiHlvvdyFC5ALZBiiEV+pmriPGOL/LCCoCj5fmL4R3ZBeAEB5Kb6qJm71HHwzga37XEjCznNrqG/wuQohcIjMAQnjMaSz6BcDv+V1HgCxxCoom+l2EELlG1gAI4YO8wZWDXZPnAQju/b5eINQbLka31MXe97sUIXKNzAAI4YOWZVXLQO7XAW7wuxYfNXKaz5bmL4Q/ZAAghE+c+PT/MoxzAHhzhm+wOEw4L7W0er7fhQiRq2QRoBA+cuvnfWT1HrUcoLOROz+PSSL6oROPPel3IULkMlkDIEQAWOGKk4npcWT/GQEJJpyfisee87sQIXKdDACECAi7vPIoMD8DRm+/a9FkM5i+6dRVLfC7ECGErAEQIjCcJVVvGYSRAN72uxblGG+ZaT5amr8QwZEr7xyFyAjpjTVb3W4j7jVNuxjAMciOWbpZjlF0fqruhs1+FyKE+J9s+HARIiuFwpHzGLg9g18JbCSmS5N1Vf/yuxAhxO5kBkCIgErX19S5/Y65y0xbhSAchcx5ZeeC+H4nxWenl1Vn3+sMIbKEzAAIkQHs8KSjwcaf0PpaIMgWwHV/6SydvtDvQoQQ+yYDACEyiBWePIbYvR7AyX7X8iXzDOJpLfHqpwGw38UIIfZPBgBCZCArXHmS4fLVTDgTgOVTGQ4Dz8HF9NTS2Cs+1SCE6CAZAAiRycITD7Bhnw/miwGM9ihrLRP9PUXW37Dkhg0e5RRCKCYDACGyRP7QKYemU+mTAZxMhJMY6KMiLoHWMfhlMM8xXcxpXlb9kYq4Qgh/yQBAiCyVF54yMEXpIeRiCDENAmEw4HYDqCuA7gC6fPqlDQC2AbwTRNvg0nImXs4GllpsLm2JT13h33+FEEKX/wfHM6P732HQRQAAAABJRU5ErkJggg==;" vertex="1" parent="1">
          <mxGeometry x="220" y="191" width="30" height="30" as="geometry" />
        </mxCell>
        <mxCell id="Mbg4xQhO2vMqubRtQ9Se-15" value="" style="shape=image;verticalLabelPosition=bottom;labelBackgroundColor=default;verticalAlign=top;aspect=fixed;imageAspect=0;image=data:image/png,iVBORw0KGgoAAAANSUhEUgAAAgAAAAIACAYAAAD0eNT6AAAACXBIWXMAAA7DAAAOwwHHb6hkAAAAGXRFWHRTb2Z0d2FyZQB3d3cuaW5rc2NhcGUub3Jnm+48GgAAIABJREFUeJzs3Xl8VOXVB/DfuctkJgk7CaCsikAyQFFEZROkaq27VbTutVWsKFYgCWIXx6UumSDuWqytdekGat3qUhdUiFbFBZkJICq+soc1kG3unXveP1ArECDLfebemTnff95PJTnnwJvMnDn3WQhCiExEOYOmHcKaVuQwDSSNBoCdgSDqAEYegE4A8r752loAW0CoBWMriJazg2W6hmVwuKqxKroCAHv2NxFCKEFeFyCEcEfOoGkDHM2YAOAYgMcDKHQp9HoQ5gP0ugbt9cbYbStciiuE8JA0AEKks/DUzibMswBMAvPwFGWNM9GjNvgviEXXpSinEMJl0gAIkYaM4rIfauBpTPgRGLpHZdhE9LIDzLJj5W94VIMQopWkARAijRhFJccS0U0AjvK6ll3RRwS+NRGPzoOsFxAiLUgDIEQaMAaVjCRduyeFY/7Weh/gKVa84r9eFyKE2DdpAITwsyHXdjKTTgTgqwBoXpfTTAzixy2Lp2H5rI1eFyOEaJo0AEL4VKC45GwG3Q+gi9e1tAqhmoArErHok16XIoTYkzQAQvhN/yk5ZiBUDvDVXpfiCuLHrG3Jy7Fqdr3XpQgh/kcaACF8JKeo9BCH8E8Aw7yuxWUfaqSfI2cICOEf0gAI4RNmePoIQHsBjAKva1FkMzt8sr204h2vCxFCpM+iIiEymlFc9kOw9loGv/kDQGfS6D9GuPQErwsRQkgDIITnAkUlPyXwiwDaeV1LCuQR45lAccnZXhciRLaTRwBCeEgvKjlJI3oagOl1LSlmOXBOS8Znveh1IUJkK2kAhPCIWVxyJECv4X+38mWbOiYcb8eiC70uRIhsJA2AEB4IDC4rYocXAOjsdS0e26QlaXTjsvJlXhciRLaRNQBCpNrQkjx2eB7kzR8Aujg6P4nhkVyvCxEi20gDIESKmRbuA1DsdR0+EjYb6u72ugghso1X14gKkZUC4dJzAbrJ6zp86DC965gvnI0LF3tdiBDZQtYACJEq4dLuJrAUjA5el+JTNWaSiuqWla/xuhAhsoHhdQFCZAuT6S6AU/7mn5+XRPGQBgwa1ICevRLo3s1C+44OgjkOAKChUUPNVg3r1pn4+usAli0NIr4kiB21KR8Qtrd0jgI4P9WJhchGMgEQIgWMorLjiPiVVOUL5DBGjtyBceO3Y8iQelALV/s4SWDxpyG8Nb893n0nD4lE6l4qmGiCHSt/I2UJhchS0gAIodr4iGFuqIsBPEB1qpwcByecWIOTT92KTh2TrsTcskXHc890xMsvtUdjY0rWDVdZ8ZVDgLnu/AWEEE2SRYBCKGaGRlwAwqWq84w4ohYzf7MOI0fVIhRk1+KGQowfDKvH0UfXYt16E2vXKD+0sMAo6LQ8Wb3wU9WJhMhmMgEQQqmIZhbXLgYQVpUhkMM4/4JNOOnkbapS7OLNN9rhoT8UoKFR6ctHlRXPGwxEHJVJhMhmMgEQQqFA8YizAFypKn6XrjZuvHkNRoyoU5ViD337JTB8RC0+eD8f9fXKHgkUGN3sxckNC6tUJRAi28lBQEIoxECpqtgHHmjhlltXo3fvhKoUe9WnTwK33LoKBxxoKcvBDiv7txNCyCMAIZQJhKcXM2sxFbE7d7Fxy62r0bXAVhG+2TZv0vHrmT1RXa1mRzHpTlHi01lLlQQXIsvJBEAIZbSLVUTNzXVw/Q1rPH/zB4DOXZK47jdrEQwqelSf1C5UE1gIIQ2AEEpENIdxnorIl12+EQcqHL23VK/eCUy+slpJbAbOByLyOiWEAvKLJYQCxqDasQT0dDvu0eN2YOzR290O22ajxuzAmLE7VITuYwyuP0pFYCGynTQAQiigEf3Q7Zi5uQ4uvHij22Fdc/HPNyIvT8GjAE66/m8phJAGQAglmJxj3I55xplb0KmTfw/H69QxiVNP2+J6XHJogutBhRDSAAjhuuGRXICOcDNkbp6DH/2oxs2QSvz4pG3uTwEII9FzasjdoEIIaQCEcJnRsOMoAAE3Yx57bA1yVYzXXZabyzhmguuNSo6Rb7jaUAkhpAEQwnXE5Pqxv+OO8d/Cv70ZN979WolQ7HpQIbKcNABCuM7dW/8OPNBCnz6pP+2vtfodlECPHi5vU9Qw0N2AQghpAIRwHQ1yM9qQoak7598tbtdMLA2AEG6TBkAI9x3iZrDi4gY3w6VEcdjdmhlwdaoihJAGQAgVCtwM1tODy37aqmcv108q7Op2QCGynTQAQrgqogFwbcsaaUD37v459re5DuiRALl71Vg+5PIyIVwlDYAQbuq/ydU3qlDQQSDAboVLmUAOIyfH1W2LGsKRPDcDCpHtpAEQwkUhzWjnZrxgKP3e/L8VynX53AJnq6v/tkJkO2kAhHAR65rhZjxNS98GQNfdjRfSckx3IwqR3aQBEMJFDXqOq8vfG+rT91e0vs7d2ustO/32QwrhY+n76iKEH7n8JlVfR3D8e//PXiUdQn2Dyy8vZrv02w8phI9JAyCEm5Z9WQeCa2/ZSYdQvTH9Jt/V6w23GxcLMcgEQAgXSQMghKvmJpmx1s2Iq1elXwOwarWrdyEBwFog4v/bkIRII9IACOEyInztZrzPlgXdDJcSy5fmuBuQeZW7AYUQ0gAI4Tr6ys1oixe7dq5Qynz6aa67AYlWuhtQCCENgBAuY8dZ4ma85Z8FsXmTy3vqFNqy2cDnn7s7AWCixa4GFEJIAyCE2xj42NV4DrBgQfqcgfPmm/mu71xgTkoDIITLpAEQwmU5jvaR2zH/80r7tNgO6CSBV//T3u2wnNRyPnQ7qBDZThoAIVxWt6x8DUDL3Yy5do2Jdyrz3QypxIIF+Vi31vVdC1VYcst6t4MKke2kARBCBXJedTvkP/7RGbbt3wvxEgnCP//R2f3AhDfdDyqEkAZACBUccnUhIACsWW3imX91dDusa575V0cVn/6hgV5yPagQAq5eXCJE1hs0s4up2TeDcBkU3OPz5NxOGH54Hfr2bXQ/eBt8+UUATz/ZSUXo7Y21ua+oCCxEtkufvUVC+Nn4iGHmjbhCJ+cpAGOhaLqWTBI+/TSEYyZsh2n646bAuloNN95wALZtU/Jy8qTz2S3/VBFYiGwnjwCEaCNjUOk4c33tIjDuBaDgIfiu1q4xcfst3WFZ3q8HsG3CrIpuSkb/AMBMjygJLISQCYAQrRUKz+hNBaMeIkIUhG6pzL1hg4k1q00ceVQtNI/aeNsm3HlHNyz6IE9Vii/sqrypwHx/jDqEyDCyBkCIluo5NWS018tsdsoAuHzmbfO9U5mP+joNJTPWIxhM7T059fUaKsq74ZOP1f31mfEHuQBICHVkAiBEC+SES07RgvpzBDoDgOfX9K1bZ+K/7+YjHG5Ah46pOSlo9WoTN9/YA8uXKbyjgLDNDlgXYt27DeqSCJHdvH+IKEQaCBSVDGaiuwBM8LqWpgRzGOddsAkn/HgbNEVtfdIhvPhCe/ztic5obFT73IFANyTi5RGlSYTIctIACLEvQ67tZCaTNwC4AmnwyKxvv0acd8FmHHZYnWsxmYGPPszFE491wVdfBVyLuw+bLF0/BJ/etiUVyYTIVtIACNGkiGaG6y4F8+8BdPW6mpY6+OBG/PikbTjyqFqEQq17jF5fr+Hdd/Lw4r874AuXb/fbJ6IpVqz83tQlFCI7SQMgxG6M8IwxxHw3wId6XUtbBXMYQw+tw5Ah9SgqasABByQQyGl6UX2ikbB6tYmqqhCWfBrCJx+HlI/6d8fAGrswrw/mR+yUJhYiC0kDIMQ3QgOmHmgbRjmAc5GhvxukAZ062ejYMfndZKC+XsPWrTq2bDbAPthwR8CNiXj0eq/rECLTZeSLnBAtMnySadZ1mAzCTQDaeV2OAIhQnohFZ3hdhxCZTLYBiqyWEy45RbOCz4FwHoAUPugW+zHaKBydm6yudP1WRSHETjIBEFkpZ9C0Aazpsxk40etaxN7JJEAIdWQCILLL0JK8QJcxv2aiJwAUeV2O2C+ZBAihiDQAIluQWVR6kc70PICTkAZ7+sV3pAkQQgF5BCAynjm47HAw3w3GSK9rEa0njwOEcJdMAETmKrqmh1k4dhYYDwDo7XU5os1kEiCEi6QBEJln+CTT7Dhhik76kwBGQSZdmUSaACFcIg2AyCh6UemJhh16FoTz4b9tfbUA/glCGEBqj9jLLKONgtFasrpyvteFCJHOpAEQGSEnfG1/rWDkg0T4PYAuXtezO2I8r2n6GQyeBKCX1/VkgHEyCRCibeRTiEhvQ0vyAsVlEYeTSwBM9LqcJnzM7IxLVEVPYU7+AsARXheUKZhRFgiX3u51HUKkK3k2KtIVBYpLz2KgAv5c4LcFjBusqpX3AnOTRnjGGIIzHyxTN7fJ7gAhWkcaAJF2fL6tzwbjD5Zm/w6x2ZsBAMOu6WgmzI8B9PG2tJRqRArXYMgFQkK0nHwaEelj0MwuZuGo2wCeA/bhp37Cm6TxGVa84s+ofrf+2/9sdh77MICxHlaWSrUEutUi+2wd2nAAB6Uor6wJEKKFZAIg/G/4JNOsa38liK4H0NHrcprwfwSUJOLRubv/QSBcch4zPeFFUSlFqAfTQxYnbkPVnWsBAMMjuWZ97XMAJqSuDJkECNFc0gAIXzOKyo4j4jsBFHtdyx4I9cRUngjllmNRpG73Pw4WTe+TJO1j+LNpcctGYn44oQdmY8kt6/f4U2kChPAtaQCELwWHXHuQnUzOIuB0r2tpCgNPGo5e0rD0tpVNf8VE3Szu9zrAR6uqgYCXQPwYHDqXCccDCKjKtVviJBjzCfTnRKJ+Hlbc07jPr5cmQAhfkgZA+MvQkrxAUpvJzNMBBL0upwlLmPhXdqzi9X19kVFcNpPAtyirglBtAUMRi64DAISndjYd4yfY2QiMA1DocsYtDLxNRC9YjfrTWHFrdYu+W5oAIXxHGgDhFxQoKjnHIYoS0NPrYpqwBcD1VmHeA5gfsff1heag6cOhae8AMFUVoxGd1hgrf3Zvfx4ITy9m1o8G82ACDmENh4DRB/s/+8NhYB0Bn4P4UzAWA857Vrz9J0DEaVPR0gQI4SvSAAjPmeHSYWC6S+W4vA0cAH+0bOfXWD5r436/engk12yo/RCMgQprmmPFo5e3+Lv6T8mBqXfO0YJ5TtLqwNDyQWwS8xbohm1YiY31B3RYv78Gp02kCRDCN6QBEN4JT+1ssnk9iK/06QE57wM8xYpX/Le532AWlz4IoOVvzs33uZWkQ7GsfLvCHGr1nBoy2xvPAjg2VSnlsCAh9iQNgPBARDOLai+AhgowCryuZncMrCHGTKsq+tjO/9k8evH0H2vQXoC63ysb4DEtaUh8S5oAITznx09dIoMZg0rH6QXWMyD8EkCe1/XsxgLoPjtJP3GWRt9v0XcOLSk0HO1lAPlqSgMY+K0dr/i7qvgpVfOu7eQcOU/P0Y5E6g4LkquEhfgemQCIlAgNmHqgbeq3gukC+PDnjhjPk45rGpdEP2/NtweKSp9lwsmuF/Y/C634ynHA3KTCHKknkwAhPOO7F2KRYXpODRkdzKuJnd8ApOzTcevRcod5arIq+u/WRjDDZVeB+R43q9oFYZue1Ift/cyBNCdNgBCekEcAQpmccMkpWlB/jhgTAUrNITXNt/PM+kT9+bx89tLWBgkMLisCeB4Ubvkj0KWNVbe/rSq+5+RxgBCekAmAcF3OwLKBrPOdDJzgdS1NYBA/blGgtMmja1ti+CTTrO+wEMAId0rbE4Pn2fGKiari+4pMAoRIKZkACPcMu6ZjoNOYCGt4FFC6D751GB8w80S7quIebHi7tq3hAp2PuQ0gZW/ODKyyKXnS928WzGgyCRAipWQCIFzwzbY+QhTuH0HbZgRay4SIFcv9Y5tPs/uGUVw6lghvKDy/wGGiY+1Y+RuK4vuXTAKESAlpAESbmOGyI8B8N4Ajva6lCRZAD1iJ+t9ixT01rkUddk1HM2F+AqC3azF3Q8BtiXh0pqr4vidNgBDKySMA0Sq5A8sOQPeR94FxN/x5dv+rRM7pVrziMWx+b9+31bWQ2eXoPwMY7WbMXdFHFuVdgOr5mbXlryXkcYAQyskEQLTM8EmmWddhMgg3AWjndTl74hUEui4Rj85VEd0sKr0IhL+oiP2NBmIekaiqWKIwR/qQSYAQysgEQDRbTrjkFM0KPgfCeQByvK5nN99s62s4L7ls9mIVCYIDS/qxRs9C5d+dcbVVVdHqMwkyjkwChFBGJgBiv3IGTRvAmj6bgRO9rqUJDGCeQVpJfez2/1OXJqKZ4drXwRinKgMBLyXi0RPRgvsHsoZMAoRwnUwAxN4NLckLdBnzayZ6AkCR1+U04UMm7Rw7Xj7Lrl64TWUiI3z4b4jpEmUJCNUW4QRUV+5QliOdySRACNdJAyCaQmZR6UU60/MATgJgeF3QbjaBcZ1VtfIyp3rOV6qTmYOmDyfSHoW63xfWiM9Nxio+VBQ/M0gTIISr5BGA2IU5uOxwMN8Nxkiva2mCDeBPlmNch6W3bkpJxqEleaatfQjwAGU5iO+3YhVXKoufaeRxgBCukAmA2Knomh5m4dhZYDwAhfvb2+B1Yj7dqqr4EzYuSNnJeGbX0fcDOE5hiiorlD8Ra+dbCnNkFpkECOEKmQBku/9t67sRQHuvy2nC12D8xqqKPprqxIHiktMY9C+FKSyQM9qKzXpfYY7MJZMAIdpEJgBZzCgqOVa3g8+AcCH8t62vjkC3WHV55zgrblmU8uxDSwo1h/4NQNkVxsy4zo5XKDmvICvIJECINpEJQBbKCV/b3+HkLQB8ecscMZ7X4FzVUDVL+QK/vZUQKC59XvG2x7et+MpjgLnZe9qfW2QSIESrSAOQTYaW5AVsrZTB18J/n/gB4GNm51d21ay3vCzCLCr9FQh3KktA2KY7zg88bHAyjzQBQrSYPALIDhQoLp2oOfQMgNPgv219W8CYaVWtvNTZ+MeVXhYSCE8vBtE/AZiqchDh543xigWq4mcleRwgRIvJBCDDmUWlh4FwN5ReXtNqDoifsBrN6Vhxa7XXxaD/lBwzkPNfgH6gMMvjVjx6ocL42U0mAUI0m0wAMtWgmV3MwlG3QcNDAPp4Xc4eCG+SxqdbsYoHsXlBndflAIDZbVwURKcrTPG1peunYcOCBoU5sptMAoRoNpkAZJrxEcNcX3slNNwARgevy9kdE1aTg+usquhj8NGZ90ZRybFE9DIATVEKhzX+ob2kYr6i+OL7ZBIgxH7JBCCDGOGSCXqt9S8QLgIQ9LqeXRDqifkOi/LPduK3+Gvf+5BrO+nMLwHoqCoFEd1ixaJ/UhVf7EYmAULslzQAGSA0eFovKhh9LzHNAlDodT27I8bzepJPaVxaMQ/V8xNe17M7s+uovwAYpSwB0SILuReher5s+UslaQKE2Cd5BJDOhkdyA/V1ZQyeAb994gcAwjIGrrFj0Ze8LmVvzOLSnwN4WGGKWi1JwxuXlS9TmEPsizwOEKJJMgFIUznhklM0y3oB/tzWt5WJIjbyLnZit/j2jS845NqDmPlpqDwTgfiqRFX0FWXxxf7JJECIJskEIM2Y4dJhYNwNYKzXtTRh57Y+HSVYXLHB62L2aXzEMKtr31J56yEDz9jxqMpdBaIlZBIgxC5kApAuwlM7mwVH3wbCHwH09bqcJrwP8FlWvOJerK+s9bqY/QnkHvE7ABcoTLHB1syTsOFt3/9bZA2ZBAixC5kA+F5EM4tqL4CGCjAKvK5mdwysIcZMv23r2xczPH0EWFsIdaf9scN8SrKq4gVF8UVbyCRACAAyAfA1Y1DpOL3AegaEXwLI87qe3VgA3Wcn6SfO0qi/tvXty9CSPN3RXgGUNlP32lUVdyuML9pCJgFCAJAGwJdCA6YeSN3H3EdEd4DQ3et6dkeM5zUdpyRi0b9i00LfbevbF7PL6DkAfqgwRdyqsc9Gzbu2whyiraQJEEIeAfhKz6kho4N5NbHzG4CU3UPferTcYZ6arIr+2+tKWiNQVHIGEz2lMEUjCEdZsejHCnMIN8njAJHFZALgEznhklO0oP4cMSYCFPC6nt3UEuhWK1F/Pi+fvdTrYlojNGDqgY6u/xtArqocDLrWjkefVhVfKCCTAJHF/DkB6D+zwMhxBmpOsgCEPAbymLSOAEDgHXCwnXTa4TC2GEnty4alt32FNFmAtrtAUclgJroLwASva2mCA+ARSzOvw5Jb1ntdTOtFNLO49mWo/ZT3uhXPOw6IOApzCFWGR3LN+trnkMLfQwJuTMSj16cqnxC787wBCIVn9LbBx4D5aADFAAYC6NSiIIR6MC3defKc875GeDWxpOJT+LkpGHJtJzOZvAHAFfDfQT4A8F+QM8WKzUqfBX57YYRLpn1zTLIqmw2DflC/uHyVwhxCNWkCRJbxoAGIaEZ4x3hytJ+CeAKAgxUl2gDGa0T0QiKU+zQWRXxx5SwwUTeL+1wK0M0Aunpdze4ItJYJM61Y+aPwcwPVTIHBJUPZofeg8LQ/As5OxKNzVcUXKSRNgMgiKWsAcgaWDWSdL2LgQgC9UpX3GzVg+gfr9Ii95PbKFOf+jhGeMYaY7wb4UK9q2IcEEd+VsLWbsKx8u9fFuKJvJGjm1r4PYLCyHMx/saoqfqYsvkg9aQJEllDeAJjh6SOYtV8TcGoq8u0XYzFpdFMilvtUqp7XhoaW9bRtvh3AufDDv8FuCPQiOfY1jUvvWO51LW4yi8vuAvhqhSm+sBINh2LFPTUKcwgvSBMgsoCyNyNj8IxRWtK5ngnHq8rRRksIfFMinj9PWSPQNxI0cmunEXAd/HeQDwB85miYllwSfd7rQtxmhGf8iNh5Eep+xm3WtHFeTpSEYtIEiAzn/otjeGpnk83rAb4KgOZ6fNfRR9AwyVpS/oGbUXPCJac4THcidVuLWqKWQBWJRP2tWHFPo9fFuG7A9K4BQ1/M4B6qUsgLdZaQcwJEBnPxHICIZhYfcbkO7RkA4+HDUfde9ADj50bh6Pxk7+MrsXa+1ZZggSHTB+ldxjzBoN+gpbsZ1GMQP24mtdMalpY/h83vJb0uSAWj25gnAIxQmOK/VmHez7Byvmz5y3Q179pO7+Of1G1rJIB+Kco62igYrSWrK+enKJ/IUu68SfefWRAIWI8x6EeuxPPOF9DonFZNAw6a0cEM8u8AngJ1l8y0HtEiTjpT7KUV73hdikpmuOQyMM1Rl4F3aGQc2hi7bYW6HMJ35HGAyEBtngAYRdOP1kz+D0B+XNneUp3AuFjvOnq7s7Hyv838HjKLSi/STX4WwHHw3+mKm8C4zoqvnORs/OP/eV2MSjmDSw9mpqegcMsfQFck4uWvqYsvfGntfMvJOXJuik8MHCcnBgqV2jQBMMIl0whUDvbdm54bHrFq7MlYNbt+b19gFpUdBeK7oXbc3FoWiO6zzMQN+PjOrV4Xo9zwSaZZ32EBgCNUpWDmp+yqijNVxRdpQCYBIoO09o2bAsVlEQC3IC0W+rXKMD1HO9rpMPxJbH5v14VyRdf0MAvHzgLhPgA9vSlvn14n5jOsePQxrHu3wetiUiHQ+Yc3Yuc2SyUYWGOzeSI2LthrQyiygEwCRAZpxQRgom6G+z4IxqXul+NDRIssK3kCls/aiOGTTLOuw2QQbgTQ3uvSmvA1GL+xqqKPel1IKhnh0tEEvKlwEsUOnJOS8VkvKoov0o3sDhAZoIUvmBHNLM7/G3ae5pctDtB1+rFROHqrZoX+CcL5UPqMuVVqmXGTXZ93rrPilkVeF5NS/ae01w3jFTA6K8tBdJcdr7hXWXyRfmR3gMgALWoAzPCI2QB+oagWP+sG4EwAXbwuZHfEeF6Hc3KiquI5bJ1ve11Pqpk9jn4ITOMUpohZNfZPUfNu1v3biv2QxwEizTX7EUCguPQGBn6nshjRIh8zO7+yq2a95XUhXgmES89kxjyFKRpJ4yMSSyoWK8wh0p08DhBpqlkTALOo7EIQ7lRdjGiWTQBNt+Irf+ls/ONKr4vxSmjwtF4Oa/8GEFKWhLnUilc8oyy+yAzyOECkqf02ADlFpYcw4Rn477l3tnFA/LiVME91lt3+FhBP+6t6Wy+iUVf7KQDFylIQ/mPFK65SFl9kFnkcINLQvrfw9Y0EHcI/AbRLTTmiSYQ3SeNDrVjFRVhxa7XX5XjNKKotgdp92FsMSv4CQBY3WaLFVs2ut2rsUwGk7A2ZGWWBcOntqconMss+JwDmASPuAXByimoRe/o/Ai6z4tGy5IbK9V4X4wdm8bRDibS/QuGJi6TRBY1LKpp7EqQQ/yOPA0Qa2esiQGNQyUjSaAE8OugnqDEGBBPoH7TQ2Uiio77z3podSR3bHcKKhgCW15vYkszAQwgJ9cSIJkJ5t2NRpM7rcnxj52KrRQCKlOUgetiKlWfHGRdCHTkxUKSBphuA8RHD3FD7PoBhqSwmnJvAWZ22Y3yHeozIa4BB+5/ALm0IYH5NCM9tyccbNblw0nxoy8CThqOXNCy9baXXtfiNWVR6LwhXqsvAKyzKPxSxyA51OUTWkCZA+FyTDYBZVPqrVK36N4hxTpftmNJ9K4bltu1q+jUJA3/c0AEPrO+QjpOBJUz8KztW8brXhfiRXlR6okZ4HuqumbYBHmPFZfQvXCRNgPCxPd8ld56s9i+o3F71jTM6b8dTA9bi4oIadDfbfjV9O93BuPb1mNRtG3QivF8bRJJVvV+4ZguAGVZh3qXO+7d87nUxvjS0pNBgeglAvqoUTLjBjlf8VVV8kaXWzrec3sfPS/GagHGyJkA0xx7P941A6EoAnVQm7WEm8ezA1fhb/3Xom2O5Hr+97iDScyM+GPwVjsr37V04DoA5lu0MsOLRezA/IifNNY0Mm/6InacxqsFcaRfk3aIsvshuiyJ1VijvFAApm+4x8LtAcekNqcon0tOuE4DhkVzdTvwdQJ6qhBM61OGK5s7yAAAgAElEQVSFQasxNDehKsV3uhgOzu9ag3pHw7s7lA80WoAXAM4ZVnzWQ9j0jizy2wezuOyXBExTmKJGN4wf2e/dvElhDpHtZBIgfGiXBsDsOGIyCMruOz+/aw3+2n8d2umOqhR70Ak4tkMdegSSeHlbnqcbu5mwWiO+wopXTHeq31nrYSlpIWdg2UDW+CkAprIkRJcnltw+X1l8Ib4lTYDwmV0aAL1w9CMAuqpIdFnhNjzQbwN0jx7JH5bXiAHBBJ7Z2s6LJqCRwFHLwNnJJRUfpj59Gho+ydSc4L8B9FGYZa4Vj/5GYXwhdiVNgPCR7xoAs7jkSICuVZHkJ5134KF+66F5vB4vnJtAFzOJl7Yqe8KxBwae1TWclohVzMP6SvcXPGSoQKcJvwdwtqr4DKyyyT4Z1e/Wq8ohRJOkCRA+8V0DoBeOug6gEW4nCOcm8K8BaxDQ/LFB//C8RqxJmPioTvXVBrTcYVyUrIrelNxQuUVxsoxihGeMAfFDUHcIlQPQmU58VlxRfCH2Te4OED6w8wU2HAmA6Ry3g+dqDv7afw1ytdQ982+OWX02YHAbzxzYK8I2Jp5uhbYOTlZF/60mSQYbdk1HYudxsMKjfoE77Hj5a6riC9Esq2bXW6G805DK3QGMMtkdIL6lAYDhbD8KQBe3g197wBYMDPpv6h3SGPf23aDkkQSB7rVjFXdg0Rz//cXTgJkw74PS5/78SSLRIM/9hT/IFkHhoZ0TAKJj3A58SNDCNT38O/k+Kr8BF3Td5npcdhzX/y2zRSBcch6A85QlINQT9POx4h5F4x8hWkGaAOERDQAImuvHVM48YDMCzTjL30u/PXALTLenAERHoP+U9i5HzXihoWU9meletVmoLBG/PaY2hxCtsChSZ9XYJyOVVwkDv5OrhLObhp5TQwAf6WbQ3jk2zu6y3c2QSvQKWJjYpcbtsIYRDB7ldtDMNlG3bTwBhSdQEvCSFSu/T1V8IdpM1gSIFNPMDuYQAK4uib+oa02zbvLzg591db0BAJKpvUUx3RnF/coAPlphio0Jtn4OeHoOlBD7J5MAkUIaHAx0O+i5afDp/1tj29ejj8v3EZBGh7oaMIOZg6YPJ7DSTyAa0S9QdaecvCjSg0wCRIpopLnbABwStHBwUP05/24hAD/q6PJx/A4XuxswQw0tyYOuPQGVR/0Ccxpj5c8qjC+E+2RhoEgBzWHH1QbgmA7pd7fN+HYu10zo5W7AzGTaNAvs/gTqez63klSiML4Q6sjjAKGYRiBX91wfluvb63f3anie67vCOiEcUXZ3fSbICZecAuByhSkskHMulpWnz/MoIXYnjwOEQhqAdm4GPMSHB//sT6+AhZDLRxXnoKG7qwEzyeDrujmgh1WmYCBixWa9rzKHECkhjwOEIhqTuw1AX5cX1KWCRkAvl+t2kJQJQNMo4Fh/AqNAYY637fhKGWOKzCFNgFBAI3a3AWin++vc/+Zq7/IEgJMccjVghjDDZVcycKKyBIRtuqNfBMxNKsshhBdkTYBwmQaCq3fj5vns4p/mytNcfr/QIQ3AbgLh6cUAl6vMQcxXNSy9baXKHEJ4RtYECBdpYLi6Aq6RVd3gqpb7dZOcN/99wyeZzNojYHWNEYPnJeIVj6uKL4QvyCRAuEQD4Ooq6e3J9GwAapLuXgpAQK2rAdNcoKH97wGMUBWfgVU2JVXuKhDCP1bNrrdq7FORyiaAUSZNQGbRAHa1AVhrKbvGXal1lrtn0WjJZPodiKCIUVw6lkHTFKZwQHQRYrM3K8whhL9IEyDaSAM0VxuA5fUBN8OlxAZbx2bb3clFo0PyZgQAQ67tRMATYCjrDIk5asfK31AVXwjfkjUBog00Art6RvqSNGwAltS6ehcSANRi+ayNbgdNR2bSeRBQejLihwkt/3cK4wvhb7JFULSSxkTL3Qz4Vk2um+FS4s3trq9L+8rtgOnILCq9COCzFaZoIOaLEYukz+UTQqggCwNFK2hgZ6mbAT+ozcGWZHqtA3htm6s7IQFwwAyXZvWVwMGBJf1AuEdpEsa0RFXFEqU5hEgX8jhAtJDGGpa5GdBmwpOb0ucQvM8bAljk+iMA6g/GR2a47AMzXDYJPadm2ZkAES1p0J8BtFeVgYCXrKrog6riC5GWZBIgWkCzE7wEgKvH4D22Udnrvuse29je3b/89zEPB/MfzPbGykBxyS3BoumuXrzkV0ZR7XVgjFOYYkPC4Ivh8s+tEBlBJgGimQgAzHDpYjCGuBn41aJVGNOu3s2Qrqt1NAz8pC82pm7rogPgdQLmJOIrn8rE42rNQdOHQ9PeAeDuvsr/YY34tMZYxXOK4guRGXpODZntjWcBHJuqlEQoT8SiM1KVT7SNDgB64eiBAI5yM/CahIHzuvr7Jta71nXEC1tS+riCABwEYKJe0OE8rWBMwCk8Yhmq3/V3p9Rc4Ui+TvZ/AIUX/RA/kIhVzFYWX4hMUfOu7fQ+/kndtkYC6JeirKONgtFasrpyforyiTbQAICYXd9D/WpNLl7Y6t+1AOssHRVrO3tYAfUncIXJxhqzuPSfRrh0tIfFuMJE3Z0ADlGYosoK5pcqjC9EZpE1AWIfdp5/O+yajmbCXAfA1dVwfXIsfDD4/3x5Q+C5K7rj6c2uXoTohvdBuN+qzfs7VkYavC6mJQJFZacz8dMKUyTAGGlVRT9UmEOIzDQ8kmvW1z4HYEKqUhJwYyIevT5V+UTL7Xz4ve7dBq3rqEOJqMjN4NuSOr5oDODMzjvcDNtmf9zQAXd4+ul/rw4EcLoesKboBaP7Gd3GfJ7csND/BwoNLSnUGC8AUDbyYcZ1dlV0nqr4QmS0tfMtJ+fIuXqOdiR2PoZMhXFG4ejcZHVlyqYPomW+W/1mFI5qBOinbieoqg+gg+7gyHx/fKB9b0cQF37eAza7e/mPy4IAhoNxhVEw5ih0G7WNNxy/Apjvx1XvFOgy6kmAfqAsA2O+XZX3S5/+/YVID7ImQOzmuwYg2XvwF7odvAKA60f5vbotD/1ybAzN9faG3M8bAjhp6YHYlj43FhKAQ4hxnlZoXWoUjGmf7HB0DJsX+OaiIbOo9FcgukpZAsI2nZ0T7I23blWWQ4hsIZMA8T3/2/+2dpGjdx3dA4SRKhK9uDUffXNsDPGoCVhcl4MTl/bEeju9Tin8Fu08VGe8rjtX6wWjB2pdRq1zNlau8rKmQFHJYBD9E4ChKgcxX9JYNWuhqvhCZB2ZBIhv7PJumHPAmJjj4EooeEF3ADy7JR8mAaPb1SOVA/hXtuXijM8OxMY0ffPfjQFgKBH9Qi8Yc5redVTSOWDUMqyvtFJaRf8pOZpuvgTCgQqzPG5VVdykML4Q2WntfMvpffy8FDcB46QJ8Jdd3hHt9Qtr9ILRvQAMV5Vwfk0uFtUG8cP2dcjT1T7StRi4cXUXXP1VNzQ4vn7m31o9QDhVd2iyXjimu9l59MrkpoWbUpHY7D6+HITTFaZYaTVop2LLQm+fGwmRqaQJyHp7vCsGh1x7UDKZXAaFY10A6KQn8esDN+OKbluhK3hvfnt7CNd8VYhYXfpdT9xGCwm4KxHa9i8smqNkKmAUlRxLRC/jm3MkFHBY4x/aSyrmK4ovhPiWnBiYtfaYidsbFmzRC0YfAOBwlYkbWMMr2/Lw9JZ26Gg4GBSyoLnQCFTuCOLKL7shsqoLqlN3xK+f9AYwUbODl2hdR+c53UYvR3Wle/swB83soun8MgEdXIu5GyK6xYpF/6QqvhDie2RNQNZq+i03PLWzCWMpWOGRrrvpYSZxdpftOKvLdhyW29CiqcCKBhPPbcnHE5vaYUmd2zf7pb0EiJ5iJ/mAXTXrrbYGM4pL5xFwphuF7cX7VmjbaFXTCyHEXshhQVlnr2+zZnHZJQB78imso+5gZLsGFIUacUiOhQLTRp7OMIixI0nYauv4vDGAZQ0BvLM9iFUJpU8rMgfhUzh4wHLocSwrb/FFDSn4majVnORhjUvvWK4whxBib6QJyCr7+pxNZnHpmwDGpqoYkTI1YDxGmnN/IjYr3pxvyBlcerDj4CMA6s5PJrrcipXPURZfCLF/0gRkjX0O2oODru2b1JIfAuiUonrSCWM//35pgTGfCPfvc9Hg+Ihhbqh9Gy7fGLlrGXjGjkdV7ioQQjSXNAFZYZ+r5OyNC7ZSt9ExYpyLTHizcwvhAY3088BOPXben+D66YkpQ+gLYKJhBy/Tu44qCHQbu9yuXrjt+18SyD3idwAuUFjFBlszT8KGt2sV5hBCNJecGJgV9rtMnjdULtcLxnQGcGQK6vE/5kqL8s9Nxm6uTm6sfNXJO/5uw7QWg9ATQC+vy2uDfBCNccC/0gtGjzULR21NVld+ZoanjwDoETTjZ6WV2GH+Kcdv/0hRfCFEa9S8azs5R85LcRMwWpqA1Gnep/pwJBBwap9jwvGK6/E1Jqy2gcMRi65r6s+NQSUjSaPJACbC5auVPbIUO6cbvRXmuMeKR69WGF8I0RbyOCBjNX+sH47km1z7GoAj1JXjb8R4JVEVPQE7n//vXf+ZBUaO/QtiXA6gbypqS1Mxq8YegVWz670uRAixD9IEZKSWPdcfNLOLqdlvAyhSU04aIFxlxaL3Ne+LI5pRtGMCEU0C4SdgZWP0dNQIwlFWLPqx14UIIZpBTgzMOC1e2BcaWtbTtvllAMUK6vE/Qj3BOby52+e+lTO49GB28EsGLgHQRVF1aYOBUjserfC6DiFEC8gkIKO0bmX/kGs7mUn7WYDGuFxPmqCPLMo9CrFIosXf2n9KTiAQPJWBSUhhJ+0v9JYVzz0GiDheVyKEaCGZBGSM1o2kNyxocHof/w8jaQ8DMMDdktJCD4MSwWR15X9a/J2b30smqyvjTnXlY3q3MS+A2QTRIACm+2X60mbDoOPs9b/ftv8vFUL4jtwdkDFa/0x67XwrWX3c37VCu54Ix0DdzXA+RSO1wlELnOrKL1sbwdmwcI1TXfmM027svbqJLwEcDKTu/gUvEOOSxlj0Ha/rEEK0gZwTkBFcOdzHGFwyXnO0vzK4hxvx0sXObYH2UMRmb3YpJBlFJT8kokkAzoDiK5k98IgVj17idRFCCJfI44C05sqqdGdD5cpk4agnNMLBlEU7BAhor0Pv51QvnOdWTGdj5RdOdeXcQNeRj4JQD9BAAHluxfcU4Z1A96Or7A0LtnhdihDCBfI4IK25fryvES6ZQEz3ARjkdmzfYlxsVUUfVRI7HAkEuPa0DFo06AB4nYA5icK8pzE/YntdkBCijWQSkJbUnO/fNxI08naUEtM0AB2V5PCXGj3JwxqWVbR6PUBzmOHSYWBcAeB8ZMJUgPAlg/5gN+p/wopbq70uRwjRBrJFMO2oveBnYFk7U+OfE+FaBrorzeU15kqr6qujgblJ5bn6T2lv5oR+CuYpAAYrz6deAsAzzDzHrqqQBT5CpCuZBKSV1NzwN7Qkz0xql8Dhi0E4PCU5d8PAGgKCADory0G43o5Fb1QVvwlkFJdNADuTiehUZMSiQfoIzPdbuXl/xaJIndfVCCFaSCYBaSPlV/wGwtOLwdqFTDgHrHzRyCYAT7LGf7OX5L+lD649UXPwLNT9vW2Ax1jxiv8qir9XoQFTD0zq5uUgXJohuzG2gugRLWk/0Lj0juVeFyOEaAFpAtJCyhuA7wsOufagpJ2cAGACaziaGAe2MeRWYixwCG8SOW9aBe0+2n2RmRkuvf+b5+iK8AqL8g9FLLJDXY59GD7JDNS3P4OJJoMxzpMa3MUgvEoOP5Co+urZlDxiEUK0nTQBvudpA7CHg2Z0MEP2AGIaCNAhDHQDkM9APgH5AJkE1DJ4B5i2kuZsZeAzJnxmJpKf1S+fvXq/OXb+UC6Cyl0KRA9bsfJLlcVvpkDxjDBTcjKYLgTQzut6XPA1M+bYGv64tyuZhRA+Ik2Ar/mrAUgRs6j0MBDeARBQlYPA5yTiFf9UFb9FBpa1Mw2cC3YmA/QDr8txwfcXDb6G/V3PLITwjiwM9K2sbAAAwAiXzSDm2xSm2GQmaWjdsvI1CnO0TP8p7c1A8DMAhV6X4hrCp3DwgOXQ41hWvt3rctLCsGs6YkfIDIa4HSw4DSa2ob62DivuafS6NJGhMnoSMFHHkIPbo56MYIjbUWNjY30u1+LjO7eqz902WdsAABHNDNe+rvQ5OeE/Viz6I/jkE6oZLnn0m8cBmagGjMeItAcS8dtjXhfjufDUzjprRxK0Q4kwEIyBTOhJjALsbfJFSIKxGoQvwfwFg1aA+T3banwPK+6pSe1fQGScNG8CQgOmHuiY5vCk4wwh0oYC3IeBXkToBt7bqbq8A6BNICwH8zIQLWVwlR3Mf9cPu5yyuAEAQuEZvW12PoHKw4oI06xYdLay+M0UKCo9hwl/97qOlGDMJ+IHEqGap7FojuV1OSnRf0qOkRM8hoATwDgeO9e4uPX77QCIg/Aag56xC3LflhMcRaukUxPQc2oo0E4/gYlOAGg8wG7efJsA8F8Cve6AX7PjeQu9uB49qxsAAAgUlfyUif6mMEUjaXxEYknFYoU59ik0eFov29E/AdDJqxq8QKC1AD+k2/acZi0QTT9kDC4ZRw5dCOAnSN2pm5sAfpYdPGQvrZCbHUXL+LoJiGh6Ue0JGtHFAJ+EFJ24ysAqDXgc5DyWiM2KpyInIA0AAMAsLn0MwAXKEhA+tWrzjsDKSIOyHHsV0cyi2tdAGJ/63L5hM/AMiO+3YxVvwCePZFpteCTXbKj7OZgnw+vLtxiLATxobbcfwarZ9Z7WItKH35qAYdd0NBKBKwh8OYA+qappL97buYgx72nVUwFpAICd2w+DzscA+irLQbjLikWvURZ/L4yi0jIi3J7qvD62FOAHrAb9L/ji9m1eF9MiPaeGjHbmVURcAp8t5CTQWoZzm1WXP8ebRlekHT80AYNmdgnoyakMvgqMDqmqo5mqwHSr1S33b6oeuUkD8A0jPGMMwZm/98Ucbcas4QR7SfQVRfH3YBZPOxTQ34XC7Y5prBbAEyDtfit2+ydeF7M/OeGyUx3wnSk4PbNNmLCaHJppVZU/jnSftAj1vGoCQttuNuvbXwFQBP5/NLqUia+0YxWvux1YGoDvCYTLbmbmX6uKT6C1CTs5FMtnbVSV4zs7f7E+gNcj4vSwkIjvTzQ2Pum3rXA54Wv7MyfvYuBEr2tpoTdIdyYnPp211OtChM950gTQ2rQ7Mp3xNwvWdFTdudatkKo+7aalZO/w27odPAFo85HEe9NO0+kQp7ryH4rif8fsfPidACl80+AVIH0CgXcAGAggV10u5XoDdKauG5OMglGdza4jV9gb3/H68QAZRWWlgDMP6dnE9QPTJK3rmEZn40JZKCj2bu18y+l9/DzdtkYCKZtwpd/JqIQhOumXGQWjViWrK11ZVC4TgN3kDC492HHwEVT+gDBfalVVPKwqvBGe8SNi50WovPSIaaxVVf4uAKD/lJxAIHgqA5OQwtO+FHIAvE7AnER85VMpv3+g/5T2RiDnYQKdldK86rxmsXWhm59cRAby4MTAtEX8mKXjCiyuqG1TGLfqySRmuOQyMM1Rl4F3aEyHNVZFP3M99NCSQtOmxdh5j4IS+7r22BxcdjgcZzKIfgpGSFUNqcMrGNqDNll/Rmz2ZtXZzHDpMDDmAThYda5UItBaJpxuxcrf87oW4WMePA5IYzEtSWc2Litf1toA0gDshVFc+jQBpytM8Z4V2jbG5YNqKFBU+iwTTnYx5q6YK62qr47e76fi8NTOBpuXEJxfAtRfWT2pQqgH89+hafdbS8o/UJEiEC47i8GPZkbj1KQ6Ap+XiFc843UhwsekCWiJTWA6+btpbAtJA7A3A6Z3DRj6YpULRYhwcyIW/a1b8cyi0itAuN+teE2o0XX90IZPb/ui+d8S0Yxw7fFgTCbCiQp3WaTSeyA8YNXm/d2tLW+B4rLzGfwIAMONeL5FSAL4lRWL3ud1KcLHpAloiVomnGXHoi+19BulAdgH5c/SCUmGNt6O3b6graECQ6YP4qS2CCoX4xH9zIqV/6W13x4smt7HIbqcQb+Az/axt9ImAv5MGh5sXBL9vLVBzOLSnwN4CIDmXmm+xiC62oqV3+t1IcLHpAloCYvAF7T0BlppAPbDLC67C+CrlSUgfGk1Ngxr02Ur4UjARF0lmIe7WNnu5lrx6NmuROo/JScQCJ3F7EwG0ShXYnrLIdDLSY3vTy7J+3dLTu8yi8t+CfD9yL7fRQb4Cite8QevCxE+Jk1ASyRYwyktOWsm2150Wq5vJGjm1r4PYLCyHMSPWbGKi1r77YHi0lsZuNbNkr6PgVU22T9QsQjODJcOg0OTQXweUnTutmIrmfAHu9F4GCturd7XF+aES05xmP6F7PnkvzuHiM5JxMrneV2I8DFpAlqAd4B4ghWb9X5zvloagGYIDC4Zyg69ByBHVQ5i/DRRFW3x+QDGoNJxpOF1qHsTcZj4OBWnUO3ioBkdzGDyYoCuwM6b7NJdI4C57PD9TV2YEwhPL2bW3gHQPvWl+UodkBxjxe/4yOtChI9JE9B8hGqNMLI5jyWlAWgmI1wyjZhmKUyxxdCSP6hfcsfXzf6OYdd0NBPmJwB6qyqKgIpEPFqqKn5TKY3isglgZzIRnYqMWBRHH4GcBywdf8XiiloMubaTmbTfy4jdEe742iIcgVh0ndeFCB+TJqAlPrQSDaP2d7Jpto4eW8yO5d8J4FWFKTrZSf1RINLs/5+Yjeb9UPjmD+DjRKLhNwrjN4XtePlrdlXFmYZt9yWmm3Ze65vO+FAwzTFtWmWGS+80k8m58ua/i14BB3+BfCAR+7IoUmeF8k4BoHYamRkOMwM5Ffv7okzYkpUi8zmn05GvO5p2MVSttCf01bpadc7GyoX7+9JAcdn5IDTjfutW11JP0H6cXHaHZ2++9qZ3tyc3Lnwj2Tt8t2HnLAFRIVTe2KheEMBRAA7yuhDfIRysF4za7FRX/tfrUoSPeXNscJqiI4zC0UuS1ZVVe/2KVJaTCQLh0jN550ltqiTAGGlVRT/c2xcEi6b3SWraJ4qvr7zaikfvURi/VQLFM8JMyclguhDpeJ63D5AG5IWSCObuvKyvoY5QW6eDvb67j1BPRMMTS8r3+oIlBADfPQ4wNEa7kIP2IQdWklDXqGFrnQ8G7IRqC/agvS3glgagFczikj8BdInCFFVWKO9wLIrU7flHE3WzuO8bAMaqSk6gFxPx8pPg5+tcB5a1MzW+AITJULlDI80RAf0OasTgwfUYVNSAnj0T6Nbdgr7b7C+ZBNavM7Hq6wCqqkJYsiSElV8GvGgK3rDiUV+8qAufC0/tbLKxBgoXZzdF14AjD27A+OI6HNm/HgN6WOjdxYK+2/t9o0VYvi6AZWsCeHtZEG/Ec7F8rSc3s//Bikd/2dQfSAPQGuFIvsm1H0Plee3E91uxiit3/89Gcel1BPxeXV5UW8DQdFqQZRRNP5o0bTIYPwFgel2PH3TuksSxx23DuPE70K1b606bXr/OxJvz2+E//2mHLZtTtxaTiCbK1kCxP8pfC3dzSHcLlx6zFeeM3I7uHVp3P9jir3Pw+Nvt8OjbHVI5IXBAzlFNbQ2UBqCVzKKyo0D8NtStUmeH+ZRkVcUL3+UcXHY4HK6Ewjc5jei0xlj5s6riKxUu7W6ALwPTJAJ6el2OFzp3SWLixM0YP2E7TNOdj++WRXj9tXaYN7dTqhqBr6wauwirZtenIplIQ+HS7iZjOVLwGHBgDwu/PWMTfjJiOzSX3rNr6jU88GpH3PHvTtiWmkbgPSsePXL3/yiLAFvJ2bhwlVYwSiPQeEUpiIiOdXqMehTrK2sxtCRPd/Ay1B6hOycRj6rc6qhWdeUOp7ryLSd8/D1Gvf0JGF2wc6FQxje6mg6cfMo2lJStw8BBDXuM+NtC14H+/Rtx7HE1sCwNKz4Pqn400FHP0dY71ZVyc6BoklkwOgpgtMocoQDj+p9swsOT1mNI70aQi68iOSZjzMB6XDi2Bmu3GoitUv4U40AqGPkeV7+z4vv/MeNfGJUaHzHM6tq3wBipKgUBLyXi0RPN4tIHAUxSlQfgFRblH4pYZIe6HKmXU1R6CIN/wUSXAujidT0qdOiQxJRr1mPYsNR8YI7FgrhzVnds2aL088PXFuX1RyySUJlEpKHB13Uz2fpS5a2ZA3ok8PiV6zC01z630bvmXx/k4/KHu6meBrxrxaO7vFfJBKAtVs53At2PfoOZfw51C1H664WjBwG4WFF8ALCgaSc6sd+vVJjDE8mNlZuTGytfdXqMuk9nrASoF4DuXtflln4HJXDTravRr2/q3icLC22MHbsDny4OYetWZY8EOuiwVjrVlXJCoNhFoOuRvwboGFXxjxtSixfL1qBXF1tVij0MOiCBkw+rxQsf5aOmXlkT0FMrHPOWU71w5bf/QRqANrI3LNiiF45eC+B0hWmUrnJn4Hd2rOXHEKeV9ZWWU135oVNd+Qety6hXiCgIYCDS+KTB4nADfnv9arRv1+y7h1wTCjkYM3YHllYFsXGjoiUphIOc6soH1AQXaWl4JFezrb8Caj79n3Xkdvz1ynUIBVK//aWgXRI/OWIHXlqch0071Lw1a4wuyY2Vf/vufyvJkmWsWPQRENL1DXShHV95u9dFpJK9tOIdKx69wApY3cG4BoQvva6ppXr3acSMmWuRm+vdTs3cPAczf7MW/Q5SNH1gDDGLSg9TE1yko0DDjtMBdFIRe0K4Dn+atB4Bw7vfqZ6dbbw4YzV6dWndzp39YcIJCJd+NwGVBsAlFuzJDKzyuo4WIWzTHf0CYG7r9rSku4/v3GpVRe+yYnn9NeJTCXgJQOo/TrdQp05J/DayFnl53peam8u47tdr0bGjonEpscrzNkS6YbT61tR9GdKrEXN/tdbTN/9vHdjJxpNT10kWResAACAASURBVKqaQhimg3O+/R/SALglNnsziC9GGryBfIuYrmxYettKr+vwXsRpjFU8l4hHf6xpGEBABQDXrz52g6YD10xfh04d/dOzdeps4+qpG0BKXk3oXIyPpO1jGuGe3IFlBzDRsW7HzQ86eOLKdcjL8c9L99BejZh9wQY1wel/TZQ0AC6yYxWvE3CH13U0C+NviXj5E16X4TeNS6KfJ+LRUqvG7gnCJQCada92qpx00jaEww1el7GHoUPrceKJ21SE7mJsqFW2y0akD0tzfgx2f93azWdvxIAe/tts8rNxNTjxB7UqQh8WHHLtQYA0AK775va8j72uY18YWGVp9lVe1+Frq2bXW7HoI1Y8egQc53AAcwA0cTRz6nTqlMTEs305mAAAnHPuJnTq7P6jAA04wfWgIu0wuf9zcFi/Rlx2jJLG1RV3XrRByWQiaScnANIAuG/FPY1Ezvkg+PUUMwdEF+3tcgixJ2vprEVWPHq51aAdAKLLAcS9qOPsn25Grg+e++9Nbi7jzLO2uh6XQT92PahIMxN1Arl+R8TNEzfucYa/n/TuauPSY2rcD0w4Zuf/EUqYxaVTANztdR27I+C2RDw60+s60ltEM4p2TCCiSQDOQAq2EnbqlMR9D36FgAfbk1rCsgiTf9k7pXcHCNEaIw5qwNvXf+11Gfu1bpuOopJ+qE+4+na93opHe8g5AIo41ZXvGwVjjgBwiNe1fM+HFuVdgOr5/llBlpbms7Ox8gununJuoOvIR0HUAGAAgDxVGU89fSuG/sCvQ6X/0XWgvk5HPKbskDYhXHHzxE0Y0js1J/21RX6QsXRNAEvcPS443yw8+nEfDz/SHicM52cA1ntdyDcaiPliOVrVXQ1Vs75KxKMzLcrrRcDZAF51OwcRMG5c+pzQPG78dlfPTRfCbXk5Dk4dnj6/U+eP3u56TJuSg6QBUGlxxQZt55jYe4xpiaqKJV6XkbFikUQiHp1rxaPHuX0oVL+DGtGtu5qDQVTo3sNCnz7+/2QlstfxQ2uRH/TveprdTQjXomOuu/WSA2kAVPvmat05XtZAwEtWVfRBL2vIMq7eNTBkiP9H/7sbnIY1i+xxTFF6/XzqGjB6oLubkIhpgDQAKWAZPA2EZR6lX58w+GIA/l49lll6uxls4CD/7fvfn6JimQAI/xo5IP1+p0a7XjMfIg1AKiyuqAXRBQBSPcdlh/kXWFyh6Egp0QQCo6ebAXv2TL9lG+lYs8gOugYc0j39fj4HHeB6zZ2lAUgRa0n5Bwy6PqVJiR9IVlW8kNKc2a7n1CAA167H03Sk1fP/b3Xrbik6GliItunZ2ULQTL+BaP9uLr8OaGgnv6IpZMdzbwfwRorSVVnB/NIU5RLfytVc3QoYCjrQ03CzrmEwQmm0yEpkj8756flz2SnP5d3bLA1AikUcw6CLAGxRnMgCORdjUcTTo2uzUcg0ct2MFwyl54sVkN61i8zVLk0b0/bu/z5JA5Bq9XASUL8WwCEiWYUlhBBir6QBSC36//buO0Cq6voD+Pe8MttgAYEVhBhUBHZnQSI2iordmKKxxDT9mYYlQUF2Fkw0GVMUdhZBTSyoSYxdEo0llqiIhQWNWIDZBUQFpS+dnS3zZt75/bFiVNqWe997M3M+fyks5xxxd859990SStFfAZRozpPHLj2I/hPlODaPNTkppbMuzU2Z+yOaybWL7LWzOTO/L3eo/3namZl/ExnKLo1cycBZHqUL293sGzzKJXZpdJXe39nUbCCdgQc3p1KEpgz9oBXZbUtDZn5fbk0oXgxEMgDwTKi0ohyEqZ4mZb7KKq08zdOcuW71jGYofMXjpoH165VtKvDM+nUWODNftYos98kWG81O5p1VvWKD4s8BVwYA3hg4Po9BDwDI9zgzgfhvGHJNT4/z5jIGYbXKgGtWh1SG88SaNUovLhFCGdcF3l+feT9TS9cqr3mLDAA8YNv5N4IwzI/cBBxkGam7/cidwz5WGWzZUq/HjZ1XV5t5NYvcUbM885ZHvb5Mdc30vgwANLNKK04FYYKfNRBwjl1a8VM/a8gx61UGW7RI6c5CTyxelHkfsCJ3zMmw66pTLmGe4kELE5bJAECnoVN6ENFfAPj/wono5rwhVw/yu4ysFY6GQmWRC+yyyAtgXKgy9EcfhrBubeasA1i3zsbHH2feFKvIHS8uKURDBi1SfWlJAbY3qq2X2V2aOX8DGchKp+8C8BW/6/hUkWuYf8fYqOV3Idkkv3TSV0NlkRttTnzCwKMATtWR57VXu+oIq8WrL3cFZ95JqyKHJFoMPPFWF7/LaLMHa4qVx7QMS2YAdLHLIj8h4Dy/6/iSY0MbE9f5XUTmixpWacWpdlnk0TQZKxiYAs1nO7zwfDGSLf5PJO1PMkl48aXMGayI3PWnF7pnxEB13TYTTy5UO1gh0LqW+NQP5GlQg/yhUw5Np9Mz/a5jTxi41hoSmZNaGnvF71oyzqGTu9kFfCE4cRVAZV6m3rrNxNyXi3H6mdu9TNtuL75QjK1bVH+s0DtObdWRioOKjHKBaZcN2AjgAFUR31mZh5fihTi1PNgnpt/0zAFoSqod/DN4DgCWGQDVxkattJu+H0BQH4MMMvFXDByvfk4pS9lDJo2wyyJ32vnuWjDfCcDT5r/L7Ed6oDER3B/ZxkbC4//soTwugZ9VHlRkmNlpAC+pjjrl4V5IucGdWftwo4275nRTH5j5ZUCOAlYutLHxWjBG+l3HPjEOsfPyb/W7jEAbEM23w5FL7LLImzCMtwCMA+Drcvyt20w8+oiyByDlHn6wJ7ZuVX91oUuGDAAEADynOuCST/Iw6yUNDVaRq+/vreXQItPFHEAGAEpZQypGMvjXftfRJoyLQ2UV3/W7jKDJK48cFiqLxOzCxBow/grgaL9r+rxnnumGxYuDt4XpvXcL8eyzWj5IN6V6FyzQEVhkFoedZ0FQfjD2dbN76jhkp9PumdsNz72n9HbxVoy3mpdVfwTIAECdwZVdyaD7AGTMugoG3VFQfnVQdin4KGrkhSu+FSqLPOu6WM5ABRS+a1TJTQO33HSghvfsHbdls4lbZpboOvr3IcyNprREFpmlbuY6YrygOmyixcAP/9w3UNsC312Vh0n399YTnPi+Xf8YnP/iDGebfAuAw/yuo516pFzrfuAC9fO2mWD4hO52aeQqO5xY4TI9ycCZyICfia3bTPz++r5oUH05SAc0Jgzc8Ie+2L5dVy3pv2oKLDIR4e86wsZXh3D+zQehJQB3BKzeYuH8mQfpuq8g5RihR3b9S+A/7DJBKFx5PoBL/K6jY/gEq/SQq/2uwkvWkIqRdlnkPjtprwdhJhiH+F1Te338cQjT/nigr4sCE582/5UrdZ37z+85tTe9oym4yEDJ7al/AdiqI/bc2gL8eFYfJFP+DQI+2Wzj69P6Y7WmGT4GnsWSGzbs+nf/HyEyXMGgif1cw3gGgLYXsww8RcBgXfGJcKLZ+7h/u/XzlR5hGyjDKorsXqMuMXuPvoeIfg1gGDLodc2ebNpk4523C3H0MY0oKPD26r0tm01c/9uD8MEHGs/8J7rGra95V18CkXF2LEhZJWO6AjhBR/i6NSG88UE+vj0igTzL20MClnyShzOm9sOqTRpP/XRxqbupZtWuf5UZgE6JGinLuhda3xfTq6naonMA/E1fDoQA8wGMiGbeofP7kVcaOTxUWjHVTtHHYJoFYLjfNam0cmUeKq7uj3ff9e5/3ZIlBZgc+Qo+XqX1xr9PHBQ9qDOByExJ070FhCZd8efECzHyNwfjvY+9u9HyoZquGPuH/li7VeMzCWH+l89/kRmATrDCR00k0GUaU2yxLDotteGP290DxswxDXwX+gYbvU3H6e5uqnlGU3zvjI1aoS7HnGP0GnULE24C0RhonKHxW0uLgddf74qGnSYGD2mCrekBojFh4L6/98Tdd/VGU5PmZweia934H+frTSIy0oaahFky6iCAtO3Q2ZIwcf/rxWAGjjmsGZamTrluq4XL/1qCG5/oqf3VA5Pxc7d+3gef/zX/VzxkKDs8+Qiw+wYAbcNEAr6brI3N3vXv1pCKkWTQq9A3dc0u45vpulhmDgLCkT4W+OdgGkdAf7/L8UOPHmmcd8FWnHzKDoRCaqYwky2El14qxmOze2DrNg+eGQgfOYmiMqyMNutPJjJSONLHZiyHBweuHd7HwbXnbMb5x+6EqWjcu63RwG0vdMeMZ3pgpze7DxY4tbHdzqeRAUBHDIjm24WJtwCEteVgvtepq77ky78cKquMMvi32vICGxyLh2FR9UaNOZSySiedQIZxBRjfARC8Db0+6NEjjVNP24ETx+5En75Oh2KsW2vj1bldW4/39aLxf4oMOi+5pOoxzxKKjGSVVV5D4Bu8yjfwQAc/Gbsd3x+5E317dGxn6jsr8/BgTTH+/lqx8tv99oqQBtFxzpKqt3b/LdFudlnlzQBfqS0B4SOnpXk4Vty6Y7ffGxu17PrEqzpPG2TgqVRt7OzWfwyowZVdbYN/BMIVAMr9LifIBgxoQfnQJpSWtaB//yQO7OPA+tICp1SKsGG9jU8+sbG0rgCLFxVg1SpfxlJznNrYKX4kFhkmHO1ic2I9AA2n5eydaQBHHdqMsaWNOHZgMwb3dTCgd3K32YGmJGH5+hCWrQ3h1aUFeLm2AB9s8OFnivg2J179iz3+lte1ZDorPPkMYvdZ6Pq7I6SZjBNSS6bV7O1L8sojh7ku3oHW6S+63KmtukNf/I4JlU0OM6WvANNFCO59C4FXVOQi/9OdA81NBhJBuGOA0ESGe2Ry8fSlfpciAm5s1LI3Nj4AcCBOMzUMoFtBGl0LGE4aSDQb2KF7nUzbbHRMcwgWT93j1kkZALTHoEm9Qpa5iMF9daUgpt8n66p+s7+vs8ORSz49qlaXRjLdEYH4MB4xzg41FX+Hia4A40S/yxGaEI134lV/8rsMEXABa/4BxsR0brKu6l97+4JADFEyhWUZd+ls/gDeSB5Y+Lu2fKETj/2Nwf/QWEshu+b9CEd9e6deMGhiv1Bp5e9CTd1XMeiRLGj+20C4GRpuNct0BHrWiVf92e86RMBJ8287wi37av6ADADazA5X/JyAc/Rl4AaDzB+159zzFKUvZcIafSXxiBAnrtcWf8/IKqs8xSqt+GfKslYy8XWaB10eoHdAPM6xuL8Tj01wTPMCAO/7XVWArEpa7iUI8poT4T9p/u3xXwdFlfv7InkF0AZ5pZHDXcI70LnYhPlnTl31Pe39Y1ZZ5SkE/g/0DeZcdnHylw+QUO7Qyd3s/PT/AXQ5gCFac3mjBcBsdvm21NLq3fazh8orS9nlBQCKvS8tSLgBZI5x4tPe87sSEWBjo5a9MfEggAv8LiUDbDTTfNyuG//2RQYA+zNinG03dZsHjdfCMuHxVDx2bkf/vF0WqQYwSWFJX/axE3KOwLszt6kObIcjw+HSFSD+ATxezavJSibcmWqx7sGKG+v39YVmacU3DKInkbszcS4xn5+sq37c70JEgEnzb4+dcN2TnKXTF7blizP6LHQvhJq7/YZ1Nn9gbcpxx3UmhpNs/rUdyjsVoCNU1fUlB9st9m0O8AMl0QaOzwuFCs5ndq8AYxQo42d+XQI9T+Te3hLv8m8g2qaD+dN11f82wpWXg/l25N4ggME8Tpq/2Cdp/u2RZOZzU21s/oDMAOyTFZ48huDOBWs7MpnZwJmpJbH/dDZQ6/Y4979gfUfeEviiZG31/R398/mlk77qEl3KoJ8CKFFYml82E/BXMnBHy5LYB/v/8j2zw5FLANyt8fssaBigK4K4zVQEyNioZW1seIhA5/tdSgZIEtEPk/Gqdi0MlwHA3gwcX2yH8t8DMEBbDqKZTrxqoqpwdllkPIBbVMXbDWG7mTaHNy+durLtfyhqWOGm08DuFUT4RpY0uf+CcJuTKHpY1XG1oXDk+8z4O7J9Vo6QBvMvnNrqO/0uRQSYNP924AY26LyOPEjKAGAv7HDF3z89bEYPwmInUXSM4vPOKVQWeYaBMxXG/LLXnNqVJwGz0/v8qvDEAyy2f0xwLwNooMZ6vEFoAvPDMIzb9nSkpgqh8spzmfl+nbM4Pku4Br6XXhJ72u9CRICNGGdbTcUPSvNvA0I94H7DiU//b8f+uNhNqDRyIRMe1piihVzj6OTSaYuVRw5H+tjAIjB6K4/9KQZ+naqN7fEMbru88ii47hUg+l52NDJewTDuSJHzV8RnbNGdLVReMYxd+geAw3Xn8hIDa8mgs3UNnkSWkObfdoxFBnB+S12sw1uKZQDwJQXDKvunUvwe9F27CzBPdOqqZ+oKb5ZN+roB49/Q9/83BfAYp7b6DQCfLurL/zYD4wCcqimnl1wAcwiYlaxd+dh+ZztUG1zZ1Tb5HmTLwifCCw5wMeKx9X6XIoLsAtMuHXAfCN/3u5LAI77Pye9yGRZGGzsVRlU92SFq2KWJl0AYqy0F4QUnHjsDmg89scsid6K1IWtCy8lwL4BLFzHwYwA99eXyzEYC32Mw39lcN32Vz7WQHY5MAPDHDJ5JaQbhV048NhNyyI/YlxHjbKup20MEnOd3KQG3jQhXJOOxh1QEkwHA51ilkUoiTNOYYrOdpmGNy6rWaszRalhFkZ2mhWAM1p4r0zHXEBm3JZNN/8CKW1v8Lufz8odOOTSVTs8k4Ft+19IuhBcMF7/ozPSkyBH+NP/NyKyHFgbwgEOIqJxJkwHAp+yyq78GmAug8T55r+85b30fzzUAbK9yZpAEmB6Ewbc58di7fhezP2Z55JuGi5kADvO7lv34mAhTVD2hiCznT/Of5VDReBuN48AcRfAHAnF28Qsdp7HKAAAA+k8ssIuthQBKNWb5i1Mb+6nG+HtklVVeQ+A9LtjLUUsBvt1pNu/Fh9O2+11MuwyI5tsFiUtBmACd21M7gAlryKUbHKfpnqDNooiAGjHOthqLHyaiDp+C2gGznNrYZdj1SmrolB6hdHoCA1cC6O5hHW2xhAg3JOMrH9W1DkkGAADscMWfwXSFvgy8wqEuX0M82qAvx95cYNplh8wB+ATvcwdGipmfBBm3pWqr5iDj30dfYIbKvnoegyYBOMbfWugdkHu7k+hyn+ItrSKb+dP873RqY5djTz//A8cXW3kFlxPzOACHeljT7phrCEYsWVf1BDR/VuX8AMAsjZxlEJ6GzhXzTMc7dVULNMXfr/zSSV9NG8Z7YHTzqwY/EGgdGHebaefOpuUz9N2a6CMrHBlNwCVgnAudO1e+aBOIngC7d322E0SItgpa8/+CqGGVJ06lNC4B4ZsAunpRHICVRLif0un7WpbetNyjnDk+ABhWUWKnaBGAA3WlYMJvU/HY73TFb6tQuOIHzPSA33V4gvAKMd+WLNjxOBbOcvwuxxPhaMiixFhy6QyAzwBQBlU/34Q0XMRB9CJz+olU3cfzPN8aKbJDoJv/lwyI5ucVNZ7ugs8EYyzUviJuBjCfGXMI9KJTV/VGu+tTIJcHABQqjTzJraM8TRkw3+lddALmRlPacrSDXRZ5AKou9AmenSC+j9i8LVk7Le53Mb4bPqG7lbKPAdPXiN3BYAwG0VfQegdD3l7+VArAagAfgehDBq8A6I0UCv/rz+srkVVGjLOt5m6PEOM7Hma9w6mNXQEVzbX8VweaaWcEGRhGLoYB/NVPf6b6YG8LrQnbAWwhxjImWgrGMna5LtWQehOrZzR1uqZOytkBgF1WeRnAt2tMsdM0zeHNi6d+qDFH+wyf0N127OU6Twn0wRIwbnNcuh/Lqnb6XUxGOHRyN4QMK9/mbkg56WbL3oHQloacmS0R3sv05r8/A8cXo6DIzAd6GEm3uRHYmQmfRzk5AMgLTxnocuodgLpoS0J0iROvuldb/PYYXNnVtvB9uPwLEIb5XY4CSQBPMPOsVF31S8j4RX1CZDE/mj/TXU5d4WVtvZo7VwVrADB8QnfbCQ2Cy0MINJCJDwTQhYEiAopAsImpkcENYNoG4h0Av89kLLdNvN+0qGr1fnOEoyEbjTVgHqHrP4PB/0jVVvt+jGvrFcHpK8D0IwDFftfTWQysBuPOlIG75VhZITJA6z7/Rwk4x8Os3j35Zzhfrx7NK40c7hp0EoCTmPkESuKg1qvCAf7c/7vPRin8uV8n/ux3iRmpFGCHI9sJ9Lrr4hUi91WnpMvCL79/D3HiegY0Nn+sTlH6Ul3x92vEODvUVPwdJrqC2T0RHKwxXgcwgJfIoNudXoVPBmU9hRBiP/xo/oTbnXjsF5Dm3yaed4dQaUU5DFzMTBcCOFhzui1g+icbeCgVL3zFGpI4ngzMAWBoyucy6PRUbdVLmuLvVcGgif3SljUOoJ8zuK/X+TXYBsK9Ropub1lWtczvYoQQ7RCOhixOPCLNP9i8GQCEo11sTvwYwCUAjvQk55cwYQ0xLGjc8gdgulMbq9AY/8vIKqs8GeDLCTgbPs/oqPHpwTImHsSi6oTf1Qgh2kmaf8bQ2zAGV3a1Df4JcWIKt26V8A0x+mlOEXcai67VnKPVwPHFdl7B98A8HuByT3Lq9blFfbEX/S5GCNFBI8bZVpPHzZ/pLqe2Spp/B+iZAeg/sSBUbE9m8ERkweKzNmgmGEfp3n9uhyPDwbgcwA8BFOnM5ZGVTLgz1WLdgxU31vtdjBCiE1qf/B/9dDbSG8S3OfHqX0Kaf4conwEwyyPfNBi3MPMhqmMHWKW25h+OhkKcOJuBcWCcqiWHt1wAcwiYlSwpelwW9QmRBf437e9d82e6y6mNSfPvBHUzAKUT+lpk3+7pN0AAEPBcsjZ2FhR/E+aXTvqqS3Qpg36K1tPbssEdhoHqliWxD/wuRAihiB9P/ow/O3Wx8ZDm3ylKZgCscOVJBuOBLFl93h6bkuz8BMq+CaOGVdpwMhGNSwPfQVYs6vuCfGn+QmQRP578gVnS/NXo5AzABWao7JDrGHwd9G2tCywiuiAZr/pHpwMdOrmbXcAXgvkqtF7ikrWI8b1kXewRv+sQQnSSH6v9gVlObewySPNXouMDgGEVRaGUMZvBX1dYT+ZgusupqxrXmRB2eeVRcN0rQPQ9MApUlRZwWyyLjmjTqY1CiGBqbf6zCfi2d0n5T05t9ZWQ5q9MxwYAQ6f0sNPppwCMVltOxvjASdPXOnTZw8DxeaFQ/rcZGAdkxaK+DqBXndrCk+ScbiEykB/v/OXJX4t2v2MuGFbZP5VKP48sn6reBwfkfh/Lprer+eeVRw5jF5cx8GMGeuoqLjPwCVZZ48RULab7XYkQoh1am/8/CPiWd0nlyV+X9s0ADJrUy7aM1wAM0VNO8DHztam66j+27av/t6gPhHPBMPVWl1FaQDjOicfe9bsQIUQbyJN/1mn7AKD1VL85IBylsZ5gY65x6ladAMxO7/PrBl7T28pL/ZQYlwIY4EltmSnu7EgdjdUzmvwuRAixD748+eNWpzZ2FaT5a9O2VwDhaMjmxGNADjd/AGzQVxEe0Btx7PEqWmtIxUgy6AogdQEYeV7Xp8FStJ44+BVN8cN2sTXNAa7UFF8I0VnS/LNWm7bu2W7iJuTsgrX/IUY/G3gMA8f/r7kPiObbpZGL7bLKt8mgGgA/AjK6+bsAXjSIv+3UxsrYML4Hwr5nPDrnl2ZpxTc0xhdCdNT/Vvt72fzvlObvjf2+AsgLV3zLZXqiLV+bQ+4wGDcx+KdM9DNkwaI+AtaD+V4DfHtz3fRVn/+9UGnl75j4Oo3pNzqGPQxLbtigMYcQoj182eqHO53a2OWQ5u+JfTb1/MEVh6RNehtAd4/qySSMbBgUEV4h5tuSBTsex8JZzh6/ZmzUsjcmXgdwrK4yGHgyVRvLqWOkhQisgePzQnb+P5jwTe+S0i1ObdUESPP3zD4aWNSwSxteA9Eo78oRHtkB4vuJzdvaeolRXnjKQJdT7wDURV9ZfJlTW32nvvhCiP2S5p8z9joAsEsrfgqiu70sZpceZhojuzajrKAFh+c76GW7KDRcWMRodAlbUyY+aLGxrCmENxrysarF9qPMTLQEjNscl+7vyCFGdlnkJwDu0VDXLgkjTSNallUt05hDCLE3A8fnhfIK/snM3q3LIdzsxGMTIc3fc3seAAy5pqdtpJYC6OVVIX1DKXy/506cf8BODC9sgdGOyfWPWmw8tbULHtjUFe81ZvL6Oy2SIDzOrntbqm76q50NZpVW/JOIzlVR2B4x3nIKt4/a6+sIIYQe0vxzzh63AdqUvhEeNf/ywhZU9t2K8w7YCbODb9QPyXNwZZ+tuLLPVixoyMe0tT3x3LbCnP6OYmA1GHemDNyNeGyP2xY7IsX2OItSxxFwkKqYX0A4KtRUfH0S+JWW+EKI3Unzz0m7tdz8oVMOTafTy6D5KtoeZhq/7rcFVxy4rV1P+201b2cBrlrVG0tyb0ZgHgE3J0uKHsfcaEpHAqu08jQifg76boB02eBTUkuq52qKL4TYxY/V/kQznXjV1ZDm76vdWq8djtwFxs90Jj2rewJ3HboBPS2d28uBFBNuWHMApq47AG52f5ttA+FeI0W3e/X+3C6N3ATCRI0pVjkhZzjenblNYw4hclvr5WSPMXCWZzml+QfGFwYABeVXfyXlmisAhHQkMwj4ff9NuLrvVk/3z720vRA/XNEX29K6Hlj9Qu+A3NsdEw9iUXXC09QDx+fZdv6bIAzTmOVBpzb2Q43xhchd0vxz3hf6sB2unAHmCToS2QTcfeh6XNiz/TfoqrCkMQ/fWn4Q1iW1vtnwQguA2ezybaml1fP9LCRUWlHORP8FkK8rBxH/MBmvflBXfCFykn/NX+esoWin/w0AWs/7XwMNi/8MAu47bB3OO6BBdeh2+aA5hJPr+mGDk3mDACasMZjuTibNP2PFjfV+17OLXRq5CoSZ2hIQtptpc3jz0qkrteUQIpf4cba/NP9A+mxOyXzt+gAAIABJREFUPOQ2fAOaVv5XH1zve/MHgMPyk/jnoLUoMDJm9skl0LMG8bdT8aKDk7VV0SA1fwBw6mK3EPh5bQkY3dKGey9wgVylLERnDRyfF+LGf3na/BkzpPkH02cDAJfoYh0Jzu+5E1ccGJx1XEcVteCmgwPVQ3dH2A5gFhlUnqytOqslXv0UEHX9LmsvOGnhYgAaz/HnE6yyQyr1xRciB4SjISuUP5vBX/csJ9FMpy52tWf5RLu0vgIYPqG7nbQ3QPHivwF5Dt4q/xhdzOD1rh+u6It/btF4qm3H/BeE25xE0cNYGW32u5j2CJVWnsPEj2tM4cCgUc6Sqrc05hAiOw2I5ocKGx/ztPmDbnJqqyZ5l0+0FwFAqLTiO0z0mOrgjw1ai7O6e7s4va3WOyaOWDwA21O+7wxoAfAkE25OxWPz/C6mM/RvIeUVDnX5GuJR/98nCZEpwtFQyE3809Oz/Rkz5Mk/+AwAYDLGqg58erfGwDZ/AOhjp1HZd4uPFfAKBlU4lDrIqY19N9ObPwA4Jk8A8L6+DDTQ5kS1vvhCZJkB0fwQJ57w+GKfm6T5ZwYCALssshhAucrAL5WuxuiuTSpDKpdwDQx+bwA2OZ6tL3MBzCFgVrJ25WPAbL0nIfnAHjJpBAxjPgBtNzQZRGe3xKue1BVfiKwgT/5iPwiDJvWyLWMjFN5tP7JLE14uW60qnFbXr+mJG9ccoDvNRgLfYzDf2Vw3fZXuZH6zSiPXEuH32hIQ6h1gmMo7DoTIKgOi+aHCxOMMnOlh1ulObazCw3yikwzLNodCYfMHgIt671AZTqsf9dyp71RCooUgutTZkRqQrK3+VS40fwBI1RXdAMIr2hIweodc3AvF37dCZIVwNBQqSMz2tPkzZkjzzzwGMQarDGgR49wA7Plvq8PykziqSPWCe14BwteceNVRTrxqFlbPCPa7EOWirpk2LwGgbSTIhNPtcOUvdMUXIiMNiOaHuOFJb9/5Y7pM+2cmA6R2AHB0UTO6B3Db376c0k11f6akE4+9qzhoRmleOnUlmH6pNQlzLDRk8lCtOYTIFAPH57U++dMZ3iWlm+TJP3MpnwE4vjjzHnZPLG5UHfKrqgNmIqeu6j4QPawxRT4b6fswcHzO3fksxBcMiOaHQnmervYnoFr2+Wc2g4E+KgMOLWhRGc4T5eprLsKgSVqOVc40jp28HMAn+jLQEXYo/4/64gsRcAOi+aHChn95+eRPQHWyNhbxKp/QwwC4WGXAQQWOynCe6G2ncYCl9rVFnsHatxZkhHdnbmPghyDo3PI40SqrPEVjfCGCaeD4vFBR4z+8nvaX5p8dDABKz8PtY2fm1vY+ttqBi2uahUoDZrBUbew1AqZrTGGA+F4MuaanxhxCBMvA8XmhvIJ/MvM3vEsqx/tmEwNAV5UBu2bYAsBdik21NwQyUKQ0YIZL5m+/FsB/dcUnRj+LnFm64gsRKL40f0yX5p9dDBCULqDKo8wcAKivm2Vh2uctnOWQ6V4MQPmKy12I6Fw7HLlEV3whAqH/xIKQnf+kl82fiGOy2j/7GGAoPbA/4fp+uU6HJFzFxwGnkXnbITRLLp6+FEx63x0y35pXGjlcaw4h/DJwfF6omz2bCad7mHV6Ml4t13FnIYMJO1UG3JnOzAHADlftoXJkmtqedDOZU1d1OzGe1peBurgG7sXYqKUvhxA+6D+xwM7Lf8rbJ39UyZN/9jKI1Q4AVrZouwNGG5eBjxXXbYCCexWivzhp808BbNCXASOtjQ2/1hZfCK/1n1hgd7OeAOM0r1ISoSoZj032Kp/wngGoHQAsbwqpDOeJj5M2mhXPALSYqXVKA2aTRdUbXeafAlC78vJzCHStXVp5nK74QnjGj+bPPE2af/YzGKz0gpq3GzNv7dvChPKaN2NRtcwA7EO6rvrfIL5dYwoLxA9gcKXSXS5CeKr/xAK72HrS0+YPVCfrqqd4lU/4xzCIlqoMOHdH5m1/V18zZ8ZdyD5z8rtEANRpTHGobbo3a4wvhD67mj9wqlcpiXmaHPKTOwwwL1MZ8P1mGyuaM2cdAAN4frviLftMtWoDZqmF0UYg/UMASX1J6MehcOQ8ffGF0MCP5g9MlSf/3GIwqR0AAMBDm5SeLqzVqzsL8HGL2gXjTHhbacAs5tTe9A4zrtOZgxl3F4QnH6wzhxDK+NP8q5O1sWu8yieCwXC2u0sAKL0N5++busLRtrxLrb/Vd1MflDmnrwJur1RdUTWAlzWm6J5i9x4gmpl7VEXuaG3+T8HrJ3+Z9s9JBlbPaAJhgcqgnyRtPLI5+LMAH7XYmL1Z6VUIAJBKOS1vqg6a3aKulUpdBGCLxiSnWuGGCRrjC9E5/3vy9+xiK3nyz20GADAwR3XgqWsPQJLVbq1T7YY1ByClukbmN7Hi1h1qg2a/puUz1hDjCp05iOkGOzz5CJ05hOiQEdFC75/8+UZ58s9trVOirH76dUWzjRnreqgOq8z8hgLcr2GtAhG9qDxojkjWxR4B8X0aU+SB3QfRf2KBxhxCtM+IaKHdlPD2yZ84lqyt/pVX+UQwGQCQKti+AMAm1cGnre2Bpc3BOxioySX8cmWJllNoGLhYVp13nNPS8ksQPtKYoswutqdqjC9E27U2/6fg7bT/DXK2vwB2zQAsnOUA/LDq4I2ugR+83weNAbsgaOKqEsQbtQ1MBjDjH3Zp5OVQecUwXUmy1opbdzBwEQhpfUl4vFla4eU1qkLs7n9P/id7lbL1yT8mx2QLAMBnV+CZJSM3AfRz1QnqUxaWNYXwnQMaYARgScCfN3RD1doD9CciDADTz83eo0rckmPfQP0CuR2wjdz6mk+sXmMsEE7UlIIMMk5K9zjuXmyeL5c2Ce/59eRfWy0L/sRnPhsAuPXz15q9R18IoLfqJEubQ9iYsvD17gn4OQZ4dHNX/GLlgfoOoN+dAdAxJoyfmb3H7HDrD3oHqM2QDZL+Spef9pqZcM4E0E9Tiq6GQYPd+hrlM19C7NP/mr+HT/70x2Rt7Fqv8onMYH7hX3qPNgB8XUeitxP5+KjFxlndEzB9GAXctbEbLl95IFx/2m8hgG+avbudbfQcXeduqlF6/0JWWjnXtXuNfoWJfwyQlvc1BAwxS0atdetr5OAm4Y3W5v80vG7+8Spp/mI3X2zFrftQPwJwoK6EY4ubcO9h63GgndKV4gscBn79SS/csj5IOxLoUYso0hSf9rHflQSdXVrxUxDdrTFFwnDTR7YsvWm5xhxCfL75n+RVSmn+Yl++MAOAHQtSRq/RBpG+m6dWtth4eHMxhhQkMTDf0ZUGALCs2cb57/fDY1sCdyFc2AVfapSMtty8Y9/EjgXejIYykLup5h2jZPQRBJRqShFiMo5zDy7/G9YtdDXlELnOl+aPPyTjMa3HbIvMttvy/JRLt0PviWxY75g4Z/lB+O77ffFhi/qLg7anDFz3SS8cvfireLMhX3l8RQqJcb1dbNWGwpXn+11MkKUcdxwDazWmODrU1C2qMb7IZdL8RUDt8W28Ha78JZhv9aIAixgX9GzA+AO34siizl1JsCZp4e76brh9fXdsSwdr62EbvEyucVVy6bTFfhcSRFZ55HRy8Rz28j3baYQ0M05K1cZe0xJf5KYR0UK7MfFvEMZ6lVKav2irvXyYXmDaZQPeBHCkl8WUFbTgvJ4NOKm4EUcXNcNuw0d9XVMIL+8oxFNbi/DKzkK/FvmpkgLjTsdI/QbxGVpnYTKRHa6cAWad5/mvdJqN4fhw2naNOUSuGFZRZDv0tKfNn+n3ybqq33iVT2S2vbZYu6ziWIBqsIfXBF7IMxiH5ycxMM9BTyuNHlbruTA7XQM70iZWNNl4vzmUiU/6bbEZjOucupWzgNkaD8TJMAOi+XZR4k0whmrM8oBTG/uRxvgiF0jzFxlgn8/YdlnFrQD90qtixJfxe+zSVamlsVf8riQoQkMmD2XDfROAtsUdRPhBMh57SFd8keWk+YsMse9J9oHj8+xQwXyAv+ZRPWIPiPG0web45qVTV/pdSxDY4chEMG7SloCw3XTdI5rrpst5DaJ9/Djkh3lasq56ilf5RPbY71v2vPCUgS6nFwJQf3WeaDtCE7l8S9Lo8gfEow1+l+MzCpVFnmbgLI05XnNqV54kr2BEm0nzFxlmvy/QW+JTVxDhMi+KEfvAKGCiyTYnlsi2QbCVpp9Dww2Wn3O8FR4gd6WLthlWUWQ3J56Bl80f+J00f9EZ5v6/BEjX1ywxeo1OE3n3zS32qjuA75olo0+yDhz1dnpjzQa/C/KDs3neTqvXmPdB+J6uHAScaJaMed6tn7dGVw6RBUZEC+2k8zTg5Tt/npasq5YT/kSntGkAAADupppXzZIx3QEcp7Ee0XYDwHSpWTJqoNvtxNex5fWcu9UuvWneUrNkzFegb7uqCfBJbsnpf0X93KSmHCKT+XHIj0z7C0XatYfOiRdOAlHu3Z5GWAzmidA75dwRBpguskOpOrs0cjlwQZsHdNnCQeEEAO/ry0ADbU7E9MUXGWtYRZHd1PgsvGz+oOul+QtV2tkw5rJbf9C/zF49+oIwQk9JAcN4y0m5p7vLps9x+x1zl5UyCETHoN1/d1oVgvANs3f37xolx69w6+d94HdBnqmfmzR7jqwB0Y+h7//JUXbJmHfS9fOWaYovMo0P0/4Mjjq1seu9yieyX0ePVaVQWeVvGfxbpdUEDeEVp6X521hx647P/3Le4MrBbPJMBs70q7R9IcbThstXNi+r/sjvWrxihSuuI6bfaUtAqHeAYYjH1mvLITKDD9P+DI6maqul+QulOvzElK6fN9fsPWorQKfBp9MCtSK6x0kU/QAfViW+/FvpzfM2p+trHrBKRi8BcAxaF+YFB2EQG/Rzo/coO1duG3Tr+80ze3c/BcDBmlIUWUBZur5GDgjKZeFoF9tpfAYeP/lL8xc6dPpiFTtceQyYHwEwoPPlBEILGJOdutjNbfrqcDRku4nLQfg9gMDdO8yENeTiV05d7D4AmX1Twn7kD644JG3Su9B5ZgXhl0489mdt8UVwyZO/yDJqblYbNKlXyDLu1Xwwiwd4BZgudOpib7f3TxaUX/2VFFtVYL4Qum6s6wzGXDL5quSS6kV+l6KTXRq5GIR7tSUgNBHco5Lx6bXacojgCUe72Jx4BsDxXqVkwm9T8Zi+11oi56lsVGSHK34GphsB9FQY1wsOgauTO9K/x+oZTZ0JZJVOOoHIuBnAcEW1qUNIA3yng/R12XzboB2OPAzGhfoy0DsOFR6HeFS2BuYCaf4iSyldNe3W17zt9jnhLpNRAOBoBPFJeHfziPlbybrqh1S8K3c3zV/l1p9+l9nL+RCE0QCKFNSoigHQ0SaMcWav0c1u+ekLsXKu63dRqrn9jnnRTJs/ANBNU4q+FiXz0/U1L2iKL4JiWEWRnXaeBuFEr1JK8xde0dag7XDlMcT82+C+FuD3yDB+l1xS9Th0vRsfOqWHnU5fD+ByAJaWHJ3BWMQmX5VaUj3X71JUs8KVJxHzi9C3QNVl4tNS8eo5muILv/ny5M+/ScWrf+9VPpHbtD+h26WRI9nAtcQ4G8HYLfAuMf8uWVf9L3i0KC5UNjnMcG8GcIoX+TpgtsluJNtuvwuFI9OYUakrPgOrU6Y5DIunbtWVQ/gkHO1ic8OzAI3xKqU0f+E1z6bo80ojhzPoIia+CN7vGNgG4BF2+d7U0ur5Huf+TKi88lxmrgbjEL9q2CtCEzFVJXc40zq7DiIwwtGQzY0L9F5nTY86tVUa1xsIzw2u7Gqb7jPS/EW28+MdPVmlk44nw/gegJPBGKwlCbCegZeI+enkzvQTgWlqA6L5VkGigghTEKz1AbusIiCSrI3N9rsQFULllaXs8lsACrUlYfyfUxf7u7b4wjt+NH/Gdam62B+8yifELr4v0isYNLFfyrRPhsEnwOUyEA1G+3cRJAAsA2MZwG8S8GKyrjqOAO97l22D3rFLK68Asc69+zvMNA/PpZMXs5I0f5Fjgtd4AGDINT0tyx1sMvdiuF0YRhcGegAAudgJcAOBd7omtlpp/qi5bvrHCHCz3xerLHI8gW7WO03dQbu2Dabt32DpjZv9LqcTKBSufIqZv6EtA3ONU7fqBGB2WlsOoc/gyq62yc8CGO1VSmn+wm/BHADknKhhlyZ+BEIMQInf1ezBVjCudw4s+jPmRjPzWOGB1/QOhVKLGOijK4W8x81QwyqKbIeeBnl4vK98r4gAkAFAkAyf0D3UYk1hookAQn6XswdLmYwJqfi05/0upCOscORMYjwDfd/3KTAd79RVLdAUX6g2rKLITtO/wV7u85fmL4JBBgAB1HrbIGYw+Ot+17InmXzboF0WuR3AZRpTfOikaTiWVe3UmEOoIM1f5Lgg3WkvPtV62+C8B+ySUW8z6Fh8uv4hMAiD2KRxVq9RXdMHnr4A9XMz5khct+j0l0zbOQf6XrX0ME0qcevnPakpvlBBmr8QMgAIsnR9zXK35PQ7THY2f3qscJ7fNX2ODaIxBjn/Z/YavcndVJMZuwW2zU2ZvY9bABg/hr7v/yOt3qPq0vU1cU3xRWdI8xcCgLwCyBiFgysPcix3Kph+hCD+fyO8AhhXOfFp7/ldSltY4crJxDxVY4qtlpE+omnJTZ9ozCHay4/mL6v9RUAFr5GIfbLDlceA+RYAx/pdyx64IH7AabEnYcWN9X4Xs29Rwy5LvADgZG0pCC848dgZyNAtqllHmr8QXyCvADKMWz9vjVt/+l8CetsgAXSEabo/C/5tg3M5r++YOa6LSwAUaEpymNlr1DZ3U43sCvDbsIoiO2U8A0jzF2IXmQHIZLJtsNNC4ch5zPiHxhQtIOPYTHk1kpU+a/58glcppfmLTCADgCwg2wY7xy6L3AfgRxpT1Do7UkcF5j6KXCLNX4i9klcAWUC2DXaO2/X4OabF3wPQXVOK3ma+WeTWzwvsTEhWGji+2Cb7BcjxvkLskQwAsohsG+ygrfNajJLRbxHh/wAYmrIcS71G/5c31byvKb74vIHji+1Q/vMAjvMqJTNfm6qr/qNX+YToLHkFkKVk22D7hcKVf2DmX2tMsdEx7GFYcsMGjTmENH8h2iR4jUEolRHbBk1UYFH1Rr+LwdioZW9MvA6Nf1cMPJGqjZ2jK37Ok+YvRJvJACAnyG2DbZVXHjnMdfEOgK7akjB+7tTF7tYWP1dJ8xeiXWQAkEsyYtsgJqbisef8LMIOV/wcTLM0pkgYaRrRsqxqmcYcueXQyd3sfPc5SPMXos1kAJCDZNvg/tllkUcBXKAtAdFCJ3/bSCyc5WjLkSuk+QvRIbILIAfJtsH9c3uMfNkyjIug71XAQVY6n9L1NS9rip8b/Gj+wK9TddU3eJVPCF1kAJDDZNvgPmye30i9Ri8igs5dFGOMnqNfcTfVrNIUP7v51fxrY9L8RVaQVwACQAZsGwS9CqIrvd42aJdV3gzwldoSED5yWpqHY8WtO7TlyEatzf95eLi7RZq/yDYB/KAXfrLDk44GG7fAw6eqdvB+2+DA8Xm2nf8mCMO05SC+z4lXX6wtfraR5i+EEjIAEHvw2bbBKgAH+l3NHni6bTBUNjnMcN8CkK8rBxF+kIzHHtIVP2tI8xdCGVkDIPZgLrubat5z+x1zt5UyCETHIFjfKwUgnGk2OhcaJaNXuPU1K3QmS9fPqzdKRjUR6AyNaU4J9Rr5cGrT/O0ac2Q2af5CKCUzAGK/8oZcPYgNcwYDZ/ldy554tG2QQmWV/9a8dfI1p3blScDstMYcmcmX5k+/StVW3ehVPiG8FqSnOhFQ6U3zN6frax4M9LZBgy43e4/p7R4weh42z9OybTDvgNEvuwYuAVCoIz6Arxq9uifcTTXzNMXPTNL8hdBCBgCizQK+bdAEcKxh4mJd2wadzfN2Wr1GvQ+iC1XH3oUIY82Skc+59fPX6sqRUaT5C6GNvAIQHRL8bYN4E0TjnXjVm6oD22WRewD8RHXcz6lzCoqOwsJoo8YcwSfNXwitZAZAdIized5Ot77mcbNk5DMADQXQ3++avqQfgJ+aJaMGun1HzcOGmoSqwG7fUS+ZrnE+gJ6qYn5JbzOd7OHW1zyjKX7wSfMXQrsgPrmJjBP4bYPbmGhqCoUzEI8qWR9gl1ceBZdrANgq4u0BG8Rnt8Srn9IUP7ham/9/ABzjVUpp/iIXyQyAUCDw2wbzCTjVJOe7qrYNuhvnrTVKRhMBJ6kocA+IiU51S0bfh/qaBk05gkeavxCekRkAoVxGbBu0zKuaF0/9sHORooYdTswB40Q1le2OgOeStbGzALCuHIHhR/MnXJOKx6Z6lU+IIJEBgNAmL1zxLZdpBoDD/K5lD5IA3eGkcS2WVe3saJD8wRWHpE16F0Cxwtq+iHGFUxe7XVv8IJDmL4TngjRNK7JMur5muXtw+e2mk5+12wZTm2u2mSVj1gE4R215n0M4xeo16on0phpv7j/wmjR/IXwhMwDCExmxbRB8pVNb/UZH/rAdrnwIzN9TXdT/0DsOFR6nahFjYAyf0N1O2s9Dmr8QnpMZAOGJzNg2SD/p6LZBt9/RL5lp8wcAummqr6/FyVB6U82LmuJ7T5q/EL4K4pOYyH5kl0YuyrZtg1bppBPIMOaAtQ2sXSY+LRWvnqMpvnek+QvhO5kBEL7IlG2D1HvkB1w/v03bBt1N81dZvUd3BTBKU10EolPdkmP/hvoFTZpy6OdL86cpqXhsmlf5hMgEMgMgfBcqryxl5pvBOM3vWvaEmR+zXFS06bbBcDRkc+INAMO1FUR4xInH2r/eYEA0vyC0vadrWoUuu8VsUVekYZFpbEMqzVbI3NBkb9uAhbMcDVW3Gjqlh+26L4B5hLYcX8Rgvtqpq57pUT4hMoYMAERghMoqzmbQdARz22AzEaqTJk/Foup9rg8IhSeVMYy3wCjQVg3TxU5d1X17+V0KlU0uY3ZPgIGhYBwO4HAAXwFg7DcyaD2DPwSwGIxFMOm/zpKP3un0NcXS/IUIFBkAiGAZOD7PChVcTXB/BVAXv8vZg0+IuTJZV/0I9nE4jx2O/AKMP2msY4eZ5uGfzUoMuaanbabPY9c9gww6HozeSrMRtpOL15j4accI/QtLbtjQrj/vS/PHRKcudrNH+YTIODIAEIFUMGhiv5RlTQPwAwTz+/Q1EK504rF39/L7FCqLPK35NMR5BLodhO8z8+nQdy/Bl7kAvQ7CX5ztzqNYPWPf6xGGTulhp9MvAjjSm/Kk+QvRFkH8YBXiM1Y4MppAN3v45Nh2hDQYdzsp91osn75pt98v/9WBtussAlDifXGe2QrgL3aabmpcVrV2t98NTzzAZusFSPMXInBkACAyQNSwSxM/AeGPCGYz3Qpw1CnpchvmRlOf/41Pj0N+Atn/s9YM4r9YTvqGpuUz1gDwp/mDJzi11bd4lE+IjJbtH0oim4SjXULcWMHgKQjWscKtCMtcdiema6c/+/lftssidwC41KeqvNZIzLeatvGnVIofA3C0R3ml+QvRTjIAEBknVF5ZijTPZMLpfteyJ7ttGxwRLbSbEgsBDPG3Mg+1vh7x6mwHaf5CdIAMAETGskorTiWiWwCU+l3LHnzhtkG7NHIkCPMBhPwuLMtI8xeig4J0+poQ7eJuqvnQPbh81qe3DY5CsF4LtN42aOD/zF6jNzl1seeN3mNSBJzid2FZRJq/EJ0gMwAiO5RO6GuTHQXwM+z/sBs/vMkuTyCD/gjgJL+LyQLS/IXoJBkAiKxilU8eRcy3BHXbIDFeYOB0BHOQkikYwFVObexWvwsRIpPJAEBko6DfNig6Tpq/EIrIGgCRldxNNe+5JaffYSHlABgJwPK7JtFp0vyFUEhmAETWyxty9SA2rZuY+Rt+1yI6TJq/EIrJAEDkjIBvGxR7J81fCA3kFYDIGQHfNij2TJq/EJrIDIDITcHfNigABtGVTrxK57XKQuQsGQCInGaHJx0NGDeDMdLvWsQXSPMXQjMZAAgh2waDRpq/EB6QAYAQuxw6uZudz78BeDwA2+9ydCAD6NkzheLiNAoKXABAU5OBHTtMbN5sgV2fCwQYTL906qpu87sQIbKdDACE+JLQ0ElDkKaZDDrD71o6Kz/fxfCvNaJ8aDNKy5pw0EEObJv3+LWOQ1izJoSldflYsrgA775diOYWzz8iVjolRYdjbjTldWIhco0MAITYi7xw5bdddqcDNNDvWtpr4OHN+PpZO3DsyAbk5+254e9Pc7OBN+YX4Zl/d8MHH3i4YYJovEz/C6GfDACE2JeB4/OsvPyJxPxrgLr4Xc7+HHpYC374oy04Ynij0rjvvluIB+7riY8+9OQ2482OaR6OxVO3epFMiFwl5wAIsS9b3ky79TWv5x8w5l7X5BKAhiGAA+f8fBeX/GQzLr2sHn0PcpTH79PHwamn7kDXYhd18QKk0lr/Cgot5pZ0fc1cnUmEyHWB+yATIsjs8sqjwHxLkLYN9uufxKTIBhx8cNKTfGvX2Jge64NVqzTOBhC2O7YzAO/O3KYviRC5TWYAhGgHd+O8tW796X81eyU/AdGxAHx9LXDkkY34zfVr0bNn2rOcXYtdnDi2AR9+kIf167Vtlsg3UuZWd1PNPF0JhMh1MgAQot3msrup5h236/F3mRZCAI6CDz9Lo8Y0YFJkPUI+bFi0LMbo4xuwZnUIqz/RMxNAhMPc+tP/BMzt2CpGIcQ+yQBAiI7aOq/FrZ/3H7vX6Idh0KEABnmVetiwJkyKbIDl4yXHhgEce1wCK5bn65oJ6GGUpOe79fM+0BFciFwnAwAhOim9qWZLun7eg3bJqLcZOBqgA3Tm69fPQfT3a5HXwe19KhkGcNQxCSxY0AUNO9V/nBDBcuvn/VN5YCGEXIIihCot8eqnnGRLOROuAbhBR45QHmNSZAPy8/0/sm8UTRQRAAAIO0lEQVSXwsLWmkIhDQMS5m9gQDRffWAhhMwACKHSp9sGrd5jPgZwrurw3/vBFhw3MqE6bKd1754GM7BkSYHq0HmWnXwrXV+zTHVgIXKdzAAIoQGTO0p1zH79HHzr29tVh1Xm7O9s03IGAYPOVB5UCCEDACG0YDpNdcgLv78ZluX/e/+9sW3Gdy/UcnjfWB1Bhch1MgAQQrHCwZUHAThcZcy+Bzk47rjgTf1/2ejRO9G3r/JZgCEondBXdVAhcp0MAIRQrMVwv6Y65ulnbIeRASt2DBM45bQdyuOapj1CeVAhcpwMAIRQjEBKBwCmwRhzgpZNBVqceGKD8sEKuRimNqIQQgYAQihGBoVVxjt8UAt6dPfuqN/O6nFACgMHNiuNSURDlQYUQsgAQAjlmAeoDDd0aJPKcJ5QXrPiv1MhhAwAhFCOgf4q4x0+WO3TtBcOH9yiOmQ/1QGFyHUyABBCqahBBKUr1vv1V7+3Xrf+/ZRfTdwXiMrnlRAKyQ+UECqFUQhWd8KmaTB698q8AUBJiaN6IaCFwY1FSiMKkeNkACCESi0tSs/CLSjkjNj+92WGCRSovq8gbcqdAEIoJAMAIRQqyHOVDgDyC4Jz6U97FRSqrT3fThYqDShEjpMBgBAKUYpTKuO5LqkM56m04p2Lhmtm3rsQIQJMBgBCKNSYblJ6Yk9zU+YOAJoa1X68NAI7lQYUIsfJAEAIlVb0bACg7MaepmYDyWTmDQJaWgy0tCj9eHGxrDD4lyEIkUFkACCEUlEXQKOqaOwC69fbqsJ5Zt06G6z24sLEp3+3QghFZAAghHqbVAZb/XFIZThPrP5E8aCF1P6dCiFkACCEeoTlKsPV1mbe7rd4XOlmCBBjmdKAQggZAAihHLPSZrVoUebtflu8SO0AgEFKB1VCCBkACKEeGUoHAGvX2Fi5Mk9lSK0+/CAP69cpfgXAvFRtQCGEDACEUIzh1qqO+crLXVWH1OaVueprZZPrlAcVIsfJAEAIxVL5XRYAUHod3ksvdUUiEfwf18aEgbnqBystqW3pN1QHFSLXBf8TRYhMszDaCOBNlSEbEwaee7abypBa/PuZbuoHKoz5WD2jSW1QIYQMAITQgEBzVMd84vHu2LrFUh1Wma3bTDz1RHflcdlg5X+XQggZAAihhQt+SXXMxkYD997bU3VYZf56Ty806nhNkcaL6oMKIWQAIIQGqdqieQA+UR339Ve7aFlk11nzXuuCmte76Ai9KrW0i7z/F0IDGQAIoUXUJeABHZHvntVL/Ul7nfDxqjzc/ucSLbGJ6H45AlgIPWQAIIQuBv1dR9imJgO/u74f6uv9Xw+wZbOFG/7YB80tmi4sMtL36wkshJABgBCaJJdU1UHxboBdtmw28fvrD/J1EFC/0cZvf3MQNumrYUFy8XQ5AEgITWQAIIRGRBTTFXvtGhu/vqa/L6cEfvRhCL+65iCsW6vvVQQxV2kLLoSA6XcBQmSzdP1pS83eznkAtLwkb2pqPXgnv8DFoEFKzx7aq1de7opYVR80NGj9+Kh16rpcBcxVe6mwEOIzMgAQQqu5bPYa0wDCd3RlSKcJ775TiA8/yMOgwc0o6qJnzdyG9TZumXkgnvhXd6TTmt75f4oIV6Xrb1isNYkQOU7vT7EQAhgbteyNicUAhuhOFcpjnHHGDnz7nK3o0SOtJObWLRae+Fd3/Of5YiSTnnxkxJ3alUcAs9X8Bwgh9kgGAEJ4wCqrPIXAnh1oEwoxjj2uASee1IBhQxthtHOuz00D775XiFdf6Yo35hfBcTz7qGB2cVJqaewVrxIKkatkACCER+zSyIMgfN/rvIVFLsrKmlBa2ox+X3HQt28SxcUuCgpaXxU0NRnYscPA+rU2Vq8OobauAHXxfDQ2+rJG+H6nNnaRH4mFyDUyABDCK6UT+tpkLwVQ7HcpAbXNIZQiHlvvdyFC5ALZBiiEV+pmriPGOL/LCCoCj5fmL4R3ZBeAEB5Kb6qJm71HHwzga37XEjCznNrqG/wuQohcIjMAQnjMaSz6BcDv+V1HgCxxCoom+l2EELlG1gAI4YO8wZWDXZPnAQju/b5eINQbLka31MXe97sUIXKNzAAI4YOWZVXLQO7XAW7wuxYfNXKaz5bmL4Q/ZAAghE+c+PT/MoxzAHhzhm+wOEw4L7W0er7fhQiRq2QRoBA+cuvnfWT1HrUcoLOROz+PSSL6oROPPel3IULkMlkDIEQAWOGKk4npcWT/GQEJJpyfisee87sQIXKdDACECAi7vPIoMD8DRm+/a9FkM5i+6dRVLfC7ECGErAEQIjCcJVVvGYSRAN72uxblGG+ZaT5amr8QwZEr7xyFyAjpjTVb3W4j7jVNuxjAMciOWbpZjlF0fqruhs1+FyKE+J9s+HARIiuFwpHzGLg9g18JbCSmS5N1Vf/yuxAhxO5kBkCIgErX19S5/Y65y0xbhSAchcx5ZeeC+H4nxWenl1Vn3+sMIbKEzAAIkQHs8KSjwcaf0PpaIMgWwHV/6SydvtDvQoQQ+yYDACEyiBWePIbYvR7AyX7X8iXzDOJpLfHqpwGw38UIIfZPBgBCZCArXHmS4fLVTDgTgOVTGQ4Dz8HF9NTS2Cs+1SCE6CAZAAiRycITD7Bhnw/miwGM9ihrLRP9PUXW37Dkhg0e5RRCKCYDACGyRP7QKYemU+mTAZxMhJMY6KMiLoHWMfhlMM8xXcxpXlb9kYq4Qgh/yQBAiCyVF54yMEXpIeRiCDENAmEw4HYDqCuA7gC6fPqlDQC2AbwTRNvg0nImXs4GllpsLm2JT13h33+FEEKX/wfHM6P732HQRQAAAABJRU5ErkJggg==;" vertex="1" parent="1">
          <mxGeometry x="310" y="191" width="30" height="30" as="geometry" />
        </mxCell>
        <mxCell id="Mbg4xQhO2vMqubRtQ9Se-16" value="&lt;font style=&quot;font-size: 6px;&quot;&gt;personal model1&lt;/font&gt;" style="text;html=1;align=center;verticalAlign=middle;resizable=0;points=[];autosize=1;strokeColor=none;fillColor=none;" vertex="1" parent="1">
          <mxGeometry x="130" y="211" width="70" height="30" as="geometry" />
        </mxCell>
        <mxCell id="Mbg4xQhO2vMqubRtQ9Se-18" value="&lt;font style=&quot;font-size: 6px;&quot;&gt;personal model2&lt;/font&gt;" style="text;html=1;align=center;verticalAlign=middle;resizable=0;points=[];autosize=1;strokeColor=none;fillColor=none;" vertex="1" parent="1">
          <mxGeometry x="200" y="211" width="70" height="30" as="geometry" />
        </mxCell>
        <mxCell id="Mbg4xQhO2vMqubRtQ9Se-19" value="&lt;font style=&quot;font-size: 6px;&quot;&gt;personal modelN&lt;/font&gt;" style="text;html=1;align=center;verticalAlign=middle;resizable=0;points=[];autosize=1;strokeColor=none;fillColor=none;" vertex="1" parent="1">
          <mxGeometry x="290" y="211" width="70" height="30" as="geometry" />
        </mxCell>
      </root>
    </mxGraphModel>
  </diagram>
</mxfile>
